<svg width="215" height="143" viewBox="0 0 215 143" fill="none" xmlns="http://www.w3.org/2000/svg">
<path d="M72.6351 58.4565C72.6351 60.4183 72.8477 62.009 73.2197 63.1755C73.6449 64.342 74.1763 65.6145 74.9204 66.9931C75.1861 67.4172 75.2924 67.8414 75.2924 68.2126C75.2924 68.7428 74.9735 69.273 74.2826 69.8032L70.9345 72.0301C70.4561 72.3483 69.9778 72.5073 69.5527 72.5073C69.0212 72.5073 68.4898 72.2422 67.9583 71.765C67.2143 70.9697 66.5765 70.1214 66.0451 69.273C65.5136 68.3716 64.9822 67.3642 64.3976 66.1447C60.2522 71.0227 55.044 73.4617 48.7728 73.4617C44.3086 73.4617 40.7478 72.1892 38.1437 69.6442C35.5396 67.0991 34.2109 63.7057 34.2109 59.464C34.2109 54.9571 35.8053 51.2986 39.0472 48.5414C42.289 45.7843 46.5938 44.4057 52.0678 44.4057C53.8748 44.4057 55.7349 44.5648 57.7012 44.8299C59.6676 45.095 61.6871 45.5192 63.813 45.9964V42.1258C63.813 38.0961 62.9626 35.286 61.3151 33.6423C59.6145 31.9986 56.7446 31.2033 52.6524 31.2033C50.7923 31.2033 48.8791 31.4154 46.9127 31.8926C44.9463 32.3698 43.0331 32.953 41.173 33.6953C40.3227 34.0665 39.6849 34.2786 39.3129 34.3846C38.9409 34.4906 38.6752 34.5437 38.4626 34.5437C37.7185 34.5437 37.3465 34.0135 37.3465 32.9V30.3019C37.3465 29.4536 37.4528 28.8173 37.7185 28.4462C37.9843 28.075 38.4626 27.7038 39.2066 27.3327C41.0667 26.3783 43.2988 25.583 45.9029 24.9467C48.5071 24.2574 51.2706 23.9393 54.1936 23.9393C60.5179 23.9393 65.1416 25.3709 68.1177 28.2341C71.0407 31.0972 72.5288 35.445 72.5288 41.2775V58.4565H72.6351ZM51.0581 66.5159C52.8119 66.5159 54.6188 66.1977 56.532 65.5615C58.4453 64.9252 60.1459 63.7587 61.5809 62.1681C62.4312 61.1607 63.0689 60.0472 63.3878 58.7747C63.7067 57.5021 63.9193 55.9645 63.9193 54.1618V51.9348C62.378 51.5637 60.7305 51.2456 59.0299 51.0335C57.3292 50.8214 55.6817 50.7153 54.0342 50.7153C50.4735 50.7153 47.8693 51.4046 46.1155 52.8362C44.3617 54.2678 43.5114 56.2826 43.5114 58.9337C43.5114 61.4258 44.1491 63.2815 45.4778 64.5541C46.7533 65.8796 48.6134 66.5159 51.0581 66.5159V66.5159ZM93.7339 72.2422C92.7772 72.2422 92.1395 72.0832 91.7143 71.712C91.2892 71.3939 90.9172 70.6516 90.5983 69.6442L78.1091 28.6582C77.7902 27.5978 77.6308 26.9085 77.6308 26.5374C77.6308 25.689 78.0559 25.2118 78.9063 25.2118H84.1145C85.1243 25.2118 85.8152 25.3709 86.1872 25.742C86.6124 26.0602 86.9312 26.8025 87.2501 27.8099L96.1786 62.9104L104.469 27.8099C104.735 26.7495 105.054 26.0602 105.479 25.742C105.904 25.4239 106.648 25.2118 107.605 25.2118H111.856C112.866 25.2118 113.557 25.3709 113.982 25.742C114.407 26.0602 114.779 26.8025 114.992 27.8099L123.389 63.3346L132.583 27.8099C132.902 26.7495 133.274 26.0602 133.646 25.742C134.071 25.4239 134.762 25.2118 135.719 25.2118H140.661C141.512 25.2118 141.99 25.636 141.99 26.5374C141.99 26.8025 141.937 27.0676 141.884 27.3857C141.831 27.7038 141.724 28.128 141.512 28.7113L128.704 69.6972C128.385 70.7576 128.013 71.4469 127.588 71.765C127.162 72.0832 126.471 72.2952 125.568 72.2952H120.997C119.988 72.2952 119.297 72.1362 118.872 71.765C118.446 71.3939 118.074 70.7046 117.862 69.6442L109.624 35.445L101.44 69.5911C101.174 70.6516 100.855 71.3409 100.43 71.712C100.005 72.0832 99.261 72.2422 98.3044 72.2422H93.7339ZM162.026 73.6738C159.262 73.6738 156.499 73.3557 153.841 72.7194C151.184 72.0832 149.111 71.3939 147.73 70.5986C146.879 70.1214 146.295 69.5911 146.082 69.1139C145.87 68.6367 145.763 68.1065 145.763 67.6293V64.9252C145.763 63.8117 146.188 63.2815 146.986 63.2815C147.304 63.2815 147.623 63.3346 147.942 63.4406C148.261 63.5466 148.739 63.7587 149.271 63.9708C151.078 64.7661 153.044 65.4024 155.117 65.8266C157.243 66.2508 159.315 66.4628 161.441 66.4628C164.789 66.4628 167.393 65.8796 169.2 64.7131C171.007 63.5466 171.964 61.8499 171.964 59.676C171.964 58.1914 171.486 56.9719 170.529 55.9645C169.572 54.9571 167.765 54.0557 165.161 53.2074L157.455 50.8214C153.576 49.6019 150.706 47.7991 148.952 45.4132C147.198 43.0802 146.295 40.4821 146.295 37.725C146.295 35.4981 146.773 33.5363 147.73 31.8396C148.686 30.1429 149.962 28.6582 151.556 27.4918C153.15 26.2723 154.957 25.3709 157.083 24.7346C159.209 24.0984 161.441 23.8333 163.78 23.8333C164.949 23.8333 166.171 23.8863 167.34 24.0453C168.563 24.2044 169.679 24.4165 170.795 24.6286C171.858 24.8937 172.867 25.1588 173.824 25.4769C174.781 25.7951 175.525 26.1132 176.056 26.4313C176.8 26.8555 177.332 27.2797 177.651 27.7569C177.969 28.181 178.129 28.7643 178.129 29.5066V31.9986C178.129 33.1121 177.704 33.6953 176.907 33.6953C176.481 33.6953 175.79 33.4832 174.887 33.0591C171.858 31.6805 168.456 30.9912 164.683 30.9912C161.654 30.9912 159.262 31.4684 157.615 32.4758C155.967 33.4832 155.117 35.0209 155.117 37.1948C155.117 38.6794 155.648 39.9519 156.711 40.9593C157.774 41.9667 159.741 42.9742 162.557 43.8755L170.104 46.2615C173.93 47.481 176.694 49.1777 178.341 51.3516C179.989 53.5255 180.786 56.0175 180.786 58.7747C180.786 61.0546 180.308 63.1225 179.404 64.9252C178.448 66.728 177.172 68.3186 175.525 69.5911C173.877 70.9167 171.911 71.8711 169.626 72.5604C167.234 73.3027 164.736 73.6738 162.026 73.6738V73.6738Z" fill="#252F3E"/>
<path fill-rule="evenodd" clip-rule="evenodd" d="M172.07 99.4425C154.585 112.327 129.182 119.167 107.339 119.167C76.7269 119.167 49.1444 107.873 28.3114 89.1032C26.6639 87.6186 28.152 85.6038 30.1184 86.7703C52.652 99.8136 80.4471 107.714 109.199 107.714C128.597 107.714 149.908 103.684 169.519 95.4128C172.442 94.0873 174.94 97.3216 172.07 99.4425V99.4425Z" fill="#FF9900"/>
<path fill-rule="evenodd" clip-rule="evenodd" d="M179.351 91.171C177.119 88.3078 164.577 89.7924 158.89 90.4817C157.19 90.6938 156.924 89.2092 158.465 88.0957C168.456 81.0968 184.878 83.1116 186.792 85.4446C188.705 87.8306 186.26 104.214 176.907 112.062C175.472 113.281 174.09 112.645 174.728 111.054C176.853 105.805 181.583 93.9811 179.351 91.171V91.171Z" fill="#FF9900"/>
</svg>
