<svg width="441" height="553" viewBox="0 0 441 553" fill="none" xmlns="http://www.w3.org/2000/svg">
<path d="M418.229 437.511L417.643 446.465L419.355 446.577L419.941 437.624L418.229 437.511Z" fill="#407BFF"/>
<path d="M425.273 396.477L422.92 430.086L424.636 430.206L426.988 396.597L425.273 396.477Z" fill="#407BFF"/>
<path d="M379.884 552.971H171.112C167.699 553.005 164.316 552.329 161.178 550.984C158.04 549.64 155.216 547.658 152.886 545.163C150.556 542.669 148.771 539.716 147.644 536.494C146.516 533.272 146.072 529.851 146.339 526.448L179.124 26.5734C179.715 19.4466 182.934 12.7939 188.156 7.908C193.378 3.02212 200.23 0.252034 207.38 0.136004H416.151C419.565 0.101758 422.948 0.778234 426.086 2.1224C429.223 3.46657 432.047 5.44901 434.377 7.94365C436.707 10.4383 438.493 13.3905 439.62 16.6126C440.747 19.8347 441.191 23.2561 440.925 26.6592L408.139 526.448C407.569 533.59 404.359 540.263 399.135 545.167C393.911 550.071 387.047 552.853 379.884 552.971Z" fill="#407BFF"/>
<path d="M430.081 167.476H426.478C425.837 167.482 425.202 167.356 424.614 167.104C424.025 166.852 423.495 166.48 423.058 166.012C422.62 165.544 422.285 164.99 422.074 164.385C421.862 163.781 421.779 163.139 421.829 162.5L426.049 98.2168C426.159 96.8781 426.763 95.6281 427.742 94.7089C428.721 93.7897 430.007 93.2668 431.35 93.2416H434.901C435.541 93.2374 436.175 93.3658 436.762 93.6187C437.35 93.8716 437.879 94.2435 438.316 94.7109C438.752 95.1783 439.088 95.7311 439.3 96.3345C439.513 96.9379 439.598 97.5788 439.551 98.2168L435.33 162.5C435.225 163.832 434.63 165.077 433.66 165.996C432.691 166.914 431.416 167.442 430.081 167.476Z" fill="#407BFF"/>
<path d="M172.914 129.492H168.831C168.223 129.499 167.621 129.379 167.063 129.14C166.504 128.901 166.001 128.549 165.587 128.105C165.172 127.661 164.854 127.136 164.654 126.562C164.453 125.989 164.374 125.38 164.422 124.774L166.137 97.9424C166.247 96.6795 166.819 95.5014 167.743 94.634C168.667 93.7665 169.88 93.2708 171.147 93.2417H175.23C175.836 93.2353 176.436 93.3548 176.994 93.5926C177.551 93.8304 178.053 94.1814 178.467 94.6233C178.882 95.0653 179.2 95.5885 179.402 96.1599C179.603 96.7312 179.684 97.3382 179.639 97.9424L177.923 124.774C177.818 126.04 177.248 127.223 176.323 128.094C175.398 128.965 174.184 129.463 172.914 129.492Z" fill="#407BFF"/>
<path d="M169.773 177.409H165.673C165.068 177.415 164.468 177.296 163.911 177.058C163.355 176.82 162.854 176.468 162.441 176.026C162.028 175.584 161.711 175.061 161.512 174.489C161.312 173.918 161.233 173.311 161.281 172.708L162.997 145.876C163.102 144.61 163.672 143.428 164.597 142.557C165.522 141.686 166.736 141.188 168.006 141.158H172.089C172.695 141.154 173.296 141.276 173.852 141.515C174.409 141.755 174.909 142.108 175.322 142.552C175.735 142.995 176.051 143.52 176.251 144.092C176.45 144.664 176.529 145.272 176.481 145.876L174.766 172.708C174.657 173.968 174.087 175.144 173.166 176.011C172.246 176.878 171.038 177.375 169.773 177.409Z" fill="#407BFF"/>
<path d="M375.456 552.971H166.685C163.267 553.012 159.879 552.341 156.735 551C153.591 549.659 150.761 547.678 148.425 545.182C146.09 542.687 144.3 539.732 143.169 536.507C142.039 533.281 141.593 529.855 141.86 526.448L174.663 26.5734C175.254 19.4379 178.481 12.778 183.714 7.89091C188.946 3.00381 195.811 0.239374 202.97 0.136004H411.741C415.155 0.101758 418.538 0.778234 421.676 2.1224C424.814 3.46657 427.637 5.44901 429.967 7.94365C432.297 10.4383 434.083 13.3905 435.21 16.6126C436.337 19.8347 436.781 23.2561 436.515 26.6592L403.712 526.448C403.142 533.59 399.932 540.263 394.708 545.167C389.484 550.071 382.62 552.853 375.456 552.971Z" fill="#407BFF"/>
<path opacity="0.6" d="M375.456 552.971H166.685C163.267 553.012 159.879 552.341 156.735 551C153.591 549.659 150.761 547.678 148.425 545.182C146.09 542.687 144.3 539.732 143.169 536.507C142.039 533.281 141.593 529.855 141.86 526.448L174.663 26.5734C175.254 19.4379 178.481 12.778 183.714 7.89091C188.946 3.00381 195.811 0.239374 202.97 0.136004H411.741C415.155 0.101758 418.538 0.778234 421.676 2.1224C424.814 3.46657 427.637 5.44901 429.967 7.94365C432.297 10.4383 434.083 13.3905 435.21 16.6126C436.337 19.8347 436.781 23.2561 436.515 26.6592L403.712 526.448C403.142 533.59 399.932 540.263 394.708 545.167C389.484 550.071 382.62 552.853 375.456 552.971Z" fill="white"/>
<path d="M396.37 522.759H150.439C149.706 522.761 148.982 522.612 148.31 522.321C147.638 522.031 147.033 521.606 146.532 521.071C146.032 520.537 145.647 519.905 145.401 519.216C145.155 518.526 145.054 517.794 145.103 517.063L176.653 36.1636C176.744 34.8087 177.345 33.5386 178.335 32.6091C179.325 31.6796 180.63 31.1597 181.988 31.1541H427.92C428.653 31.1549 429.379 31.306 430.052 31.5981C430.725 31.8902 431.33 32.3171 431.832 32.8524C432.334 33.3877 432.72 34.0201 432.968 34.7106C433.216 35.401 433.319 36.1349 433.272 36.867L401.722 517.767C401.631 519.123 401.027 520.394 400.033 521.321C399.039 522.248 397.729 522.762 396.37 522.759Z" fill="white"/>
<g opacity="0.1">
<path d="M277.392 487.761C278.13 491.741 276.894 499.255 280 509.309C281.715 514.627 289.367 515.022 293.553 508.434C297.739 501.846 294.857 493.302 293.69 485.136C292.849 479.2 296.384 475.683 296.401 472.183C293.752 472.807 290.978 472.64 288.423 471.703C286.13 470.877 284.062 469.526 282.384 467.757C280.526 468.469 278.725 469.324 276.997 470.313C275.282 470.159 273.738 471.205 273.995 472.441C275.007 477.57 276.122 481.293 277.392 487.761Z" fill="#407BFF"/>
<path d="M288.354 471.703C290.909 472.64 293.683 472.807 296.332 472.183C298.311 471.728 300.143 470.783 301.66 469.434C303.177 468.084 304.33 466.375 305.013 464.463C312.339 443.876 323.885 406.922 338.21 376.967C340.877 376.369 343.361 375.137 345.452 373.375C347.542 371.613 349.177 369.373 350.219 366.845C351.417 364.075 351.946 361.061 351.764 358.048C351.582 355.035 350.695 352.107 349.172 349.501C358.66 322.48 370.926 281.975 379.641 252.415C380.053 255.657 380.482 259.037 380.911 262.503C380.911 262.88 380.997 263.258 381.048 263.635C381.271 265.505 381.511 267.375 381.735 269.296C381.735 269.537 381.735 269.794 381.735 270.051C381.975 272.024 382.215 274.032 382.455 276.056C384.394 292.629 386.298 310.557 387.722 327.524C388.786 340.339 390.57 352.726 391.788 363.551C389.418 366.279 387.923 369.656 387.499 373.245C387.098 376.325 387.398 379.456 388.379 382.403C389.359 385.35 390.994 388.037 393.16 390.263C393.881 428.624 397.741 481.104 399.645 505.209C399.845 507.563 400.648 509.826 401.979 511.779L420.816 226.595C419.462 224.778 417.889 223.136 416.132 221.706C416.635 218.835 416.75 215.909 416.475 213.008C416.266 210.84 415.852 208.698 415.24 206.608C418.194 204.88 420.708 202.49 422.583 199.626L429.171 99.2291C427.834 96.1852 425.873 93.4561 423.414 91.2188C420.955 88.9815 418.053 87.286 414.897 86.242C413.422 85.7445 411.86 85.2641 410.265 84.8009C408.995 84.4235 407.692 84.0803 406.371 83.7372C397.535 80.1688 396.077 74.3357 396.986 68.2968C397.106 67.5248 397.261 66.7699 397.449 65.9979L397.655 65.243C401.836 65.9742 406.14 65.1703 409.775 62.9794C413.41 60.7884 416.13 57.3579 417.436 53.3196C419.649 46.0992 420.137 38.4601 418.86 31.0168H370.309C370.7 34.8322 371.949 38.5096 373.963 41.7736C371.95 43.4575 370.496 45.713 369.794 48.2415C368.744 52.0569 369.244 56.1324 371.184 59.5816C373.014 62.9552 375.945 65.6008 379.487 67.0788C378.561 71.9854 376.845 76.1543 373.86 78.3159C371.801 78.0929 369.708 77.9042 367.667 77.7498C365.951 77.6469 364.373 77.5439 362.794 77.4753C360.566 77.3303 358.34 77.7835 356.347 78.788C354.353 79.7925 352.664 81.3116 351.454 83.1882C350.547 83.5119 349.696 83.9749 348.932 84.5607C346.805 86.2763 344.969 87.7346 343.099 89.4158C341.229 91.0971 339.411 92.7098 337.609 94.4082C334.041 97.8394 330.575 101.356 327.316 105.079C321.504 111.473 316.333 118.42 311.875 125.821C309.508 126.336 306.831 129.698 305.373 134.399C303.812 139.323 304.104 144.075 305.922 145.962C305.922 146.631 305.922 147.317 305.836 147.986C305.746 153.273 305.969 158.561 306.505 163.821C307.445 173.1 308.981 182.309 311.103 191.391C310.163 192.559 309.643 194.009 309.628 195.509C309.649 198.464 310.047 201.404 310.812 204.258L312.527 215.169L327.642 215.633L329.031 203.984L323.713 193.536C323.384 192.913 322.975 192.336 322.495 191.82C322.495 182.83 322.495 173.755 322.907 164.971C323.095 160.219 323.473 155.535 324.056 151.126C324.314 149.056 324.703 147.004 325.223 144.984C325.48 144.075 325.755 143.269 326.029 142.531C326.166 142.188 326.303 141.93 326.441 141.639L326.612 141.381L326.698 141.244L326.904 140.935C329.301 137.313 331.895 133.825 334.676 130.487C337.558 127.056 340.577 123.779 343.717 120.537C346.004 118.249 348.292 115.962 350.579 113.674C350.579 114.206 350.579 114.755 350.579 115.39C350.579 116.231 350.579 117.106 350.579 117.895C350.579 120.211 350.579 122.51 350.579 124.757V125.255C350.579 127.468 350.493 129.664 350.408 131.825C350.133 140.403 349.601 148.656 348.949 156.187C348.383 162.809 347.731 168.934 347.097 174.424C346.387 181.454 348.463 188.482 352.878 193.999C350.124 198.746 348.679 204.14 348.692 209.628C345.859 211.045 343.392 213.096 341.482 215.623C339.571 218.149 338.27 221.082 337.678 224.193C332.154 252.312 321.843 301.67 311.309 337.131C307.827 339.029 305.093 342.054 303.555 345.709C302.544 348.064 302.011 350.596 301.988 353.158C301.964 355.721 302.45 358.262 303.417 360.635C291.992 389.8 283.293 433.617 278.438 454.53C277.947 456.899 278.05 459.354 278.738 461.674C279.427 463.994 280.679 466.108 282.384 467.826C284.049 469.561 286.092 470.888 288.354 471.703ZM374.975 46.2342C375.02 45.9276 375.083 45.624 375.164 45.3249C376.155 47.67 377.992 49.5563 380.311 50.609C380.465 53.6493 380.465 56.6956 380.311 59.736C378.339 58.1272 376.813 56.0395 375.879 53.6725C374.945 51.3056 374.634 48.7387 374.975 46.2171V46.2342ZM372.161 59.2728C370.373 56.083 369.911 52.318 370.875 48.7905C371.471 46.6315 372.66 44.6823 374.306 43.1633C374.306 43.3005 374.392 43.4378 374.426 43.575C374.154 44.35 373.953 45.1482 373.826 45.9597C373.448 48.8141 373.841 51.7175 374.963 54.369C376.085 57.0205 377.896 59.3237 380.208 61.0398C380.093 62.7897 379.905 64.5053 379.641 66.1866C376.44 64.7832 373.804 62.3414 372.161 59.2556V59.2728Z" fill="#407BFF"/>
</g>
<path opacity="0.2" d="M281.373 12.3167H331.709C332.129 12.3134 332.546 12.3969 332.932 12.5621C333.319 12.7272 333.667 12.9704 333.956 13.2764C334.244 13.5824 334.466 13.9446 334.608 14.3404C334.749 14.7362 334.808 15.1569 334.78 15.5764C334.709 16.4482 334.32 17.2635 333.688 17.8676C333.055 18.4717 332.223 18.8224 331.348 18.8532H280.944C280.523 18.8569 280.105 18.7729 279.718 18.6066C279.331 18.4402 278.983 18.1951 278.696 17.887C278.409 17.5788 278.189 17.2142 278.05 16.8164C277.911 16.4186 277.857 15.9963 277.89 15.5764C277.963 14.6977 278.359 13.8773 279.003 13.2748C279.647 12.6723 280.491 12.3308 281.373 12.3167Z" fill="#407BFF"/>
<path d="M81.0796 102.094C80.1188 113.023 78.6949 123.642 76.8249 134.416C75.8641 139.786 74.8348 145.156 73.5138 150.577C72.2358 156.212 70.5794 161.755 68.5557 167.167C67.9724 168.625 67.3376 170.101 66.5484 171.679C65.6956 173.415 64.6665 175.06 63.4775 176.586C61.5582 179.021 59.4654 181.314 57.2156 183.448C53.0638 187.428 48.8434 190.911 44.5716 194.325C36.0417 200.989 27.153 207.18 17.9455 212.871C16.8276 213.573 15.4904 213.841 14.1881 213.623C12.8857 213.405 11.7089 212.716 10.8811 211.687C10.0534 210.658 9.63239 209.361 9.69808 208.042C9.76378 206.723 10.3116 205.474 11.2375 204.533C18.6146 196.967 26.1289 189.435 33.3516 181.938C36.9543 178.198 40.5228 174.407 43.6452 170.667C45.1082 168.969 46.4716 167.187 47.7283 165.331C48.1188 164.708 48.4463 164.047 48.7062 163.358C49.0493 162.535 49.3924 161.54 49.7184 160.493C51.0826 155.823 52.188 151.08 53.0295 146.288C53.9216 141.279 54.7451 136.183 55.4828 131.054C56.9582 120.76 58.2621 110.312 59.463 100.07V99.9326C59.8204 97.1346 61.2576 94.5872 63.4675 92.8343C65.6775 91.0814 68.4851 90.2619 71.2911 90.5508C74.097 90.8396 76.6788 92.214 78.4852 94.3804C80.2917 96.5468 81.1796 99.3336 80.9595 102.146L81.0796 102.094Z" fill="#263238"/>
<path d="M67.7145 173.206C65.3126 178.902 61.3153 182.642 58.7762 181.561C56.2371 180.48 56.117 175.024 58.5189 169.329C60.9207 163.633 64.9181 159.91 67.4571 160.974C69.9962 162.037 70.1163 167.527 67.7145 173.206Z" fill="#407BFF"/>
<path d="M10.4134 204.55L5.2666 207.981L13.3814 222.392C15.578 219.169 17.5389 215.792 19.2487 212.287C19.6835 211.384 19.8904 210.387 19.8516 209.386C19.8127 208.384 19.5291 207.407 19.0257 206.54C18.6064 205.827 18.0462 205.207 17.3794 204.717C16.7126 204.228 15.9532 203.88 15.1473 203.693C14.3415 203.507 13.5061 203.487 12.6922 203.634C11.8784 203.782 11.103 204.093 10.4134 204.55Z" fill="#407BFF"/>
<path d="M0 217.022L7.89177 228.637L13.416 222.392L5.3012 207.981L0 217.022Z" fill="#407BFF"/>
<path d="M258.986 480.504L266.381 464.772C266.499 464.516 266.702 464.309 266.954 464.184C267.207 464.059 267.495 464.024 267.77 464.086L280.449 466.934C280.756 467.005 281.044 467.144 281.291 467.342C281.537 467.54 281.735 467.791 281.871 468.077C282.006 468.363 282.075 468.675 282.072 468.991C282.07 469.307 281.995 469.618 281.855 469.902C279.385 474.911 277.36 478.48 274.358 484.862C272.522 488.773 269.606 498.587 264.065 508.194C261.131 513.341 256.241 509.721 257.202 507.388C261.731 495.876 260.222 487.504 258.918 482.975C258.633 482.171 258.657 481.29 258.986 480.504Z" fill="#263238"/>
<path d="M108.425 529.416L124.003 529.536C124.287 529.537 124.562 529.634 124.783 529.812C125.005 529.989 125.159 530.237 125.221 530.514L127.932 543.209C128 543.516 127.996 543.835 127.923 544.141C127.849 544.447 127.707 544.732 127.507 544.975C127.307 545.218 127.055 545.412 126.769 545.543C126.483 545.674 126.17 545.738 125.856 545.731C120.246 545.594 112.131 545.199 105.063 545.148C96.8108 545.148 89.6225 545.474 79.9808 545.405C74.1306 545.405 72.5522 539.435 75.0056 538.903C86.1913 536.553 95.3011 536.364 104.994 530.497C106.014 529.822 107.203 529.448 108.425 529.416Z" fill="#263238"/>
<path d="M109.455 373.176C111.72 383.161 106.419 392.871 97.6348 394.861C88.851 396.851 79.8784 390.366 77.6138 380.382C75.3492 370.397 80.6504 360.686 89.4343 358.696C98.2181 356.706 107.191 363.174 109.455 373.176Z" fill="#263238"/>
<path d="M113.521 518.247C115.23 518.261 116.924 517.933 118.503 517.282C120.082 516.631 121.516 515.671 122.718 514.457C123.92 513.244 124.868 511.802 125.504 510.216C126.14 508.631 126.453 506.934 126.423 505.226C125.994 479.097 124.707 419.686 121.104 381.017C119.869 367.549 121.585 348.111 121.31 327.559C120.984 301.653 121.585 273.414 122.305 251.249C122.425 247.543 122.546 243.992 122.666 240.646C122.79 237.097 122.126 233.564 120.721 230.302C119.317 227.04 117.206 224.13 114.541 221.782C111.876 219.434 108.724 217.706 105.311 216.723C101.898 215.74 98.3098 215.526 94.8043 216.096C89.1335 217.032 83.9861 219.969 80.2968 224.377C76.6075 228.784 74.6208 234.367 74.6975 240.114C75.2979 276.622 77.1507 351.628 82.5034 383.487C88.4051 418.623 97.3777 481.842 100.929 507.182C101.349 510.231 102.853 513.027 105.165 515.059C107.477 517.091 110.443 518.223 113.521 518.247Z" fill="#407BFF"/>
<path d="M125.907 373.176C128.171 383.161 122.87 392.871 114.069 394.861C105.268 396.851 96.3128 390.366 94.0654 380.382C91.8179 370.397 97.0848 360.686 105.834 358.696C114.584 356.706 123.642 363.174 125.907 373.176Z" fill="#263238"/>
<path opacity="0.2" d="M103.811 216.302C101.495 230.181 110.913 255.503 121.636 276.09C121.824 267.306 122.047 258.934 122.305 251.231C122.408 247.525 122.545 243.957 122.665 240.629C122.868 235.008 121.092 229.494 117.646 225.048C114.201 220.603 109.304 217.507 103.811 216.302Z" fill="black"/>
<path d="M128.581 244.225C145.833 237.026 153.983 217.204 146.784 199.951C139.585 182.699 119.763 174.549 102.511 181.748C85.2583 188.948 77.1085 208.77 84.3077 226.022C91.5068 243.274 111.329 251.424 128.581 244.225Z" fill="#263238"/>
<path d="M191.615 351.593C196.401 360.635 193.828 371.391 185.85 375.612C177.873 379.832 167.545 375.904 162.758 366.845C157.972 357.787 160.545 347.047 168.523 342.827C176.5 338.606 186.742 342.535 191.615 351.593Z" fill="#263238"/>
<path d="M133.13 208.015C129.925 208.851 126.933 210.355 124.35 212.428C121.767 214.501 119.651 217.097 118.141 220.045C116.631 222.994 115.762 226.228 115.589 229.535C115.417 232.843 115.946 236.15 117.141 239.239C131.055 275.13 156.823 340.46 170.205 366.846C185.937 397.829 220.06 442.658 235.603 462.473C237.747 465.233 240.862 467.072 244.315 467.614C247.768 468.156 251.297 467.36 254.183 465.39C257.157 463.401 259.238 460.331 259.981 456.831C260.725 453.332 260.072 449.681 258.163 446.655C246.463 427.784 222.925 389.2 208.72 360.035C192.627 326.958 171.869 259.106 161.627 224.142C159.906 218.276 155.969 213.311 150.649 210.3C145.328 207.289 139.045 206.47 133.13 208.015Z" fill="#407BFF"/>
<path d="M201.63 369.709C209.604 365.492 212.186 354.734 207.398 345.679C202.61 336.625 192.265 332.703 184.291 336.92C176.317 341.136 173.734 351.895 178.522 360.949C183.31 370.003 193.656 373.925 201.63 369.709Z" fill="#263238"/>
<path d="M122.391 77.6126C124.264 77.5271 126.136 77.8208 127.893 78.476C129.65 79.1313 131.257 80.1346 132.617 81.4258C133.977 82.7171 135.063 84.2696 135.808 85.9905C136.554 87.7113 136.944 89.565 136.956 91.4404C137.093 103.038 137.934 114.447 139.135 125.255C140.336 136.063 142 146.786 143.716 156.136C144.917 162.758 146.169 168.883 147.336 174.372C148.059 177.76 148.086 181.26 147.416 184.658C146.745 188.057 145.391 191.284 143.435 194.143C141.479 197.002 138.963 199.434 136.038 201.291C133.113 203.148 129.842 204.391 126.422 204.944L98.8527 209.439C92.7632 210.434 86.5196 209.195 81.2709 205.951C76.0223 202.707 72.122 197.677 70.288 191.786C57.6268 150.955 56.3058 121.086 56.9921 104.925C57.1761 100.739 58.6237 96.707 61.144 93.3598C63.6644 90.0126 67.1394 87.5072 71.1114 86.1735C72.5525 85.6759 74.0623 85.1956 75.6063 84.7324C76.8416 84.3549 78.1111 84.0118 79.3978 83.6687C89.96 81.3058 100.648 79.5473 111.411 78.4018C113.452 78.1788 115.511 77.99 117.536 77.8356C119.2 77.7842 120.812 77.6813 122.391 77.6126Z" fill="#407BFF"/>
<path d="M121.567 209.096C121.46 209.098 121.356 209.06 121.274 208.991C121.192 208.921 121.138 208.825 121.121 208.719C121.102 208.598 121.13 208.475 121.201 208.375C121.271 208.276 121.379 208.208 121.499 208.187C124.855 207.649 128.066 206.435 130.939 204.619C133.811 202.802 136.285 200.422 138.21 197.621C140.135 194.82 141.471 191.657 142.138 188.324C142.804 184.992 142.786 181.558 142.086 178.233C140.696 171.713 139.513 165.743 138.466 159.979C136.493 149.085 135.035 138.963 133.885 128.995C132.564 117.123 131.827 105.731 131.707 95.129C131.707 95.009 131.753 94.8937 131.836 94.8073C131.919 94.7209 132.033 94.6702 132.153 94.6658C132.274 94.67 132.39 94.7202 132.476 94.8062C132.562 94.8921 132.612 95.0075 132.616 95.129C132.736 105.697 133.474 117.054 134.778 128.892C135.893 138.842 137.385 148.947 139.358 159.773C140.405 165.537 141.589 171.507 142.978 178.01C143.706 181.45 143.728 185.003 143.044 188.452C142.359 191.902 140.981 195.176 138.994 198.078C137.007 200.979 134.451 203.447 131.482 205.332C128.514 207.217 125.193 208.48 121.722 209.045L121.567 209.096Z" fill="#263238"/>
<path opacity="0.2" d="M123.162 101.923C125.727 113.315 131.557 123.713 139.941 131.843C139.632 129.681 139.375 127.485 139.134 125.272C138.208 116.951 137.505 108.288 137.196 99.4351L123.162 101.923Z" fill="black"/>
<path d="M98.8191 68.4683C95.3527 68.4619 91.9977 67.2437 89.3348 65.0245C86.6719 62.8054 84.8689 59.725 84.2377 56.3166C83.6065 52.9082 84.1869 49.3863 85.8786 46.3608C87.5702 43.3352 90.2665 40.9964 93.5007 39.7492C95.5322 38.9804 97.7078 38.6669 99.8737 38.831C102.04 38.995 104.143 39.6325 106.036 40.6985C107.928 41.7645 109.564 43.233 110.827 45.0002C112.09 46.7675 112.949 48.7905 113.345 50.9263C113.74 53.0622 113.662 55.2588 113.116 57.3611C112.57 59.4634 111.568 61.4202 110.183 63.0932C108.798 64.7662 107.062 66.1147 105.098 67.0435C103.135 67.9723 100.991 68.4586 98.8191 68.4683ZM93.8267 40.7957C91.2831 41.7503 89.0801 43.4383 87.4967 45.6459C85.9132 47.8535 85.0206 50.4814 84.9318 53.1967C84.843 55.912 85.562 58.5926 86.9978 60.8989C88.4337 63.2053 90.5217 65.0336 92.9974 66.1523C95.4731 67.2711 98.2251 67.63 100.905 67.1835C103.585 66.737 106.072 65.5052 108.051 63.6442C110.03 61.7831 111.413 59.3765 112.023 56.7292C112.634 54.082 112.445 51.313 111.48 48.7732C110.191 45.3788 107.61 42.6334 104.301 41.1383C100.992 39.6431 97.226 39.5199 93.8267 40.7957Z" fill="#407BFF"/>
<path d="M93.964 64.4022C91.2964 64.4049 88.6793 63.675 86.3982 62.292C83.8879 60.7799 81.8808 58.5592 80.6295 55.9093C79.3782 53.2593 78.9385 50.2985 79.3658 47.3993C79.7931 44.5001 81.0682 41.7919 83.0308 39.6156C84.9934 37.4393 87.5557 35.892 90.3955 35.1684C92.4454 34.615 94.5902 34.508 96.685 34.8545C98.7799 35.201 100.776 35.993 102.538 37.177C104.301 38.361 105.789 39.9094 106.902 41.7177C108.015 43.526 108.726 45.5521 108.989 47.6591C109.252 49.766 109.059 51.9048 108.425 53.9311C107.79 55.9573 106.728 57.8237 105.31 59.4043C103.893 60.9849 102.152 62.2429 100.207 63.0933C98.261 63.9437 96.1556 64.3666 94.0326 64.3336L93.964 64.4022ZM90.5328 36.2492C87.9107 36.9294 85.5485 38.3702 83.7438 40.3903C81.939 42.4104 80.7724 44.9193 80.3908 47.6012C80.0093 50.283 80.4299 53.0178 81.5996 55.4611C82.7694 57.9044 84.636 59.9469 86.9643 61.3313C88.5009 62.2587 90.2059 62.8724 91.981 63.1372C93.7561 63.4019 95.566 63.3124 97.3063 62.8737C99.0466 62.435 100.683 61.656 102.12 60.5815C103.558 59.5069 104.768 58.1583 105.682 56.6134C106.614 55.0646 107.232 53.3467 107.498 51.5586C107.765 49.7704 107.676 47.9472 107.236 46.1936C106.796 44.44 106.014 42.7906 104.934 41.3402C103.855 39.8898 102.5 38.6669 100.946 37.7418C99.4178 36.817 97.7211 36.2044 95.9542 35.9394C94.1874 35.6744 92.3855 35.7622 90.6529 36.1978L90.5328 36.2492Z" fill="#263238"/>
<path d="M93.8262 43.455C90.2475 43.4318 86.7992 42.1085 84.1235 39.7317C81.4479 37.3549 79.7274 34.0866 79.2825 30.5355C78.8375 26.9844 79.6985 23.3926 81.705 20.4292C83.7115 17.4657 86.7268 15.3326 90.1892 14.4271C93.0123 13.7327 95.9776 13.8877 98.7129 14.8729C101.448 15.858 103.831 17.6293 105.563 19.9643C107.295 22.2993 108.299 25.094 108.448 27.9974C108.597 30.9009 107.885 33.7837 106.402 36.2838C105.42 37.9449 104.118 39.3947 102.572 40.5491C101.026 41.7035 99.2663 42.5396 97.3947 43.009C96.2271 43.2987 95.0292 43.4484 93.8262 43.455ZM90.395 15.302C86.8369 16.2121 83.786 18.4983 81.9135 21.6577C80.041 24.8172 79.5002 28.5911 80.4102 32.1492C81.3203 35.7074 83.6065 38.7583 86.7659 40.6308C89.9254 42.5033 93.6993 43.044 97.2574 42.134C99.0132 41.6952 100.664 40.9108 102.113 39.8268C103.562 38.7428 104.781 37.3809 105.698 35.8206C107.114 33.4745 107.802 30.761 107.674 28.0238C107.547 25.2866 106.61 22.6488 104.982 20.4443C103.354 18.2399 101.109 16.568 98.531 15.6404C95.9526 14.7128 93.1569 14.5712 90.498 15.2334L90.395 15.302Z" fill="#263238"/>
<path d="M86.963 38.96C83.3842 38.9367 79.9359 37.6135 77.2603 35.2366C74.5846 32.8598 72.8641 29.5915 72.4192 26.0404C71.9743 22.4893 72.8352 18.8976 74.8417 15.9341C76.8482 12.9707 79.8635 10.8375 83.3259 9.93204C87.1161 8.97653 91.1306 9.56581 94.4863 11.5702C97.8421 13.5747 100.264 16.83 101.22 20.6202C102.175 24.4104 101.586 28.425 99.5814 31.7807C97.577 35.1364 94.3216 37.5584 90.5314 38.5139C89.3638 38.8036 88.1659 38.9534 86.963 38.96ZM83.5318 10.807C81.7711 11.2576 80.1164 12.0506 78.6622 13.1406C77.2079 14.2307 75.9827 15.5965 75.0563 17.1602C73.1854 20.318 72.6455 24.0897 73.5555 27.6456C74.4656 31.2015 76.7509 34.2502 79.9087 36.1211C83.0666 37.992 86.8383 38.5318 90.3942 37.6218C92.1496 37.1877 93.8006 36.407 95.2502 35.3258C96.6997 34.2446 97.9185 32.8845 98.8349 31.3256C100.251 28.9794 100.938 26.2659 100.811 23.5287C100.683 20.7915 99.7464 18.1537 98.1188 15.9493C96.4912 13.7449 94.2461 12.073 91.6677 11.1454C89.0893 10.2178 86.2936 10.0761 83.6347 10.7384L83.5318 10.807Z" fill="#263238"/>
<path opacity="0.7" d="M95.6456 52.7255C107.521 48.2073 113.469 34.8745 108.931 22.9459C104.392 11.0172 91.086 5.00987 79.2105 9.52806C67.335 14.0463 61.3871 27.3791 65.9255 39.3077C70.4639 51.2363 83.7701 57.2437 95.6456 52.7255Z" fill="#407BFF"/>
<path d="M102.403 43.0261C102.077 53.6628 103.158 72.8604 111.496 78.539C107.104 84.8524 86.9114 98.1998 86.9114 98.1998C86.9114 98.1998 78.076 87.5631 79.4828 83.8059C90.5141 79.1738 88.8157 70.6988 85.5046 63.03L102.403 43.0261Z" fill="#263238"/>
<path opacity="0.2" d="M95.4213 51.1064L85.4365 62.9441C86.2341 64.7211 86.877 66.5637 87.358 68.4512C91.6298 67.0958 96.8624 61.2971 96.5708 56.6307C96.5302 54.7343 96.1405 52.8616 95.4213 51.1064Z" fill="black"/>
<path d="M100.998 27.2424C102.422 41.3275 103.983 49.5452 98.1157 57.8144C89.2975 70.3211 71.0264 66.7698 65.4164 53.3881C60.3725 41.3789 58.8628 20.3457 71.6097 12.5568C74.4087 10.8227 77.6049 9.83358 80.8941 9.68342C84.1834 9.53325 87.4564 10.2271 90.4018 11.6989C93.3472 13.1708 95.867 15.3717 97.7217 18.0923C99.5764 20.8129 100.704 23.9628 100.998 27.2424Z" fill="#407BFF"/>
<path d="M136.939 84.6977C139.221 86.4133 141.194 87.8716 143.235 89.5529C145.277 91.2342 147.232 92.8469 149.205 94.5453C153.1 97.9765 156.908 101.493 160.563 105.216C168.158 112.735 174.891 121.079 180.635 130.093L180.944 130.556L181.321 131.225L182.059 132.58C182.437 133.404 182.848 134.296 183.14 135.068C183.72 136.562 184.201 138.092 184.581 139.648C185.256 142.423 185.76 145.236 186.091 148.072C186.686 153.329 186.973 158.616 186.949 163.907C186.901 174.159 186.11 184.393 184.581 194.53C184.384 195.83 183.719 197.012 182.711 197.855C181.703 198.698 180.422 199.143 179.108 199.107C177.795 199.071 176.539 198.557 175.579 197.66C174.618 196.763 174.019 195.547 173.893 194.239V194.102C173.001 184.374 172.006 174.509 170.702 164.936C170.05 160.184 169.226 155.501 168.231 151.091C167.785 149.011 167.212 146.96 166.516 144.95C166.173 144.04 165.83 143.234 165.486 142.496C165.315 142.153 165.143 141.896 164.989 141.604C164.91 141.527 164.841 141.441 164.783 141.347L164.68 141.21L164.457 140.901C161.729 137.384 158.71 133.953 155.587 130.521C152.465 127.09 149.051 123.813 145.603 120.571C142.154 117.328 138.586 114.172 134.949 111.067C133.147 109.488 131.312 107.961 129.476 106.452L124.038 102.06L123.78 101.854C121.505 100.109 120.016 97.5316 119.642 94.689C119.267 91.8465 120.037 88.9715 121.781 86.6964C123.526 84.4214 126.104 82.9327 128.946 82.5579C131.789 82.1831 134.664 82.9528 136.939 84.6977Z" fill="#263238"/>
<path d="M184.912 146.707C187.461 145.657 187.623 140.182 185.273 134.479C182.924 128.775 178.953 125.003 176.403 126.054C173.854 127.104 173.692 132.579 176.041 138.282C178.391 143.985 182.362 147.757 184.912 146.707Z" fill="#407BFF"/>
<path d="M172.606 193.621L168.3 204.069L186.468 204.292C186.963 201.403 187.079 198.462 186.811 195.543C186.697 194.558 186.387 193.605 185.899 192.742C185.412 191.878 184.756 191.121 183.971 190.515C183.186 189.909 182.287 189.466 181.328 189.213C180.369 188.96 179.369 188.901 178.388 189.041C177.108 189.235 175.902 189.759 174.888 190.563C173.874 191.366 173.087 192.421 172.606 193.621Z" fill="#407BFF"/>
<path d="M170.805 215.718L185.868 215.255L186.519 204.344L168.3 204.069L170.805 215.718Z" fill="#407BFF"/>
<path d="M102.284 31.3085C105.921 31.7031 108.357 36.4553 107.757 41.8423C107.156 47.2293 103.725 51.3295 100.088 50.9178C96.451 50.5061 94.032 45.771 94.6324 40.3669C95.2329 34.9627 98.6641 30.8968 102.284 31.3085Z" fill="#263238"/>
<path opacity="0.7" d="M78.2665 35.0828L78.6268 32.6124C78.6774 32.1939 78.8802 31.8087 79.1966 31.5303C79.513 31.2518 79.9209 31.0996 80.3424 31.1026L86.5014 30.6909C86.8141 30.6527 87.1314 30.7013 87.4183 30.8315C87.7052 30.9617 87.9508 31.1683 88.128 31.4289C88.3052 31.6894 88.4073 31.9937 88.423 32.3084C88.4387 32.623 88.3674 32.936 88.217 33.2128L87.5307 34.6711C87.423 34.9148 87.2598 35.1301 87.0544 35.2999C86.8489 35.4696 86.6067 35.5891 86.347 35.649L80.514 37.0558C80.2268 37.1567 79.9179 37.1794 79.619 37.1215C79.3201 37.0637 79.042 36.9273 78.8133 36.7265C78.5845 36.5257 78.4133 36.2676 78.3172 35.9788C78.2211 35.6899 78.2036 35.3807 78.2665 35.0828Z" fill="#263238"/>
<g opacity="0.7">
<path d="M68.8468 36.0436L67.8517 31.8746C67.8154 31.7211 67.7308 31.5833 67.6104 31.4814C67.4899 31.3795 67.34 31.3189 67.1826 31.3085L64.2489 31.1198C64.1287 31.1112 64.0082 31.1323 63.8979 31.1811C63.7877 31.2299 63.6911 31.3051 63.6166 31.3999C63.5421 31.4947 63.492 31.6063 63.4706 31.7249C63.4493 31.8436 63.4574 31.9657 63.4941 32.0805L64.472 34.997C64.4993 35.092 64.5474 35.1796 64.6126 35.2538C64.6779 35.328 64.7587 35.3867 64.8494 35.4259L67.8003 36.867C67.9252 36.9288 68.065 36.9539 68.2036 36.9394C68.3422 36.925 68.4738 36.8716 68.5833 36.7854C68.6928 36.6993 68.7756 36.5839 68.8223 36.4526C68.8689 36.3213 68.8774 36.1795 68.8468 36.0436Z" fill="#263238"/>
</g>
</svg>
