<svg width="60" height="60" viewBox="0 0 60 60" fill="none" xmlns="http://www.w3.org/2000/svg">
<path d="M58.3669 36.5444C58.3106 36.5444 58.3106 36.5444 58.3669 36.5444H58.3106C58.2543 36.5444 58.198 36.5444 58.198 36.4865C58.0854 36.4865 57.9728 36.4286 57.8601 36.4286C57.466 36.3707 57.1281 36.3127 56.7902 36.3127C56.6213 36.3127 56.4523 36.3127 56.2271 36.2548H56.1708C54.9882 36.139 54.0309 36.0232 53.1299 35.7336C52.7357 35.5599 52.6231 35.3282 52.5105 35.0965C52.5105 35.0386 52.4542 35.0386 52.4542 34.9807L51.7221 34.749C52.06 32.0849 51.9474 29.305 51.3279 26.583C50.7085 23.861 49.6386 21.3127 48.1745 18.9961L48.7376 18.4749V18.3591C48.7376 18.0695 48.7939 17.7799 49.0191 17.4903C49.6949 16.8533 50.5396 16.332 51.5532 15.695C51.7221 15.5792 51.8911 15.5212 52.06 15.4054C52.3979 15.2317 52.6794 15.0579 53.0173 14.8263C53.0736 14.7683 53.1862 14.7104 53.2989 14.5946C53.3552 14.5367 53.4115 14.5367 53.4115 14.4788C54.1999 13.7838 54.3688 12.6255 53.8057 11.8726C53.5241 11.4672 53.0173 11.2355 52.5105 11.2355C52.06 11.2355 51.6658 11.4093 51.2716 11.6988C51.2153 11.7568 51.2153 11.7568 51.159 11.8147C51.0464 11.8726 50.9901 11.9884 50.8774 12.0463C50.5959 12.3359 50.3706 12.5676 50.1454 12.8571C50.0328 12.973 49.9201 13.1467 49.7512 13.2626C48.9628 14.1313 48.2308 14.8263 47.4987 15.3475C47.3298 15.4633 47.1608 15.5212 46.9919 15.5212C46.8793 15.5212 46.7667 15.5212 46.654 15.4633H46.5414L45.8657 15.9266C45.1336 15.1158 44.3452 14.4209 43.5569 13.7259C40.1782 11.0039 36.0674 9.32432 31.7877 8.91892L31.7313 8.16602C31.675 8.10811 31.675 8.10811 31.6187 8.05019C31.4498 7.87645 31.2245 7.7027 31.1682 7.2973C31.1119 6.37066 31.2245 5.32819 31.3372 4.16988V4.11197C31.3372 3.93822 31.3935 3.70656 31.4498 3.53282C31.5061 3.18533 31.5624 2.83784 31.6187 2.43243V2.08494V1.9112C31.6187 0.868725 30.8304 0 29.873 0C29.4226 0 28.9721 0.23166 28.6342 0.57915C28.2963 0.92664 28.1274 1.38996 28.1274 1.9112V2.02703V2.37452C28.1274 2.77992 28.1837 3.12741 28.2963 3.4749C28.3526 3.64865 28.3526 3.82239 28.4089 4.05405V4.11197C28.5216 5.27027 28.6905 6.31274 28.5779 7.23938C28.5216 7.64479 28.2963 7.81853 28.1274 7.99228C28.0711 8.05019 28.0711 8.05019 28.0147 8.10811L27.9584 8.861C26.9448 8.97683 25.9312 9.09266 24.9176 9.32432C20.5816 10.3089 16.7523 12.5676 13.7678 15.8108L13.2047 15.4054H13.0921C12.9794 15.4054 12.8668 15.4633 12.7542 15.4633C12.5852 15.4633 12.4163 15.4054 12.2474 15.2896C11.5153 14.7683 10.7833 14.0154 9.99489 13.1467C9.88227 13.0309 9.76964 12.8571 9.60071 12.7413C9.37546 12.4517 9.15021 12.2201 8.86865 11.9305C8.81234 11.8726 8.69971 11.8147 8.58709 11.6988C8.53078 11.6409 8.47446 11.6409 8.47446 11.583C8.13659 11.2934 7.6861 11.1197 7.2356 11.1197C6.72879 11.1197 6.22198 11.3514 5.94042 11.7568C5.3773 12.5097 5.54624 13.668 6.33461 14.3629C6.39092 14.3629 6.39092 14.4209 6.44723 14.4209C6.55985 14.4788 6.61617 14.5946 6.72879 14.6525C7.06666 14.8842 7.34822 15.0579 7.6861 15.2317C7.85503 15.2896 8.02397 15.4054 8.1929 15.5212C9.20652 16.1583 10.0512 16.6795 10.7269 17.3166C11.0085 17.6062 11.0085 17.8958 11.0085 18.1853V18.3012L11.5716 18.8224C11.459 18.9961 11.3464 19.112 11.2901 19.2857C8.47446 23.861 7.40454 29.2471 8.13659 34.5753L7.40454 34.807C7.40454 34.8649 7.34822 34.8649 7.34822 34.9228C7.2356 35.1544 7.06666 35.3861 6.72879 35.5598C5.88411 35.8494 4.87049 35.9653 3.68794 36.0811H3.63163C3.46269 36.0811 3.23744 36.0811 3.06851 36.139C2.73064 36.139 2.39276 36.1969 1.99858 36.2548C1.88595 36.2548 1.77333 36.3127 1.66071 36.3127C1.60439 36.3127 1.54808 36.3127 1.49177 36.3707C0.478152 36.6023 -0.14128 37.5869 0.0276559 38.5135C0.196592 39.3243 0.92865 39.8456 1.82964 39.8456C1.99858 39.8456 2.1112 39.8456 2.28014 39.7876C2.33645 39.7876 2.39276 39.7877 2.39276 39.7297C2.50539 39.7297 2.61801 39.6718 2.73063 39.6718C3.12482 39.556 3.40638 39.4402 3.74425 39.2664C3.91319 39.2085 4.08212 39.0927 4.25106 39.0348H4.30737C5.3773 38.6293 6.33461 38.2819 7.2356 38.166H7.34822C7.6861 38.166 7.91134 38.3398 8.08028 38.4556C8.13659 38.4556 8.13659 38.5135 8.1929 38.5135L8.98127 38.3977C10.3328 42.6834 12.9231 46.5058 16.3582 49.2857C17.1465 49.9228 17.9349 50.444 18.7796 50.9653L18.4417 51.7182C18.4417 51.7761 18.498 51.7761 18.498 51.834C18.6106 52.0656 18.7233 52.3552 18.6106 52.7606C18.2728 53.6294 17.766 54.4981 17.1465 55.4826V55.5405C17.0339 55.7143 16.9213 55.8301 16.8086 56.0039C16.5834 56.2934 16.4145 56.583 16.1892 56.9305C16.1329 56.9884 16.0766 57.1043 16.0203 57.2201C16.0203 57.278 15.964 57.3359 15.964 57.3359C15.5135 58.3205 15.8513 59.4208 16.696 59.8263C16.9213 59.9421 17.1465 60 17.3718 60C18.0475 60 18.7233 59.5367 19.0611 58.8996C19.0611 58.8417 19.1174 58.7838 19.1174 58.7838C19.1738 58.668 19.2301 58.5521 19.2864 58.4942C19.4553 58.0888 19.5116 57.7992 19.6243 57.4517C19.6806 57.278 19.7369 57.1043 19.7932 56.9305C20.1874 55.7722 20.4689 54.8456 20.9757 54.0348C21.201 53.6873 21.4825 53.6294 21.7078 53.5135C21.7641 53.5135 21.7641 53.5135 21.8204 53.4556L22.2146 52.7027C24.6923 53.6873 27.3953 54.2085 30.0983 54.2085C31.7313 54.2085 33.4207 54.0348 34.9974 53.6294C36.0111 53.3977 36.9684 53.1081 37.9257 52.7606L38.2635 53.3977C38.3199 53.3977 38.3199 53.3977 38.3762 53.4556C38.6577 53.5135 38.883 53.6293 39.1082 53.9768C39.5587 54.7877 39.8966 55.7722 40.2908 56.8726V56.9305C40.3471 57.1043 40.4034 57.278 40.4597 57.4517C40.5723 57.7992 40.6287 58.1467 40.7976 58.4942C40.8539 58.61 40.9102 58.668 40.9665 58.7838C40.9665 58.8417 41.0228 58.8996 41.0228 58.8996C41.3607 59.5946 42.0365 60 42.7122 60C42.9374 60 43.1627 59.9421 43.3879 59.8263C43.7821 59.5946 44.12 59.2471 44.2326 58.7838C44.3452 58.3205 44.3452 57.7992 44.12 57.3359C44.12 57.278 44.0637 57.278 44.0637 57.2201C44.0074 57.1043 43.9511 56.9884 43.8947 56.9305C43.7258 56.583 43.5006 56.2934 43.2753 56.0039C43.1627 55.8301 43.0501 55.7143 42.9374 55.5405V55.4826C42.318 54.4981 41.7549 53.6294 41.4733 52.7606C41.3607 52.3552 41.4733 52.1236 41.5296 51.834C41.5296 51.7761 41.586 51.7761 41.586 51.7182L41.3044 51.0232C44.2889 49.2278 46.823 46.6795 48.7376 43.5521C49.7512 41.9305 50.5396 40.1351 51.1027 38.3398L51.7784 38.4556C51.8347 38.4556 51.8347 38.3977 51.8911 38.3977C52.1163 38.2819 52.2852 38.1081 52.6231 38.1081H52.7357C53.6367 38.2239 54.594 38.5714 55.664 38.9768H55.7203C55.8892 39.0348 56.0582 39.1506 56.2271 39.2085C56.565 39.3822 56.8465 39.4981 57.2407 39.6139C57.3533 39.6139 57.466 39.6718 57.5786 39.6718C57.6349 39.6718 57.6912 39.6718 57.7475 39.7297C57.9165 39.7877 58.0291 39.7876 58.198 39.7876C59.0427 39.7876 59.7748 39.2085 60 38.4556C60 37.7606 59.3806 36.834 58.3669 36.5444ZM32.2945 33.7066L29.8167 34.9228L27.339 33.7066L26.7196 30.9846L28.4089 28.7838H31.1682L32.8576 30.9846L32.2945 33.7066ZM46.9919 27.6834C47.4424 29.6525 47.555 31.6216 47.3861 33.5328L38.7704 30.9846C37.982 30.7529 37.5315 29.9421 37.7004 29.1313C37.7567 28.8996 37.8694 28.668 38.0383 28.4942L44.8521 22.1815C45.8094 23.8031 46.5414 25.6564 46.9919 27.6834ZM42.1491 18.7066L34.7722 24.0927C34.1528 24.4981 33.3081 24.3822 32.8013 23.7452C32.6323 23.5714 32.576 23.3398 32.5197 23.1081L32.0129 13.668C35.8984 14.1313 39.4461 15.9266 42.1491 18.7066ZM25.8186 13.9575C26.438 13.8417 27.0011 13.7259 27.6206 13.61L27.1138 22.8764C27.0574 23.6873 26.438 24.3822 25.5933 24.3822C25.3681 24.3822 25.0865 24.3243 24.9176 24.2085L17.4281 18.7066C19.7369 16.332 22.6088 14.7104 25.8186 13.9575ZM14.7251 22.1815L21.4262 28.3205C22.0457 28.8417 22.102 29.8263 21.5952 30.4633C21.4262 30.695 21.201 30.8687 20.9194 30.9266L12.1911 33.5328C11.8532 29.5946 12.6979 25.5985 14.7251 22.1815ZM13.2047 37.8764L22.1583 36.3127C22.8904 36.2548 23.5661 36.7761 23.735 37.529C23.7913 37.8765 23.7913 38.166 23.6787 38.4556L20.2437 46.9691C17.0902 44.8842 14.5562 41.6988 13.2047 37.8764ZM33.7586 49.4015C32.4634 49.6911 31.1682 49.8649 29.8167 49.8649C27.8458 49.8649 25.9312 49.5174 24.1292 48.9382L28.5779 40.6564C29.0284 40.1351 29.7604 39.9035 30.3799 40.251C30.6614 40.4247 30.8867 40.6564 31.0556 40.888L35.3916 48.9382C34.8848 49.112 34.3217 49.2278 33.7586 49.4015ZM44.7394 41.3514C43.3316 43.668 41.4733 45.5212 39.3335 46.9691L35.7858 38.2239C35.6169 37.529 35.8984 36.7761 36.5742 36.4286C36.7994 36.3127 37.081 36.2548 37.3625 36.2548L46.3725 37.8185C46.0346 39.0927 45.4715 40.251 44.7394 41.3514Z" fill="#3A66FF"/>
</svg>
