<svg width="700" height="800" viewBox="0 0 883 1028" fill="none" xmlns="http://www.w3.org/2000/svg">
<path d="M563.221 588.637L555.727 588.751C554.785 586.756 553.665 584.848 552.378 583.05L556.242 576.701C554.26 574.291 552.029 572.09 549.584 570.137L543.146 573.946C541.318 572.673 539.379 571.564 537.351 570.632L537.48 563.255C534.546 562.135 531.497 561.33 528.388 560.855L524.744 567.318C523.637 567.216 522.529 567.165 521.396 567.165C520.263 567.165 519.156 567.165 518.061 567.318L514.417 560.855C511.308 561.33 508.26 562.135 505.326 563.255L505.454 570.632C503.425 571.561 501.485 572.67 499.66 573.946L493.221 570.137C490.776 572.09 488.545 574.291 486.564 576.701L490.427 583.05C489.14 584.848 488.02 586.756 487.079 588.751L479.584 588.637C478.455 591.532 477.639 594.537 477.15 597.601L483.705 601.195C483.602 602.274 483.55 603.379 483.55 604.483C483.55 605.588 483.55 606.693 483.705 607.785L477.15 611.34C477.639 614.405 478.455 617.409 479.584 620.305L487.079 620.178C488.019 622.177 489.14 624.089 490.427 625.892L486.564 632.24C488.545 634.651 490.776 636.851 493.221 638.805L499.66 634.996L505.454 638.297L505.326 645.674C508.261 646.792 511.309 647.601 514.417 648.087L518.061 641.624C519.156 641.713 520.276 641.776 521.396 641.776C522.516 641.776 523.637 641.713 524.744 641.624L528.388 648.087C531.497 647.601 534.544 646.792 537.48 645.674L537.351 638.297C539.376 637.364 541.315 636.26 543.146 634.996L549.584 638.805C552.029 636.851 554.26 634.651 556.242 632.24L552.378 625.892C553.665 624.089 554.786 622.177 555.727 620.178L563.221 620.305C564.351 617.409 565.166 614.405 565.655 611.34L559.1 607.747C559.19 606.655 559.255 605.563 559.255 604.445C559.255 603.328 559.19 602.236 559.1 601.157L565.655 597.563C565.164 594.512 564.348 591.52 563.221 588.637Z" fill="white" stroke="black" stroke-width="3" stroke-linecap="round" stroke-linejoin="round"/>
<path d="M521.397 634.869C538.416 634.869 552.212 621.265 552.212 604.483C552.212 587.702 538.416 574.098 521.397 574.098C504.378 574.098 490.582 587.702 490.582 604.483C490.582 621.265 504.378 634.869 521.397 634.869Z" fill="white" stroke="black" stroke-width="3" stroke-linecap="round" stroke-linejoin="round"/>
<path d="M536.141 612.877V596.103L521.396 587.71L506.665 596.103V612.877L521.396 621.27L536.141 612.877Z" fill="white" stroke="black" stroke-width="3" stroke-linecap="round" stroke-linejoin="round"/>
<path d="M475.953 627.987L469.515 628.088C468.703 626.365 467.738 624.716 466.63 623.162L469.953 617.689C468.24 615.613 466.315 613.715 464.209 612.026L458.659 615.302C457.081 614.208 455.409 613.252 453.663 612.445L453.766 606.096C451.232 605.138 448.604 604.444 445.924 604.026L442.782 609.601C441.829 609.524 440.863 609.474 439.897 609.474C438.932 609.474 437.953 609.474 437 609.601L433.858 604.026C431.178 604.444 428.55 605.138 426.016 606.096L426.119 612.445C424.373 613.252 422.701 614.208 421.123 615.302L415.585 612.026C413.473 613.711 411.544 615.609 409.829 617.689L413.152 623.162C412.044 624.716 411.079 626.365 410.267 628.088L403.829 627.987C402.847 630.483 402.139 633.075 401.717 635.719L407.383 638.818C407.293 639.757 407.241 640.71 407.241 641.662C407.241 642.614 407.241 643.566 407.383 644.506L401.717 647.604C402.139 650.253 402.847 652.849 403.829 655.35L410.267 655.235C411.079 656.963 412.044 658.616 413.152 660.175L409.829 665.635C411.54 667.717 413.47 669.616 415.585 671.298L421.123 668.022C422.701 669.115 424.373 670.071 426.119 670.879L426.016 677.228C428.548 678.191 431.177 678.885 433.858 679.297L437 673.723C437.953 673.799 438.919 673.85 439.897 673.85C440.876 673.85 441.829 673.85 442.782 673.723L445.924 679.297C448.605 678.885 451.234 678.191 453.766 677.228L453.663 670.879C455.409 670.071 457.081 669.115 458.659 668.022L464.209 671.298C466.318 669.612 468.243 667.714 469.953 665.635L466.63 660.175C467.738 658.616 468.703 656.963 469.515 655.235L475.953 655.35C476.935 652.849 477.643 650.253 478.065 647.604L472.399 644.506C472.489 643.566 472.541 642.627 472.541 641.662C472.541 640.697 472.541 639.757 472.399 638.818L478.065 635.719C477.643 633.075 476.935 630.483 475.953 627.987Z" fill="white" stroke="black" stroke-width="3" stroke-linecap="round" stroke-linejoin="round"/>
<path opacity="0.3" d="M475.953 627.987L469.515 628.088C468.703 626.365 467.738 624.716 466.63 623.162L469.953 617.689C468.24 615.613 466.315 613.715 464.209 612.026L458.659 615.302C457.081 614.208 455.409 613.252 453.663 612.445L453.766 606.096C451.232 605.138 448.604 604.444 445.924 604.026L442.782 609.601C441.829 609.524 440.863 609.474 439.897 609.474C438.932 609.474 437.953 609.474 437 609.601L433.858 604.026C431.178 604.444 428.55 605.138 426.016 606.096L426.119 612.445C424.373 613.252 422.701 614.208 421.123 615.302L415.585 612.026C413.473 613.711 411.544 615.609 409.829 617.689L413.152 623.162C412.044 624.716 411.079 626.365 410.267 628.088L403.829 627.987C402.847 630.483 402.139 633.075 401.717 635.719L407.383 638.818C407.293 639.757 407.241 640.71 407.241 641.662C407.241 642.614 407.241 643.566 407.383 644.506L401.717 647.604C402.139 650.253 402.847 652.849 403.829 655.35L410.267 655.235C411.079 656.963 412.044 658.616 413.152 660.175L409.829 665.635C411.54 667.717 413.47 669.616 415.585 671.298L421.123 668.022C422.701 669.115 424.373 670.071 426.119 670.879L426.016 677.228C428.548 678.191 431.177 678.885 433.858 679.297L437 673.723C437.953 673.799 438.919 673.85 439.897 673.85C440.876 673.85 441.829 673.85 442.782 673.723L445.924 679.297C448.605 678.885 451.234 678.191 453.766 677.228L453.663 670.879C455.409 670.071 457.081 669.115 458.659 668.022L464.209 671.298C466.318 669.612 468.243 667.714 469.953 665.635L466.63 660.175C467.738 658.616 468.703 656.963 469.515 655.235L475.953 655.35C476.935 652.849 477.643 650.253 478.065 647.604L472.399 644.506C472.489 643.566 472.541 642.627 472.541 641.662C472.541 640.697 472.541 639.757 472.399 638.818L478.065 635.719C477.643 633.075 476.935 630.483 475.953 627.987Z" fill="white" stroke="black" stroke-width="3" stroke-linecap="round" stroke-linejoin="round"/>
<path d="M441.189 653.21C447.26 652.475 451.577 647.027 450.831 641.041C450.086 635.055 444.56 630.798 438.49 631.533C432.419 632.268 428.102 637.716 428.848 643.702C429.593 649.688 435.118 653.945 441.189 653.21Z" fill="white" stroke="black" stroke-width="3" stroke-linecap="round" stroke-linejoin="round"/>
<path d="M289.004 514.166L300.194 493.825" stroke="black" stroke-width="2" stroke-linecap="round" stroke-linejoin="round"/>
<path d="M378.268 514.331L383.47 493.825" stroke="black" stroke-width="2" stroke-linecap="round" stroke-linejoin="round"/>
<path d="M467.52 514.509L466.747 493.825" stroke="black" stroke-width="2" stroke-linecap="round" stroke-linejoin="round"/>
<path d="M556.784 514.687L550.036 493.825" stroke="black" stroke-width="2" stroke-linecap="round" stroke-linejoin="round"/>
<path d="M646.048 514.864L633.312 493.825" stroke="black" stroke-width="2" stroke-linecap="round" stroke-linejoin="round"/>
<path d="M726.697 514.661C729.467 514.637 732.196 515.315 734.625 516.629C737.053 517.943 739.098 519.849 740.566 522.165L739.677 520.083L716.576 493.825H216.944L195.671 517.95C198.572 515.774 202.121 514.604 205.767 514.623L726.697 514.661Z" stroke="black" stroke-width="2" stroke-linecap="round" stroke-linejoin="round"/>
<path d="M743.296 528.565L742.266 526.127C742.472 526.926 742.602 527.742 742.652 528.565H743.296Z" stroke="black" stroke-width="2" stroke-linecap="round" stroke-linejoin="round"/>
<path d="M742.266 526.127C741.903 524.732 741.335 523.398 740.579 522.165C739.11 519.847 737.063 517.94 734.632 516.626C732.201 515.312 729.469 514.635 726.697 514.661H205.728C202.083 514.642 198.534 515.812 195.632 517.988C195.195 518.331 194.783 518.674 194.345 519.042C193.217 520.088 192.261 521.3 191.512 522.635C190.469 524.454 189.853 526.48 189.709 528.565C189.689 528.92 189.689 529.276 189.709 529.632C189.709 537.898 196.882 544.602 205.728 544.602H726.697C730.889 544.62 734.929 543.057 737.991 540.234C739.465 538.878 740.641 537.239 741.447 535.418C742.253 533.597 742.672 531.632 742.678 529.644C742.698 529.289 742.698 528.933 742.678 528.578C742.62 527.75 742.482 526.929 742.266 526.127ZM209.115 540.234C207.037 540.122 205.039 539.412 203.366 538.192C201.694 536.971 200.422 535.294 199.706 533.367C198.991 531.441 198.864 529.35 199.342 527.353C199.82 525.357 200.881 523.542 202.394 522.134C203.907 520.726 205.806 519.786 207.855 519.431C209.904 519.077 212.014 519.322 213.923 520.138C215.832 520.953 217.457 522.303 218.595 524.02C219.734 525.737 220.338 527.745 220.331 529.797C220.243 532.646 219.013 535.345 216.911 537.301C214.808 539.258 212.005 540.313 209.115 540.234V540.234ZM294.889 540.234C292.813 540.122 290.816 539.413 289.145 538.195C287.473 536.976 286.201 535.301 285.484 533.376C284.767 531.452 284.639 529.363 285.113 527.367C285.588 525.371 286.645 523.556 288.154 522.147C289.664 520.737 291.559 519.795 293.606 519.435C295.652 519.076 297.761 519.317 299.671 520.126C301.58 520.936 303.208 522.28 304.351 523.992C305.495 525.704 306.105 527.709 306.105 529.759C306.067 531.173 305.746 532.566 305.162 533.857C304.577 535.149 303.74 536.315 302.699 537.288C301.657 538.261 300.431 539.022 299.091 539.527C297.751 540.033 296.323 540.273 294.889 540.234V540.234ZM380.664 540.234C378.588 540.122 376.591 539.413 374.919 538.195C373.248 536.976 371.975 535.301 371.258 533.376C370.542 531.452 370.413 529.363 370.888 527.367C371.362 525.371 372.419 523.556 373.929 522.147C375.438 520.737 377.333 519.795 379.38 519.435C381.427 519.076 383.535 519.317 385.445 520.126C387.355 520.936 388.982 522.28 390.126 523.992C391.269 525.704 391.879 527.709 391.88 529.759C391.841 531.173 391.521 532.566 390.936 533.857C390.352 535.149 389.515 536.315 388.473 537.288C387.431 538.261 386.206 539.022 384.866 539.527C383.526 540.033 382.098 540.273 380.664 540.234V540.234ZM466.438 540.234C464.362 540.122 462.365 539.413 460.694 538.195C459.022 536.976 457.749 535.301 457.033 533.376C456.316 531.452 456.187 529.363 456.662 527.367C457.137 525.371 458.194 523.556 459.703 522.147C461.212 520.737 463.108 519.795 465.154 519.435C467.201 519.076 469.31 519.317 471.22 520.126C473.129 520.936 474.757 522.28 475.9 523.992C477.044 525.704 477.654 527.709 477.654 529.759C477.616 531.173 477.295 532.566 476.711 533.857C476.126 535.149 475.289 536.315 474.247 537.288C473.206 538.261 471.98 539.022 470.64 539.527C469.3 540.033 467.872 540.273 466.438 540.234V540.234ZM552.213 540.234C550.137 540.122 548.14 539.413 546.468 538.195C544.797 536.976 543.524 535.301 542.807 533.376C542.091 531.452 541.962 529.363 542.436 527.367C542.911 525.371 543.968 523.556 545.478 522.147C546.987 520.737 548.882 519.795 550.929 519.435C552.976 519.076 555.084 519.317 556.994 520.126C558.904 520.936 560.531 522.28 561.675 523.992C562.818 525.704 563.428 527.709 563.429 529.759C563.39 531.173 563.07 532.566 562.485 533.857C561.901 535.149 561.064 536.315 560.022 537.288C558.98 538.261 557.755 539.022 556.415 539.527C555.075 540.033 553.647 540.273 552.213 540.234V540.234ZM637.987 540.234C635.911 540.122 633.914 539.413 632.243 538.195C630.571 536.976 629.298 535.301 628.582 533.376C627.865 531.452 627.736 529.363 628.211 527.367C628.685 525.371 629.743 523.556 631.252 522.147C632.761 520.737 634.657 519.795 636.703 519.435C638.75 519.076 640.859 519.317 642.768 520.126C644.678 520.936 646.306 522.28 647.449 523.992C648.593 525.704 649.202 527.709 649.203 529.759C649.165 531.173 648.844 532.566 648.259 533.857C647.675 535.149 646.838 536.315 645.796 537.288C644.755 538.261 643.529 539.022 642.189 539.527C640.849 540.033 639.421 540.273 637.987 540.234V540.234ZM723.826 540.234C721.749 540.125 719.751 539.418 718.078 538.2C716.404 536.983 715.129 535.309 714.411 533.384C713.693 531.46 713.562 529.371 714.035 527.374C714.508 525.377 715.565 523.561 717.074 522.15C718.583 520.739 720.478 519.796 722.525 519.436C724.572 519.075 726.681 519.315 728.592 520.125C730.502 520.934 732.13 522.278 733.274 523.99C734.419 525.703 735.029 527.708 735.029 529.759C734.951 532.612 733.728 535.319 731.627 537.283C729.526 539.248 726.72 540.309 723.826 540.234V540.234Z" stroke="black" stroke-width="2" stroke-linecap="round" stroke-linejoin="round"/>
<path d="M209.116 519.321C207.04 519.433 205.043 520.142 203.371 521.361C201.7 522.579 200.427 524.254 199.71 526.179C198.994 528.103 198.865 530.192 199.339 532.188C199.814 534.184 200.871 535.999 202.381 537.408C203.89 538.818 205.785 539.761 207.832 540.12C209.879 540.479 211.987 540.239 213.897 539.429C215.807 538.619 217.434 537.275 218.578 535.563C219.721 533.851 220.331 531.847 220.332 529.797C220.293 528.382 219.973 526.99 219.388 525.698C218.804 524.406 217.967 523.24 216.925 522.267C215.883 521.294 214.658 520.533 213.318 520.028C211.978 519.522 210.55 519.282 209.116 519.321V519.321ZM209.116 533.288C208.43 533.251 207.77 533.017 207.218 532.614C206.666 532.211 206.245 531.658 206.009 531.022C205.772 530.386 205.729 529.696 205.886 529.037C206.043 528.377 206.392 527.777 206.89 527.311C207.389 526.846 208.015 526.534 208.691 526.415C209.367 526.296 210.064 526.375 210.695 526.642C211.326 526.909 211.864 527.352 212.243 527.917C212.621 528.483 212.823 529.145 212.824 529.822C212.794 530.763 212.387 531.653 211.691 532.298C210.996 532.944 210.07 533.29 209.116 533.263V533.288Z" stroke="black" stroke-width="2" stroke-linecap="round" stroke-linejoin="round"/>
<path d="M209.114 526.33C208.428 526.367 207.769 526.602 207.217 527.005C206.664 527.408 206.244 527.961 206.007 528.597C205.771 529.233 205.728 529.923 205.885 530.582C206.041 531.242 206.391 531.841 206.889 532.307C207.387 532.773 208.013 533.085 208.69 533.204C209.366 533.323 210.062 533.244 210.694 532.977C211.325 532.71 211.863 532.266 212.241 531.701C212.62 531.136 212.822 530.474 212.823 529.797C212.811 529.329 212.706 528.867 212.513 528.44C212.32 528.012 212.043 527.626 211.699 527.304C211.354 526.982 210.949 526.73 210.505 526.563C210.062 526.396 209.589 526.317 209.114 526.33V526.33Z" stroke="black" stroke-width="2" stroke-linecap="round" stroke-linejoin="round"/>
<path d="M294.888 519.321C292.812 519.433 290.815 520.142 289.144 521.361C287.472 522.579 286.199 524.254 285.483 526.179C284.766 528.103 284.637 530.192 285.112 532.188C285.586 534.184 286.644 535.999 288.153 537.408C289.662 538.818 291.558 539.761 293.604 540.12C295.651 540.479 297.76 540.239 299.669 539.429C301.579 538.619 303.207 537.275 304.35 535.563C305.494 533.851 306.103 531.847 306.104 529.797C306.066 528.382 305.745 526.99 305.161 525.698C304.576 524.406 303.739 523.24 302.697 522.267C301.656 521.294 300.43 520.533 299.09 520.028C297.75 519.522 296.322 519.282 294.888 519.321V519.321ZM294.888 533.288C294.202 533.251 293.543 533.017 292.99 532.614C292.438 532.211 292.018 531.658 291.781 531.022C291.544 530.386 291.502 529.696 291.658 529.037C291.815 528.377 292.164 527.777 292.663 527.311C293.161 526.846 293.787 526.534 294.463 526.415C295.14 526.296 295.836 526.375 296.467 526.642C297.099 526.909 297.637 527.352 298.015 527.917C298.393 528.483 298.596 529.145 298.597 529.822C298.566 530.763 298.159 531.653 297.464 532.298C296.769 532.944 295.842 533.29 294.888 533.263V533.288Z" stroke="black" stroke-width="2" stroke-linecap="round" stroke-linejoin="round"/>
<path d="M294.89 526.33C294.204 526.367 293.544 526.602 292.992 527.005C292.44 527.408 292.019 527.961 291.783 528.597C291.546 529.233 291.503 529.923 291.66 530.582C291.817 531.242 292.166 531.841 292.664 532.307C293.163 532.773 293.789 533.085 294.465 533.204C295.141 533.323 295.838 533.244 296.469 532.977C297.1 532.71 297.638 532.266 298.017 531.701C298.395 531.136 298.597 530.474 298.598 529.797C298.587 529.329 298.481 528.867 298.288 528.44C298.096 528.012 297.819 527.626 297.474 527.304C297.13 526.982 296.724 526.73 296.28 526.563C295.837 526.396 295.364 526.317 294.89 526.33V526.33Z" stroke="black" stroke-width="2" stroke-linecap="round" stroke-linejoin="round"/>
<path d="M380.663 519.321C378.588 519.433 376.591 520.142 374.919 521.361C373.247 522.579 371.975 524.254 371.258 526.179C370.542 528.103 370.413 530.192 370.887 532.188C371.362 534.184 372.419 535.999 373.928 537.408C375.438 538.818 377.333 539.761 379.38 540.12C381.426 540.479 383.535 540.239 385.445 539.429C387.355 538.619 388.982 537.275 390.126 535.563C391.269 533.851 391.879 531.847 391.879 529.797C391.841 528.382 391.52 526.99 390.936 525.698C390.351 524.406 389.514 523.24 388.473 522.267C387.431 521.294 386.205 520.533 384.865 520.028C383.525 519.522 382.098 519.282 380.663 519.321V519.321ZM380.663 533.288C379.978 533.251 379.318 533.017 378.766 532.614C378.214 532.211 377.793 531.658 377.557 531.022C377.32 530.386 377.277 529.696 377.434 529.037C377.591 528.377 377.94 527.777 378.438 527.311C378.937 526.846 379.563 526.534 380.239 526.415C380.915 526.296 381.612 526.375 382.243 526.642C382.874 526.909 383.412 527.352 383.79 527.917C384.169 528.483 384.371 529.145 384.372 529.822C384.342 530.763 383.934 531.653 383.239 532.298C382.544 532.944 381.618 533.29 380.663 533.263V533.288Z" stroke="black" stroke-width="2" stroke-linecap="round" stroke-linejoin="round"/>
<path d="M380.663 526.33C379.977 526.367 379.318 526.602 378.765 527.005C378.213 527.408 377.793 527.961 377.556 528.597C377.319 529.233 377.277 529.923 377.434 530.582C377.59 531.242 377.939 531.841 378.438 532.307C378.936 532.773 379.562 533.085 380.238 533.204C380.915 533.323 381.611 533.244 382.242 532.977C382.874 532.71 383.412 532.266 383.79 531.701C384.168 531.136 384.371 530.474 384.372 529.797C384.36 529.329 384.255 528.867 384.062 528.44C383.869 528.012 383.592 527.626 383.248 527.304C382.903 526.982 382.497 526.73 382.054 526.563C381.61 526.396 381.138 526.317 380.663 526.33Z" stroke="black" stroke-width="2" stroke-linecap="round" stroke-linejoin="round"/>
<path d="M466.438 519.321C464.362 519.433 462.365 520.142 460.693 521.361C459.022 522.579 457.749 524.254 457.033 526.179C456.316 528.103 456.187 530.192 456.662 532.188C457.136 534.184 458.194 535.999 459.703 537.408C461.212 538.818 463.107 539.761 465.154 540.12C467.201 540.479 469.309 540.239 471.219 539.429C473.129 538.619 474.756 537.275 475.9 535.563C477.044 533.851 477.653 531.847 477.654 529.797C477.615 528.382 477.295 526.99 476.71 525.698C476.126 524.406 475.289 523.24 474.247 522.267C473.206 521.294 471.98 520.533 470.64 520.028C469.3 519.522 467.872 519.282 466.438 519.321V519.321ZM466.438 533.288C465.752 533.251 465.092 533.017 464.54 532.614C463.988 532.211 463.568 531.658 463.331 531.022C463.094 530.386 463.052 529.696 463.208 529.037C463.365 528.377 463.714 527.777 464.213 527.311C464.711 526.846 465.337 526.534 466.013 526.415C466.689 526.296 467.386 526.375 468.017 526.642C468.648 526.909 469.186 527.352 469.565 527.917C469.943 528.483 470.145 529.145 470.146 529.822C470.116 530.763 469.709 531.653 469.014 532.298C468.318 532.944 467.392 533.29 466.438 533.263V533.288Z" stroke="black" stroke-width="2" stroke-linecap="round" stroke-linejoin="round"/>
<path d="M466.438 526.33C465.753 526.367 465.093 526.602 464.541 527.005C463.989 527.408 463.568 527.961 463.332 528.597C463.095 529.233 463.052 529.923 463.209 530.582C463.366 531.242 463.715 531.841 464.213 532.307C464.712 532.773 465.338 533.085 466.014 533.204C466.69 533.323 467.387 533.244 468.018 532.977C468.649 532.71 469.187 532.266 469.565 531.701C469.944 531.136 470.146 530.474 470.147 529.797C470.135 529.329 470.03 528.867 469.837 528.44C469.644 528.012 469.368 527.626 469.023 527.304C468.679 526.982 468.273 526.73 467.829 526.563C467.386 526.396 466.913 526.317 466.438 526.33V526.33Z" stroke="black" stroke-width="2" stroke-linecap="round" stroke-linejoin="round"/>
<path d="M552.212 519.321C550.137 519.433 548.139 520.142 546.468 521.361C544.796 522.579 543.524 524.254 542.807 526.179C542.091 528.103 541.962 530.192 542.436 532.188C542.911 534.184 543.968 535.999 545.477 537.408C546.987 538.818 548.882 539.761 550.929 540.12C552.975 540.479 555.084 540.239 556.994 539.429C558.903 538.619 560.531 537.275 561.674 535.563C562.818 533.851 563.428 531.847 563.428 529.797C563.39 528.382 563.069 526.99 562.485 525.698C561.9 524.406 561.063 523.24 560.022 522.267C558.98 521.294 557.754 520.533 556.414 520.028C555.074 519.522 553.646 519.282 552.212 519.321V519.321ZM552.212 533.288C551.527 533.251 550.867 533.017 550.315 532.614C549.762 532.211 549.342 531.658 549.105 531.022C548.869 530.386 548.826 529.696 548.983 529.037C549.139 528.377 549.489 527.777 549.987 527.311C550.485 526.846 551.111 526.534 551.788 526.415C552.464 526.296 553.16 526.375 553.792 526.642C554.423 526.909 554.961 527.352 555.339 527.917C555.718 528.483 555.92 529.145 555.921 529.822C555.887 530.762 555.479 531.65 554.784 532.295C554.09 532.939 553.166 533.287 552.212 533.263V533.288Z" stroke="black" stroke-width="2" stroke-linecap="round" stroke-linejoin="round"/>
<path d="M552.212 526.33C551.526 526.367 550.866 526.602 550.314 527.005C549.762 527.407 549.342 527.961 549.105 528.597C548.868 529.232 548.826 529.923 548.982 530.582C549.139 531.242 549.488 531.841 549.987 532.307C550.485 532.773 551.111 533.085 551.787 533.204C552.463 533.323 553.16 533.244 553.791 532.977C554.422 532.71 554.96 532.266 555.339 531.701C555.717 531.136 555.919 530.474 555.921 529.797C555.894 528.852 555.488 527.957 554.793 527.308C554.098 526.658 553.17 526.306 552.212 526.33V526.33Z" stroke="black" stroke-width="2" stroke-linecap="round" stroke-linejoin="round"/>
<path d="M637.987 519.321C635.911 519.433 633.914 520.142 632.242 521.361C630.571 522.579 629.298 524.254 628.581 526.179C627.865 528.103 627.736 530.192 628.211 532.188C628.685 534.184 629.742 535.999 631.252 537.408C632.761 538.818 634.656 539.761 636.703 540.12C638.75 540.479 640.858 540.239 642.768 539.429C644.678 538.619 646.305 537.275 647.449 535.563C648.592 533.851 649.202 531.847 649.203 529.797C649.164 528.382 648.844 526.99 648.259 525.698C647.675 524.406 646.838 523.24 645.796 522.267C644.754 521.294 643.529 520.533 642.189 520.028C640.849 519.522 639.421 519.282 637.987 519.321V519.321ZM637.987 533.288C637.301 533.251 636.641 533.017 636.089 532.614C635.537 532.211 635.116 531.658 634.88 531.022C634.643 530.386 634.6 529.696 634.757 529.037C634.914 528.377 635.263 527.777 635.761 527.311C636.26 526.846 636.886 526.534 637.562 526.415C638.238 526.296 638.935 526.375 639.566 526.642C640.197 526.909 640.735 527.352 641.114 527.917C641.492 528.483 641.694 529.145 641.695 529.822C641.662 530.762 641.253 531.65 640.559 532.295C639.864 532.939 638.94 533.287 637.987 533.263V533.288Z" stroke="black" stroke-width="2" stroke-linecap="round" stroke-linejoin="round"/>
<path d="M637.987 526.33C637.302 526.367 636.642 526.602 636.09 527.005C635.538 527.407 635.117 527.961 634.88 528.597C634.644 529.232 634.601 529.923 634.758 530.582C634.914 531.242 635.264 531.841 635.762 532.307C636.26 532.773 636.886 533.085 637.563 533.204C638.239 533.323 638.935 533.244 639.567 532.977C640.198 532.71 640.736 532.266 641.114 531.701C641.493 531.136 641.695 530.474 641.696 529.797C641.669 528.852 641.263 527.957 640.568 527.308C639.873 526.658 638.945 526.306 637.987 526.33V526.33Z" stroke="black" stroke-width="2" stroke-linecap="round" stroke-linejoin="round"/>
<path d="M723.826 519.321C721.749 519.43 719.751 520.137 718.077 521.355C716.404 522.572 715.129 524.246 714.411 526.171C713.692 528.095 713.562 530.185 714.035 532.181C714.508 534.178 715.565 535.994 717.073 537.405C718.582 538.816 720.478 539.76 722.525 540.12C724.572 540.48 726.681 540.24 728.592 539.431C730.502 538.621 732.13 537.277 733.274 535.565C734.418 533.852 735.028 531.847 735.029 529.797C734.951 526.943 733.728 524.236 731.627 522.272C729.526 520.307 726.72 519.246 723.826 519.321V519.321ZM723.826 533.288C723.14 533.251 722.48 533.017 721.928 532.614C721.376 532.211 720.956 531.658 720.719 531.022C720.482 530.386 720.439 529.696 720.596 529.036C720.753 528.377 721.102 527.777 721.6 527.311C722.099 526.846 722.725 526.534 723.401 526.415C724.077 526.296 724.774 526.375 725.405 526.642C726.036 526.909 726.574 527.352 726.953 527.917C727.331 528.483 727.533 529.145 727.534 529.822C727.501 530.762 727.092 531.65 726.398 532.295C725.703 532.939 724.779 533.287 723.826 533.263V533.288Z" stroke="black" stroke-width="2" stroke-linecap="round" stroke-linejoin="round"/>
<path d="M723.825 526.33C723.139 526.367 722.48 526.602 721.928 527.005C721.375 527.407 720.955 527.961 720.718 528.597C720.482 529.232 720.439 529.923 720.596 530.582C720.752 531.242 721.101 531.841 721.6 532.307C722.098 532.773 722.724 533.085 723.4 533.204C724.077 533.323 724.773 533.244 725.405 532.977C726.036 532.71 726.574 532.266 726.952 531.701C727.331 531.136 727.533 530.474 727.534 529.797C727.507 528.852 727.101 527.957 726.406 527.308C725.711 526.658 724.783 526.306 723.825 526.33V526.33Z" stroke="black" stroke-width="2" stroke-linecap="round" stroke-linejoin="round"/>
<path d="M325.484 622.552C330.956 620.279 337.395 616.571 337.073 610.718C336.751 604.864 329.553 601.906 323.938 603.214C318.324 604.522 313.946 608.686 309.465 612.267C304.983 615.848 299.498 619.136 293.806 618.197C302.391 607.556 310.945 596.907 319.47 586.25C322.934 581.945 326.359 575.47 322.47 571.533C320.23 569.286 316.431 569.248 313.547 570.606C310.662 571.965 308.486 574.416 306.387 576.79L284.38 601.893L299.446 565.731C301.146 561.629 302.884 557.376 302.653 552.957C302.421 548.538 299.639 543.916 295.248 543.04C288.011 541.605 283.195 550.036 280.864 557.007C277.478 567.038 278.572 582.694 275.186 592.726C272.481 587.126 271.632 573.286 267.73 567.915C263.828 562.543 253.81 561.439 251.144 567.508C249.689 570.822 250.977 574.619 252.264 578.009L265.566 612.876C263.789 608.75 261.858 604.42 258.227 601.728C254.595 599.036 248.685 598.757 245.968 602.338C241.898 607.696 247.757 614.641 252.303 619.619C260.21 628.266 261.214 645.776 264.15 662.384C264.111 662.384 306.49 630.463 325.484 622.552Z" fill="#6100FF"/>
<path d="M277.98 605.563C262.27 637.078 264.394 681.608 265.888 724.919" stroke="black" stroke-width="0.75" stroke-linecap="round" stroke-linejoin="round"/>
<path d="M268.115 597.005C270.747 606.044 271.574 615.501 270.549 624.85" stroke="black" stroke-width="0.75" stroke-linecap="round" stroke-linejoin="round"/>
<path d="M288.178 621.422C280.897 623.627 274.233 627.465 268.708 632.634" stroke="black" stroke-width="0.75" stroke-linecap="round" stroke-linejoin="round"/>
<path d="M267.46 759.342L266.532 759.533L265.592 759.342C256.578 757.387 219.235 747.013 248.054 713.441H284.985C313.817 747 276.474 757.362 267.46 759.342Z" fill="black" stroke="black" stroke-linecap="round" stroke-linejoin="round"/>
<path d="M260.557 693.303C260.523 693.759 260.338 694.193 260.03 694.535C259.721 694.878 259.307 695.11 258.851 695.197C258.395 695.284 257.922 695.22 257.507 695.015C257.091 694.81 256.756 694.476 256.552 694.064C251.994 685.379 240.662 669.165 215.822 657.242C192.398 646.03 212.075 618.07 230.296 627.364C249.946 637.421 264.536 664.974 260.557 693.303Z" fill="#6100FF"/>
<path opacity="0.2" d="M260.557 693.303C260.523 693.759 260.338 694.193 260.03 694.535C259.721 694.878 259.307 695.11 258.851 695.197C258.395 695.284 257.922 695.22 257.507 695.015C257.091 694.81 256.756 694.476 256.552 694.064C251.994 685.379 240.662 669.165 215.822 657.242C192.398 646.03 212.075 618.07 230.296 627.364C249.946 637.421 264.536 664.974 260.557 693.303Z" fill="white"/>
<path d="M229.51 645.344C229.51 645.344 255.65 662.943 261.355 707.841" stroke="black" stroke-width="0.75" stroke-linecap="round" stroke-linejoin="round"/>
<path d="M235.678 650.702C235.678 650.702 227.952 648.226 216.362 654.131" stroke="black" stroke-width="0.75" stroke-linecap="round" stroke-linejoin="round"/>
<path d="M232.665 632.291C237.622 639.296 240.352 647.597 240.507 656.137" stroke="black" stroke-width="0.75" stroke-linecap="round" stroke-linejoin="round"/>
<path d="M248.311 667.527C246.534 666.006 244.383 664.971 242.074 664.525C239.765 664.08 237.378 664.239 235.15 664.987" stroke="black" stroke-width="0.75" stroke-linecap="round" stroke-linejoin="round"/>
<path d="M252.393 675.488C254.265 670.189 254.709 664.501 253.68 658.981" stroke="black" stroke-width="0.75" stroke-linecap="round" stroke-linejoin="round"/>
<path d="M271.838 701.061C271.825 701.466 271.948 701.865 272.188 702.195C272.427 702.525 272.77 702.769 273.163 702.889C273.556 703.008 273.978 702.997 274.365 702.858C274.751 702.718 275.08 702.457 275.302 702.115C280.066 694.915 291.45 681.722 314.358 673.621C335.953 666.003 321.093 639.503 304.237 645.954C286.093 652.912 270.834 675.767 271.838 701.061Z" fill="#6100FF"/>
<path opacity="0.2" d="M271.838 701.061C271.825 701.466 271.948 701.865 272.188 702.195C272.427 702.525 272.77 702.769 273.163 702.889C273.556 703.008 273.978 702.997 274.365 702.858C274.751 702.718 275.08 702.457 275.302 702.115C280.066 694.915 291.45 681.722 314.358 673.621C335.953 666.003 321.093 639.503 304.237 645.954C286.093 652.912 270.834 675.767 271.838 701.061Z" fill="black"/>
<path d="M303.373 661.825C303.373 661.825 278.829 674.828 269.893 713.796" stroke="black" stroke-width="0.75" stroke-linecap="round" stroke-linejoin="round"/>
<path d="M297.476 665.939C297.476 665.939 304.519 664.505 314.113 670.777" stroke="black" stroke-width="0.75" stroke-linecap="round" stroke-linejoin="round"/>
<path d="M301.739 650.042C296.745 655.746 293.605 662.797 292.725 670.282" stroke="black" stroke-width="0.75" stroke-linecap="round" stroke-linejoin="round"/>
<path d="M284.896 679.564C286.599 678.39 288.586 677.679 290.657 677.503C292.728 677.327 294.809 677.692 296.691 678.561" stroke="black" stroke-width="0.75" stroke-linecap="round" stroke-linejoin="round"/>
<path d="M280.606 686.167C279.396 681.348 279.48 676.302 280.851 671.526" stroke="black" stroke-width="0.75" stroke-linecap="round" stroke-linejoin="round"/>
<path d="M246.186 713.441H284.984L287.341 702.597H243.829L246.186 713.441Z" fill="black" stroke="black" stroke-linecap="round" stroke-linejoin="round"/>
<path d="M321 367.546C328.261 349.7 319.475 329.429 301.377 322.269C283.278 315.109 262.72 323.772 255.459 341.619C248.199 359.465 256.984 379.736 275.083 386.895C293.181 394.055 313.739 385.392 321 367.546Z" fill="white" stroke="black" stroke-width="2" stroke-linecap="round" stroke-linejoin="round"/>
<path d="M432.871 431.75C440.281 413.868 431.586 393.448 413.451 386.141C395.315 378.834 374.606 387.407 367.196 405.29C359.786 423.172 368.48 443.593 386.616 450.9C404.751 458.206 425.46 449.633 432.871 431.75Z" fill="white" stroke="black" stroke-width="2" stroke-linecap="round" stroke-linejoin="round"/>
<path d="M462.316 298.27L466.205 302.105L462.316 305.939" stroke="black" stroke-linecap="round" stroke-linejoin="round"/>
<path d="M442.112 302.105H464.737" stroke="black" stroke-width="2" stroke-linecap="round" stroke-linejoin="round"/>
<path d="M458.621 416.954L462.51 420.788L458.621 424.623" stroke="black" stroke-linecap="round" stroke-linejoin="round"/>
<path d="M439.382 420.788H461.453" stroke="black" stroke-width="2" stroke-linecap="round" stroke-linejoin="round"/>
<path d="M587.752 298.27L591.641 302.105L587.752 305.939" stroke="black" stroke-linecap="round" stroke-linejoin="round"/>
<path d="M556.423 302.105C556.423 302.651 589.646 302.105 589.646 302.105" stroke="black" stroke-width="2" stroke-linecap="round" stroke-linejoin="round"/>
<path d="M631.611 326.712H637.11V332.134" stroke="black" stroke-linecap="round" stroke-linejoin="round"/>
<path d="M548.696 396.219C548.992 395.762 635.797 327.652 635.797 327.652" stroke="black" stroke-width="2" stroke-linecap="round" stroke-linejoin="round"/>
<path d="M323.54 350.952H398.639V334.306" stroke="black" stroke-width="2" stroke-linecap="round" stroke-linejoin="round"/>
<path d="M321.005 253.24C328.266 235.394 319.48 215.123 301.382 207.964C283.283 200.804 262.725 209.467 255.464 227.313C248.203 245.159 256.989 265.43 275.088 272.59C293.186 279.75 313.744 271.086 321.005 253.24Z" fill="white" stroke="black" stroke-width="2" stroke-linecap="round" stroke-linejoin="round"/>
<path d="M394.764 248L398.64 251.835L402.541 248" stroke="black" stroke-linecap="round" stroke-linejoin="round"/>
<path d="M323.54 239.1H398.639V251.81" stroke="black" stroke-width="2" stroke-linecap="round" stroke-linejoin="round"/>
<path d="M402.541 337.721L398.64 333.887L394.764 337.721" stroke="black" stroke-linecap="round" stroke-linejoin="round"/>
<path d="M691.129 254.768V256.203V303.92L645.377 325.265V273.37L691.129 254.768Z" fill="#6100FF" stroke="black" stroke-linecap="round" stroke-linejoin="round"/>
<path d="M599.625 254.768V256.203V303.92L645.377 325.265V273.37L599.625 254.768Z" fill="black" stroke="black" stroke-linecap="round" stroke-linejoin="round"/>
<path d="M691.13 254.768L645.377 273.37L599.625 254.768L645.377 234.414L691.13 254.768Z" fill="white" stroke="black" stroke-linecap="round" stroke-linejoin="round"/>
<path d="M669.535 262.717V296.2L678.704 287.147L687.834 296.149V262.552L669.535 262.717Z" fill="white" stroke="black" stroke-linecap="round" stroke-linejoin="round"/>
<path d="M678.678 241.982L683.237 239.1L685.722 243.836L691.117 243.594L690.86 248.915L695.663 251.365L692.753 255.848L695.663 260.33L690.86 262.78L691.117 268.101L685.722 267.859L683.237 272.596L678.678 269.713L674.132 272.596L671.647 267.859L666.252 268.101L666.509 262.78L661.706 260.33L664.616 255.848L661.706 251.365L666.509 248.915L666.252 243.594L671.647 243.836L674.132 239.1L678.678 241.982Z" fill="#6100FF"/>
<path d="M678.678 241.982L683.237 239.1L685.722 243.836L691.117 243.594L690.86 248.915L695.663 251.365L692.753 255.848L695.663 260.33L690.86 262.78L691.117 268.101L685.722 267.859L683.237 272.596L678.678 269.713L674.132 272.596L671.647 267.859L666.252 268.101L666.509 262.78L661.706 260.33L664.616 255.848L661.706 251.365L666.509 248.915L666.252 243.594L671.647 243.836L674.132 239.1L678.678 241.982Z" fill="white" stroke="black" stroke-linecap="round" stroke-linejoin="round"/>
<path d="M678.678 241.982L683.237 239.1L685.722 243.836L691.117 243.594L690.86 248.915L695.663 251.365L692.753 255.848L695.663 260.33L690.86 262.78L691.117 268.101L685.722 267.859L683.237 272.596L678.678 269.713L674.132 272.596L671.647 267.859L666.252 268.101L666.509 262.78L661.706 260.33L664.616 255.848L661.706 251.365L666.509 248.915L666.252 243.594L671.647 243.836L674.132 239.1L678.678 241.982Z" stroke="black" stroke-linecap="round" stroke-linejoin="round"/>
<path d="M552.405 325.646V278.881L511.34 255.492L470.262 278.881V325.646L511.34 349.035L552.405 325.646Z" fill="white" stroke="black" stroke-width="2" stroke-linecap="round" stroke-linejoin="round"/>
<path d="M548.721 442.984V396.219L507.643 372.83L466.565 396.219V442.984L507.643 466.373L548.721 442.984Z" fill="white" stroke="black" stroke-width="2" stroke-linecap="round" stroke-linejoin="round"/>
<path d="M435.378 303.387V282.093C435.367 278.818 434.482 275.604 432.812 272.773C431.141 269.942 428.744 267.595 425.862 265.967L407.164 255.302C404.288 253.667 401.026 252.806 397.706 252.806C394.386 252.806 391.125 253.667 388.248 255.302L369.55 265.967C366.678 267.607 364.293 269.962 362.634 272.797C360.975 275.631 360.101 278.846 360.099 282.119V303.412C360.098 306.686 360.972 309.901 362.631 312.736C364.29 315.571 366.676 317.926 369.55 319.564L388.248 330.204C391.122 331.845 394.385 332.709 397.706 332.709C401.028 332.709 404.29 331.845 407.164 330.204L425.862 319.564C428.755 317.935 431.159 315.58 432.83 312.739C434.501 309.898 435.38 306.672 435.378 303.387Z" fill="white" stroke="black" stroke-width="2" stroke-linecap="round" stroke-linejoin="round"/>
<path d="M672.522 316.758L672.612 320.503C672.612 320.859 672.986 320.503 673.282 320.351C673.99 319.783 674.839 319.41 675.741 319.272C676.179 319.195 676.437 319.145 676.115 318.84L673.333 316.402C673.265 316.335 673.178 316.291 673.084 316.274C672.989 316.257 672.892 316.268 672.804 316.306C672.717 316.345 672.643 316.409 672.593 316.489C672.542 316.569 672.518 316.663 672.522 316.758Z" fill="white" stroke="black" stroke-linecap="round" stroke-linejoin="round"/>
<path d="M685.103 323.297C682.901 320.668 680.403 319.018 677.969 319.488C675.535 319.957 674.415 317.913 672.818 320.757C671.222 323.602 669.599 327.423 667.668 330.915C665.736 334.407 671.35 335.88 672.818 338.293C674.029 340.223 677.48 343.765 679.064 346.495C681.651 344.283 684.963 343.069 688.387 343.08C689.108 340.54 690.808 334.191 690.73 332.033C690.614 329.252 687.318 325.938 685.103 323.297ZM679.566 332.82L679.296 332.909C678.696 333.068 678.057 332.986 677.519 332.682C676.98 332.377 676.587 331.874 676.424 331.284L673.192 320.567C673.102 318.51 675.561 319.449 675.561 319.449L680.828 329.709C680.866 329.773 680.896 329.841 680.918 329.912C681.015 330.177 681.063 330.456 681.06 330.738C681.047 331.191 680.899 331.631 680.633 332.002C680.367 332.372 679.996 332.657 679.566 332.82Z" fill="white" stroke="black" stroke-linecap="round" stroke-linejoin="round"/>
<path d="M679.295 332.909C678.696 333.068 678.057 332.986 677.519 332.682C676.98 332.377 676.586 331.874 676.424 331.284L673.913 321.837C673.822 319.767 676.282 320.719 676.282 320.719L680.828 329.607C680.865 329.672 680.896 329.74 680.918 329.811C681.015 330.075 681.063 330.355 681.059 330.636C681.06 331.101 680.917 331.554 680.65 331.938C680.384 332.321 680.005 332.615 679.566 332.782L679.295 332.909Z" fill="#6100FF" stroke="black" stroke-linecap="round" stroke-linejoin="round"/>
<path d="M716.098 381.604C716.291 386.416 713.162 403.418 713.162 410.808C713.162 420.027 708.114 436.775 706.724 438.946C706.582 439.174 705.037 433.003 704.805 432.851L683.738 418.49L692.971 390.937C693.528 389.275 693.742 387.52 693.6 385.775C693.459 384.031 692.964 382.332 692.147 380.778C688.515 373.896 682.167 360.628 679.772 348.247C679.613 347.596 679.348 346.974 678.986 346.406C681.573 344.194 684.885 342.981 688.309 342.991C688.181 343.727 715.931 376.779 716.098 381.604Z" fill="#6100FF"/>
<path opacity="0.2" d="M690.809 383.762C690.654 391.495 687.744 398.885 684.859 406.085C686.795 405.691 688.798 405.755 690.704 406.269C692.611 406.783 694.367 407.733 695.831 409.043C696.007 406.622 696.775 404.279 698.069 402.214C699.363 400.149 701.144 398.423 703.261 397.184L693.165 400.764C696.346 399.634 696.655 386.353 696.59 383.686C696.453 377.805 695.066 372.018 692.521 366.697C691.697 364.957 690.126 360.691 688.13 360.082C685.053 359.129 685.555 361.135 685.851 363.027C687.152 370.227 690.95 376.055 690.809 383.762Z" fill="black"/>
<path d="M716.098 381.604C716.291 386.416 713.162 403.418 713.162 410.808C713.162 420.027 708.114 436.775 706.724 438.946C706.582 439.174 705.037 433.003 704.805 432.851L683.738 418.49L692.971 390.937C693.528 389.275 693.742 387.52 693.6 385.775C693.459 384.031 692.964 382.332 692.147 380.778C688.515 373.896 682.167 360.628 679.772 348.247C679.613 347.596 679.348 346.974 678.986 346.406C681.573 344.194 684.885 342.981 688.309 342.991C688.181 343.727 715.931 376.779 716.098 381.604Z" stroke="black" stroke-linecap="round" stroke-linejoin="round"/>
<path d="M681.059 330.725C681.059 331.19 680.917 331.643 680.65 332.026C680.383 332.409 680.005 332.704 679.566 332.871L679.295 332.96C678.696 333.119 678.057 333.037 677.518 332.733C676.98 332.428 676.586 331.925 676.423 331.334L673.127 320.567C673.423 318.129 675.702 319.297 675.702 319.297L680.853 329.646C680.891 329.71 680.921 329.778 680.943 329.849C681.038 330.131 681.077 330.428 681.059 330.725Z" fill="white" stroke="black" stroke-linecap="round" stroke-linejoin="round"/>
<path d="M669.47 347.943C677.789 353.022 686.481 371.344 685.232 378.417C683.983 385.489 675.149 386.53 675.149 386.53C675.149 386.53 674.48 395.698 685.966 409.742C691.117 416.09 663.457 427.251 655.692 424.509C647.927 421.766 652.009 413.233 651.455 409.03C650.786 403.951 650.412 400.396 650.168 398.085C650.078 397.118 649.725 396.193 649.147 395.406C648.57 394.62 647.788 394.001 646.884 393.616C643.935 392.346 642.841 389.629 641.089 389.197C637.522 388.308 637.162 385.032 636.544 381.578C635.99 378.391 635.462 374.138 635.462 374.138C634.084 372.474 631.972 368.348 633.144 366.087C634.213 364.018 636.724 365.719 638.411 364.234C641.141 361.808 641.514 356.615 644.437 351.892C647.36 347.168 654.366 345.708 654.366 345.708C654.366 345.708 661.165 342.902 669.47 347.943Z" fill="white" stroke="black" stroke-linecap="round" stroke-linejoin="round"/>
<path d="M639.39 376.944C640.574 377.418 641.853 377.618 643.128 377.528C644.402 377.437 645.639 377.059 646.743 376.423" stroke="black" stroke-linecap="round" stroke-linejoin="round"/>
<path d="M646.202 361.554C647 361.707 647.309 362.824 647 363.967C646.691 365.11 645.854 365.96 645.056 365.795C644.257 365.63 643.935 364.526 644.257 363.383C644.579 362.24 645.403 361.389 646.202 361.554Z" fill="black"/>
<path d="M645.185 357.06C651.069 356.133 651.069 360.348 651.069 360.348" stroke="black" stroke-linecap="round" stroke-linejoin="round"/>
<path d="M644.141 407.532C644.141 407.532 664.937 393.374 676.127 398.25C687.318 403.126 689.12 409.373 689.12 409.373C689.12 409.373 653.683 413.716 644.141 407.532Z" fill="black" stroke="black" stroke-linecap="round" stroke-linejoin="round"/>
<path d="M708.875 524.045C689.559 529.289 654.791 534.507 623.165 524.629C623.281 515.461 626.281 492.885 626.68 488.2C631.29 467.134 620.139 430.502 622.907 419.861C624.104 418.544 625.395 417.314 626.77 416.179L633.325 413.183C634.947 412.421 636.621 411.672 638.244 410.922C649.108 405.881 661.008 403.386 673.012 403.634C677.622 403.736 690.757 404.04 696.809 409.983C705.733 418.668 709.171 430.439 706.827 439.035C706.48 440.304 701.47 453.777 701.084 455.91C696.822 478.892 699.912 489.85 706.171 512.376C706.286 512.795 706.402 513.188 706.518 513.645C707.509 517.063 708.296 520.536 708.875 524.045Z" fill="#6100FF"/>
<path opacity="0.2" d="M679.771 459.554C682.17 458.183 684.239 456.316 685.836 454.081C685.836 459.757 681.394 464.836 675.934 467.731C670.474 470.626 664.087 471.756 657.906 472.81L639.479 475.997L645.66 478.232L640.818 483.92C654.365 479.349 669.495 474.778 682.9 479.654C674.247 479.743 681.613 493.621 704.019 512.884C682.385 502.091 645.582 503.246 629.203 516.693C631.443 504.605 629.538 497.101 629.203 488.58C628.701 475.959 629.55 463.439 635.345 449.218C640.264 431.848 635.345 449.218 645.016 457.611C655.369 466.588 667.796 466.893 679.771 459.554Z" fill="black"/>
<path d="M708.875 524.045C689.559 529.289 654.791 534.507 623.165 524.629C623.281 515.461 626.281 492.885 626.68 488.2C631.29 467.134 620.139 430.502 622.907 419.861C624.104 418.544 625.395 417.314 626.77 416.179L633.325 413.183C634.947 412.421 636.621 411.672 638.244 410.922C649.108 405.881 661.008 403.386 673.012 403.634C677.622 403.736 690.757 404.04 696.809 409.983C705.733 418.668 709.171 430.439 706.827 439.035C706.48 440.304 701.47 453.777 701.084 455.91C696.822 478.892 699.912 489.85 706.171 512.376C706.286 512.795 706.402 513.188 706.518 513.645C707.509 517.063 708.296 520.536 708.875 524.045V524.045Z" stroke="black" stroke-linecap="round" stroke-linejoin="round"/>
<path d="M542.862 472.036C542.862 472.036 538.574 469.75 539.888 472.239C541.201 474.727 545.528 476.505 547.614 477.318C549.7 478.13 553.422 476.34 553.422 476.34L542.862 472.036Z" fill="white" stroke="black" stroke-linecap="round" stroke-linejoin="round"/>
<path d="M583.322 466.906C583.322 466.906 578.249 464.1 574.823 462.03C571.398 459.96 564.367 459.249 561.598 460.163C558.83 461.078 555.585 462.855 553.331 463.465C551.078 464.074 548.387 463.211 548.464 464.734C548.541 466.258 549.262 466.246 551.374 466.538C553.486 466.83 557.748 466.817 557.748 466.817C557.748 466.817 553.215 469.775 551.915 470.931C550.614 472.086 546.996 471.451 546.996 471.451C546.996 471.451 540.351 468.671 540.969 470.893C541.587 473.115 546.12 474.893 548.631 475.819C551.142 476.746 552.224 477.826 554.877 476.518C557.529 475.21 568.398 469.128 568.398 469.128L576.639 474.702L583.322 466.906Z" fill="white" stroke="black" stroke-linecap="round" stroke-linejoin="round"/>
<path d="M633.336 413.183C632.184 413.208 631.053 413.49 630.027 414.008C628.859 414.598 627.769 415.328 626.782 416.179C625.406 417.314 624.115 418.544 622.919 419.861C621.686 421.175 620.586 422.604 619.635 424.128C616.557 429.207 613.66 442.92 612.256 451.935C610.969 460.379 607.878 474.613 607.492 476.416C607.363 475.769 605.844 471.566 579.02 463.338C578.776 464.023 575.531 464.976 573.561 469.471C571.912 473.28 574.449 474.474 574.449 474.474C583.669 484.251 605.225 498.599 613.93 498.599C623.807 498.599 626.692 488.25 626.692 488.25C629.911 482.067 640.856 454.678 641.912 452.367C645.827 443.911 640.998 413.183 633.336 413.183Z" fill="#6100FF"/>
<path opacity="0.2" d="M640.87 454.754C642.48 453.421 640.278 453.573 638.462 452.532C637.516 452.083 636.46 451.907 635.417 452.024C634.373 452.141 633.385 452.546 632.564 453.192C630.942 454.51 629.591 456.122 628.585 457.941C621.284 469.369 615.541 475.553 608.239 486.942L604.144 479.286C604.617 480.698 604.682 482.212 604.332 483.658C603.982 485.105 603.23 486.427 602.161 487.476C601.037 488.465 599.573 488.996 598.067 488.961C596.56 488.925 595.124 488.326 594.049 487.285C595.761 490.726 599.29 492.847 602.651 494.777C606.887 497.215 611.665 499.754 616.455 498.662C619.472 497.828 622.089 495.959 623.834 493.393C625.547 490.841 626.943 488.096 627.993 485.216C632.204 475.058 634.856 469.979 639.054 459.821L640.87 454.754Z" fill="black"/>
<path d="M633.336 413.183C632.184 413.208 631.053 413.49 630.027 414.008C628.859 414.598 627.769 415.328 626.782 416.179C625.406 417.314 624.115 418.544 622.919 419.861C621.686 421.175 620.586 422.604 619.635 424.128C616.557 429.207 613.66 442.92 612.256 451.935C610.969 460.379 607.878 474.613 607.492 476.416C607.363 475.769 605.844 471.566 579.02 463.338C578.776 464.023 575.531 464.976 573.561 469.471C571.912 473.28 574.449 474.474 574.449 474.474C583.669 484.251 605.225 498.599 613.93 498.599C623.807 498.599 626.692 488.25 626.692 488.25C629.911 482.067 640.856 454.678 641.912 452.367C645.827 443.911 640.998 413.183 633.336 413.183Z" stroke="black" stroke-linecap="round" stroke-linejoin="round"/>
<path d="M666.187 369.287C666.702 368.017 668.402 366.316 671.737 366.278C673.025 366.278 674.39 367.954 674.313 369.859C674.197 372.284 673.128 375.687 670.192 376.982C668.763 377.617 666.792 379.521 665.041 378.506" stroke="black" stroke-linecap="round" stroke-linejoin="round"/>
<path d="M617.073 430.223C616.343 436.084 616.465 442.019 617.434 447.847" stroke="black" stroke-linecap="round" stroke-linejoin="round"/>
<path d="M607.467 474.842V481.051" stroke="black" stroke-linecap="round" stroke-linejoin="round"/>
<path d="M689.649 453.37C686.547 458.459 682.573 462.978 677.905 466.728C670.269 472.556 658.924 475.477 649.962 471.401" stroke="black" stroke-linecap="round" stroke-linejoin="round"/>
<path d="M694.825 444.672C693.795 446.488 692.752 448.317 691.67 450.12" stroke="black" stroke-linecap="round" stroke-linejoin="round"/>
<path d="M640.214 485.139C652.243 479.418 665.496 476.647 678.845 477.064C679.971 477.035 681.091 477.225 682.142 477.623C682.639 477.806 683.066 478.136 683.366 478.567C683.666 478.999 683.823 479.512 683.816 480.035L666.509 481.305" stroke="black" stroke-linecap="round" stroke-linejoin="round"/>
<path d="M647.27 333.125C643.703 334.75 641.617 338.623 641.05 342.47C640.793 344.248 640.805 346.051 640.484 347.816C640.256 349.617 639.384 351.278 638.024 352.501C637.336 353.09 636.469 353.436 635.559 353.484C634.65 353.533 633.75 353.28 633.002 352.768C633.167 353.677 633.661 354.497 634.393 355.074C635.125 355.651 636.045 355.946 636.981 355.904C638.834 355.776 640.616 355.148 642.132 354.088C643.659 353.024 645.376 352.253 647.193 351.815C648.48 351.612 649.768 351.815 651.056 351.549C652.494 351.215 653.818 350.514 654.894 349.515C655.97 348.517 656.76 347.256 657.185 345.86C659.439 339.499 655.936 329.176 647.27 333.125Z" fill="black" stroke="black" stroke-linecap="round" stroke-linejoin="round"/>
<path d="M651.611 357.771C654.328 358.723 658.049 358.939 658.873 361.669C659.453 363.624 658.023 365.884 658.989 367.687C659.813 369.198 661.333 376.804 663.148 376.423C664.063 376.245 665.26 368.475 666.059 368.119C668.441 367.078 672.008 366.506 672.999 368.881C674.081 371.42 670.643 373.49 669.291 375.928C667.385 379.382 665.878 393.286 669.69 394.441C673.502 395.596 679.425 396.231 683.056 394.581C687.28 392.651 691.813 393.311 695.29 390.225C700.093 385.997 692.534 346.762 688.375 343.041C684.215 339.321 667.643 335.029 662.041 334.661C650.98 333.95 636.441 352.514 651.611 357.771Z" fill="black" stroke="black" stroke-linecap="round" stroke-linejoin="round"/>
<path d="M651.236 386.962C654.822 386.198 658.093 384.388 660.624 381.769" stroke="black" stroke-linecap="round" stroke-linejoin="round"/>
<path d="M638.938 359.929L639.634 370.087" stroke="black" stroke-linecap="round" stroke-linejoin="round"/>
<path d="M639.635 366.278L665.943 368.729" stroke="black" stroke-linecap="round" stroke-linejoin="round"/>
<path d="M688.555 405.64C691.912 401.269 696.89 398.388 702.398 397.628" stroke="black" stroke-linecap="round" stroke-linejoin="round"/>
<path d="M673.063 627.631C671.312 636.38 673.063 647.134 672.728 655.997C672.728 667.158 676.153 732.868 676.153 734.1C676.153 735.331 671.53 741.109 673.063 744.448C674.595 747.788 677.621 749.781 679.849 752.638C681.549 754.797 685.515 756.346 689.623 757.717C693.731 759.089 700.942 759.825 703.53 758.593C706.118 757.362 705.565 754.441 703.53 752.372C702.014 751.142 700.633 749.759 699.409 748.245C697.135 743.199 695.408 737.93 694.259 732.525C693.228 728.399 696.834 705.861 698.869 694.687C700.903 683.513 704.303 666.536 705.307 650.817C705.307 637.878 705.307 634.386 704.316 627.009C704.303 626.945 682.334 621.371 673.063 627.631Z" fill="#5C5C5C" stroke="black" stroke-linecap="round" stroke-linejoin="round"/>
<path d="M695.559 738.011C678.098 716.095 669.934 740.842 671.325 743.458C673.115 747.267 677.145 747.851 678.42 751.546C679.695 755.241 685.309 757.819 689.263 758.936C694.014 760.282 702.474 759.685 705.423 758.276C708.372 756.866 707.625 754.911 705.295 752.537C695.559 742.772 696.912 739.712 695.559 738.011Z" fill="#6100FF" stroke="black" stroke-linecap="round" stroke-linejoin="round"/>
<path d="M704.342 758.428C704.685 758.24 705.004 758.015 705.295 757.755C694.285 760.625 689.945 745.464 681.923 740.944C676.309 738.557 673.283 740.55 671.325 742.302C673.283 745.248 682.696 756.333 687.138 757.755C691.581 759.177 701.548 759.761 704.342 758.428Z" fill="black" stroke="black" stroke-linecap="round" stroke-linejoin="round"/>
<path d="M682.953 742.772C683.764 743.547 679.888 751.153 678.961 755.787C678.163 759.838 672.407 758.327 672.265 757.057C671.39 749.235 671.325 742.125 671.325 742.125C672.995 740.781 675.115 740.102 677.267 740.222C679.419 740.342 681.447 741.252 682.953 742.772Z" fill="#6100FF" stroke="black" stroke-linecap="round" stroke-linejoin="round"/>
<path d="M665.968 627.631C667.707 636.38 665.968 647.134 666.29 655.997C666.29 667.158 662.891 732.868 662.891 734.1C662.891 735.331 667.488 741.109 665.968 744.448C664.449 747.788 661.423 749.781 659.208 752.638C657.521 754.797 653.568 756.346 649.473 757.717C645.378 759.089 638.218 759.825 635.643 758.593C633.067 757.362 633.621 754.441 635.643 752.372C637.154 751.145 638.527 749.761 639.738 748.245C642.007 743.197 643.733 737.928 644.888 732.525C645.906 728.399 642.313 705.861 640.291 694.687C638.27 683.513 634.883 666.536 633.853 650.817C633.853 637.878 630.827 591.456 631.805 584.066C631.844 584.002 656.735 621.371 665.968 627.631Z" fill="#5C5C5C" stroke="black" stroke-linecap="round" stroke-linejoin="round"/>
<path d="M643.574 738.011C660.959 716.095 669.071 740.842 667.68 743.458C665.916 747.267 661.899 747.851 660.624 751.546C659.349 755.241 653.773 757.819 649.846 758.936C645.107 760.282 636.698 759.685 633.762 758.276C630.826 756.866 631.573 754.911 633.891 752.537C643.574 742.772 642.235 739.712 643.574 738.011Z" fill="#6100FF" stroke="black" stroke-linecap="round" stroke-linejoin="round"/>
<path d="M634.561 758.771C634.27 758.577 634.006 758.347 633.775 758.085C642.867 760.955 652.344 745.464 658.963 740.944C663.599 738.557 666.097 740.55 667.707 742.302C666.097 745.248 658.332 756.333 654.662 757.755C650.992 759.177 636.866 760.092 634.561 758.771Z" fill="black" stroke="black" stroke-linecap="round" stroke-linejoin="round"/>
<path d="M658.151 742.772C657.481 743.547 660.726 751.153 661.448 755.787C662.104 759.838 666.856 758.327 666.972 757.057C667.706 749.235 667.744 742.125 667.744 742.125C667.111 741.469 666.34 740.958 665.484 740.63C664.628 740.302 663.709 740.164 662.793 740.226C661.877 740.288 660.986 740.548 660.184 740.988C659.382 741.428 658.687 742.037 658.151 742.772Z" fill="#6100FF" stroke="black" stroke-linecap="round" stroke-linejoin="round"/>
<path d="M715.635 566.277C710.574 592.129 707.084 601.703 708.72 619.606C708.968 620.848 708.852 622.135 708.385 623.314C707.671 624.419 706.627 625.28 705.397 625.777C694.592 631.35 682.882 635.02 670.796 636.621C662.079 637.764 647.412 633.675 640.922 627.898C634.431 622.12 633.311 602.731 632.435 594.452C631.148 599.417 632.075 609.689 632.848 621.485C627.632 610.439 627.516 600.128 626.847 587.977C625.688 566.835 622.34 545.681 623.37 524.489C624.22 507.284 693.125 497.253 707.342 516.718C713.703 525.454 718.249 552.932 715.635 566.277Z" fill="black" stroke="black" stroke-linecap="round" stroke-linejoin="round"/>
<path d="M677.584 576.143C674.828 590.173 668.157 603.569 665.994 617.803" stroke="#5C5C5C" stroke-linecap="round" stroke-linejoin="round"/>
<path d="M678.755 566.962C678.691 568.359 678.575 569.743 678.407 571.127" stroke="#5C5C5C" stroke-linecap="round" stroke-linejoin="round"/>
<path d="M675.535 615.454C673.964 608.686 674.041 599.024 673.127 592.129" stroke="#5C5C5C" stroke-linecap="round" stroke-linejoin="round"/>
<path d="M179.162 759.736H753.842" stroke="black" stroke-linecap="round" stroke-linejoin="round"/>
<path d="M733.488 807.786C664.346 895.567 485.716 884.605 389.741 858.882C293.765 833.159 189.914 740.533 157.635 653.449C125.357 566.366 133.888 425.261 196.068 336.38C258.248 247.5 429.293 120.865 530.714 120.167C632.136 119.469 770.8 217.591 804.595 332.194C838.391 446.797 802.631 720.004 733.488 807.786C664.346 895.567 485.716 884.605 389.741 858.882L733.488 807.786Z" fill="#5C86A7" fill-opacity="0.2"/>
</svg>
