<svg width="60" height="60" viewBox="0 0 60 60" fill="none" xmlns="http://www.w3.org/2000/svg">
<path d="M54 12.6316H47.46C47.79 11.6526 48 10.5789 48 9.47368C48 4.23158 43.98 0 39 0C35.85 0 33.12 1.70526 31.5 4.26316L30 6.37895L28.5 4.23158C26.88 1.70526 24.15 0 21 0C16.02 0 12 4.23158 12 9.47368C12 10.5789 12.21 11.6526 12.54 12.6316H6C2.67 12.6316 0.03 15.4421 0.03 18.9474L0 53.6842C0 57.1895 2.67 60 6 60H54C57.33 60 60 57.1895 60 53.6842V18.9474C60 15.4421 57.33 12.6316 54 12.6316ZM39 6.31579C40.65 6.31579 42 7.73684 42 9.47368C42 11.2105 40.65 12.6316 39 12.6316C37.35 12.6316 36 11.2105 36 9.47368C36 7.73684 37.35 6.31579 39 6.31579ZM21 6.31579C22.65 6.31579 24 7.73684 24 9.47368C24 11.2105 22.65 12.6316 21 12.6316C19.35 12.6316 18 11.2105 18 9.47368C18 7.73684 19.35 6.31579 21 6.31579ZM54 53.6842H6V47.3684H54V53.6842ZM54 37.8947H6V18.9474H21.24L15 27.8842L19.86 31.5789L27 21.3474L30 17.0526L33 21.3474L40.14 31.5789L45 27.8842L38.76 18.9474H54V37.8947Z" fill="#9DC284"/>
</svg>
