<svg width="634" height="624" viewBox="0 0 634 624" fill="none" xmlns="http://www.w3.org/2000/svg">
<path d="M435.998 408.976C436.656 485.689 297.227 592.969 223.78 617.426C150.332 641.883 58.9398 592.908 -4.6848 555.719C-68.3094 518.531 -149.302 465.911 -157.968 394.296C-166.635 322.682 -119.649 165.56 -56.6826 126.034C6.28339 86.5091 137.714 109.988 219.828 157.145C301.941 204.302 435.339 332.263 435.998 408.976C436.656 485.689 297.227 592.969 223.78 617.426L435.998 408.976Z" fill="#6A99AB" fill-opacity="0.2"/>
<path d="M380.415 0.463623L215.623 143.369L75 395.778H201.792L380.415 0.463623ZM402.337 33.8992L332.008 232.127L466.857 401.552L205.25 446.502H634L402.337 33.8992Z" fill="#0072C6"/>
</svg>
