<svg width="790" height="682" viewBox="0 0 790 682" fill="none" xmlns="http://www.w3.org/2000/svg">
<g filter="url(#filter0_d_177_664)">
<path d="M765 547.597H15V547.974H765V547.597Z" fill="#EBEBEB"/>
<path d="M650.34 563.432H570.735V563.81H650.34V563.432Z" fill="#F5F5F5"/>
<path d="M511.83 570.18H423.84V570.557H511.83V570.18Z" fill="#F5F5F5"/>
<path d="M555.165 570.18H526.38V570.557H555.165V570.18Z" fill="#F5F5F5"/>
<path d="M230.49 563.432H165.705V563.81H230.49V563.432Z" fill="#F5F5F5"/>
<path d="M157.35 560.413H134.19V560.79H157.35V560.413Z" fill="#F5F5F5"/>
<path d="M293.506 569.803H212.206V570.18H293.506V569.803Z" fill="#F5F5F5"/>
<path d="M372.599 450.182H82.9644C80.6941 450.178 78.5178 449.269 76.9124 447.653C75.307 446.038 74.4034 443.848 74.3994 441.563V31.8136C74.4231 29.5419 75.3354 27.371 76.9387 25.7716C78.542 24.1722 80.707 23.2732 82.9644 23.2693H372.599C374.868 23.2733 377.043 24.1832 378.646 25.7993C380.249 27.4154 381.149 29.6056 381.149 31.8891V441.563C381.149 443.846 380.249 446.036 378.646 447.652C377.043 449.268 374.868 450.178 372.599 450.182ZM82.9644 23.5712C80.7935 23.5752 78.7127 24.4449 77.1776 25.9898C75.6425 27.5347 74.7784 29.6288 74.7744 31.8136V441.563C74.7784 443.747 75.6425 445.842 77.1776 447.386C78.7127 448.931 80.7935 449.801 82.9644 449.805H372.599C374.769 449.801 376.848 448.931 378.381 447.386C379.914 445.84 380.774 443.746 380.774 441.563V31.8136C380.774 29.6302 379.914 27.536 378.381 25.9907C376.848 24.4454 374.769 23.5752 372.599 23.5712H82.9644Z" fill="#EBEBEB"/>
<path d="M697.05 450.182H407.4C405.131 450.178 402.956 449.268 401.353 447.652C399.75 446.036 398.85 443.846 398.85 441.563V31.8136C398.87 29.5432 399.779 27.3724 401.38 25.7726C402.981 24.1728 405.144 23.2732 407.4 23.2693H697.05C699.306 23.2732 701.47 24.1728 703.07 25.7726C704.671 27.3724 705.58 29.5432 705.6 31.8136V441.563C705.6 443.846 704.7 446.036 703.097 447.652C701.494 449.268 699.319 450.178 697.05 450.182ZM407.4 23.5712C405.231 23.5752 403.151 24.4454 401.619 25.9907C400.086 27.536 399.225 29.6302 399.225 31.8136V441.563C399.225 443.746 400.086 445.84 401.619 447.386C403.151 448.931 405.231 449.801 407.4 449.805H697.05C699.222 449.801 701.305 448.932 702.842 447.387C704.38 445.843 705.247 443.749 705.255 441.563V31.8136C705.247 29.6274 704.38 27.5333 702.842 25.9889C701.305 24.4444 699.222 23.5752 697.05 23.5712H407.4Z" fill="#EBEBEB"/>
<path d="M132.659 260.955H121.904L118.919 257.03H135.629L132.659 260.955Z" fill="#F0F0F0"/>
<path d="M149.175 212.829C149.165 215.928 148.505 218.991 147.239 221.816C145.972 224.641 144.127 227.165 141.825 229.223C140.284 230.566 139.043 232.222 138.185 234.082C137.326 235.943 136.87 237.966 136.845 240.017V241.692H117.72V240.017C117.695 237.969 117.24 235.95 116.384 234.093C115.528 232.235 114.292 230.581 112.755 229.238C109.357 226.208 106.979 222.189 105.951 217.739C104.923 213.288 105.296 208.626 107.018 204.398C108.741 200.17 111.727 196.586 115.563 194.142C119.4 191.699 123.896 190.516 128.43 190.759C134.027 191.096 139.286 193.566 143.14 197.665C146.993 201.764 149.151 207.186 149.175 212.829Z" fill="#F0F0F0"/>
<path d="M119.576 218.792L118.283 219.058L122.88 241.717L124.173 241.451L119.576 218.792Z" fill="white"/>
<path d="M134.992 218.806L130.414 241.47L131.708 241.734L136.285 219.071L134.992 218.806Z" fill="white"/>
<path d="M129.93 228.785L127.29 223.955L124.62 228.785L119.655 223.019L120.645 222.158L124.38 226.476L127.29 221.207L130.185 226.476L133.92 222.158L134.91 223.019L129.93 228.785Z" fill="white"/>
<path d="M136.845 241.587V256.924L117.72 257.03V241.692L136.845 241.587Z" fill="#F0F0F0"/>
<path d="M136.835 256.251L117.725 256.366L117.733 257.694L136.843 257.58L136.835 256.251Z" fill="white"/>
<path d="M136.835 240.929L117.725 241.043L117.733 242.372L136.843 242.258L136.835 240.929Z" fill="white"/>
<path d="M589.92 611.271H512.1L537.12 634.126H617.385L589.92 611.271Z" fill="#EBEBEB"/>
<path d="M501.72 645.871L443.97 614.819L492.12 597.036L548.055 624.812L501.72 645.871Z" fill="white"/>
<path d="M454.455 604.206H523.89L502.89 630.322H425.925L454.455 604.206Z" fill="#E0E0E0"/>
<path d="M644.76 105.391C660.955 105.391 674.085 92.178 674.085 75.8787C674.085 59.5793 660.955 46.3661 644.76 46.3661C628.564 46.3661 615.435 59.5793 615.435 75.8787C615.435 92.178 628.564 105.391 644.76 105.391Z" fill="#F0F0F0"/>
<path d="M644.835 106.055C636.878 106.055 629.248 102.875 623.622 97.2124C617.996 91.5504 614.835 83.8709 614.835 75.8636C614.835 67.8562 617.996 60.1768 623.622 54.5147C629.248 48.8526 636.878 45.6717 644.835 45.6717V47.0001C637.233 47.0001 629.941 50.0395 624.566 55.4496C619.19 60.8597 616.17 68.1974 616.17 75.8485C616.17 83.4995 619.19 90.8372 624.566 96.2473C629.941 101.657 637.233 104.697 644.835 104.697V106.055Z" fill="white"/>
<path d="M644.835 106.055V104.727C648.6 104.727 652.327 103.981 655.805 102.531C659.283 101.081 662.443 98.9563 665.105 96.2775C667.766 93.5987 669.878 90.4185 671.318 86.9185C672.759 83.4184 673.5 79.6671 673.5 75.8787C673.5 72.0903 672.759 68.3389 671.318 64.8389C669.878 61.3389 667.766 58.1586 665.105 55.4798C662.443 52.801 659.283 50.676 655.805 49.2263C652.327 47.7765 648.6 47.0303 644.835 47.0303V45.7019C652.792 45.7019 660.423 48.8828 666.049 54.5449C671.675 60.207 674.835 67.8864 674.835 75.8938C674.835 83.9011 671.675 91.5806 666.049 97.2426C660.423 102.905 652.792 106.086 644.835 106.086V106.055Z" fill="white"/>
<path d="M660.165 75.8787H658.845C658.845 66.0965 653.91 53.0234 644.475 46.9247L645.195 45.8076C655.02 52.163 660.165 65.7342 660.165 75.8787Z" fill="white"/>
<path d="M645.195 105.044L644.475 103.927C653.91 97.8885 658.845 84.7551 658.845 74.988H660.165C660.165 85.1174 655.02 98.7037 645.195 105.044Z" fill="white"/>
<path d="M630.84 75.8787H629.52C629.52 65.7342 634.65 52.1479 644.52 45.8076L645.24 46.9247C635.775 53.0083 630.84 66.0965 630.84 75.8787Z" fill="white"/>
<path d="M644.475 105.044C634.65 98.7037 629.475 85.1174 629.475 74.9729H630.795C630.795 84.7551 635.73 97.8432 645.15 103.927L644.475 105.044Z" fill="white"/>
<path d="M645.495 46.3661H644.175V105.391H645.495V46.3661Z" fill="white"/>
<path d="M669.645 59.4845H620.01V60.8129H669.645V59.4845Z" fill="white"/>
<path d="M674.145 75.7126H615.525V77.0411H674.145V75.7126Z" fill="white"/>
<path d="M668.999 91.9256H620.669V93.2541H668.999V91.9256Z" fill="white"/>
<path d="M563.205 237.752C563.212 220.599 560.685 203.54 555.705 187.136L599.82 148.083L572.1 99.6548L516.435 118.615C493.034 93.4189 462.721 75.7903 429.345 67.9684L417.78 10H362.28L350.76 67.9684C317.37 75.7897 287.042 93.4177 263.625 118.615L207.9 99.6548L180.12 148.083L224.235 187.136C214.315 220.152 214.315 255.383 224.235 288.399L180.12 327.407L207.9 375.835L263.565 356.89C286.999 382.074 317.319 399.713 350.7 407.582L362.22 465.55H417.72L429.285 407.582C462.653 399.712 492.957 382.073 516.375 356.89L572.04 375.835L599.82 327.407L555.705 288.399C560.685 271.984 563.212 254.915 563.205 237.752ZM390 331.845C372.199 331.845 354.799 326.533 339.998 316.581C325.198 306.628 313.662 292.482 306.85 275.932C300.039 259.381 298.256 241.169 301.729 223.599C305.202 206.029 313.773 189.89 326.36 177.223C338.947 164.556 354.983 155.929 372.441 152.434C389.9 148.94 407.996 150.733 424.441 157.589C440.886 164.444 454.943 176.054 464.832 190.949C474.721 205.844 480 223.356 480 241.27C480 265.292 470.518 288.33 453.639 305.316C436.761 322.303 413.869 331.845 390 331.845Z" fill="#E0E0E0"/>
<path d="M652.8 446.967C648.18 444.416 653.85 422.98 647.61 413.605C643.11 406.751 634.755 402.585 631.71 394.916C630.479 391.677 630.191 388.152 630.879 384.754C631.567 381.356 633.203 378.226 635.595 375.729C636.002 375.241 636.515 374.854 637.095 374.597C637.778 374.405 638.495 374.364 639.195 374.476C643.245 374.884 647.445 375.563 650.82 377.873C654.96 380.726 657.255 385.708 657.99 390.704C658.725 395.701 657.69 449.669 652.8 446.967Z" fill="#F0F0F0"/>
<path d="M654.96 416.805C654.96 416.262 654.96 415.734 654.885 415.19C654.77 416.051 654.715 416.918 654.72 417.787L654.96 416.805Z" fill="#F0F0F0"/>
<path d="M669.63 381.134C669.392 380.798 669.079 380.524 668.715 380.334C668.299 380.177 667.853 380.115 667.41 380.152C664.824 380.011 662.244 380.53 659.91 381.662C658.565 382.513 657.408 383.632 656.51 384.951C655.612 386.271 654.993 387.761 654.69 389.331C654.095 392.463 653.934 395.664 654.21 398.841L654.885 415.22C655.402 411.137 657.187 407.323 659.985 404.321C663.54 400.532 668.67 398.101 671.01 393.452C671.971 391.48 672.352 389.273 672.107 387.09C671.863 384.907 671.003 382.841 669.63 381.134Z" fill="#F0F0F0"/>
<path d="M661.98 480.072C661.98 479.801 661.98 479.544 661.98 479.287C660.765 462.606 657.675 431.765 642.84 416.911C639.84 413.816 634.59 411.597 630.15 413.077C628.552 413.656 627.112 414.608 625.95 415.854C621.09 420.776 619.665 427.403 619.86 433.713C620.161 441.557 622.566 449.173 626.82 455.753C632.82 465.067 642.045 472.63 649.62 481.114C657.195 489.598 649.02 513.646 661.215 510.264C662.28 509.962 662.01 483.635 661.98 480.072Z" fill="#F0F0F0"/>
<path d="M654.42 491.953C654.75 476.686 655.075 461.429 655.395 446.182C655.695 432.052 656.58 416.624 668.01 405.8C670.92 403.053 675.33 400.547 679.47 401.694C680.964 402.147 682.327 402.955 683.445 404.049C688.11 408.321 689.73 414.33 689.85 420.111C689.939 427.316 688.088 434.41 684.495 440.642C679.5 449.443 671.34 456.809 664.785 464.946C658.23 473.083 666.87 494.67 655.5 492.194L654.42 491.953Z" fill="#F0F0F0"/>
<path d="M673.215 549.71C662.649 553.076 651.307 553.076 640.74 549.71L628.035 491.455H685.92L673.215 549.71Z" fill="#F5F5F5"/>
<path d="M683.295 501.463H630.51V502.671H683.295V501.463Z" fill="white"/>
<path d="M390 652C550.624 652 680.835 644.349 680.835 634.911C680.835 625.474 550.624 617.823 390 617.823C229.376 617.823 99.165 625.474 99.165 634.911C99.165 644.349 229.376 652 390 652Z" fill="#FAFAFA"/>
<path d="M586.86 417.137H500.64C498.745 417.17 496.865 416.797 495.124 416.041C493.384 415.286 491.823 414.166 490.546 412.757C489.269 411.347 488.305 409.68 487.717 407.866C487.13 406.053 486.933 404.134 487.14 402.238L503.55 213.403C503.964 209.367 505.831 205.624 508.798 202.879C511.766 200.134 515.63 198.577 519.66 198.503H605.88C607.775 198.47 609.656 198.844 611.396 199.599C613.137 200.355 614.698 201.474 615.975 202.884C617.252 204.293 618.216 205.96 618.803 207.774C619.39 209.588 619.587 211.507 619.38 213.403L603 402.238C602.586 406.278 600.715 410.026 597.741 412.771C594.767 415.517 590.896 417.07 586.86 417.137Z" fill="#4A7E93"/>
<path opacity="0.1" d="M586.86 417.137H500.64C498.745 417.17 496.865 416.797 495.124 416.041C493.384 415.286 491.823 414.166 490.546 412.757C489.269 411.347 488.305 409.68 487.717 407.866C487.13 406.053 486.933 404.134 487.14 402.238L503.55 213.403C503.964 209.367 505.831 205.624 508.798 202.879C511.766 200.134 515.63 198.577 519.66 198.503H605.88C607.775 198.47 609.656 198.844 611.396 199.599C613.137 200.355 614.698 201.474 615.975 202.884C617.252 204.293 618.216 205.96 618.803 207.774C619.39 209.588 619.587 211.507 619.38 213.403L603 402.238C602.586 406.278 600.715 410.026 597.741 412.771C594.767 415.517 590.896 417.07 586.86 417.137Z" fill="black"/>
<path opacity="0.8" d="M551.76 403.219C551.566 405.136 550.68 406.916 549.27 408.22C547.861 409.525 546.025 410.265 544.11 410.299C543.208 410.317 542.312 410.142 541.483 409.784C540.653 409.426 539.909 408.895 539.3 408.225C538.691 407.554 538.231 406.761 537.951 405.898C537.671 405.035 537.577 404.122 537.675 403.219C537.869 401.297 538.756 399.514 540.169 398.207C541.581 396.899 543.421 396.158 545.34 396.124C546.242 396.107 547.138 396.285 547.966 396.645C548.795 397.004 549.538 397.537 550.146 398.209C550.753 398.88 551.212 399.675 551.49 400.539C551.768 401.403 551.86 402.316 551.76 403.219V403.219Z" stroke="white" stroke-width="0.5" stroke-miterlimit="10"/>
<path opacity="0.8" d="M575.31 215.395H547.395C547.058 215.402 546.724 215.336 546.415 215.202C546.106 215.068 545.829 214.87 545.602 214.62C545.375 214.37 545.203 214.074 545.099 213.753C544.994 213.431 544.958 213.09 544.995 212.754V212.104C545.065 211.389 545.394 210.724 545.919 210.237C546.445 209.75 547.13 209.474 547.845 209.463H575.76C576.096 209.456 576.43 209.522 576.739 209.656C577.048 209.79 577.326 209.988 577.553 210.238C577.78 210.488 577.951 210.784 578.056 211.105C578.161 211.427 578.196 211.768 578.16 212.104V212.754C578.09 213.469 577.761 214.134 577.235 214.621C576.71 215.108 576.024 215.384 575.31 215.395V215.395Z" stroke="white" stroke-width="0.5" stroke-miterlimit="10"/>
<path opacity="0.4" d="M595.531 385.677H496.216L510.226 224.589H609.526L595.531 385.677Z" fill="white"/>
<path opacity="0.1" d="M569.745 199.182L521.655 417.137H550.56L598.155 199.182H569.745Z" fill="white"/>
<path opacity="0.1" d="M547.26 199.182L499.17 417.137H513.735L561.345 199.182H547.26Z" fill="white"/>
<path d="M527.791 376.967H503.236L504.721 359.894H529.261L527.791 376.967Z" fill="#4A7E93"/>
<path d="M558.93 376.967H534.375L535.86 359.894H560.415L558.93 376.967Z" fill="#4A7E93"/>
<path d="M590.085 376.967H565.53L567.015 359.894H591.57L590.085 376.967Z" fill="#4A7E93"/>
<path d="M593.88 333.4H507.015L506.88 334.91H593.745L593.88 333.4Z" fill="#4A7E93"/>
<path opacity="0.2" d="M593.88 333.4H507.015L506.88 334.91H593.745L593.88 333.4Z" fill="black"/>
<path d="M594.376 327.634H586.366L587.071 319.557H595.081L594.376 327.634Z" fill="#4A7E93"/>
<path d="M554.985 327.634H546.975L547.68 319.557H555.69L554.985 327.634Z" fill="#4A7E93"/>
<path d="M515.595 327.634H507.585L508.29 319.557H516.3L515.595 327.634Z" fill="#4A7E93"/>
<path d="M592.5 349.191H569.715L570.195 343.65H592.98L592.5 349.191Z" fill="#4A7E93"/>
<path d="M565.5 310.787H509.085L509.58 305.171H565.995L565.5 310.787Z" fill="#4A7E93"/>
<path opacity="0.2" d="M565.5 310.787H509.085L509.58 305.171H565.995L565.5 310.787Z" fill="white"/>
<path d="M541.59 236.258H515.565L516.09 230.28H542.1L541.59 236.258Z" fill="#4A7E93"/>
<path opacity="0.2" d="M541.59 236.258H515.565L516.09 230.28H542.1L541.59 236.258Z" fill="white"/>
<path d="M512.311 353.116C511.427 353.132 510.55 352.958 509.738 352.606C508.926 352.255 508.198 351.733 507.602 351.076C507.006 350.419 506.556 349.642 506.282 348.796C506.007 347.95 505.915 347.056 506.011 346.171C506.201 344.291 507.07 342.547 508.452 341.267C509.834 339.987 511.633 339.262 513.511 339.227C514.395 339.211 515.272 339.385 516.084 339.737C516.896 340.088 517.624 340.61 518.22 341.267C518.816 341.924 519.266 342.701 519.54 343.547C519.815 344.392 519.907 345.287 519.811 346.171C519.621 348.052 518.752 349.796 517.37 351.076C515.988 352.355 514.188 353.081 512.311 353.116Z" fill="#4A7E93"/>
<path d="M596.595 300.642H509.925L515.16 240.394H601.845L596.595 300.642Z" fill="#4A7E93"/>
<path opacity="0.3" d="M503.1 218.414H534.69C538.372 218.363 541.907 216.949 544.621 214.444C547.334 211.938 549.037 208.516 549.405 204.828L549.945 198.578H520.08C515.936 198.652 511.963 200.25 508.909 203.07C505.855 205.89 503.933 209.737 503.505 213.886L503.1 218.414Z" fill="black"/>
<path d="M620.645 246.34L620.122 253.612L621.618 253.721L622.141 246.449L620.645 246.34Z" fill="#4A7E93"/>
<path d="M622.622 218.803L621.105 239.897L622.601 240.006L624.118 218.912L622.622 218.803Z" fill="#4A7E93"/>
<path d="M531.66 198.639H277.23L291.33 36.3122H545.775L531.66 198.639Z" fill="#4A7E93"/>
<path d="M528.15 211.335H277.5C275.851 211.366 274.214 211.043 272.7 210.388C271.185 209.732 269.826 208.759 268.714 207.533C267.603 206.308 266.764 204.857 266.253 203.279C265.743 201.701 265.573 200.032 265.755 198.382L279.78 37.067C280.131 33.5565 281.75 30.2977 284.33 27.9079C286.909 25.518 290.269 24.1631 293.775 24.0996H544.5C546.148 24.0727 547.784 24.3991 549.298 25.0571C550.811 25.7151 552.169 26.6896 553.28 27.9161C554.391 29.1425 555.229 30.5927 555.741 32.1705C556.252 33.7482 556.424 35.4173 556.245 37.067L542.22 198.382C541.863 201.903 540.232 205.168 537.637 207.557C535.043 209.945 531.666 211.29 528.15 211.335Z" fill="#4A7E93"/>
<path d="M531.66 198.639H277.23L291.33 36.3122H545.775L531.66 198.639Z" fill="#4A7E93"/>
<path opacity="0.4" d="M531.66 198.639H277.23L291.33 36.3122H545.775L531.66 198.639Z" fill="white"/>
<path d="M515.159 83.4115H468.449L470.744 56.9635H517.469L515.159 83.4115Z" fill="#4A7E93"/>
<path d="M510.629 135.583H463.904L466.214 109.135H512.924L510.629 135.583Z" fill="#4A7E93"/>
<path d="M506.085 187.74H459.375L461.67 161.291H508.395L506.085 187.74Z" fill="#4A7E93"/>
<path d="M305.475 167.481L305.34 168.99H440.175L440.31 167.481H305.475Z" fill="#4A7E93"/>
<path opacity="0.2" d="M440.31 167.481H305.475L305.34 168.99H440.175L440.31 167.481Z" fill="black"/>
<path opacity="0.1" d="M322.95 24.1902L273.255 211.259H289.965L339.12 24.1902H322.95Z" fill="white"/>
<path opacity="0.1" d="M348.749 24.1902L299.054 211.259H332.219L381.359 24.1902H348.749Z" fill="white"/>
<path d="M441.809 150.226H307.139L315.284 56.6163H449.939L441.809 150.226Z" fill="#4A7E93"/>
<path d="M310.844 187.136C309.96 187.152 309.083 186.978 308.271 186.626C307.459 186.275 306.731 185.753 306.135 185.096C305.539 184.439 305.089 183.662 304.815 182.816C304.54 181.971 304.448 181.076 304.544 180.192C304.735 178.311 305.603 176.567 306.985 175.287C308.367 174.008 310.167 173.282 312.044 173.247C312.928 173.231 313.805 173.405 314.617 173.757C315.429 174.108 316.157 174.63 316.753 175.287C317.349 175.944 317.799 176.721 318.074 177.567C318.348 178.413 318.44 179.307 318.344 180.192C318.154 182.072 317.285 183.816 315.904 185.096C314.522 186.376 312.722 187.101 310.844 187.136Z" fill="#4A7E93"/>
<path d="M373.469 161.729H306.149L306.659 155.751H373.994L373.469 161.729Z" fill="#4A7E93"/>
<path opacity="0.2" d="M373.469 161.729H306.149L306.659 155.751H373.994L373.469 161.729Z" fill="white"/>
<path d="M438.855 183.181H412.845L413.355 177.188H439.38L438.855 183.181Z" fill="#4A7E93"/>
<path d="M440.804 161.729H434.864L435.374 155.751H441.329L440.804 161.729Z" fill="#4A7E93"/>
<path d="M430.725 161.729H424.785L425.31 155.751H431.25L430.725 161.729Z" fill="#4A7E93"/>
<path d="M420.66 161.729H414.705L415.23 155.751H421.17L420.66 161.729Z" fill="#4A7E93"/>
<path opacity="0.5" d="M450.45 50.8647H349.455L349.89 45.7019H450.9L450.45 50.8647Z" fill="white"/>
<path d="M341.475 51.2723H315.465L315.975 45.2943H342L341.475 51.2723Z" fill="#4A7E93"/>
<path opacity="0.2" d="M341.475 51.2723H315.465L315.975 45.2943H342L341.475 51.2723Z" fill="white"/>
<path d="M517.331 19.1255L517.319 20.635L524.564 20.6961L524.576 19.1866L517.331 19.1255Z" fill="#4A7E93"/>
<path d="M490.696 19.0031L490.681 20.5127L511.696 20.7242L511.711 19.2146L490.696 19.0031Z" fill="#4A7E93"/>
<path d="M436.59 242.674H444.705L429.765 409.001H422.07L436.59 242.674Z" fill="#263238"/>
<path opacity="0.2" d="M436.59 242.674H444.705L429.765 409.001H422.07L436.59 242.674Z" fill="white"/>
<path d="M435.786 322.618L434.299 322.816L444.857 403.304L446.344 403.106L435.786 322.618Z" fill="#263238"/>
<path d="M425.91 400.049H175.875L189.555 242.674H439.59L425.91 400.049Z" fill="#4A7E93"/>
<path opacity="0.7" d="M425.91 400.049H175.875L189.555 242.674H439.59L425.91 400.049Z" fill="white"/>
<path d="M230.654 418.919H241.004L257.924 639.923H250.439L230.654 418.919Z" fill="#263238"/>
<path d="M479.34 417.409H489.69L506.61 639.923H499.125L479.34 417.409Z" fill="#263238"/>
<path d="M486.615 417.409H177.945V452.447H486.615V417.409Z" fill="#4A7E93"/>
<path opacity="0.3" d="M432.405 417.681L431.19 452.417L486.615 452.447V417.409L432.405 417.681Z" fill="black"/>
<path opacity="0.2" d="M427.71 417.666H177.99V452.703H427.71V417.666Z" fill="black"/>
<path d="M184.769 417.409H174.419L174.104 639.923H181.574L184.769 417.409Z" fill="#263238"/>
<path d="M433.455 417.409H423.105L422.805 639.923H430.275L433.455 417.409Z" fill="#263238"/>
<path opacity="0.2" d="M174.419 417.409L174.104 639.923H181.574L184.769 417.409H174.419Z" fill="white"/>
<path opacity="0.1" d="M433.455 417.409H423.105L422.805 639.923H430.275L433.455 417.409Z" fill="white"/>
<path d="M165.81 409.001C165.81 404.276 167.55 400.456 169.71 400.441H494.4C496.56 400.441 498.3 404.276 498.3 409.001C498.3 413.711 496.56 417.53 494.4 417.545H169.71C167.55 417.53 165.81 413.711 165.81 409.001Z" fill="#263238"/>
<path opacity="0.1" d="M165.81 409.001C165.81 404.276 167.55 400.456 169.71 400.441H494.4C496.56 400.441 498.3 404.276 498.3 409.001C498.3 413.711 496.56 417.53 494.4 417.545H169.71C167.55 417.53 165.81 413.711 165.81 409.001Z" fill="white"/>
<path d="M414.495 409.001C414.495 404.276 416.25 400.456 418.395 400.441H494.4C496.56 400.441 498.3 404.276 498.3 409.001C498.3 413.711 496.56 417.53 494.4 417.545H418.395C416.25 417.53 414.495 413.711 414.495 409.001Z" fill="#263238"/>
<path d="M409.98 379.775H334.305L344.97 257H420.66L409.98 379.775Z" fill="white"/>
<path d="M410.67 380.53H333.495L344.295 256.245H421.5L410.67 380.53ZM335.115 379.02H409.305L419.805 257.755H345.66L335.115 379.02Z" fill="white"/>
<path d="M359.055 374.295H340.62L341.745 361.237H360.18L359.055 374.295ZM341.43 373.54H358.365L359.37 361.992H342.435L341.43 373.54Z" fill="#E0E0E0"/>
<path d="M381.495 374.295H363L364.14 361.237H382.575L381.495 374.295ZM363.87 373.54H380.805L381.81 361.992H364.875L363.87 373.54Z" fill="#E0E0E0"/>
<path d="M403.92 374.295H385.5L386.64 361.237H405L403.92 374.295ZM386.31 373.54H403.23L404.235 361.992H387.315L386.31 373.54Z" fill="#E0E0E0"/>
<path d="M406.275 342.699H343.71V343.454H406.275V342.699Z" fill="#E0E0E0"/>
<path d="M386.355 325.128H345L345.405 320.327H386.79L386.355 325.128ZM345.855 324.373H385.74L386.025 321.082H346.065L345.855 324.373Z" fill="#E0E0E0"/>
<path d="M405.54 355.788H388.365L388.785 351.032H405.945L405.54 355.788ZM389.19 355.033H404.85L405.12 351.787H389.475L389.19 355.033Z" fill="#E0E0E0"/>
<path d="M407.146 337.25H400.621L401.191 330.683H407.716L407.146 337.25ZM401.446 336.495H406.501L406.936 331.438H401.926L401.446 336.495Z" fill="#E0E0E0"/>
<path d="M378.78 337.25H372.255L372.825 330.683H379.35L378.78 337.25ZM373.065 336.495H378.09L378.525 331.438H373.5L373.065 336.495Z" fill="#E0E0E0"/>
<path d="M350.415 337.25H343.89L344.46 330.683H351L350.415 337.25ZM344.7 336.495H349.725L350.16 331.438H345.135L344.7 336.495Z" fill="#E0E0E0"/>
<path d="M369.39 268.427H349.89L350.34 263.355H369.84L369.39 268.427ZM350.715 267.673H368.715L369.015 264.11H351L350.715 267.673Z" fill="#E0E0E0"/>
<path d="M348.39 357.116H346.74C346.163 357.123 345.59 357.007 345.06 356.777C344.53 356.547 344.054 356.208 343.662 355.781C343.271 355.354 342.972 354.849 342.787 354.299C342.601 353.749 342.532 353.166 342.585 352.587L342.735 350.942C342.856 349.717 343.419 348.58 344.317 347.745C345.216 346.91 346.387 346.437 347.61 346.413H349.245C349.824 346.404 350.397 346.518 350.929 346.747C351.461 346.976 351.939 347.315 352.333 347.742C352.726 348.169 353.026 348.675 353.212 349.226C353.399 349.777 353.468 350.362 353.415 350.942L353.265 352.587C353.144 353.812 352.581 354.949 351.682 355.784C350.784 356.618 349.613 357.092 348.39 357.116ZM347.61 347.107C346.575 347.131 345.583 347.533 344.821 348.239C344.06 348.945 343.579 349.905 343.47 350.942L343.335 352.587C343.282 353.066 343.33 353.552 343.478 354.01C343.625 354.469 343.868 354.891 344.19 355.248C344.512 355.605 344.906 355.889 345.346 356.081C345.786 356.273 346.261 356.368 346.74 356.361H348.39C349.425 356.338 350.417 355.935 351.178 355.23C351.94 354.524 352.421 353.563 352.53 352.527L352.665 350.881C352.714 350.399 352.662 349.913 352.512 349.452C352.362 348.992 352.118 348.569 351.795 348.209C351.471 347.856 351.076 347.575 350.637 347.385C350.197 347.195 349.723 347.101 349.245 347.107H347.61Z" fill="#E0E0E0"/>
<path d="M408.885 316.297H345.705V315.889L349.5 272.111H412.68V272.518L408.885 316.297ZM346.515 315.542H408.195L411.9 272.911H350.22L346.515 315.542Z" fill="#E0E0E0"/>
<path d="M350.108 272.229L349.664 272.838L408.316 316.229L408.76 315.621L350.108 272.229Z" fill="#E0E0E0"/>
<path d="M381.284 292.436L345.912 315.616L346.321 316.248L381.694 293.068L381.284 292.436Z" fill="#E0E0E0"/>
<path d="M358.485 374.22L341.865 361.916L342.315 361.313L358.935 373.616L358.485 374.22Z" fill="#E0E0E0"/>
<path d="M359.588 361.292L340.833 373.582L341.243 374.215L359.997 361.925L359.588 361.292Z" fill="#E0E0E0"/>
<path d="M380.926 374.22L364.306 361.916L364.756 361.313L381.376 373.616L380.926 374.22Z" fill="#E0E0E0"/>
<path d="M382.021 361.283L363.269 373.576L363.678 374.208L382.43 361.915L382.021 361.283Z" fill="#E0E0E0"/>
<path d="M403.35 374.22L386.745 361.916L387.195 361.313L403.8 373.616L403.35 374.22Z" fill="#E0E0E0"/>
<path d="M404.454 361.29L385.701 373.583L386.111 374.216L404.863 361.922L404.454 361.29Z" fill="#E0E0E0"/>
<path d="M324.81 353.236H184.935L193.275 257.302H333.15L324.81 353.236Z" fill="white"/>
<path d="M325.5 353.991H184.125L192.6 256.547H333.96L325.5 353.991ZM185.76 352.482H324.12L332.325 258.056H193.965L185.76 352.482Z" fill="white"/>
<path d="M277.14 336.163H201.21V336.918H277.14V336.163Z" fill="#E0E0E0"/>
<path d="M278.76 322.229H202.26V321.822L206.865 268.775H283.455V269.182L278.76 322.229ZM202.995 321.474H278.07L282.57 269.529H207.57L202.995 321.474Z" fill="#E0E0E0"/>
<path d="M205.304 347.545H203.234C202.819 347.55 202.407 347.468 202.025 347.304C201.643 347.14 201.299 346.899 201.014 346.594C200.735 346.281 200.524 345.912 200.395 345.512C200.266 345.111 200.221 344.688 200.264 344.269L200.444 342.186C200.536 341.315 200.94 340.508 201.58 339.916C202.221 339.324 203.055 338.988 203.924 338.971H205.979C206.396 338.968 206.808 339.052 207.19 339.219C207.573 339.385 207.916 339.63 208.199 339.937C208.479 340.247 208.692 340.613 208.823 341.011C208.955 341.408 209.003 341.829 208.964 342.246L208.784 344.33C208.69 345.199 208.285 346.004 207.645 346.596C207.005 347.187 206.173 347.525 205.304 347.545ZM203.924 339.725C203.242 339.737 202.587 339.999 202.084 340.464C201.58 340.929 201.264 341.563 201.194 342.246L201.014 344.33C200.975 344.643 201.004 344.961 201.099 345.262C201.193 345.563 201.351 345.84 201.562 346.074C201.773 346.307 202.032 346.493 202.32 346.616C202.609 346.74 202.921 346.799 203.234 346.79H205.304C205.986 346.776 206.639 346.512 207.142 346.048C207.644 345.584 207.962 344.952 208.034 344.269L208.214 342.186C208.249 341.872 208.216 341.555 208.119 341.255C208.021 340.955 207.862 340.68 207.65 340.447C207.439 340.214 207.18 340.029 206.892 339.905C206.604 339.78 206.293 339.719 205.979 339.725H203.924Z" fill="#E0E0E0"/>
<path d="M240 331.74H201.345L201.705 327.603H240.375L240 331.74ZM202.155 330.985H239.31L239.55 328.358H202.395L202.155 330.985Z" fill="#E0E0E0"/>
<path d="M276.705 345.326H261.3L261.66 341.19H277.065L276.705 345.326ZM262.125 344.571H276L276.24 341.945H262.35L262.125 344.571Z" fill="#E0E0E0"/>
<path d="M277.935 331.74H273.84L274.185 327.603H278.295L277.935 331.74ZM274.65 330.985H277.245L277.47 328.358H274.875L274.65 330.985Z" fill="#E0E0E0"/>
<path d="M272.265 331.74H268.155L268.515 327.603H272.625L272.265 331.74ZM268.98 330.985H271.575L271.8 328.358H269.205L268.98 330.985Z" fill="#E0E0E0"/>
<path d="M266.58 331.74H262.5L262.86 327.603H267L266.58 331.74ZM263.31 330.985H265.905L266.13 328.358H263.535L263.31 330.985Z" fill="#E0E0E0"/>
<path d="M283.755 264.774H226.125L226.44 261.106H284.07L283.755 264.774ZM226.95 264.019H283.065L283.26 261.861H227.13L226.95 264.019Z" fill="#E0E0E0"/>
<path d="M222.39 265.001H207L207.36 260.879H222.75L222.39 265.001ZM207.81 264.246H221.7L221.94 261.634H208.035L207.81 264.246Z" fill="#E0E0E0"/>
<path d="M319.935 286.12H292.935L294.3 270.465H321.3L319.935 286.12ZM293.7 285.365H319.2L320.445 271.22H294.945L293.7 285.365Z" fill="#E0E0E0"/>
<path d="M317.385 315.496H290.385L291.75 299.842H318.75L317.385 315.496ZM291.135 314.742H316.635L317.865 300.597H292.365L291.135 314.742Z" fill="#E0E0E0"/>
<path d="M314.835 344.873H287.835L289.185 329.219H316.185L314.835 344.873ZM288.585 344.118H314.085L315.315 329.973H289.815L288.585 344.118Z" fill="#E0E0E0"/>
<path d="M320.728 270.483L293.134 285.393L293.489 286.058L321.083 271.148L320.728 270.483Z" fill="#E0E0E0"/>
<path d="M319.41 286.059L294.39 271.175L294.765 270.526L319.785 285.41L319.41 286.059Z" fill="#E0E0E0"/>
<path d="M316.962 299.869L289.401 314.684L289.753 315.348L317.315 300.534L316.962 299.869Z" fill="#E0E0E0"/>
<path d="M292.224 300.389L291.842 301.038L316.842 315.958L317.225 315.309L292.224 300.389Z" fill="#E0E0E0"/>
<path d="M287.745 345.22L289.155 329.038L301.995 336.676L315.6 329.324L315.96 330.004L302.745 337.129L314.745 344.239L314.355 344.888L302.04 337.537L287.745 345.22ZM289.8 330.29L288.615 343.877L301.215 337.084L289.8 330.29Z" fill="#E0E0E0"/>
<path d="M282.805 268.825L202.382 321.528L202.791 322.16L283.214 269.458L282.805 268.825Z" fill="#E0E0E0"/>
<path d="M207.397 268.836L206.953 269.444L278.199 322.153L278.643 321.545L207.397 268.836Z" fill="#E0E0E0"/>
<path d="M288.915 590.227L287.265 627.016C287.265 627.016 300.765 631.228 302.085 625.627C302.94 622.185 305.49 610.199 307.785 600.855C308.67 597.307 307.785 593.896 305.985 592.567C303 590.363 297.915 590.409 288.915 590.227Z" fill="#FF8B7B"/>
<path d="M205.02 588.34L190.995 616.192C190.995 616.192 198.99 626.367 202.335 622.231C206.835 616.675 221.52 598.56 221.52 598.56C221.52 598.56 226.62 599.285 205.02 588.34Z" fill="#FF8B7B"/>
<path opacity="0.2" d="M198.391 601.489L213.901 608.041L220.141 600.327L202.321 593.684L198.391 601.489Z" fill="black"/>
<path opacity="0.2" d="M288.316 603.769L287.926 612.237H305.101L307.201 603.769H288.316Z" fill="black"/>
<path d="M199.17 373.903L205.83 381.737L213.87 375.79C213.87 375.79 211.2 364.09 209.97 364.921L199.17 372.287V373.903Z" fill="#FF8B7B"/>
<path opacity="0.2" d="M199.17 373.903L205.83 381.737L213.87 375.79C213.87 375.79 211.2 364.09 209.97 364.921L199.17 372.287V373.903Z" fill="black"/>
<path d="M205.575 272.926L176.19 299.585C174.335 301.654 173.166 304.252 172.846 307.02C172.526 309.788 173.071 312.587 174.405 315.028C181.725 328.615 199.17 355.908 199.17 355.908L207.72 349.719C207.72 349.719 197.46 319.18 193.26 312.794C193.138 312.614 193.089 312.393 193.122 312.177C193.156 311.961 193.269 311.766 193.44 311.632L218.31 291.011L205.575 272.926Z" fill="#FF8B7B"/>
<g opacity="0.2">
<path d="M205.575 272.926L176.19 299.585C174.335 301.654 173.166 304.252 172.846 307.02C172.526 309.788 173.071 312.587 174.405 315.028C181.725 328.615 199.17 355.908 199.17 355.908L207.72 349.719C207.72 349.719 197.46 319.18 193.26 312.794C193.138 312.614 193.089 312.393 193.122 312.177C193.156 311.961 193.269 311.766 193.44 311.632L218.31 291.011L205.575 272.926Z" fill="black"/>
</g>
<path d="M199.17 355.788V372.197L211.17 364C211.17 364 211.965 350.142 207.69 349.598L199.17 355.788Z" fill="#FF8B7B"/>
<path opacity="0.2" d="M199.17 355.788V372.197L211.17 364C211.17 364 211.965 350.142 207.69 349.598L199.17 355.788Z" fill="black"/>
<path d="M267.09 489.326C266.903 496.614 265.999 503.865 264.39 510.974C255.84 547.34 222.045 599.511 222.045 599.511L202.32 592.069C202.32 592.069 230.175 516.589 233.385 497.342C235.995 481.642 211.95 424.293 204.975 400.985C199.935 384.138 207.03 368.378 207.03 368.378C207.03 368.378 225.15 370.853 246.63 372.212L255.075 411.341L258.975 429.456C261.889 439.559 264.045 449.868 265.425 460.297L265.605 461.655C265.755 462.833 265.905 463.995 266.025 465.127C266.95 473.158 267.306 481.245 267.09 489.326Z" fill="#4A7E93"/>
<path opacity="0.4" d="M267.09 489.326C266.903 496.614 265.999 503.865 264.39 510.974C255.84 547.34 222.045 599.511 222.045 599.511L202.32 592.069C202.32 592.069 230.175 516.589 233.385 497.342C235.995 481.642 211.95 424.293 204.975 400.985C199.935 384.138 207.03 368.378 207.03 368.378C207.03 368.378 225.15 370.853 246.63 372.212L255.075 411.341L258.975 429.456C261.889 439.559 264.045 449.868 265.425 460.297L265.605 461.655C265.755 462.833 265.905 463.995 266.025 465.127C266.95 473.158 267.306 481.245 267.09 489.326Z" fill="white"/>
<path opacity="0.4" d="M267.09 489.326C264.3 479.665 252.855 450.998 237.855 422.557C222.72 393.875 239.355 386.991 239.355 386.991C245.7 389.316 250.92 398.902 255.075 411.341C259.98 426.029 263.4 444.763 265.425 460.297L265.605 461.655C265.755 462.833 265.905 463.995 266.025 465.127C266.95 473.158 267.306 481.245 267.09 489.326Z" fill="#263238"/>
<path d="M280.845 377.345L229.62 373.435C229.62 373.435 226.11 385.33 226.11 393.92C226.11 425.319 248.13 423.78 254.925 439.495C269.925 474.336 283.605 495.712 285.27 505.509C286.575 513.208 286.77 608.886 286.77 608.886H306.75C306.75 608.886 324.27 534.01 321 503.607C317.73 473.204 280.845 377.345 280.845 377.345Z" fill="#4A7E93"/>
<g opacity="0.4">
<path d="M280.845 377.345L229.62 373.435C229.62 373.435 226.11 385.33 226.11 393.92C226.11 425.319 248.13 423.78 254.925 439.495C269.925 474.336 283.605 495.712 285.27 505.509C286.575 513.208 286.77 608.886 286.77 608.886H306.75C306.75 608.886 324.27 534.01 321 503.607C317.73 473.204 280.845 377.345 280.845 377.345Z" fill="white"/>
</g>
<path d="M349.92 275.175L379.68 290.271C379.828 290.36 379.964 290.466 380.085 290.588L382.02 292.822L379.26 292.732C379.079 292.73 378.9 292.688 378.735 292.611L348.465 278.376C348.159 278.23 347.918 277.974 347.793 277.657C347.668 277.34 347.667 276.987 347.79 276.67L348.09 275.93C348.154 275.754 348.253 275.593 348.382 275.458C348.511 275.322 348.667 275.216 348.839 275.145C349.011 275.074 349.197 275.04 349.383 275.045C349.569 275.05 349.752 275.095 349.92 275.175Z" fill="#4A7E93"/>
<path d="M355.29 287.946L364.86 282.753L363.285 296.627C363.285 296.627 355.425 301.276 350.67 296.415L355.29 287.946Z" fill="#FF8B7B"/>
<path d="M375.615 288.324L374.865 292.747C374.746 293.438 374.412 294.072 373.91 294.558C373.408 295.044 372.765 295.356 372.075 295.449L363.285 296.627L364.86 282.753L373.095 284.58C373.91 284.762 374.626 285.251 375.095 285.947C375.563 286.644 375.749 287.494 375.615 288.324Z" fill="#FF8B7B"/>
<path d="M282.541 287.418C282.541 287.418 290.326 326.803 308.191 333.34C324.271 339.212 356.581 298.619 356.581 298.619L355.291 287.946L314.791 314.394L298.501 272.896C292.929 277.45 287.602 282.297 282.541 287.418Z" fill="#FF8B7B"/>
<path d="M207.916 625.069C206.721 624.167 205.611 623.156 204.601 622.05C204.554 621.995 204.529 621.925 204.529 621.853C204.529 621.781 204.554 621.712 204.601 621.657C204.632 621.594 204.682 621.543 204.744 621.51C204.806 621.477 204.877 621.466 204.946 621.476C205.681 621.597 212.056 622.608 212.866 624.405C212.94 624.574 212.971 624.76 212.955 624.945C212.94 625.129 212.878 625.307 212.776 625.461C212.619 625.729 212.401 625.955 212.14 626.12C211.879 626.285 211.583 626.386 211.276 626.412C210.035 626.37 208.847 625.895 207.916 625.069ZM205.786 622.291C208.021 624.571 210.001 625.824 211.141 625.763C211.343 625.749 211.539 625.684 211.71 625.573C211.88 625.462 212.02 625.309 212.116 625.129C212.153 625.068 212.173 624.997 212.173 624.925C212.173 624.854 212.153 624.783 212.116 624.722C211.741 623.695 208.366 622.774 205.786 622.291Z" fill="#4A7E93"/>
<path d="M204.63 622.08C204.578 622.028 204.537 621.967 204.51 621.899C204.485 621.847 204.472 621.79 204.472 621.733C204.472 621.675 204.485 621.618 204.51 621.567C204.645 621.355 208.59 617.038 211.185 618.895L211.425 619.046C212.115 619.649 212.055 620.193 211.89 620.555C211.155 622.065 206.565 622.487 204.705 622.065L204.63 622.08ZM210.885 619.468C209.22 618.245 206.625 620.54 205.545 621.551C207.6 621.733 210.9 621.144 211.335 620.253C211.335 620.253 211.515 619.997 211.05 619.574L210.885 619.468Z" fill="#4A7E93"/>
<path d="M189.69 614.834L182.97 626.911C182.697 627.432 182.638 628.041 182.807 628.605C182.975 629.17 183.357 629.646 183.87 629.93C187.515 632.073 192.42 635.093 194.55 636.059C205.545 641.025 212.07 639.712 218.295 639.576C218.8 639.529 219.287 639.368 219.721 639.105C220.156 638.842 220.526 638.484 220.804 638.058C221.082 637.632 221.261 637.148 221.328 636.642C221.395 636.137 221.348 635.623 221.19 635.138L220.92 634.202C220.814 633.814 220.611 633.461 220.33 633.175C220.049 632.89 219.699 632.682 219.315 632.572C210.315 630.171 205.08 620.163 205.08 620.163L192.525 613.928C192.026 613.692 191.457 613.654 190.931 613.822C190.406 613.99 189.963 614.351 189.69 614.834Z" fill="#263238"/>
<path d="M306.51 629.416C305.105 628.89 303.749 628.239 302.46 627.469C302.393 627.439 302.34 627.386 302.31 627.319C302.279 627.253 302.274 627.177 302.295 627.107C302.307 627.041 302.34 626.98 302.388 626.934C302.437 626.888 302.499 626.859 302.565 626.85C303.3 626.744 309.705 625.869 310.995 627.348C311.116 627.489 311.198 627.659 311.235 627.842C311.272 628.024 311.261 628.213 311.205 628.39C311.135 628.689 310.995 628.967 310.796 629.2C310.598 629.434 310.347 629.617 310.065 629.733C308.879 630.039 307.624 629.927 306.51 629.416ZM303.66 627.379C306.465 628.888 308.715 629.537 309.795 629.145C309.985 629.073 310.154 628.954 310.286 628.798C310.417 628.642 310.506 628.455 310.545 628.254C310.573 628.186 310.581 628.111 310.568 628.039C310.555 627.967 310.52 627.9 310.47 627.846C309.765 626.986 306.27 627.092 303.66 627.379Z" fill="#4A7E93"/>
<path d="M302.175 627.786L302.01 627.665C301.984 627.611 301.97 627.552 301.97 627.492C301.97 627.432 301.984 627.372 302.01 627.318C302.085 627.077 304.62 621.793 307.65 622.789L307.92 622.865C308.745 623.242 308.85 623.786 308.79 624.148C308.49 625.763 304.29 627.56 302.355 627.741L302.175 627.786ZM307.41 623.469C305.475 622.789 303.645 625.748 302.91 627.016C304.935 626.594 307.92 625.069 308.085 624.103C308.085 624.103 308.175 623.801 307.605 623.544L307.41 623.469Z" fill="#4A7E93"/>
<path d="M285.165 629.9C284.985 632.466 285.075 636.33 285.165 640.467C285.165 642.474 286.395 645.78 288.165 646.505C290.955 647.577 295.485 647.245 300.615 646.414C307.32 645.312 318.45 639.516 322.965 637.055C323.819 636.591 324.467 635.821 324.781 634.898C325.095 633.975 325.052 632.966 324.66 632.073C324.45 631.636 324.255 631.288 324.09 631.002C323.966 630.778 323.782 630.593 323.56 630.468C323.338 630.343 323.085 630.282 322.83 630.292C316.695 630.473 315.81 630.186 310.08 630.186C308.492 630.245 306.913 629.906 305.487 629.2C304.06 628.494 302.83 627.443 301.905 626.141C301.905 626.141 295.005 628.284 289.65 627.167C284.295 626.05 285.165 629.9 285.165 629.9Z" fill="#263238"/>
<path d="M233.67 250.674C227.9 253.122 222.303 255.962 216.915 259.174C211.64 262.06 206.937 265.898 203.04 270.495C202.014 271.558 201.443 272.984 201.45 274.466C201.621 275.334 201.98 276.153 202.5 276.866C207.073 284.024 212.976 290.226 219.885 295.132C221.564 284.784 225.123 274.835 230.385 265.786C232.905 261.423 235.905 257.075 236.385 252.063L233.67 250.674Z" fill="#4A7E93"/>
<path d="M309.6 220.86C309.467 224.163 309.78 227.469 310.53 230.688C308.31 231.442 305.91 229.48 305.91 229.48L309.6 220.86Z" fill="#A02724"/>
<path d="M307.89 229.495C307.509 229.501 307.129 229.445 306.765 229.329C304.065 228.529 302.73 224.996 303.765 221.434C304.8 217.871 307.845 215.637 310.53 216.437C311.238 216.653 311.883 217.042 312.406 217.568C312.929 218.095 313.315 218.743 313.53 219.456C314.034 221.026 314.034 222.716 313.53 224.287C312.66 227.321 310.29 229.495 307.89 229.495ZM309.39 217.026C307.35 217.026 305.265 218.898 304.47 221.645C303.54 224.8 304.65 227.925 306.945 228.604C307.242 228.695 307.55 228.74 307.86 228.74C309.93 228.74 312 226.808 312.78 224.121C313.231 222.697 313.231 221.167 312.78 219.743C312.605 219.144 312.288 218.596 311.857 218.147C311.426 217.698 310.894 217.36 310.305 217.162C310.018 217.074 309.72 217.028 309.42 217.026H309.39Z" fill="black"/>
<path d="M271.951 218.852L276.931 229.102L283.741 243.096C282.532 244.071 281.515 245.264 280.741 246.614C278.806 249.527 277.291 251.626 283.201 256.97C283.843 257.508 284.318 258.222 284.568 259.025C284.818 259.828 284.833 260.687 284.611 261.498C283.981 263.476 281.761 265.136 274.891 263.008C268.288 260.841 262.544 256.61 258.496 250.931C256.486 248.229 257.281 246.614 259.771 244.425C267.001 238.417 270.211 227.653 271.951 218.852Z" fill="#FF8B7B"/>
<path d="M305.295 234.673C303.622 237.251 301.383 239.408 298.751 240.978C296.12 242.549 293.165 243.49 290.115 243.73C288.04 243.903 285.951 243.725 283.935 243.202C281.487 242.563 279.212 241.385 277.271 239.753C275.331 238.122 273.775 236.077 272.715 233.767C268.425 224.709 271.335 217.071 275.13 203.575C275.991 200.423 277.628 197.541 279.889 195.194C282.15 192.847 284.963 191.112 288.067 190.149C291.171 189.186 294.466 189.026 297.648 189.684C300.829 190.342 303.795 191.797 306.27 193.914C317.325 203.59 312.27 223.774 305.295 234.673Z" fill="#FF8B7B"/>
<path opacity="0.2" d="M290.115 243.791C288.04 243.964 285.951 243.785 283.935 243.262L283.74 243.096L285.78 241.028C285.78 241.028 285.885 243.383 290.115 243.791Z" fill="black"/>
<path d="M284.145 186.713C283.728 185.661 282.98 184.775 282.016 184.192C281.051 183.608 279.923 183.359 278.805 183.483C280.443 184.564 281.686 186.154 282.345 188.011L284.145 186.713Z" fill="#263238"/>
<path d="M325.29 208.708C321.78 212.421 312.72 210.851 312.72 210.851L308.895 207.077C308.04 206.323 306.27 205.492 305.025 209.855L303.33 213.554C303.33 213.554 298.92 220.83 292.335 224.332C291.405 224.83 288.81 226.642 288.81 226.642C286.563 228.109 283.963 228.938 281.286 229.042C278.609 229.145 275.953 228.519 273.6 227.231L271.845 226.536C270.962 226.187 270.196 225.59 269.638 224.817C269.08 224.045 268.753 223.127 268.695 222.173C268.275 214.716 267.885 196.39 273.915 190.472C279.45 184.977 282.42 186.713 284.415 186.17C286.651 184.942 289.112 184.188 291.648 183.954C294.184 183.72 296.741 184.012 299.16 184.811C313.98 189.944 313.425 198.76 316.41 198.322C318.219 198.029 319.88 197.143 321.135 195.801C320.88 196.239 317.685 201.386 319.2 201.552C320.715 201.718 324.765 198.156 324.42 199.182C324.075 200.209 319.71 204.738 322.35 205.855C324.735 206.866 328.665 203.288 328.665 203.288C328.665 203.288 328.815 204.979 325.29 208.708Z" fill="#263238"/>
<path d="M296.664 211.171L296.253 211.803L314.206 223.644L314.617 223.013L296.664 211.171Z" fill="black"/>
<path d="M289.41 216.09C289.079 219.216 289.907 222.356 291.735 224.906C294.12 228.166 298.26 225.962 299.43 222.173C300.48 218.762 299.745 213.357 296.43 211.485C293.115 209.614 289.83 212.21 289.41 216.09Z" fill="#FF8B7B"/>
<path d="M233.671 250.675C233.671 250.675 219.436 267.582 214.831 306.831C210.226 346.081 206.476 372.393 206.476 372.393L281.476 377.767C281.476 377.767 278.626 352.542 281.476 333.174C284.326 313.806 303.466 267.688 299.236 260.26C297.091 256.486 280.861 249.256 265.441 248.184C250.501 247.097 233.671 250.675 233.671 250.675Z" fill="#263238"/>
<path d="M280.5 258.811C276.525 262.389 274.29 267.506 272.7 272.609C271.932 274.705 271.555 276.926 271.59 279.161C271.978 282.037 272.965 284.8 274.485 287.267L281.505 300.687C290.139 300.38 298.646 298.503 306.615 295.147C307.664 294.855 308.557 294.161 309.105 293.215C309.87 291.403 305.175 277.077 304.605 271.431C303.165 259.385 291 249.24 280.5 258.811Z" fill="#4A7E93"/>
<path d="M250.5 248.35L256.71 243.489C258.175 242.341 260.003 241.767 261.856 241.874C266.176 242.1 274.77 242.1 282.06 244.893C288.675 247.474 287.265 253.12 287.265 253.12C287.265 253.12 274.605 247.957 250.5 248.35Z" fill="#4A7E93"/>
<path d="M207.526 364.755C203.371 369.389 203.371 383.685 203.371 383.685C203.371 383.685 242.026 387.489 259.291 387.489C265.938 387.478 272.577 387.029 279.166 386.145L280.306 377.722L282.751 385.542L286.186 384.772L280.741 368.498L207.526 364.755Z" fill="#4A7E93"/>
<path d="M226.606 599.557C226.696 599.557 222.466 607.105 222.466 607.105L198.466 597.564L200.491 590.212L226.606 599.557Z" fill="#4A7E93"/>
<path d="M311.46 600.689C311.565 600.689 309.96 608.856 309.96 608.856H284.385L283.695 601.308L311.46 600.689Z" fill="#4A7E93"/>
</g>
<defs>
<filter id="filter0_d_177_664" x="0" y="0" width="790" height="682" filterUnits="userSpaceOnUse" color-interpolation-filters="sRGB">
<feFlood flood-opacity="0" result="BackgroundImageFix"/>
<feColorMatrix in="SourceAlpha" type="matrix" values="0 0 0 0 0 0 0 0 0 0 0 0 0 0 0 0 0 0 127 0" result="hardAlpha"/>
<feOffset dx="5" dy="10"/>
<feGaussianBlur stdDeviation="10"/>
<feComposite in2="hardAlpha" operator="out"/>
<feColorMatrix type="matrix" values="0 0 0 0 0.289896 0 0 0 0 0.496048 0 0 0 0 0.575 0 0 0 0.25 0"/>
<feBlend mode="normal" in2="BackgroundImageFix" result="effect1_dropShadow_177_664"/>
<feBlend mode="normal" in="SourceGraphic" in2="effect1_dropShadow_177_664" result="shape"/>
</filter>
</defs>
</svg>
