<svg width="679" height="577" viewBox="0 0 679 577" fill="none" xmlns="http://www.w3.org/2000/svg">
<path d="M772.999 289.645C773.267 365.246 722.938 454.47 648.582 499.925C574.226 545.379 402.115 604.989 326.863 562.37C251.611 519.75 182.011 323.271 197.068 244.209C212.125 165.146 342.222 120.979 417.207 87.9974C492.191 55.0155 587.677 12.7092 646.976 46.3171C706.274 79.925 772.731 214.044 772.999 289.645C773.267 365.246 722.938 454.47 648.582 499.925L772.999 289.645Z" fill="#6A99AB" fill-opacity="0.2"/>
<path d="M143.675 442.829C133.2 442.829 123.307 438.048 116.615 429.383L14.7763 299.402C8.08401 290.737 5.4653 279.681 8.08401 268.924L44.455 106.673C46.7827 95.9164 53.7659 87.251 63.3679 82.4701L210.597 10.1594C215.253 7.76895 220.49 6.57373 225.728 6.57373C230.965 6.57373 236.203 7.76895 240.858 10.1594L388.088 82.1713C397.69 86.9522 404.673 95.6176 407.001 106.375L443.372 268.626C445.699 279.382 443.372 290.438 436.679 299.104L334.841 429.084C328.148 437.45 318.256 442.53 307.781 442.53L143.675 442.829Z" fill="#326DE6"/>
<path d="M225.436 14.0438C229.51 14.0438 233.584 14.9402 237.366 16.7331L384.596 88.745C392.161 92.6295 397.98 99.8008 399.726 108.167L436.097 270.418C438.134 279.084 436.097 288.048 430.569 294.92L328.73 424.9C323.493 431.773 315.345 435.657 306.907 435.657H143.675C135.236 435.657 127.089 431.773 121.852 424.9L20.0133 294.92C14.7759 288.048 12.7391 279.084 14.4849 270.418L50.8559 108.167C52.8926 99.502 58.421 92.3307 65.9862 88.745L213.216 16.4343C216.998 14.9402 221.363 14.0438 225.436 14.0438ZM225.436 0C219.326 0 213.216 1.49402 207.396 4.18327L60.1668 76.494C48.5281 82.1713 40.381 92.6295 37.4714 105.478L1.1004 267.729C-1.80928 280.578 1.1004 293.725 9.24749 304.183L111.086 434.163C118.942 444.323 130.872 450 143.384 450H306.616C319.128 450 331.058 444.323 338.914 434.163L440.753 304.183C448.9 294.024 451.809 280.578 448.9 267.729L412.529 105.478C409.619 92.6295 401.472 82.1713 389.833 76.494L243.185 4.18327C237.657 1.49402 231.547 0 225.436 0Z" fill="white"/>
<path d="M372.957 257.57C372.666 257.57 372.666 257.57 372.957 257.57H372.666C372.375 257.57 372.085 257.57 372.085 257.271C371.503 257.271 370.921 256.972 370.339 256.972C368.302 256.674 366.556 256.375 364.81 256.375C363.937 256.375 363.065 256.375 361.901 256.076H361.61C355.499 255.478 350.553 254.881 345.897 253.387C343.861 252.49 343.279 251.295 342.697 250.1C342.697 249.801 342.406 249.801 342.406 249.502L338.623 248.307C340.369 234.562 339.787 220.219 336.586 206.176C333.386 192.132 327.857 178.984 320.292 167.032L323.202 164.343V163.745C323.202 162.251 323.493 160.757 324.657 159.263C328.148 155.976 332.513 153.287 337.75 150C338.623 149.403 339.496 149.104 340.369 148.506C342.115 147.61 343.57 146.713 345.316 145.518C345.606 145.219 346.188 144.921 346.77 144.323C347.061 144.024 347.352 144.024 347.352 143.725C351.426 140.14 352.299 134.164 349.389 130.279C347.934 128.188 345.316 126.992 342.697 126.992C340.369 126.992 338.332 127.889 336.296 129.383C336.005 129.682 336.005 129.682 335.714 129.98C335.132 130.279 334.841 130.877 334.259 131.176C332.804 132.67 331.64 133.865 330.476 135.359C329.894 135.956 329.312 136.853 328.439 137.45C324.366 141.933 320.583 145.518 316.801 148.207C315.928 148.805 315.055 149.104 314.182 149.104C313.6 149.104 313.018 149.104 312.436 148.805H311.854L308.363 151.195C304.58 147.012 300.507 143.427 296.433 139.841C278.975 125.797 257.734 117.132 235.621 115.04L235.33 111.156C235.039 110.857 235.039 110.857 234.748 110.558C233.875 109.662 232.711 108.765 232.42 106.674C232.129 101.893 232.711 96.5142 233.293 90.5381V90.2393C233.293 89.3429 233.584 88.1477 233.875 87.2513C234.166 85.4584 234.457 83.6656 234.748 81.574V79.7811V78.8847C234.748 73.5062 230.674 69.0242 225.728 69.0242C223.4 69.0242 221.072 70.2194 219.327 72.0122C217.581 73.805 216.708 76.1955 216.708 78.8847V79.4823V81.2752C216.708 83.3668 216.999 85.1596 217.581 86.9525C217.872 87.8489 217.872 88.7453 218.163 89.9405V90.2393C218.745 96.2154 219.618 101.594 219.036 106.375C218.745 108.466 217.581 109.363 216.708 110.259C216.417 110.558 216.417 110.558 216.126 110.857L215.835 114.741C210.598 115.339 205.36 115.937 200.123 117.132C177.718 122.211 157.932 133.865 142.511 150.598L139.601 148.506H139.019C138.438 148.506 137.856 148.805 137.274 148.805C136.401 148.805 135.528 148.506 134.655 147.909C130.872 145.219 127.09 141.335 123.016 136.853C122.434 136.255 121.852 135.359 120.979 134.761C119.816 133.267 118.652 132.072 117.197 130.578C116.906 130.279 116.324 129.98 115.742 129.383C115.451 129.084 115.16 129.084 115.16 128.785C113.414 127.291 111.087 126.395 108.759 126.395C106.14 126.395 103.521 127.59 102.067 129.682C99.1569 133.566 100.03 139.542 104.103 143.128C104.394 143.128 104.394 143.427 104.685 143.427C105.267 143.725 105.558 144.323 106.14 144.622C107.886 145.817 109.341 146.713 111.087 147.61C111.959 147.909 112.832 148.506 113.705 149.104C118.943 152.391 123.307 155.08 126.799 158.367C128.254 159.861 128.254 161.355 128.254 162.849V163.446L131.163 166.136C130.581 167.032 129.999 167.63 129.708 168.526C115.16 192.132 109.632 219.921 113.414 247.411L109.632 248.606C109.632 248.905 109.341 248.905 109.341 249.203C108.759 250.399 107.886 251.594 106.14 252.49C101.776 253.984 96.5382 254.582 90.4279 255.18H90.1369C89.264 255.18 88.1001 255.18 87.2272 255.478C85.4814 255.478 83.7356 255.777 81.6988 256.076C81.1169 256.076 80.535 256.375 79.953 256.375C79.6621 256.375 79.3711 256.375 79.0801 256.674C73.8427 257.869 70.6421 262.948 71.515 267.729C72.3879 271.913 76.1705 274.602 80.8259 274.602C81.6988 274.602 82.2808 274.602 83.1537 274.303C83.4446 274.303 83.7356 274.303 83.7356 274.004C84.3175 274.004 84.8995 273.705 85.4814 273.705C87.5182 273.108 88.973 272.51 90.7188 271.614C91.5917 271.315 92.4646 270.717 93.3375 270.419H93.6285C99.1569 268.327 104.103 266.534 108.759 265.937H109.341C111.087 265.937 112.25 266.833 113.123 267.431C113.414 267.431 113.414 267.729 113.705 267.729L117.779 267.132C124.762 289.243 138.147 308.964 155.896 323.307C159.969 326.594 164.043 329.283 168.407 331.972L166.661 335.857C166.661 336.156 166.952 336.156 166.952 336.454C167.534 337.65 168.116 339.144 167.534 341.235C165.788 345.717 163.17 350.199 159.969 355.279V355.578C159.387 356.474 158.805 357.072 158.223 357.968C157.059 359.462 156.187 360.956 155.023 362.749C154.732 363.048 154.441 363.646 154.15 364.243C154.15 364.542 153.859 364.841 153.859 364.841C151.531 369.921 153.277 375.598 157.641 377.69C158.805 378.287 159.969 378.586 161.133 378.586C164.625 378.586 168.116 376.195 169.862 372.909C169.862 372.61 170.153 372.311 170.153 372.311C170.444 371.713 170.735 371.116 171.026 370.817C171.899 368.725 172.19 367.231 172.772 365.439C173.063 364.542 173.354 363.646 173.645 362.749C175.681 356.773 177.136 351.992 179.755 347.809C180.919 346.016 182.374 345.717 183.538 345.12C183.828 345.12 183.828 345.12 184.119 344.821L186.156 340.937C198.959 346.016 212.925 348.705 226.892 348.705C235.33 348.705 244.059 347.809 252.206 345.717C257.443 344.522 262.39 343.028 267.336 341.235L269.082 344.522C269.373 344.522 269.373 344.522 269.664 344.821C271.119 345.12 272.283 345.717 273.447 347.51C275.774 351.694 277.52 356.773 279.557 362.45V362.749C279.848 363.646 280.139 364.542 280.43 365.439C281.012 367.231 281.303 369.024 282.176 370.817C282.467 371.415 282.757 371.713 283.048 372.311C283.048 372.61 283.339 372.909 283.339 372.909C285.085 376.494 288.577 378.586 292.068 378.586C293.232 378.586 294.396 378.287 295.56 377.69C297.597 376.494 299.343 374.701 299.925 372.311C300.507 369.921 300.507 367.231 299.343 364.841C299.343 364.542 299.052 364.542 299.052 364.243C298.761 363.646 298.47 363.048 298.179 362.749C297.306 360.956 296.142 359.462 294.978 357.968C294.396 357.072 293.814 356.474 293.232 355.578V355.279C290.032 350.199 287.122 345.717 285.667 341.235C285.085 339.144 285.667 337.949 285.958 336.454C285.958 336.156 286.249 336.156 286.249 335.857L284.794 332.271C300.216 323.008 313.309 309.861 323.202 293.725C328.439 285.359 332.513 276.096 335.423 266.833L338.914 267.431C339.205 267.431 339.205 267.132 339.496 267.132C340.66 266.534 341.533 265.638 343.279 265.638H343.861C348.516 266.235 353.463 268.028 358.991 270.12H359.282C360.155 270.419 361.028 271.016 361.901 271.315C363.646 272.211 365.101 272.809 367.138 273.407C367.72 273.407 368.302 273.705 368.884 273.705C369.175 273.705 369.466 273.705 369.757 274.004C370.63 274.303 371.212 274.303 372.085 274.303C376.449 274.303 380.232 271.315 381.396 267.431C381.396 263.845 378.195 259.064 372.957 257.57ZM238.239 242.929L225.437 249.203L212.634 242.929L209.434 228.885L218.163 217.53H232.42L241.149 228.885L238.239 242.929ZM314.182 211.853C316.51 222.012 317.092 232.172 316.219 242.032L271.701 228.885C267.627 227.69 265.299 223.506 266.172 219.323C266.463 218.128 267.045 216.933 267.918 216.036L303.125 183.466C308.072 191.833 311.854 201.395 314.182 211.853ZM289.159 165.538L251.042 193.327C247.841 195.419 243.477 194.821 240.858 191.534C239.985 190.638 239.694 189.442 239.403 188.247L236.785 139.542C256.861 141.933 275.192 151.195 289.159 165.538ZM204.778 141.036C207.979 140.439 210.888 139.841 214.089 139.243L211.47 187.052C211.179 191.235 207.979 194.821 203.614 194.821C202.45 194.821 200.996 194.522 200.123 193.925L161.424 165.538C173.354 153.287 188.193 144.921 204.778 141.036ZM147.458 183.466L182.083 215.14C185.283 217.829 185.574 222.909 182.956 226.195C182.083 227.391 180.919 228.287 179.464 228.586L134.364 242.032C132.618 221.713 136.983 201.096 147.458 183.466ZM139.601 264.443L185.865 256.375C189.648 256.076 193.139 258.765 194.012 262.65C194.303 264.443 194.303 265.937 193.721 267.431L175.972 311.355C159.678 300.598 146.585 284.164 139.601 264.443ZM245.805 323.905C239.112 325.399 232.42 326.295 225.437 326.295C215.253 326.295 205.36 324.502 196.049 321.514L219.036 278.785C221.363 276.096 225.146 274.901 228.347 276.694C229.801 277.59 230.965 278.785 231.838 279.98L254.243 321.514C251.624 322.411 248.714 323.008 245.805 323.905ZM302.543 282.371C295.269 294.323 285.667 303.885 274.61 311.355L256.279 266.235C255.407 262.65 256.861 258.765 260.353 256.972C261.517 256.375 262.972 256.076 264.427 256.076L310.981 264.144C309.236 270.717 306.326 276.693 302.543 282.371Z" fill="white"/>
</svg>
