<svg width="723" height="681" viewBox="0 0 723 681" fill="none" xmlns="http://www.w3.org/2000/svg">
<path d="M361.279 680.129C560.808 680.129 722.558 586.739 722.558 471.537C722.558 356.335 560.808 262.945 361.279 262.945C161.75 262.945 0 356.335 0 471.537C0 586.739 161.75 680.129 361.279 680.129Z" fill="#6A99AB" fill-opacity="0.2"/>
<path d="M513.858 362.326L208.7 538.473C206.19 539.92 203.344 540.682 200.446 540.682C197.549 540.682 194.703 539.92 192.193 538.473L176.086 529.242C175.181 528.722 174.43 527.972 173.908 527.068C173.386 526.165 173.111 525.14 173.111 524.097C173.111 523.053 173.386 522.028 173.908 521.125C174.43 520.221 175.181 519.471 176.086 518.951L481.274 342.726C483.782 341.282 486.626 340.522 489.52 340.522C492.414 340.522 495.258 341.282 497.766 342.726L513.873 352.034C514.773 352.559 515.519 353.311 516.037 354.215C516.555 355.119 516.827 356.142 516.825 357.184C516.823 358.226 516.549 359.249 516.028 360.151C515.507 361.053 514.759 361.803 513.858 362.326Z" fill="#E0E0E0"/>
<path d="M467.09 559.918C503.327 559.918 532.703 542.961 532.703 522.043C532.703 501.125 503.327 484.167 467.09 484.167C430.853 484.167 401.477 501.125 401.477 522.043C401.477 542.961 430.853 559.918 467.09 559.918Z" fill="#E0E0E0"/>
<path d="M594.131 416.6C622.501 416.6 645.499 403.321 645.499 386.94C645.499 370.559 622.501 357.28 594.131 357.28C565.762 357.28 542.764 370.559 542.764 386.94C542.764 403.321 565.762 416.6 594.131 416.6Z" fill="#E0E0E0"/>
<path d="M128.857 601.809C157.226 601.809 180.224 588.53 180.224 572.149C180.224 555.768 157.226 542.488 128.857 542.488C100.487 542.488 77.4893 555.768 77.4893 572.149C77.4893 588.53 100.487 601.809 128.857 601.809Z" fill="#E0E0E0"/>
<path d="M188.609 180.194L498.197 1.47743C501.751 -0.568647 504.935 -0.414806 507.197 1.47743L517.966 8.89254L510.504 17.9076V267.514C510.504 276.667 504.951 287.282 498.089 291.251L191.639 468.168L191.07 477.906L179.778 470.214C177.532 468.522 176.147 465.183 176.147 460.614V203.916C176.194 194.763 181.747 184.148 188.609 180.194Z" fill="#BA68C8"/>
<path opacity="0.4" d="M188.609 180.194L498.197 1.47743C501.751 -0.568647 504.935 -0.414806 507.197 1.47743L517.966 8.89254L510.504 17.9076V267.514C510.504 276.667 504.951 287.282 498.089 291.251L191.639 468.168L191.07 477.906L179.778 470.214C177.532 468.522 176.147 465.183 176.147 460.614V203.916C176.194 194.763 181.747 184.148 188.609 180.194Z" fill="white"/>
<path d="M186.732 467.814V211.162C186.864 205.973 188.298 200.9 190.901 196.409L179.84 190.07C177.557 194.336 176.308 199.079 176.194 203.916V460.568C176.194 465.183 177.578 468.475 179.824 470.168L190.224 477.291C188.07 475.568 186.732 472.291 186.732 467.814Z" fill="#BA68C8"/>
<path opacity="0.2" d="M186.732 467.814V211.162C186.864 205.973 188.298 200.9 190.901 196.409L179.84 190.07C177.557 194.336 176.308 199.079 176.194 203.916V460.568C176.194 465.183 177.578 468.475 179.824 470.168L190.224 477.291C188.07 475.568 186.732 472.291 186.732 467.814Z" fill="white"/>
<path opacity="0.3" d="M190.947 477.798L191.116 477.906L190.947 477.798Z" fill="#BA68C8"/>
<path d="M199.147 477.214L508.674 298.497C515.535 294.543 521.089 283.913 521.089 274.775V18.123C521.089 8.98483 515.535 4.78499 508.674 8.73869L199.147 187.44C192.286 191.409 186.732 202.024 186.732 211.162V467.814C186.732 476.967 192.286 481.183 199.147 477.214Z" fill="#BA68C8"/>
<path d="M199.147 477.214L508.674 298.497C515.535 294.543 521.089 283.913 521.089 274.775V18.123C521.089 8.98483 515.535 4.78499 508.674 8.73869L199.147 187.44C192.286 191.409 186.732 202.024 186.732 211.162V467.814C186.732 476.967 192.286 481.183 199.147 477.214Z" fill="#BA68C8"/>
<path opacity="0.7" d="M199.147 477.214L508.674 298.497C515.535 294.543 521.089 283.913 521.089 274.775V18.123C521.089 8.98483 515.535 4.78499 508.674 8.73869L199.147 187.44C192.286 191.409 186.732 202.024 186.732 211.162V467.814C186.732 476.967 192.286 481.183 199.147 477.214Z" fill="white"/>
<path d="M199.147 187.44L508.674 8.73869C515.535 4.78499 521.089 8.98483 521.089 18.123V30.6763L186.732 223.715V211.162C186.732 202.024 192.286 191.409 199.147 187.44Z" fill="#BA68C8"/>
<path opacity="0.5" d="M199.147 187.44L508.674 8.73869C515.535 4.78499 521.089 8.98483 521.089 18.123V30.6763L186.732 223.715V211.162C186.732 202.024 192.286 191.409 199.147 187.44Z" fill="white"/>
<path d="M513.581 8.4618C517.381 8.4618 519.858 12.2617 519.858 18.123V274.775C519.858 283.513 514.551 293.697 508.043 297.451L198.547 476.152C197.25 476.974 195.758 477.435 194.224 477.491C190.409 477.491 187.947 473.691 187.947 467.814V211.162C187.947 202.424 193.239 192.255 199.762 188.486L509.289 9.78483C510.589 8.97225 512.08 8.51596 513.612 8.4618M513.612 7.24646C511.859 7.31367 510.155 7.84451 508.674 8.78486L199.147 187.44C192.286 191.409 186.732 202.024 186.732 211.162V467.814C186.732 474.629 189.809 478.691 194.224 478.691C195.971 478.616 197.668 478.085 199.147 477.152L508.674 298.436C515.535 294.482 521.089 283.852 521.089 274.713V18.123C521.089 11.3232 518.012 7.24646 513.612 7.24646Z" fill="#BA68C8"/>
<path d="M214.592 408.124C213.88 408.125 213.188 407.89 212.623 407.457C212.058 407.024 211.652 406.417 211.468 405.729C211.284 405.042 211.332 404.312 211.605 403.655C211.878 402.997 212.36 402.448 212.977 402.093L305.896 348.449C306.264 348.209 306.677 348.046 307.109 347.97C307.542 347.895 307.985 347.908 308.413 348.01C308.84 348.111 309.242 348.299 309.594 348.561C309.947 348.823 310.242 349.155 310.462 349.535C310.682 349.915 310.822 350.336 310.873 350.772C310.925 351.208 310.887 351.65 310.762 352.071C310.638 352.492 310.428 352.884 310.147 353.221C309.866 353.558 309.519 353.835 309.127 354.034L216.207 407.678C215.721 407.973 215.161 408.128 214.592 408.124Z" fill="#FAFAFA"/>
<path d="M214.593 428.369C213.879 428.377 213.183 428.147 212.615 427.716C212.046 427.285 211.637 426.677 211.452 425.988C211.267 425.299 211.317 424.568 211.593 423.91C211.869 423.252 212.356 422.705 212.977 422.354L345.28 345.926C345.648 345.714 346.054 345.576 346.474 345.521C346.895 345.466 347.323 345.494 347.733 345.604C348.143 345.714 348.527 345.904 348.864 346.162C349.201 346.421 349.483 346.743 349.695 347.111C349.907 347.478 350.045 347.884 350.1 348.305C350.156 348.726 350.127 349.154 350.017 349.564C349.907 349.974 349.718 350.358 349.459 350.695C349.201 351.031 348.878 351.314 348.511 351.526L216.208 427.939C215.717 428.222 215.16 428.371 214.593 428.369Z" fill="#FAFAFA"/>
<path d="M361.572 363.772C360.858 363.779 360.162 363.55 359.594 363.119C359.025 362.688 358.616 362.08 358.431 361.391C358.246 360.701 358.296 359.97 358.572 359.313C358.848 358.655 359.335 358.107 359.956 357.757L451.507 304.897C451.874 304.657 452.287 304.494 452.719 304.418C453.152 304.342 453.596 304.356 454.023 304.457C454.45 304.559 454.852 304.747 455.205 305.009C455.557 305.271 455.852 305.602 456.072 305.983C456.292 306.363 456.432 306.784 456.484 307.22C456.535 307.656 456.498 308.098 456.373 308.519C456.248 308.94 456.038 309.331 455.757 309.669C455.476 310.006 455.129 310.283 454.737 310.481L363.171 363.341C362.685 363.622 362.133 363.771 361.572 363.772Z" fill="#FAFAFA"/>
<path d="M214.592 448.63C213.88 448.631 213.188 448.397 212.623 447.963C212.058 447.53 211.652 446.923 211.468 446.235C211.284 445.548 211.332 444.818 211.605 444.161C211.878 443.504 212.36 442.955 212.977 442.6L331.08 374.417C331.823 373.989 332.705 373.873 333.533 374.095C334.361 374.317 335.067 374.859 335.495 375.602C335.924 376.345 336.04 377.227 335.818 378.055C335.595 378.883 335.053 379.589 334.311 380.017L216.207 448.199C215.716 448.483 215.159 448.631 214.592 448.63Z" fill="#FAFAFA"/>
<path d="M214.592 239.945C213.88 239.946 213.188 239.712 212.623 239.279C212.058 238.846 211.652 238.238 211.468 237.551C211.284 236.863 211.332 236.134 211.605 235.476C211.878 234.819 212.36 234.27 212.977 233.915L305.896 180.271C306.264 180.03 306.677 179.867 307.109 179.792C307.542 179.716 307.985 179.73 308.413 179.831C308.84 179.933 309.242 180.12 309.594 180.383C309.947 180.645 310.242 180.976 310.462 181.356C310.682 181.737 310.822 182.158 310.873 182.594C310.925 183.03 310.887 183.472 310.762 183.893C310.638 184.314 310.428 184.705 310.147 185.043C309.866 185.38 309.519 185.656 309.127 185.855L216.207 239.515C215.716 239.798 215.159 239.947 214.592 239.945Z" fill="#FAFAFA"/>
<path d="M214.592 260.206C213.88 260.207 213.188 259.973 212.623 259.54C212.058 259.107 211.652 258.499 211.468 257.812C211.284 257.124 211.332 256.395 211.605 255.737C211.878 255.08 212.36 254.531 212.977 254.176L345.28 177.763C345.647 177.523 346.06 177.36 346.492 177.284C346.925 177.209 347.369 177.222 347.796 177.324C348.223 177.425 348.625 177.613 348.977 177.875C349.33 178.137 349.625 178.469 349.845 178.849C350.065 179.229 350.205 179.65 350.257 180.086C350.308 180.522 350.271 180.964 350.146 181.385C350.021 181.806 349.811 182.198 349.53 182.535C349.249 182.872 348.902 183.149 348.51 183.348L216.207 259.76C215.721 260.055 215.161 260.21 214.592 260.206Z" fill="#FAFAFA"/>
<path d="M361.572 195.609C360.86 195.609 360.168 195.375 359.603 194.942C359.038 194.509 358.632 193.902 358.447 193.214C358.263 192.526 358.311 191.797 358.584 191.14C358.857 190.482 359.339 189.933 359.956 189.578L451.507 136.719C451.874 136.478 452.287 136.315 452.72 136.24C453.152 136.164 453.596 136.177 454.023 136.279C454.45 136.381 454.852 136.568 455.205 136.831C455.557 137.093 455.852 137.424 456.072 137.804C456.292 138.184 456.432 138.605 456.484 139.042C456.535 139.478 456.498 139.92 456.373 140.341C456.248 140.762 456.038 141.153 455.757 141.49C455.476 141.828 455.129 142.104 454.737 142.303L363.172 195.163C362.689 195.455 362.136 195.609 361.572 195.609Z" fill="#FAFAFA"/>
<path d="M214.593 280.452C213.879 280.459 213.183 280.23 212.615 279.799C212.046 279.368 211.637 278.76 211.452 278.071C211.267 277.381 211.317 276.65 211.593 275.993C211.869 275.335 212.356 274.787 212.977 274.437L331.081 206.254C331.817 205.881 332.669 205.803 333.461 206.038C334.253 206.273 334.925 206.803 335.339 207.518C335.753 208.233 335.877 209.079 335.685 209.883C335.494 210.687 335.003 211.387 334.311 211.839L216.208 280.021C215.717 280.304 215.16 280.453 214.593 280.452Z" fill="#FAFAFA"/>
<path d="M213.085 195.255C213.003 196.864 212.542 198.432 211.74 199.83C210.938 201.228 209.818 202.417 208.47 203.301C205.901 204.839 203.854 203.578 203.854 200.624C203.937 199.014 204.398 197.447 205.199 196.049C206.001 194.651 207.122 193.462 208.47 192.578C211.008 191.086 213.085 192.286 213.085 195.255Z" fill="white"/>
<path d="M229.469 185.809C229.386 187.419 228.926 188.986 228.124 190.384C227.322 191.782 226.201 192.971 224.853 193.855C222.284 195.393 220.238 194.132 220.238 191.178C220.321 189.569 220.781 188.001 221.583 186.603C222.385 185.205 223.506 184.016 224.853 183.132C227.438 181.625 229.469 182.825 229.469 185.809Z" fill="white"/>
<path d="M245.899 176.332C245.817 177.942 245.356 179.51 244.554 180.908C243.752 182.306 242.632 183.495 241.284 184.378C238.715 185.917 236.668 184.655 236.668 181.702C236.751 180.092 237.212 178.524 238.013 177.126C238.815 175.728 239.936 174.539 241.284 173.656C243.776 172.163 245.899 173.363 245.899 176.332Z" fill="white"/>
<path d="M278.436 258.499L271.836 255.637V187.224L278.436 190.086V258.499Z" fill="#BA68C8"/>
<path opacity="0.6" d="M278.436 258.499L271.836 255.637V187.224L278.436 190.086V258.499Z" fill="black"/>
<path d="M546.872 34.7685L278.436 190.086L271.836 187.224L540.257 31.9224L546.872 34.7685Z" fill="#BA68C8"/>
<path opacity="0.4" d="M546.872 34.7685L278.436 190.086L271.836 187.224L540.257 31.9224L546.872 34.7685Z" fill="black"/>
<path d="M546.872 103.181L278.436 258.499V190.086L546.872 34.7686V103.181Z" fill="#BA68C8"/>
<path opacity="0.3" d="M546.872 103.181L278.436 258.499V190.086L546.872 34.7686V103.181Z" fill="black"/>
<path d="M375.58 160.222V156.307L389.156 141.61V146.114L379.861 155.76L379.986 155.454V156.01L379.861 155.849L389.156 154.811V159.315L375.58 160.222ZM401.835 128.44L395.471 159.366L391.933 161.4L398.297 130.474L401.835 128.44ZM418.191 135.733L404.615 150.43V145.926L413.91 136.28L413.784 136.586V136.03L413.91 136.191L404.615 137.23V132.726L418.191 131.818V135.733Z" fill="white"/>
<path d="M617.931 209.931L623.254 216.285C623.914 222.136 625.172 227.905 627.008 233.5C630.085 243.422 629.562 247.622 629.562 247.622L640.853 246.745L636.346 211.362C636.037 208.997 635.223 206.725 633.961 204.701L631.223 200.285L617.931 209.931Z" fill="#945959"/>
<path d="M624.115 389.14C624.115 389.14 617.023 394.663 617.7 397.924C618.377 401.186 629.438 402.74 634.807 396.386C637.191 393.571 638.884 387.832 639.099 380.833C639.207 377.34 643.607 372.171 639.099 368.525C634.592 364.879 632.792 364.018 631.669 364.479C630.546 364.941 624.115 389.14 624.115 389.14Z" fill="#37474F"/>
<path d="M618.823 362.449L622.992 371.341C622.992 371.341 624.346 384.186 624.115 389.14C624.115 389.14 630.546 393.078 632.453 385.617C633.186 382.076 633.527 378.464 633.469 374.848C632.765 372.348 632.469 369.751 632.592 367.156C632.7 366.355 632.653 365.54 632.453 364.756L630.546 356.91L618.823 362.449Z" fill="#945959"/>
<path d="M561.025 377.125C561.025 377.125 558.456 378.848 556.656 380.125C554.856 381.402 547.318 387.663 557.856 389.586C560.484 389.961 563.163 389.731 565.688 388.912C568.213 388.094 570.517 386.709 572.425 384.863C577.609 379.756 581.363 381.34 583.194 379.31C585.024 377.279 583.686 365.941 581.117 366.464L561.025 377.125Z" fill="#37474F"/>
<path d="M569.794 357.157L570.61 364.495C570.675 365.12 570.574 365.752 570.317 366.326C569.564 367.941 567.379 371.464 561.087 377.094C561.087 377.094 560.979 382.771 568.948 380.033C571.123 379.015 573.186 377.773 575.102 376.325C576.032 375.665 576.8 374.803 577.348 373.802C578.296 371.99 579.545 370.351 581.04 368.956L581.871 357.126L569.794 357.157Z" fill="#945959"/>
<path d="M562.81 232.915C562.81 232.915 560.594 243.915 561.056 264.791C561.348 278.821 561.641 289.313 561.779 294.697C561.853 297.369 562.074 300.034 562.441 302.682L569.763 357.157C571.614 358.136 573.677 358.648 575.771 358.648C577.865 358.648 579.927 358.136 581.778 357.157C581.778 357.157 582.824 345.142 584.024 338.834C585.101 333.25 586.517 316.927 583.686 308.374C582.891 305.891 582.691 303.256 583.101 300.682L591.424 245.807L562.81 232.915Z" fill="#455A64"/>
<path d="M568.502 245.53C569.439 248.008 570.88 250.265 572.734 252.158C574.587 254.051 576.813 255.54 579.271 256.53L585.347 286.159L591.501 245.868L568.502 245.53Z" fill="#37474F"/>
<path d="M565.287 232.346C565.287 232.346 563.748 245.715 574.902 250.93C577.107 252.088 579.456 252.952 581.886 253.499C581.886 253.499 591.009 307.897 592.655 311.958C594.301 316.02 618.808 362.418 618.808 362.418C618.808 362.418 628.5 364.449 630.531 356.895C630.531 356.895 628.392 346.988 625.685 336.173C623.408 327.065 620.731 316.758 616.039 311.712C614.24 309.835 613.251 307.327 613.285 304.728C613.485 295.882 613.885 277.313 613.962 272.314C614.085 265.668 616.562 244.484 612.285 235.93L599.086 223.869L565.287 232.346Z" fill="#455A64"/>
<path d="M556.133 157.718L546.195 151.81C546.195 151.81 539.872 143.826 534.749 136.719C529.626 129.611 527.473 125.95 527.473 125.95C529.083 123.498 530.017 120.664 530.18 117.735C530.18 113.458 529.949 111.427 530.749 109.843C531.549 108.258 530.749 106.581 528.611 107.258C526.473 107.935 524.888 112.535 525.534 115.535L513.596 122.458C513.596 122.458 515.581 127.765 518.319 130.242C518.319 130.242 529.257 156.595 533.534 160.871C537.811 165.148 545.287 170.948 545.287 170.948L556.133 157.718Z" fill="#945959"/>
<path d="M576.548 169.84L556.133 157.718C556.133 157.718 546.687 158.379 545.364 170.902L563.225 184.286L576.548 169.84Z" fill="#BA68C8"/>
<path opacity="0.2" d="M576.548 169.84L556.133 157.718C556.133 157.718 546.687 158.379 545.364 170.902L563.225 184.286L576.548 169.84Z" fill="black"/>
<path d="M580.502 169.84L594.132 170.517L603.039 170.964L604.578 192.024C604.578 192.024 602.224 204.193 600.424 208.47C598.624 212.747 610.439 230.331 612.362 235.961C612.362 235.961 604.808 236.976 600.978 228.269C599.242 232.442 596.283 235.991 592.49 238.448C588.698 240.906 584.25 242.158 579.732 242.038C568.871 242.038 562.81 232.915 562.81 232.915L565.287 217.531C563.779 212.826 562.945 207.932 562.81 202.993C562.81 202.993 556.656 200.732 558.056 191.624C559.456 182.517 576.517 169.887 576.517 169.887L580.502 169.84Z" fill="#BA68C8"/>
<path d="M608.347 135.826C608.347 135.826 616.146 129.38 622.885 136.719C632.577 147.287 611.623 168.041 630.207 168.487C630.207 168.487 628.069 170.964 620.854 170.964C613.639 170.964 607.454 163.502 608.685 149.78L608.347 135.826Z" fill="#263238"/>
<path d="M605.885 135.488C605.885 135.488 608.377 133.949 609.331 135.057C610.285 136.165 611.546 144.764 608.7 149.78C607.346 152.149 604.654 148.887 604.654 148.887L605.885 135.488Z" fill="#BA68C8"/>
<path d="M564.087 136.719C564.087 136.719 564.194 145.626 558.456 143.149C558.929 144.33 559.761 145.333 560.835 146.015C561.909 146.697 563.17 147.024 564.44 146.949C567.594 146.949 569.409 143.872 569.409 141.457L564.087 136.719Z" fill="#263238"/>
<path d="M594.218 148.306C602.48 143.415 605.211 132.752 600.32 124.491C595.428 116.23 584.766 113.498 576.504 118.389C568.243 123.281 565.511 133.944 570.403 142.205C575.294 150.466 585.957 153.198 594.218 148.306Z" fill="#263238"/>
<path d="M607.67 141.457C607.67 151.056 599.101 163.256 589.501 163.256C587.219 163.258 584.959 162.81 582.85 161.938C580.741 161.066 578.824 159.787 577.21 158.174C575.595 156.561 574.315 154.646 573.441 152.538C572.567 150.429 572.117 148.17 572.117 145.887C572.117 136.288 579.902 125.35 589.501 125.35C599.101 125.35 607.67 128.611 607.67 141.457Z" fill="#263238"/>
<path d="M581.101 131.257C581.104 133.275 580.509 135.249 579.39 136.928C578.271 138.607 576.679 139.917 574.816 140.691C572.952 141.466 570.901 141.67 568.921 141.278C566.942 140.886 565.123 139.916 563.695 138.49C562.267 137.064 561.294 135.247 560.899 133.268C560.504 131.289 560.706 129.238 561.477 127.373C562.249 125.508 563.556 123.914 565.234 122.793C566.911 121.672 568.884 121.073 570.902 121.073C573.604 121.073 576.196 122.145 578.109 124.055C580.021 125.964 581.097 128.555 581.101 131.257Z" fill="#263238"/>
<path d="M580.501 160.487V169.84C580.501 169.84 571.763 178.625 580.27 179.394C588.778 180.163 594.116 170.517 594.116 170.517V152.687L580.501 160.487Z" fill="#945959"/>
<path d="M593.978 149.872V150.426C590.901 162.41 583.04 165.025 580.501 165.625L580.409 147.072H593.593L593.978 149.872Z" fill="#703838"/>
<path d="M582.963 123.181C578.603 123.462 574.526 125.436 571.601 128.68C568.675 131.925 567.133 136.184 567.302 140.549C567.148 153.826 569.179 163.948 576.056 164.364C582.932 164.779 598.301 158.579 599.024 141.288C599.747 123.996 587.871 122.735 582.963 123.181Z" fill="#945959"/>
<path d="M576.594 145.888L576.717 153.672L572.133 152.349L576.594 145.888Z" fill="#703838"/>
<path d="M583.44 145.672C583.439 145.973 583.351 146.267 583.185 146.518C583.019 146.769 582.783 146.966 582.506 147.085C582.23 147.203 581.924 147.238 581.628 147.184C581.332 147.131 581.058 146.992 580.84 146.784C580.622 146.577 580.47 146.31 580.402 146.017C580.335 145.723 580.354 145.417 580.459 145.135C580.564 144.853 580.749 144.608 580.992 144.43C581.234 144.252 581.524 144.149 581.824 144.134C582.033 144.123 582.241 144.155 582.437 144.228C582.632 144.301 582.811 144.412 582.962 144.556C583.113 144.7 583.234 144.873 583.316 145.065C583.398 145.257 583.44 145.464 583.44 145.672Z" fill="#263238"/>
<path d="M572.979 144.718C572.979 145.023 572.888 145.32 572.719 145.573C572.55 145.826 572.31 146.023 572.029 146.14C571.748 146.256 571.439 146.287 571.14 146.227C570.842 146.168 570.568 146.021 570.352 145.806C570.137 145.591 569.991 145.317 569.931 145.018C569.872 144.72 569.903 144.411 570.019 144.13C570.135 143.849 570.333 143.608 570.586 143.439C570.839 143.27 571.136 143.18 571.44 143.18C571.848 143.18 572.24 143.342 572.528 143.631C572.817 143.919 572.979 144.31 572.979 144.718Z" fill="#263238"/>
<path d="M569.409 141.457L572.486 139.565C572.486 139.565 571.286 138.349 570.102 139.103C569.764 139.381 569.517 139.754 569.394 140.174C569.271 140.593 569.276 141.04 569.409 141.457Z" fill="#BA68C8"/>
<path d="M575.687 156.395C577.296 155.619 578.862 154.756 580.379 153.81C580.379 153.81 581.363 156.364 579.286 157.41C578.661 157.682 577.961 157.73 577.305 157.545C576.649 157.36 576.077 156.954 575.687 156.395Z" fill="#703838"/>
<path d="M569.409 141.457L572.486 139.565C572.486 139.565 571.286 138.349 570.102 139.103C569.764 139.381 569.517 139.754 569.394 140.174C569.271 140.593 569.276 141.04 569.409 141.457Z" fill="#263238"/>
<path d="M591.255 144.949C591.255 144.949 590.947 150.533 594.162 150.533H600.47V139.888C600.47 127.95 591.409 115.473 572.132 125.334C572.132 125.334 571.194 141.272 591.255 144.949Z" fill="#263238"/>
<path d="M593.686 150.78C593.644 149.563 593.881 148.353 594.378 147.241C594.62 146.549 595.059 145.943 595.641 145.497C596.223 145.051 596.923 144.786 597.655 144.734C601.409 144.734 601.87 148.287 601.809 149.58C601.651 151.571 600.725 153.423 599.226 154.744C597.727 156.065 595.774 156.75 593.778 156.656L593.686 150.78Z" fill="#945959"/>
<path d="M601.808 170.902C601.808 170.902 592.947 179.732 604.255 193.363C615.562 206.993 617.931 209.931 617.931 209.931C617.931 209.931 629.53 211.07 631.223 200.362C631.223 200.362 617.592 181.209 613.87 176.379C610.147 171.548 606.762 171.148 601.808 170.902Z" fill="#BA68C8"/>
<path opacity="0.2" d="M601.808 170.902C601.808 170.902 592.947 179.732 604.255 193.363C615.562 206.993 617.931 209.931 617.931 209.931C617.931 209.931 629.53 211.07 631.223 200.362C631.223 200.362 617.592 181.209 613.87 176.379C610.147 171.548 606.762 171.148 601.808 170.902Z" fill="black"/>
<path opacity="0.3" d="M576.024 204.085C576.024 204.085 589.593 207.87 594.131 194.963C594.131 195.04 591.793 211.07 576.024 204.085Z" fill="black"/>
<path d="M629.561 247.668C629.561 247.668 627.407 248.93 626.899 253.437C626.746 254.73 624.376 257.606 624.73 258.329C625.084 259.053 627.453 260.037 630.007 255.806C630.47 257.953 630.502 260.17 630.099 262.329C629.407 265.668 628.207 269.944 632.561 269.006C636.914 268.068 643.33 264.622 642.314 258.129C641.376 251.868 640.853 246.791 640.853 246.791L629.561 247.668Z" fill="#945959"/>
<path d="M373.294 331.681L366.679 328.835V260.422L373.294 263.268V331.681Z" fill="#BA68C8"/>
<path opacity="0.6" d="M373.294 331.681L366.679 328.835V260.422L373.294 263.268V331.681Z" fill="black"/>
<path d="M527.627 173.979L373.294 263.268L366.679 260.422L521.011 171.133L527.627 173.979Z" fill="#BA68C8"/>
<path opacity="0.4" d="M527.627 173.979L373.294 263.268L366.679 260.422L521.011 171.133L527.627 173.979Z" fill="black"/>
<path d="M527.626 242.392L373.293 331.681V263.268L527.626 173.979V242.392Z" fill="#BA68C8"/>
<path opacity="0.3" d="M527.626 242.392L373.293 331.681V263.268L527.626 173.979V242.392Z" fill="black"/>
<path d="M431.032 247.483L427.09 249.749C427.018 249.202 426.871 248.764 426.649 248.435C426.427 248.099 426.142 247.868 425.795 247.743C425.447 247.618 425.045 247.599 424.589 247.688C424.139 247.774 423.65 247.969 423.122 248.272C422.168 248.82 421.337 249.571 420.629 250.525C419.921 251.471 419.372 252.575 418.982 253.837C418.592 255.093 418.397 256.457 418.397 257.931C418.397 259.446 418.592 260.607 418.982 261.414C419.378 262.218 419.93 262.679 420.638 262.798C421.346 262.917 422.165 262.709 423.095 262.175C423.617 261.875 424.1 261.518 424.544 261.104C424.994 260.686 425.393 260.225 425.741 259.72C426.088 259.209 426.376 258.666 426.604 258.092C426.838 257.515 427 256.917 427.09 256.298L431.032 254.053C430.93 255.088 430.675 256.175 430.267 257.316C429.865 258.447 429.322 259.565 428.638 260.671C427.96 261.766 427.15 262.792 426.208 263.748C425.273 264.695 424.214 265.507 423.032 266.186C421.388 267.131 419.918 267.547 418.622 267.434C417.332 267.317 416.313 266.661 415.563 265.466C414.819 264.267 414.447 262.512 414.447 260.201C414.447 257.883 414.825 255.694 415.581 253.634C416.337 251.573 417.362 249.745 418.658 248.149C419.954 246.546 421.412 245.279 423.032 244.348C424.1 243.735 425.09 243.339 426.001 243.161C426.919 242.979 427.732 243.017 428.44 243.275C429.148 243.525 429.724 244 430.168 244.7C430.618 245.396 430.906 246.324 431.032 247.483Z" fill="white"/>
<path d="M451.728 240.534V232.039L453.586 230.961V239.456L451.728 240.534ZM448.983 238.952V236.804L456.332 232.542V234.69L448.983 238.952ZM461.661 234.773V226.277L463.519 225.2V233.695L461.661 234.773ZM458.916 233.191V231.043L466.265 226.781V228.929L458.916 233.191Z" fill="white"/>
<path d="M507.627 519.797C507.627 519.797 513.904 516.289 514.688 512.382C515.473 508.474 508.535 499.474 508.535 499.474C508.535 499.474 503.443 502.382 507.627 519.797Z" fill="#BA68C8"/>
<path opacity="0.2" d="M507.627 519.797C507.627 519.797 513.904 516.289 514.688 512.382C515.473 508.474 508.535 499.474 508.535 499.474C508.535 499.474 503.443 502.382 507.627 519.797Z" fill="black"/>
<path d="M430.784 531.904L439.937 526.504L441.137 517.335L437.983 516.597L430.784 531.904Z" fill="#BA68C8"/>
<path opacity="0.3" d="M430.784 531.904L439.937 526.504L441.137 517.335L437.983 516.597L430.784 531.904Z" fill="black"/>
<path d="M484.997 479.198L493.551 492.859L499.258 511.782C499.258 511.782 509.796 510.474 503.166 486.183L498.197 471.537L484.997 479.198Z" fill="#FFA8A7"/>
<path d="M428.969 484.26L430.769 506.028L424.477 522.72C424.477 522.72 427.63 530.519 437.538 514.012C442.799 505.243 442.968 503.505 442.968 503.505L445.045 484.275L428.969 484.26Z" fill="#FFA8A7"/>
<path d="M437.137 272.206L433.922 278.575C433.875 278.668 433.848 278.77 433.843 278.874C433.839 278.978 433.857 279.082 433.897 279.178C433.936 279.274 433.996 279.361 434.072 279.432C434.148 279.504 434.239 279.557 434.337 279.59L438.153 280.852L437.137 272.206Z" fill="#F28F8F"/>
<path d="M441.599 261.529C441.599 261.529 436.661 264.16 436.661 279.237C436.661 287.529 437.23 292.821 441.537 292.498C445.845 292.175 458.244 290.544 458.244 290.544V261.529H441.599Z" fill="#FFA8A7"/>
<path d="M441.599 292.498C443.137 292.374 445.63 292.098 448.245 291.79V290.251C445.881 291.273 443.409 292.021 440.876 292.482C441.116 292.511 441.358 292.516 441.599 292.498Z" fill="#F28F8F"/>
<path d="M447.506 289.605V299.082H460.46V285.775L447.506 289.605Z" fill="#FFA8A7"/>
<path d="M469.675 322.85L478.09 340.127L471.782 348.388L476.136 363.141L489.658 347.188C490.834 345.805 491.613 344.129 491.914 342.339C492.215 340.549 492.025 338.71 491.366 337.019C487.643 327.45 480.243 308.62 478.243 305.282C475.536 300.774 472.305 298.374 467.475 298.528C462.644 298.682 469.675 322.85 469.675 322.85Z" fill="#FFA8A7"/>
<path d="M473.736 351.234C475.69 357.095 479.89 365.341 479.767 393.048C479.644 412.416 479.767 423.323 479.951 428.123C479.984 429.841 480.653 431.486 481.828 432.739C483.89 434.862 487.397 439.431 490.705 448.123C493.648 455.778 496.15 463.595 498.197 471.537C498.197 471.537 495.797 479.352 484.982 479.229L457.937 435.769C456.857 434.023 456.159 432.067 455.891 430.031L448.783 376.048V353.941L473.736 351.234Z" fill="#BA68C8"/>
<path opacity="0.6" d="M473.736 351.234C475.69 357.095 479.89 365.341 479.767 393.048C479.644 412.416 479.767 423.323 479.951 428.123C479.984 429.841 480.653 431.486 481.828 432.739C483.89 434.862 487.397 439.431 490.705 448.123C493.648 455.778 496.15 463.595 498.197 471.537C498.197 471.537 495.797 479.352 484.982 479.229L457.937 435.769C456.857 434.023 456.159 432.067 455.891 430.031L448.783 376.048V353.941L473.736 351.234Z" fill="black"/>
<path d="M454.506 419.308L462.013 392.386C462.013 392.386 472.567 381.617 468.813 363.156L452.86 383.248L453.66 413.893L454.506 419.308Z" fill="#BA68C8"/>
<path opacity="0.7" d="M454.506 419.308L462.013 392.386C462.013 392.386 472.567 381.617 468.813 363.156L452.86 383.248L453.66 413.893L454.506 419.308Z" fill="black"/>
<path d="M429.722 352.741C429.276 361.449 424.553 415.662 425.23 431.431C425.907 447.199 428.969 484.26 428.969 484.26C428.969 484.26 439.168 488.475 445.03 484.26C445.03 484.26 447.506 469.645 449.122 458.107C450.108 452.136 449.905 446.03 448.522 440.138C447.96 437.974 447.96 435.702 448.522 433.538L460.029 389.371C460.029 389.371 469.967 382.402 469.967 363.126V348.665L429.722 352.741Z" fill="#BA68C8"/>
<path opacity="0.6" d="M429.722 352.741C429.276 361.449 424.553 415.662 425.23 431.431C425.907 447.199 428.969 484.26 428.969 484.26C428.969 484.26 439.168 488.475 445.03 484.26C445.03 484.26 447.506 469.645 449.122 458.107C450.108 452.136 449.905 446.03 448.522 440.138C447.96 437.974 447.96 435.702 448.522 433.538L460.029 389.371C460.029 389.371 469.967 382.402 469.967 363.126V348.665L429.722 352.741Z" fill="black"/>
<path d="M457.368 292.421L436.661 300.02C436.661 300.02 426.969 308.435 426.969 324.512C426.969 329.019 431.322 333.065 431.322 333.065C431.322 333.065 429.784 347.188 429.661 352.741C429.661 352.741 440.245 360.172 459.983 357.249C464.925 356.248 469.594 354.196 473.675 351.234C473.675 351.234 470.598 338.773 470.213 337.573C469.829 336.373 474.428 321.804 474.428 310.235L457.368 292.421Z" fill="#455A64"/>
<path d="M439.076 264.898C439.076 264.898 439.907 272.175 444.568 274.129C444.568 274.129 440.876 279.19 446.353 281.406V277.498L448.645 281.975C448.645 281.975 442.199 308.128 453.383 308.128C455.329 308.159 457.223 307.494 458.721 306.251C458.721 306.251 460.444 313.081 470.798 313.081C481.151 313.081 483.105 302.943 483.105 302.943C483.105 302.943 476.198 305.035 476.198 297.836C476.198 290.636 475.675 267.498 475.29 263.991C474.594 260.299 472.717 256.933 469.943 254.4C467.168 251.867 463.646 250.303 459.906 249.945C451.829 248.976 441.353 249.038 435.291 257.376C429.23 265.714 437.876 268.052 437.876 268.052C437.876 268.052 438.076 267.76 439.076 264.898Z" fill="#263238"/>
<path d="M446.353 277.529C446.353 277.529 446.014 271.16 450.968 271.652C456.629 272.206 454.829 282.421 447.891 282.421L446.353 277.529Z" fill="#FFA8A7"/>
<path d="M477.905 258.114C476.597 256.069 474.82 254.365 472.721 253.145C472.042 252.829 471.307 252.651 470.558 252.622C469.81 252.592 469.064 252.712 468.362 252.974C467.661 253.236 467.018 253.635 466.472 254.148C465.926 254.661 465.488 255.277 465.182 255.96C464.6 257.165 464.288 258.484 464.27 259.822C464.252 261.161 464.527 262.487 465.078 263.708C465.628 264.928 466.439 266.013 467.454 266.886C468.468 267.759 469.663 268.399 470.951 268.76C471.456 268.897 471.97 268.995 472.49 269.052C473.932 269.183 475.372 268.787 476.546 267.939C477.719 267.091 478.546 265.847 478.874 264.437C479.076 263.71 479.185 262.961 479.197 262.206C479.212 260.74 478.759 259.306 477.905 258.114Z" fill="#BA68C8"/>
<path d="M482.136 259.653C482.133 261.258 481.654 262.827 480.759 264.161C479.865 265.495 478.595 266.534 477.111 267.146C475.626 267.758 473.993 267.917 472.419 267.602C470.844 267.287 469.398 266.512 468.264 265.375C467.129 264.239 466.357 262.791 466.045 261.216C465.733 259.641 465.895 258.009 466.51 256.525C467.125 255.042 468.166 253.774 469.502 252.882C470.837 251.99 472.407 251.514 474.013 251.514C475.081 251.514 476.138 251.725 477.125 252.134C478.111 252.543 479.008 253.143 479.762 253.899C480.516 254.655 481.114 255.552 481.522 256.539C481.929 257.527 482.138 258.585 482.136 259.653Z" fill="#263238"/>
<path d="M436.661 300.02C436.661 300.02 443.63 301.082 443.63 310.389C443.63 319.697 426.507 323.912 418.4 326.912C413.785 328.65 407.523 331.081 403.139 332.835C401.452 333.506 399.612 333.697 397.822 333.387C396.033 333.078 394.365 332.28 393.001 331.081C384.46 323.613 376.726 315.27 369.925 306.189C369.925 306.189 360.14 302.728 360.433 293.113C360.725 283.498 366.586 280.806 366.586 280.806V284.006C366.586 285.052 366.825 286.084 367.287 287.023C367.748 287.962 368.419 288.782 369.248 289.421L371.202 290.959C371.417 291.126 371.669 291.239 371.937 291.291C372.204 291.342 372.48 291.33 372.742 291.255C373.004 291.18 373.245 291.045 373.445 290.86C373.645 290.675 373.799 290.445 373.894 290.19C374.571 288.344 375.755 285.944 377.524 285.144C380.524 283.79 379.478 289.621 378.724 292.405C378.276 294.001 378.073 295.656 378.124 297.313L400.047 316.681C400.047 316.681 424.107 304.02 436.661 300.02Z" fill="#FFA8A7"/>
<path d="M442.968 503.536C441.402 503.798 439.918 504.422 438.636 505.36C437.354 506.298 436.308 507.522 435.584 508.936C433.184 513.736 428.676 527.258 424.477 522.781L425.907 519.012C425.907 519.012 409.093 522.689 413.108 527.089C417.123 531.489 429.723 533.442 430.784 531.935C431.846 530.427 437.538 519.628 437.538 519.628L440.691 534.042C441.15 534.441 441.738 534.66 442.345 534.66C442.953 534.66 443.54 534.441 443.999 534.042C443.999 534.042 448.107 506.382 442.968 503.536Z" fill="#BA68C8"/>
<path d="M499.258 511.782C500.468 511.168 501.446 510.177 502.042 508.958C502.639 507.74 502.823 506.36 502.566 505.028C501.966 499.921 498.074 489.752 503.166 486.183C505.427 484.644 510.443 491.505 514.689 499.767C518.935 508.028 520.134 510.428 520.134 510.428C520.134 510.428 519.673 512.643 517.735 512.535L508.427 502.92C507.827 505.856 507.928 508.892 508.72 511.782C510.073 516.289 510.258 518.904 505.35 521.089C500.443 523.274 487.013 526.258 494.197 517.197C495.617 515.159 497.321 513.336 499.258 511.782Z" fill="#BA68C8"/>
<path d="M138.625 536.673L139.825 549.088C139.825 549.088 141.164 551.642 147.333 551.642C153.502 551.642 152.133 546.38 152.133 546.38L152.733 536.673H138.625Z" fill="#FFA8A7"/>
<path d="M157.133 411.001C157.133 417.447 156.533 480.367 156.486 484.583C156.494 484.731 156.494 484.88 156.486 485.029C156.24 488.536 153.194 531.673 152.748 536.673C152.748 536.673 145.395 542.273 138.641 536.673C138.641 536.673 136.826 521.458 136.226 516.951C135.626 512.443 133.364 492.336 136.226 485.706L128.872 447.569V416.939L157.133 411.001Z" fill="#37474F"/>
<path d="M148.794 420.662C148.794 420.662 147.256 430.292 136.21 435.554L131.364 460.553L128.856 448.876V421.585L148.794 420.662Z" fill="#263238"/>
<path d="M91.4578 546.38L90.2578 555.611C90.2578 555.611 93.4731 563.995 103.288 559.949L105.088 550.349L91.4578 546.38Z" fill="#FFA8A7"/>
<path d="M105.088 412.124C104.411 419.324 102.427 437.646 101.673 461.353C100.919 485.06 100.919 484.921 100.919 484.921C98.2195 490.731 96.3797 496.903 95.4579 503.244C94.5194 512.136 91.458 546.319 91.458 546.319C93.1668 548.138 95.3356 549.462 97.735 550.15C100.134 550.838 102.675 550.864 105.088 550.226L123.211 493.305C123.699 491.755 124.074 490.172 124.334 488.567L133.21 432.615C133.21 432.615 148.687 430.523 152.133 410.539L105.088 412.124Z" fill="#37474F"/>
<path d="M162.086 367.848L179.531 381.817V361.541L173.347 355.234L162.086 367.848Z" fill="#F28F8F"/>
<path d="M145.071 336.204C149.208 335.896 153.311 337.141 156.579 339.696C161.978 343.973 173.347 355.234 173.347 355.234C172.93 358.215 171.638 361.006 169.633 363.252C167.628 365.498 165.001 367.097 162.086 367.849L150.933 359.864L145.071 336.204Z" fill="#BA68C8"/>
<path opacity="0.2" d="M145.071 336.204C149.208 335.896 153.311 337.141 156.579 339.696C161.978 343.973 173.347 355.234 173.347 355.234C172.93 358.215 171.638 361.006 169.633 363.252C167.628 365.498 165.001 367.097 162.086 367.849L150.933 359.864L145.071 336.204Z" fill="white"/>
<path d="M122.426 336.311C122.426 336.311 110.949 337.465 105.765 338.588L103.857 359.295C103.857 359.295 107.888 382.371 107.888 385.617C107.888 388.863 105.088 412.124 105.088 412.124C105.088 412.124 113.011 417.308 136.072 417.308C143.521 417.073 150.78 414.899 157.132 411.001V364.987C157.132 356.034 153.64 341.911 145.071 336.204H138.025L122.426 336.311Z" fill="#BA68C8"/>
<path opacity="0.2" d="M122.426 336.311C122.426 336.311 110.949 337.465 105.765 338.588L103.857 359.295C103.857 359.295 107.888 382.371 107.888 385.617C107.888 388.863 105.088 412.124 105.088 412.124C105.088 412.124 113.011 417.308 136.072 417.308C143.521 417.073 150.78 414.899 157.132 411.001V364.987C157.132 356.034 153.64 341.911 145.071 336.204H138.025L122.426 336.311Z" fill="black"/>
<path d="M186.131 399.509L179.532 396.663V328.25L186.131 331.096V399.509Z" fill="#BA68C8"/>
<path opacity="0.6" d="M186.131 399.509L179.532 396.663V328.25L186.131 331.096V399.509Z" fill="black"/>
<path d="M340.464 241.807L186.131 331.096L179.532 328.25L333.849 238.961L340.464 241.807Z" fill="#BA68C8"/>
<path opacity="0.4" d="M340.464 241.807L186.131 331.096L179.532 328.25L333.849 238.961L340.464 241.807Z" fill="black"/>
<path d="M340.464 310.22L186.131 399.509V331.096L340.464 241.807V310.22Z" fill="#BA68C8"/>
<path opacity="0.3" d="M340.464 310.22L186.131 399.509V331.096L340.464 241.807V310.22Z" fill="black"/>
<path d="M229.747 324.019L225.806 326.284C225.734 325.737 225.587 325.299 225.365 324.97C225.143 324.634 224.858 324.404 224.51 324.278C224.162 324.153 223.76 324.135 223.304 324.224C222.854 324.31 222.365 324.504 221.837 324.808C220.883 325.356 220.052 326.107 219.344 327.06C218.637 328.007 218.088 329.111 217.698 330.373C217.308 331.628 217.113 332.993 217.113 334.467C217.113 335.982 217.308 337.143 217.698 337.95C218.094 338.753 218.646 339.215 219.353 339.334C220.061 339.453 220.88 339.245 221.81 338.711C222.332 338.411 222.815 338.054 223.259 337.639C223.709 337.222 224.108 336.76 224.456 336.256C224.804 335.745 225.092 335.202 225.32 334.628C225.554 334.051 225.716 333.453 225.806 332.834L229.747 330.589C229.645 331.623 229.39 332.711 228.982 333.852C228.58 334.982 228.037 336.101 227.354 337.206C226.676 338.302 225.866 339.328 224.924 340.284C223.988 341.23 222.929 342.043 221.747 342.722C220.103 343.667 218.634 344.083 217.338 343.969C216.048 343.853 215.028 343.197 214.278 342.002C213.534 340.803 213.162 339.048 213.162 336.737C213.162 334.419 213.54 332.23 214.296 330.169C215.052 328.109 216.078 326.281 217.374 324.685C218.67 323.082 220.127 321.815 221.747 320.884C222.815 320.27 223.805 319.875 224.717 319.696C225.635 319.515 226.448 319.553 227.156 319.81C227.863 320.061 228.439 320.536 228.883 321.236C229.333 321.932 229.621 322.86 229.747 324.019ZM242.539 315.339C242.467 314.543 242.158 314.07 241.612 313.92C241.066 313.77 240.326 313.964 239.39 314.502C238.754 314.868 238.217 315.28 237.779 315.739C237.341 316.192 237.005 316.665 236.771 317.159C236.543 317.65 236.429 318.124 236.429 318.58C236.417 318.968 236.486 319.26 236.636 319.458C236.792 319.652 237.005 319.775 237.275 319.828C237.545 319.873 237.857 319.87 238.211 319.819C238.565 319.761 238.943 319.668 239.345 319.541L241 319.046C241.804 318.792 242.542 318.644 243.214 318.604C243.886 318.564 244.468 318.655 244.96 318.878C245.452 319.1 245.833 319.476 246.103 320.006C246.379 320.532 246.52 321.237 246.526 322.119C246.52 323.423 246.232 324.717 245.662 325.999C245.098 327.271 244.282 328.477 243.214 329.617C242.152 330.746 240.871 331.742 239.372 332.604C237.884 333.459 236.588 333.94 235.484 334.049C234.386 334.154 233.528 333.869 232.91 333.193C232.298 332.506 231.977 331.407 231.948 329.895L235.718 327.728C235.76 328.417 235.937 328.91 236.249 329.208C236.567 329.496 236.99 329.61 237.518 329.548C238.052 329.477 238.655 329.248 239.327 328.862C239.987 328.482 240.56 328.042 241.045 327.542C241.537 327.038 241.918 326.511 242.188 325.961C242.458 325.412 242.593 324.881 242.593 324.369C242.593 323.891 242.47 323.561 242.224 323.377C241.984 323.189 241.63 323.116 241.162 323.157C240.701 323.194 240.134 323.312 239.462 323.511L237.455 324.084C235.901 324.541 234.674 324.564 233.774 324.154C232.874 323.744 232.427 322.752 232.433 321.178C232.427 319.894 232.724 318.599 233.324 317.292C233.93 315.982 234.761 314.754 235.817 313.608C236.873 312.461 238.073 311.502 239.417 310.729C240.785 309.943 241.978 309.527 242.998 309.48C244.024 309.431 244.822 309.723 245.392 310.357C245.962 310.991 246.256 311.936 246.274 313.192L242.539 315.339ZM259.145 305.795C259.073 304.999 258.764 304.527 258.218 304.377C257.672 304.227 256.931 304.421 255.995 304.959C255.359 305.324 254.822 305.737 254.384 306.196C253.946 306.648 253.61 307.122 253.376 307.616C253.148 308.107 253.034 308.58 253.034 309.037C253.022 309.425 253.091 309.717 253.241 309.915C253.397 310.109 253.61 310.232 253.88 310.284C254.15 310.33 254.462 310.327 254.816 310.276C255.17 310.218 255.548 310.125 255.95 309.998L257.606 309.503C258.41 309.248 259.148 309.101 259.82 309.061C260.492 309.021 261.073 309.112 261.565 309.334C262.057 309.557 262.438 309.933 262.708 310.463C262.984 310.989 263.125 311.693 263.131 312.576C263.125 313.88 262.837 315.173 262.267 316.456C261.703 317.728 260.887 318.934 259.82 320.073C258.758 321.203 257.477 322.198 255.977 323.06C254.489 323.915 253.193 324.397 252.089 324.506C250.992 324.611 250.134 324.325 249.516 323.649C248.904 322.963 248.583 321.864 248.553 320.352L252.323 318.185C252.365 318.874 252.542 319.367 252.854 319.665C253.172 319.953 253.595 320.066 254.123 320.005C254.657 319.933 255.26 319.705 255.932 319.318C256.592 318.939 257.165 318.499 257.651 317.998C258.143 317.494 258.524 316.967 258.794 316.418C259.064 315.868 259.199 315.337 259.199 314.825C259.199 314.348 259.076 314.017 258.83 313.833C258.59 313.646 258.236 313.573 257.768 313.613C257.306 313.651 256.739 313.769 256.067 313.968L254.06 314.54C252.506 314.997 251.28 315.021 250.38 314.611C249.48 314.201 249.033 313.209 249.039 311.634C249.033 310.351 249.33 309.056 249.93 307.749C250.536 306.439 251.367 305.211 252.422 304.064C253.478 302.918 254.678 301.958 256.022 301.186C257.39 300.4 258.584 299.984 259.604 299.937C260.63 299.887 261.427 300.179 261.997 300.814C262.567 301.448 262.861 302.393 262.879 303.649L259.145 305.795Z" fill="white"/>
<path d="M152.056 292.667C152.056 292.667 161.025 300.543 153.225 318.097L144.102 294.374L152.056 292.667Z" fill="#263238"/>
<path d="M122.426 336.311C122.426 336.311 125.503 344.542 134.072 344.542C142.641 344.542 138.026 336.204 138.026 336.204L122.426 336.311Z" fill="#FFA8A7"/>
<path d="M122.426 336.311L138.026 336.204V312.343H122.426V336.311Z" fill="#FFA8A7"/>
<path d="M138.026 335.25C132.272 333.019 124.964 329.327 124.964 325.804L123.072 313.943H138.026V335.25Z" fill="#F28F8F"/>
<path d="M134.441 287.805C139.948 287.805 151.64 290.882 152.994 305.282C154.348 319.681 152.24 331.927 145.61 331.927C132.595 331.927 120.103 330.265 119.995 308.974C119.903 290.19 129.072 287.805 134.441 287.805Z" fill="#FFA8A7"/>
<path d="M122.441 321.589L124.549 315.035C124.708 315.17 124.902 315.257 125.108 315.285C125.315 315.314 125.525 315.282 125.714 315.195C125.904 315.108 126.064 314.968 126.176 314.792C126.289 314.617 126.349 314.413 126.349 314.204V302.59C126.349 302.59 131.764 301.051 131.195 296.513C131.195 296.513 133.964 298.99 144.579 298.99C155.194 298.99 157.779 289.99 156.717 284.975C156.717 284.975 154.748 287.005 149.133 287.005C143.518 287.005 120.149 279.96 119.549 294.082C119.549 294.082 117.565 291.19 114.38 294.082L118.488 296.574C118.488 296.574 113.626 296.421 114.38 303.543C114.98 309.174 117.319 319.835 118.288 324.096C118.562 325.276 119.271 326.308 120.272 326.989L122.441 328.45V321.589Z" fill="#263238"/>
<path d="M142.717 309.605V318.097L147.686 316.558L142.717 309.605Z" fill="#F28F8F"/>
<path d="M133.887 311.066C133.884 311.411 133.984 311.749 134.174 312.038C134.364 312.326 134.635 312.551 134.953 312.685C135.272 312.818 135.622 312.854 135.961 312.787C136.3 312.721 136.611 312.555 136.855 312.311C137.099 312.067 137.265 311.755 137.331 311.417C137.398 311.078 137.362 310.727 137.229 310.409C137.095 310.091 136.87 309.819 136.582 309.63C136.294 309.44 135.955 309.34 135.61 309.343C135.384 309.343 135.16 309.388 134.951 309.474C134.742 309.561 134.552 309.688 134.392 309.848C134.232 310.008 134.105 310.198 134.018 310.407C133.932 310.616 133.887 310.84 133.887 311.066Z" fill="#263238"/>
<path d="M146.825 309.866C146.825 310.21 146.927 310.546 147.118 310.832C147.309 311.118 147.581 311.341 147.898 311.472C148.216 311.604 148.566 311.638 148.903 311.571C149.24 311.504 149.55 311.338 149.793 311.095C150.036 310.852 150.202 310.542 150.269 310.205C150.336 309.868 150.301 309.518 150.17 309.201C150.038 308.883 149.815 308.612 149.529 308.421C149.244 308.23 148.907 308.128 148.564 308.128C148.103 308.128 147.66 308.311 147.334 308.637C147.008 308.963 146.825 309.405 146.825 309.866Z" fill="#263238"/>
<path d="M150.671 306.251L147.287 304.251C147.287 304.251 148.579 302.897 149.871 303.713C150.245 304.005 150.522 304.405 150.664 304.858C150.807 305.311 150.809 305.796 150.671 306.251Z" fill="#263238"/>
<path d="M132.057 307.512L135.426 305.497C135.426 305.497 134.134 304.143 132.841 304.959C132.469 305.256 132.195 305.659 132.055 306.114C131.915 306.57 131.915 307.057 132.057 307.512Z" fill="#263238"/>
<path d="M145.056 321.527C143.421 321.641 141.796 321.202 140.441 320.281C140.441 320.281 140.118 322.743 142.179 323.204C142.778 323.293 143.389 323.176 143.912 322.871C144.435 322.566 144.839 322.092 145.056 321.527Z" fill="#F28F8F"/>
<path d="M123.718 312.651C125.672 316.05 125.164 320.173 122.441 321.589C120.672 322.496 115.488 320.543 113.534 317.143C111.58 313.743 112.672 310.835 115.334 309.297C117.995 307.758 121.749 309.251 123.718 312.651Z" fill="#FFA8A7"/>
<path d="M124.703 315.174L118.718 308.681L123.026 306.097L124.703 315.174Z" fill="#253239"/>
<path d="M133.595 363.356L141.825 372.479C141.825 372.479 148.548 371.525 156.348 371.125C162.537 370.477 168.675 369.403 174.716 367.91C174.716 367.91 176.255 361.326 179.547 358.68V363.833C179.547 363.833 183.962 365.372 186.147 363.187C189.916 359.48 193.285 356.064 193.285 363.833C193.285 374.679 188.67 379.079 176.209 378.848C176.209 378.848 144.748 392.032 137.21 390.555C132.595 389.678 119.918 377.725 119.918 377.725L133.595 363.356Z" fill="#FFA8A7"/>
<path d="M99.75 341.588C105.042 336.204 111.088 338.711 116.395 344.019C121.703 349.326 133.595 363.356 133.595 363.356C133.595 363.356 132.395 374.294 119.918 377.771C119.918 377.771 103.088 360.249 100.935 357.864C97.027 353.495 94.7348 346.726 99.75 341.588Z" fill="#BA68C8"/>
<path opacity="0.2" d="M99.75 341.588C105.042 336.204 111.088 338.711 116.395 344.019C121.703 349.326 133.595 363.356 133.595 363.356C133.595 363.356 132.395 374.294 119.918 377.771C119.918 377.771 103.088 360.249 100.935 357.864C97.027 353.495 94.7348 346.726 99.75 341.588Z" fill="white"/>
<path d="M211.376 384.94C211.511 383.196 212.001 381.499 212.816 379.951C213.631 378.403 214.753 377.039 216.115 375.941C223.207 370.525 222.914 375.941 223.084 378.171C223.253 380.402 216.515 388.325 209.13 386.233L211.376 384.94Z" fill="#FFA8A7"/>
<path d="M90.258 555.549C90.6361 556.391 91.1566 557.161 91.7964 557.826C91.9497 557.956 92.1353 558.041 92.3333 558.073C92.5313 558.105 92.7344 558.083 92.9208 558.009C93.1072 557.935 93.2699 557.811 93.3916 557.652C93.5133 557.492 93.5894 557.303 93.6117 557.103C93.63 556.594 93.7818 556.099 94.0518 555.667C94.3218 555.235 94.7005 554.881 95.1501 554.642C96.2116 554.196 104.688 554.042 104.765 555.765C104.769 557.067 104.635 558.367 104.365 559.641C104.365 559.641 105.734 571.303 108.334 575.918C110.934 580.533 115.18 587.994 106.242 590.179C97.3039 592.363 90.5503 587.625 90.2426 581.318C89.9349 575.01 90.0887 570.549 89.4888 569.457C88.8888 568.364 85.7351 567.795 86.935 562.026C88.135 556.257 88.3196 552.796 90.6272 552.611L90.258 555.549Z" fill="#455A64"/>
<path d="M96.3499 566.257C96.22 566.261 96.0912 566.232 95.9755 566.173C95.8599 566.113 95.7611 566.026 95.6884 565.918C95.5666 565.744 95.5178 565.529 95.5523 565.319C95.5868 565.109 95.7019 564.921 95.873 564.795C97.2864 563.907 98.8997 563.387 100.566 563.282C102.232 563.177 103.898 563.491 105.411 564.195C105.512 564.238 105.604 564.3 105.681 564.377C105.758 564.455 105.819 564.548 105.86 564.649C105.902 564.75 105.923 564.859 105.922 564.969C105.922 565.078 105.9 565.186 105.857 565.287C105.815 565.388 105.753 565.48 105.675 565.557C105.597 565.634 105.505 565.695 105.403 565.737C105.302 565.778 105.193 565.799 105.084 565.799C104.974 565.798 104.866 565.776 104.765 565.734C103.502 565.148 102.115 564.882 100.725 564.96C99.3349 565.038 97.9856 565.457 96.796 566.18C96.6578 566.248 96.5029 566.274 96.3499 566.257Z" fill="#EBEBEB"/>
<path d="M97.6729 571.949C97.5439 571.948 97.417 571.916 97.3022 571.858C97.1873 571.799 97.0878 571.714 97.0113 571.61C96.8912 571.434 96.8449 571.218 96.8823 571.008C96.9196 570.798 97.0378 570.611 97.2113 570.487C98.6229 569.595 100.236 569.072 101.902 568.964C103.568 568.857 105.235 569.169 106.749 569.872C106.945 569.963 107.097 570.126 107.175 570.326C107.252 570.527 107.249 570.75 107.165 570.949C107.074 571.144 106.91 571.296 106.709 571.371C106.507 571.446 106.284 571.438 106.088 571.349C104.828 570.76 103.443 570.493 102.055 570.571C100.667 570.649 99.3201 571.069 98.1344 571.795C98.0029 571.898 97.8399 571.952 97.6729 571.949Z" fill="#EBEBEB"/>
<path d="M99.75 577.564C99.6204 577.566 99.4921 577.537 99.3766 577.478C99.2612 577.419 99.1622 577.332 99.0885 577.225C98.9684 577.049 98.922 576.833 98.9594 576.623C98.9968 576.413 99.1149 576.226 99.2885 576.102C100.702 575.214 102.315 574.694 103.981 574.589C105.647 574.484 107.313 574.798 108.827 575.502C108.924 575.544 109.012 575.605 109.086 575.681C109.16 575.757 109.218 575.847 109.256 575.946C109.295 576.045 109.314 576.15 109.311 576.256C109.309 576.362 109.285 576.467 109.242 576.564C109.151 576.755 108.991 576.905 108.794 576.982C108.596 577.059 108.377 577.058 108.18 576.979C106.917 576.395 105.53 576.13 104.14 576.208C102.751 576.285 101.402 576.704 100.212 577.425C100.075 577.517 99.9143 577.565 99.75 577.564Z" fill="#EBEBEB"/>
<path d="M139.825 549.088C141.418 550.158 143.308 550.696 145.225 550.626C145.225 550.626 144.317 547.073 146.948 545.873C149.579 544.673 153.779 543.088 154.64 544.519C155.248 546.156 155.58 547.881 155.625 549.626C155.625 549.626 161.886 555.303 166.532 556.903C171.178 558.503 177.301 560.134 176.716 564.426C176.132 568.718 169.209 574.933 159.794 570.656C150.379 566.38 148.687 566.226 145.671 565.764C142.656 565.303 137.041 565.549 137.272 560.518C137.502 555.488 137.072 547.165 139.579 546.488L139.825 549.088Z" fill="#455A64"/>
<path d="M150.61 556.78C150.518 556.794 150.425 556.794 150.333 556.78C150.132 556.707 149.968 556.558 149.876 556.365C149.784 556.172 149.771 555.951 149.841 555.749C150.458 554.306 151.452 553.054 152.719 552.126C153.985 551.198 155.478 550.627 157.04 550.473C157.216 550.496 157.379 550.577 157.504 550.704C157.629 550.83 157.708 550.994 157.729 551.17C157.75 551.346 157.712 551.525 157.621 551.677C157.529 551.829 157.39 551.947 157.225 552.011C155.961 552.134 154.752 552.59 153.722 553.333C152.692 554.077 151.878 555.08 151.364 556.242C151.306 556.396 151.203 556.53 151.069 556.626C150.934 556.721 150.775 556.775 150.61 556.78Z" fill="#EBEBEB"/>
<path d="M155.41 559.949H155.148C155.048 559.916 154.956 559.864 154.876 559.794C154.797 559.725 154.732 559.641 154.687 559.546C154.641 559.451 154.614 559.348 154.609 559.243C154.604 559.138 154.62 559.033 154.656 558.934C155.219 557.492 156.169 556.234 157.402 555.298C158.634 554.362 160.1 553.783 161.64 553.626C161.817 553.647 161.982 553.727 162.109 553.852C162.235 553.977 162.316 554.141 162.339 554.318C162.362 554.494 162.326 554.673 162.235 554.827C162.145 554.98 162.006 555.099 161.84 555.165C160.606 555.296 159.429 555.757 158.433 556.499C157.438 557.24 156.659 558.235 156.179 559.38C156.127 559.544 156.025 559.687 155.886 559.789C155.748 559.891 155.581 559.947 155.41 559.949Z" fill="#EBEBEB"/>
<path d="M161.471 562.457H161.286C161.077 562.416 160.892 562.294 160.772 562.119C160.651 561.944 160.604 561.728 160.64 561.518C160.932 560.009 161.762 558.658 162.976 557.716C164.19 556.773 165.705 556.304 167.24 556.395C167.453 556.403 167.655 556.495 167.802 556.65C167.948 556.806 168.028 557.012 168.024 557.226C168.024 557.333 168.003 557.439 167.96 557.537C167.918 557.636 167.856 557.724 167.778 557.798C167.7 557.871 167.608 557.928 167.508 557.965C167.407 558.001 167.3 558.017 167.193 558.011C166.047 557.942 164.914 558.288 164.002 558.986C163.09 559.684 162.459 560.686 162.224 561.811C162.187 561.986 162.093 562.145 161.957 562.262C161.821 562.378 161.65 562.447 161.471 562.457Z" fill="#EBEBEB"/>
<path d="M268.221 58.4907L255.129 65.9366V61.3214C255.129 60.9829 255.129 60.6599 255.129 60.3368C255.129 60.0138 255.129 59.7061 255.129 59.3984V59.2907C254.652 53.1371 250.006 50.7987 244.36 54.0755C241.792 55.6373 239.593 57.7366 237.914 60.2291C236.668 51.9679 229.837 48.8911 221.622 53.6447C212.484 58.9215 205.084 71.7364 205.084 82.2745V92.1972C205.085 92.9822 204.88 93.7537 204.488 94.4341C204.096 95.1146 203.533 95.6801 202.854 96.0739L195.162 100.597C193.492 101.574 192.107 102.971 191.146 104.65C190.185 106.329 189.681 108.231 189.685 110.166C189.7 110.961 189.92 111.739 190.324 112.424C190.728 113.109 191.303 113.678 191.991 114.076C192.68 114.474 193.46 114.687 194.255 114.695C195.051 114.702 195.835 114.504 196.531 114.119L268.021 72.8287C269.911 71.7353 271.483 70.1659 272.579 68.2765C273.674 66.3872 274.256 64.2439 274.267 62.0598C274.276 61.3475 274.097 60.6453 273.747 60.0244C273.398 59.4034 272.891 58.8857 272.278 58.5235C271.664 58.1613 270.966 57.9676 270.254 57.9618C269.541 57.9561 268.84 58.1385 268.221 58.4907Z" fill="#E6E6E6"/>
<path d="M149.487 73.8748L139.749 79.3823V75.9517C139.749 75.7055 139.749 75.4594 139.749 75.2286C139.749 74.9979 139.749 74.7517 139.749 74.5363C139.395 69.9211 135.964 68.2596 131.764 70.6749C129.863 71.8498 128.241 73.4247 127.011 75.2902C126.057 69.1365 121.026 66.9058 114.949 70.4134C111.376 72.7266 108.398 75.8508 106.26 79.5318C104.121 83.2129 102.882 87.3468 102.642 91.5972V98.9354C102.642 99.5148 102.491 100.084 102.202 100.586C101.913 101.088 101.497 101.506 100.996 101.797L95.3041 105.135C94.0681 105.861 93.0433 106.898 92.3309 108.142C91.6186 109.385 91.2434 110.794 91.2427 112.227C91.2441 112.821 91.4015 113.403 91.6991 113.917C91.9968 114.43 92.4241 114.856 92.9384 115.152C93.4527 115.448 94.0358 115.604 94.6292 115.604C95.2226 115.603 95.8055 115.447 96.3194 115.15L149.21 84.5975C150.614 83.7869 151.78 82.6207 152.59 81.2164C153.4 79.812 153.826 78.2191 153.825 76.5978C153.811 76.0912 153.673 75.5957 153.422 75.1555C153.17 74.7154 152.814 74.3441 152.385 74.0746C151.956 73.8052 151.467 73.646 150.961 73.6111C150.455 73.5763 149.949 73.6668 149.487 73.8748Z" fill="#E6E6E6"/>
</svg>
