<svg width="736" height="539" viewBox="0 0 736 539" fill="none" xmlns="http://www.w3.org/2000/svg">
<path d="M363.804 539C163.291 539 0.74408 529.51 0.74408 517.803C0.74408 506.097 163.291 496.607 363.804 496.607C564.316 496.607 726.863 506.097 726.863 517.803C726.863 529.51 564.316 539 363.804 539Z" fill="#F5F5F5"/>
<path d="M540.511 0.0750732L605.88 0.0750732C608.398 0.0750732 610.813 1.07529 612.593 2.85568C614.374 4.63608 615.374 7.05082 615.374 9.56868V73.1214C615.374 75.6393 614.374 78.054 612.593 79.8344C610.813 81.6148 608.398 82.615 605.88 82.615H584.965L599.046 101.752L574.703 82.615H540.53C538.012 82.615 535.597 81.6148 533.817 79.8344C532.037 78.054 531.036 75.6393 531.036 73.1214V9.56868C531.036 7.05406 532.034 4.64214 533.81 2.86228C535.587 1.08243 537.997 0.080033 540.511 0.0750732Z" fill="#5C86A7"/>
<path opacity="0.6" d="M540.511 0.0750732L605.88 0.0750732C608.398 0.0750732 610.813 1.07529 612.593 2.85568C614.374 4.63608 615.374 7.05082 615.374 9.56868V73.1214C615.374 75.6393 614.374 78.054 612.593 79.8344C610.813 81.6148 608.398 82.615 605.88 82.615H584.965L599.046 101.752L574.703 82.615H540.53C538.012 82.615 535.597 81.6148 533.817 79.8344C532.037 78.054 531.036 75.6393 531.036 73.1214V9.56868C531.036 7.05406 532.034 4.64214 533.81 2.86228C535.587 1.08243 537.997 0.080033 540.511 0.0750732Z" fill="white"/>
<path d="M573.187 71.0242C556.796 71.0242 543.508 57.7363 543.508 41.345C543.508 24.9536 556.796 11.6658 573.187 11.6658C589.578 11.6658 602.866 24.9536 602.866 41.345C602.866 57.7363 589.578 71.0242 573.187 71.0242Z" fill="#5C86A7"/>
<path opacity="0.2" d="M548.429 47.1715C545.201 33.4932 553.672 19.7875 567.351 16.5591C581.029 13.3308 594.735 21.8021 597.963 35.4805C601.191 49.1588 592.72 62.8644 579.042 66.0928C565.363 69.3212 551.658 60.8498 548.429 47.1715Z" fill="black"/>
<path d="M569.781 53.4859C569.436 53.4933 569.093 53.4327 568.772 53.3074C568.45 53.182 568.157 52.9945 567.908 52.7556L557.104 42.176C556.607 41.6943 556.322 41.035 556.312 40.3432C556.301 39.6514 556.566 38.9838 557.048 38.4872C557.529 37.9905 558.189 37.7056 558.881 37.6951C559.572 37.6846 560.24 37.9493 560.737 38.431L569.593 47.1007L584.911 30.0047C585.38 29.5314 586.014 29.2563 586.68 29.2363C587.347 29.2163 587.995 29.4529 588.493 29.8973C588.99 30.3416 589.297 30.9598 589.352 31.6244C589.407 32.289 589.204 32.9492 588.787 33.4688L571.653 52.5871C571.417 52.8515 571.129 53.0644 570.807 53.2126C570.484 53.3607 570.135 53.441 569.781 53.4484V53.4859Z" fill="white"/>
<path d="M657.974 474.137L604.028 468.819V407.981H582.644V468.8L528.472 474.137C525.876 474.388 523.467 475.598 521.715 477.53C519.963 479.462 518.994 481.977 518.997 484.585V492.693H667.449V484.585C667.452 481.977 666.483 479.462 664.731 477.53C662.979 475.598 660.57 474.388 657.974 474.137Z" fill="#263238"/>
<path opacity="0.1" d="M657.974 474.137L604.028 468.819V407.981H582.644V468.8L528.472 474.137C525.876 474.388 523.467 475.598 521.715 477.53C519.963 479.462 518.994 481.977 518.997 484.585V492.693H667.449V484.585C667.452 481.977 666.483 479.462 664.731 477.53C662.979 475.598 660.57 474.388 657.974 474.137Z" fill="white"/>
<path d="M524.707 516.717C516.982 516.717 510.719 510.455 510.719 502.73C510.719 495.004 516.982 488.742 524.707 488.742C532.432 488.742 538.694 495.004 538.694 502.73C538.694 510.455 532.432 516.717 524.707 516.717Z" fill="#263238"/>
<path d="M661.737 516.717C654.012 516.717 647.749 510.455 647.749 502.73C647.749 495.004 654.012 488.742 661.737 488.742C669.462 488.742 675.725 495.004 675.725 502.73C675.725 510.455 669.462 516.717 661.737 516.717Z" fill="#263238"/>
<path d="M586.706 424.272H600.038C602.089 424.272 604.056 423.457 605.507 422.007C606.957 420.557 607.772 418.589 607.772 416.538V356.731H578.973V416.538C578.973 418.589 579.787 420.557 581.238 422.007C582.688 423.457 584.655 424.272 586.706 424.272Z" fill="#263238"/>
<path opacity="0.2" d="M586.706 424.272H600.038C602.089 424.272 604.056 423.457 605.507 422.007C606.957 420.557 607.772 418.589 607.772 416.538V356.731H578.973V416.538C578.973 418.589 579.787 420.557 581.238 422.007C582.688 423.457 584.655 424.272 586.706 424.272Z" fill="white"/>
<path d="M668.008 239.512C668.008 239.512 651.98 339.466 620.334 356.749H652.504C652.504 356.749 684.337 322.67 693.924 239.512H668.008Z" fill="#263238"/>
<path opacity="0.1" d="M668.008 239.512C668.008 239.512 651.98 339.466 620.334 356.749H652.504C652.504 356.749 684.337 322.67 693.924 239.512H668.008Z" fill="white"/>
<path d="M654.041 342.612H528.733C526.25 342.612 523.868 343.598 522.113 345.354C520.357 347.11 519.37 349.491 519.37 351.974V364.502H663.403V351.974C663.403 349.491 662.417 347.11 660.661 345.354C658.905 343.598 656.524 342.612 654.041 342.612Z" fill="#5C86A7"/>
<path d="M517.198 353.547H665.706C667.785 353.547 669.47 355.232 669.47 357.311V360.719C669.47 362.798 667.785 364.483 665.706 364.483H517.198C515.119 364.483 513.434 362.798 513.434 360.719V357.311C513.434 355.232 515.119 353.547 517.198 353.547Z" fill="#263238"/>
<path opacity="0.6" d="M517.198 353.547H665.706C667.785 353.547 669.47 355.232 669.47 357.311V360.719C669.47 362.798 667.785 364.483 665.706 364.483H517.198C515.119 364.483 513.434 362.798 513.434 360.719V357.311C513.434 355.232 515.119 353.547 517.198 353.547Z" fill="white"/>
<path d="M697.726 259.847H646.251C631.159 259.847 621.366 247.751 624.362 232.827L628.369 212.904C631.365 197.924 646.026 185.902 661.1 185.902H712.575C727.668 185.902 737.461 197.998 734.465 212.904L730.458 232.827C727.462 247.713 712.819 259.847 697.726 259.847Z" fill="#5C86A7"/>
<path d="M424.585 427.268L436.382 431.893L444.864 415.902L452.579 401.352L439.509 393.525L431.607 411.37L424.585 427.268Z" fill="#E4897B"/>
<path opacity="0.2" d="M431.607 411.37L444.864 415.902L452.579 401.352L439.509 393.525L431.607 411.37Z" fill="black"/>
<path d="M434.06 402.644L450.107 411.258C450.107 411.258 510.758 304.619 520.083 305.518C529.408 306.416 617.883 362.779 644.866 341.956C671.849 321.134 645.596 258.443 645.596 258.443C645.596 258.443 589.777 242.489 583.804 254.698C582.229 258.353 580.891 262.106 579.797 265.933C578.617 269.772 577.718 273.011 577.718 273.011C576.014 272.318 520.888 249.717 496.283 261.776C471.173 274.172 434.06 402.644 434.06 402.644Z" fill="#263238"/>
<path opacity="0.3" d="M434.06 402.644L450.107 411.258C450.107 411.258 510.758 304.619 520.083 305.518C529.408 306.416 617.883 362.779 644.866 341.956C671.849 321.134 645.596 258.443 645.596 258.443C645.596 258.443 589.777 242.489 583.804 254.698C582.229 258.353 580.891 262.106 579.797 265.933C578.617 269.772 577.718 273.011 577.718 273.011C576.014 272.318 520.888 249.717 496.283 261.776C471.173 274.172 434.06 402.644 434.06 402.644Z" fill="white"/>
<path d="M521.244 489.603L533.827 488.162L533.902 470.41L533.921 454.12L518.697 453.408L520.046 472.564L521.244 489.603Z" fill="#E4897B"/>
<path opacity="0.2" d="M520.083 472.957L533.939 470.747V454.288L518.716 453.483L520.083 472.957Z" fill="black"/>
<path d="M457.952 405.959L434.471 394.199L432.018 404.161L449.807 413.336L457.952 405.959Z" fill="#5C86A7"/>
<path d="M603.185 342.125C603.185 342.125 599.327 341.694 539.988 330.703C539.988 330.703 538.639 406.577 535.831 463.145L517.555 463.725C517.555 463.725 491.34 338.268 494.43 319.243C497.519 300.218 520.064 297.728 520.064 297.728C520.064 297.728 559.218 328.231 603.185 342.125Z" fill="#263238"/>
<path opacity="0.4" d="M603.185 342.125C603.185 342.125 599.327 341.694 539.988 330.703C539.988 330.703 538.639 406.577 535.831 463.145L517.555 463.725C517.555 463.725 491.34 338.268 494.43 319.243C497.519 300.218 520.064 297.728 520.064 297.728C520.064 297.728 559.218 328.231 603.185 342.125Z" fill="white"/>
<path opacity="0.3" d="M603.185 342.125C603.185 342.125 599.327 341.694 539.988 330.703C539.988 330.703 538.639 406.577 535.831 463.145L517.555 463.725C517.555 463.725 491.34 338.268 494.43 319.243C497.519 300.218 520.064 297.728 520.064 297.728C520.064 297.728 559.218 328.231 603.185 342.125Z" fill="black"/>
<path d="M539.182 458.089L514.259 457.509L517.667 467.77L537.89 467.957L539.182 458.089Z" fill="#5C86A7"/>
<path opacity="0.3" d="M577.643 273.048L609.981 284.564C609.981 284.564 592.979 271.869 579.722 265.97C578.542 269.809 577.643 273.048 577.643 273.048Z" fill="black"/>
<path d="M649.341 254.585L648.142 263.555L587.53 250.691L588.934 240.092L649.341 254.585Z" fill="#263238"/>
<path opacity="0.2" d="M649.341 254.585L648.142 263.555L587.53 250.691L588.934 240.092L649.341 254.585Z" fill="black"/>
<path d="M629.257 248.069L632.276 248.629L629.424 264.002L626.405 263.442L629.257 248.069Z" fill="#263238"/>
<path d="M602.827 244.178L616.053 247.158L613.793 257.187L600.567 254.207L602.827 244.178Z" fill="white"/>
<path d="M594.324 237.915L597.333 238.468L594.519 253.791L591.509 253.238L594.324 237.915Z" fill="#263238"/>
<path opacity="0.3" d="M629.257 248.069L632.276 248.629L629.424 264.002L626.405 263.442L629.257 248.069Z" fill="white"/>
<path opacity="0.3" d="M594.324 237.915L597.333 238.468L594.519 253.791L591.509 253.238L594.324 237.915Z" fill="white"/>
<path d="M401.141 448.202C403.109 447.598 405.172 447.363 407.226 447.51C407.226 447.51 414.847 444.326 424.079 429.178L431.943 430.208C433.267 430.407 434.497 431.007 435.469 431.928C436.44 432.849 437.105 434.046 437.374 435.357C437.43 435.729 437.43 436.108 437.374 436.48C437.035 438.381 436.572 440.258 435.988 442.098C433.972 448.185 431.589 454.144 428.854 459.943L427.58 459.419L431.644 448.071C432.992 444.195 428.292 447.472 425.802 451.217C423.311 454.962 419.772 458.595 411.365 455.412C401.59 451.592 397.714 449.569 401.141 448.202Z" fill="#263238"/>
<path d="M426.045 425.152C426.045 425.152 413.424 444.326 407.226 447.509C407.226 447.509 414.173 453.127 423.442 444.101C435.408 432.511 437.411 436.48 437.411 436.48C437.518 434.21 437.411 431.934 437.093 429.683C436.138 425.283 426.045 425.152 426.045 425.152Z" fill="#E4897B"/>
<path d="M502.368 511.924C504.161 510.89 506.128 510.192 508.172 509.864C508.172 509.864 514.82 504.977 520.156 488.087L528.04 487.225C529.377 487.099 530.721 487.391 531.885 488.062C533.05 488.733 533.976 489.749 534.537 490.97C534.705 491.306 534.819 491.666 534.874 492.038C535.005 493.952 535.005 495.872 534.874 497.786C534.366 504.177 533.466 510.53 532.178 516.811L530.811 516.605L532.028 504.583C532.421 500.501 528.62 504.808 527.085 509.04C525.549 513.272 522.984 517.635 514.071 516.53C503.66 515.126 499.428 514.077 502.368 511.924Z" fill="#263238"/>
<path d="M521.093 483.649C521.093 483.649 513.378 505.276 508.116 509.864C508.116 509.864 516.187 513.609 523.096 502.711C531.991 488.611 534.855 492 534.855 492C534.437 489.774 533.81 487.593 532.983 485.484C530.998 481.364 521.093 483.649 521.093 483.649Z" fill="#E4897B"/>
<path d="M662.541 101.658L678.382 104.842C679.001 105.363 679.732 105.734 680.518 105.926C681.305 106.117 682.124 106.124 682.914 105.946C687.632 104.074 694.43 98.5873 695.291 96.5838C696.564 93.7563 695.291 85.4611 691.958 83.9631C688.625 82.4651 677.146 96.3216 677.146 96.3216L660.125 92.483L662.541 101.658Z" fill="#E4897B"/>
<path d="M612.583 154.313C612.583 154.313 614.025 102.988 619.961 100.797C625.897 98.6061 670.518 104.729 670.518 104.729L671.604 93.0073C671.604 93.0073 619.68 85.0117 609.625 89.7491C599.569 94.4866 596.255 170.978 598.09 185.715L612.583 154.313Z" fill="#5C86A7"/>
<path opacity="0.6" d="M612.583 154.313C612.583 154.313 614.025 102.988 619.961 100.797C625.897 98.6061 670.518 104.729 670.518 104.729L671.604 93.0073C671.604 93.0073 619.68 85.0117 609.625 89.7491C599.569 94.4866 596.255 170.978 598.09 185.715L612.583 154.313Z" fill="white"/>
<path d="M669.751 105.853L672.859 92.9698L668.403 91.3594L665.575 106.246L669.751 105.853Z" fill="#5C86A7"/>
<path opacity="0.7" d="M669.751 105.853L672.859 92.9698L668.403 91.3594L665.575 106.246L669.751 105.853Z" fill="white"/>
<path d="M612.845 147.909C612.845 147.909 616.833 163.526 636.045 168.507C655.257 173.487 676.51 160.474 676.51 160.474L672.278 197.736L648.759 256.439L588.652 240.766C588.652 240.766 592.247 172.476 612.845 147.909Z" fill="#5C86A7"/>
<path opacity="0.7" d="M612.845 147.909C612.845 147.909 616.833 163.526 636.045 168.507C655.257 173.487 676.51 160.474 676.51 160.474L672.278 197.736L648.759 256.439L588.652 240.766C588.652 240.766 592.247 172.476 612.845 147.909Z" fill="white"/>
<path opacity="0.6" d="M602.4 209.832L595.364 207.612C594.585 207.366 594.152 206.535 594.398 205.756L598.59 192.47C598.836 191.691 599.666 191.259 600.446 191.505L607.481 193.724C608.261 193.97 608.693 194.801 608.447 195.58L604.255 208.866C604.01 209.645 603.179 210.078 602.4 209.832Z" fill="#5C86A7"/>
<path opacity="0.2" d="M603.832 205.782L595.832 203.258L599.286 192.311L607.286 194.835L603.832 205.782Z" fill="black"/>
<path d="M604.1 188.354L605.868 188.911L603.834 195.358L602.066 194.8L604.1 188.354Z" fill="#263238"/>
<path d="M653.703 89.5806C668.515 89.5806 678.289 105.272 674.825 130.158C671.361 155.043 657.486 162.215 657.486 162.215L658.366 156.204C642.962 159.7 627.081 160.586 611.385 158.826C611.385 158.826 618.538 138.528 616.216 117.799C616.216 117.799 611.516 89.5432 653.703 89.5806Z" fill="#263238"/>
<path opacity="0.2" d="M624.286 163.451L618.238 185.921L628.874 177.813C628.874 177.813 618.519 201.481 615.766 215.263C615.766 215.263 624.717 191.8 632.432 178.936L636.944 191.819L655.089 173.338C655.089 173.338 639.06 161.054 624.286 163.451Z" fill="black"/>
<path d="M633.125 170.697L651.588 171.259C643.405 160.792 658.198 142.554 658.198 142.554L639.96 146.505C635.616 164.556 628.107 165.099 628.107 165.099L633.125 170.697Z" fill="#E4897B"/>
<path opacity="0.2" d="M634.867 159.462C641.912 158.873 648.464 155.61 653.18 150.343C654.637 147.638 656.315 145.057 658.198 142.629L639.96 146.598C638.994 151.141 637.273 155.49 634.867 159.462Z" fill="black"/>
<path d="M639.978 97.2017C624.08 98.5312 619.661 107.463 619.867 123.96C620.111 144.557 625.878 158.732 645.389 152.703C671.904 144.52 666.399 94.9922 639.978 97.2017Z" fill="#E4897B"/>
<path d="M630.073 122.256C628.996 124.739 627.626 127.084 625.991 129.24C626.514 129.854 627.196 130.313 627.962 130.567C628.727 130.822 629.548 130.861 630.335 130.682L630.073 122.256Z" fill="#DE5753"/>
<path d="M640.84 119.597L637.394 118.473C637.394 118.473 639.229 121.207 640.84 119.597Z" fill="#263238"/>
<path d="M639.641 119.204C640.281 118.889 641.015 118.818 641.704 119.004C642.393 119.19 642.991 119.62 643.386 120.215C642.798 119.947 642.159 119.808 641.513 119.808C640.867 119.808 640.229 119.947 639.641 120.215V119.204Z" fill="#263238"/>
<path d="M646.045 111.62C646.222 111.615 646.39 111.541 646.513 111.414C646.578 111.353 646.63 111.279 646.666 111.196C646.701 111.114 646.72 111.026 646.72 110.936C646.72 110.847 646.701 110.758 646.666 110.676C646.63 110.594 646.578 110.52 646.513 110.459C645.469 109.546 644.227 108.887 642.885 108.536C641.543 108.186 640.137 108.151 638.78 108.437C638.604 108.474 638.449 108.58 638.351 108.731C638.253 108.882 638.218 109.065 638.256 109.242C638.293 109.418 638.399 109.572 638.55 109.671C638.701 109.769 638.884 109.803 639.061 109.766C640.194 109.535 641.364 109.561 642.486 109.843C643.607 110.125 644.651 110.655 645.54 111.395C645.602 111.467 645.68 111.525 645.767 111.563C645.855 111.602 645.95 111.622 646.045 111.62Z" fill="#263238"/>
<path d="M621.104 111.901C621.252 111.906 621.398 111.86 621.516 111.77C622.265 111.083 623.158 110.572 624.13 110.274C625.102 109.976 626.128 109.898 627.133 110.047C627.219 110.07 627.309 110.077 627.398 110.065C627.486 110.054 627.571 110.025 627.649 109.981C627.726 109.936 627.794 109.877 627.849 109.807C627.903 109.736 627.943 109.656 627.967 109.57C627.99 109.483 627.996 109.394 627.985 109.305C627.973 109.217 627.945 109.131 627.9 109.054C627.856 108.977 627.797 108.909 627.726 108.854C627.656 108.8 627.575 108.76 627.489 108.736C626.275 108.522 625.029 108.587 623.844 108.928C622.66 109.269 621.569 109.876 620.654 110.702C620.516 110.816 620.427 110.979 620.406 111.157C620.385 111.335 620.434 111.515 620.542 111.657C620.61 111.739 620.696 111.804 620.794 111.847C620.891 111.889 620.998 111.907 621.104 111.901Z" fill="#263238"/>
<path d="M659.658 122.555C659.658 122.555 651.138 110.122 651.419 99.9355C651.419 99.9355 618.819 89.6742 619.923 121.806C619.923 121.806 614.493 93.7188 641.775 90.7415C669.058 87.7643 672.222 127.873 659.096 140.981C659.096 140.981 664.882 130.345 659.658 122.555Z" fill="#263238"/>
<path d="M657.281 126.132C657.281 124.278 658.016 122.499 659.326 121.186C660.635 119.874 662.412 119.134 664.266 119.129C669.246 119.26 672.43 129.184 660.371 132.648C658.648 133.135 657.506 131.506 657.281 126.132Z" fill="#E4897B"/>
<path d="M630.203 135.363C631.37 136.93 632.415 138.582 633.331 140.307C633.649 140.194 633.986 140.101 634.304 139.97C638.705 138.416 640.24 136.225 640.596 134.352C640.764 133.401 640.693 132.423 640.39 131.506C640.234 130.978 640.007 130.475 639.716 130.008C637.428 132.182 634.693 133.831 631.701 134.839C630.803 135.176 630.203 135.363 630.203 135.363Z" fill="#263238"/>
<path d="M631.702 134.802L632.657 136.243C636.814 134.764 639.529 133.172 640.391 131.468C640.235 130.941 640.008 130.437 639.717 129.97C637.429 132.145 634.693 133.794 631.702 134.802Z" fill="white"/>
<path d="M634.305 139.97C638.705 138.416 640.241 136.225 640.597 134.352C638.932 134.965 637.391 135.872 636.046 137.03C635.175 137.805 634.566 138.833 634.305 139.97Z" fill="#DE5753"/>
<path d="M640.409 98.3813C640.409 98.3813 649.003 124.016 665.444 122.256C681.885 120.496 653.703 89.5244 653.703 89.5244C653.703 89.5244 625.972 81.6037 613.894 97.0144C601.816 112.425 619.867 121.769 619.867 121.769C619.867 121.769 617.171 101.658 640.409 98.3813Z" fill="#263238"/>
<path d="M653.516 120.196C653.611 120.192 653.703 120.161 653.782 120.109C653.862 120.056 653.925 119.982 653.966 119.896C654.008 119.777 654.003 119.646 653.951 119.53C653.898 119.415 653.803 119.325 653.685 119.279C640.577 114.279 640.877 96.6961 640.877 96.5089C640.882 96.4477 640.874 96.386 640.854 96.328C640.834 96.27 640.801 96.2171 640.758 96.1727C640.716 96.1284 640.664 96.0936 640.607 96.0709C640.55 96.0481 640.489 96.0379 640.427 96.0408C640.306 96.0445 640.189 96.092 640.1 96.1746C640.011 96.2572 639.954 96.3692 639.94 96.4902C639.94 96.6774 639.641 114.916 653.348 120.159L653.516 120.196Z" fill="#263238"/>
<path d="M624.699 121.151L621.254 120.046C621.254 120.046 623.108 122.761 624.699 121.151Z" fill="#263238"/>
<path d="M623.501 120.758C624.143 120.441 624.879 120.37 625.57 120.56C626.26 120.75 626.857 121.187 627.246 121.788C626.667 121.499 626.032 121.34 625.386 121.321C624.739 121.301 624.096 121.422 623.501 121.675V120.758Z" fill="#263238"/>
<path d="M648.986 163.694L635.073 170.772L635.298 184.872L655.184 173.281L648.986 163.694Z" fill="#5C86A7"/>
<path d="M632.957 161.035L632.133 169.593L623.051 179.199L624.287 163.395L632.957 161.035Z" fill="#5C86A7"/>
<path d="M697.239 64.2082L703.044 49.2281C702.938 48.4273 703.02 47.6127 703.283 46.849C703.546 46.0852 703.984 45.3932 704.561 44.8277C708.605 41.813 716.957 39.0792 719.054 39.3975C722.106 39.8469 728.416 45.3708 727.873 48.9847C727.33 52.5986 709.504 54.8269 709.504 54.8269L703.587 71.2488L697.239 64.2082Z" fill="#E4897B"/>
<path d="M672.242 197.736C672.242 197.736 661.007 188.805 665.482 169.068L677.56 114.466L698.307 58.0663L708.456 63.197C708.456 63.197 691.416 118.305 689.843 122.031C689.038 123.904 685.836 152.497 681.473 171.652C677.466 189.291 672.242 197.736 672.242 197.736Z" fill="#5C86A7"/>
<path opacity="0.6" d="M672.242 197.736C672.242 197.736 661.007 188.805 665.482 169.068L677.56 114.466L698.307 58.0663L708.456 63.197C708.456 63.197 691.416 118.305 689.843 122.031C689.038 123.904 685.836 152.497 681.473 171.652C677.466 189.291 672.242 197.736 672.242 197.736Z" fill="white"/>
<path d="M710.234 61.5867L698.381 55.6508L695.797 59.6018L709.654 65.7436L710.234 61.5867Z" fill="#5C86A7"/>
<path opacity="0.7" d="M710.234 61.5867L698.381 55.6508L695.797 59.6018L709.654 65.7436L710.234 61.5867Z" fill="white"/>
<path opacity="0.6" d="M648.986 163.694L635.073 170.772L635.298 184.872L655.184 173.281L648.986 163.694Z" fill="white"/>
<path opacity="0.6" d="M632.957 161.035L632.133 169.593L623.051 179.199L624.287 163.395L632.957 161.035Z" fill="white"/>
<path d="M237.859 134.259H293.959V177.85H237.859V134.259Z" fill="white"/>
<path opacity="0.1" d="M237.858 134.259H252.239V177.85H237.858V134.259Z" fill="black"/>
<path d="M297.18 216.349H233.758V137.236H254.187L297.18 157.815V216.349Z" fill="#5C86A7"/>
<path opacity="0.2" d="M233.758 137.236H254.188V216.349H233.758V137.236Z" fill="black"/>
<path opacity="0.7" d="M260.947 173.413H290.645V187.644H260.947V173.413Z" fill="white"/>
<path opacity="0.7" d="M260.947 192.4H290.645V194.441H260.947V192.4Z" fill="white"/>
<path opacity="0.7" d="M235.742 198.373H252.239V210.451H235.742V198.373Z" fill="white"/>
<path d="M261.695 131.88H317.795V177.85H261.695V131.88Z" fill="white"/>
<path opacity="0.1" d="M261.695 131.88H276.076V177.85H261.695V131.88Z" fill="black"/>
<path d="M321.017 216.349H257.595V137.236H278.024L321.017 157.815V216.349Z" fill="#5C86A7"/>
<path opacity="0.2" d="M257.595 137.236H278.024V216.349H257.595V137.236Z" fill="black"/>
<path opacity="0.7" d="M284.784 173.413H314.481V187.644H284.784V173.413Z" fill="white"/>
<path opacity="0.7" d="M284.784 192.4H314.481V194.441H284.784V192.4Z" fill="white"/>
<path opacity="0.7" d="M259.579 198.373H276.076V210.451H259.579V198.373Z" fill="white"/>
<path d="M360.414 516.717H348.936L328.338 229.756H343.562L360.414 516.717Z" fill="#263238"/>
<path opacity="0.1" d="M360.414 516.717H348.936L329.349 244.006L328.338 230.224H343.562L344.367 244.006L360.414 516.717Z" fill="white"/>
<path opacity="0.2" d="M344.367 243.332H329.35L328.339 230.224H343.562L344.367 243.332Z" fill="black"/>
<path d="M444.601 516.717H433.123L431.25 229.756H446.474L444.601 516.717Z" fill="#263238"/>
<path opacity="0.1" d="M446.493 230.224L446.175 276.513L444.621 516.717H433.142L431.569 276.513L431.27 230.224H446.493Z" fill="white"/>
<path opacity="0.2" d="M446.493 230.224L446.175 277.037H431.569L431.27 230.224H446.493Z" fill="black"/>
<path d="M566.39 516.717H554.911L534.314 229.756H549.537L566.39 516.717Z" fill="#263238"/>
<path opacity="0.1" d="M566.39 516.717H554.911L535.306 244.006L534.314 230.224H549.537L550.342 244.006L566.39 516.717Z" fill="white"/>
<path opacity="0.2" d="M550.341 243.332H535.305L534.312 230.224H549.536L550.341 243.332Z" fill="black"/>
<path d="M229.188 516.717H217.71L234.581 229.756H249.805L229.188 516.717Z" fill="#263238"/>
<path opacity="0.1" d="M249.805 230.224L248.775 244.006L229.188 516.717H217.729L233.757 244.006L234.581 230.224H249.805Z" fill="white"/>
<path opacity="0.2" d="M234.581 230.224H249.805L248.775 243.332H233.757L234.581 230.224Z" fill="black"/>
<path d="M226.549 236.947L557.532 236.947C558.063 236.947 558.589 236.842 559.08 236.639C559.571 236.436 560.016 236.138 560.392 235.762C560.768 235.386 561.066 234.941 561.269 234.45C561.472 233.959 561.577 233.433 561.577 232.902V222.585L222.504 222.585V232.902C222.504 233.433 222.609 233.959 222.812 234.45C223.015 234.941 223.313 235.386 223.689 235.762C224.064 236.138 224.51 236.436 225.001 236.639C225.491 236.842 226.017 236.947 226.549 236.947Z" fill="#5C86A7"/>
<path opacity="0.4" d="M226.549 236.947L557.532 236.947C558.063 236.947 558.589 236.842 559.08 236.639C559.571 236.436 560.016 236.138 560.392 235.762C560.768 235.386 561.066 234.941 561.269 234.45C561.472 233.959 561.577 233.433 561.577 232.902V222.585L222.504 222.585V232.902C222.504 233.433 222.609 233.959 222.812 234.45C223.015 234.941 223.313 235.386 223.689 235.762C224.064 236.138 224.51 236.436 225.001 236.639C225.491 236.842 226.017 236.947 226.549 236.947Z" fill="white"/>
<path opacity="0.2" d="M561.577 229.756L222.504 229.756V222.566L561.577 222.566V229.756Z" fill="black"/>
<path d="M568.693 224.438H215.407C214.876 224.441 214.349 224.338 213.857 224.135C213.365 223.933 212.918 223.635 212.542 223.259C212.166 222.883 211.868 222.436 211.666 221.944C211.463 221.453 211.36 220.926 211.363 220.394C211.363 219.321 211.789 218.292 212.547 217.534C213.306 216.775 214.335 216.349 215.407 216.349H568.693C569.767 216.349 570.798 216.775 571.559 217.533C572.321 218.291 572.751 219.319 572.756 220.394C572.756 220.926 572.651 221.454 572.446 221.946C572.242 222.438 571.942 222.884 571.565 223.26C571.187 223.636 570.739 223.934 570.246 224.136C569.753 224.338 569.225 224.441 568.693 224.438Z" fill="#5C86A7"/>
<path opacity="0.4" d="M568.693 224.438H215.407C214.876 224.441 214.349 224.338 213.857 224.135C213.365 223.933 212.918 223.635 212.542 223.259C212.166 222.883 211.868 222.436 211.666 221.944C211.463 221.453 211.36 220.926 211.363 220.394C211.363 219.321 211.789 218.292 212.547 217.534C213.306 216.775 214.335 216.349 215.407 216.349H568.693C569.767 216.349 570.798 216.775 571.559 217.533C572.321 218.291 572.751 219.319 572.756 220.394C572.756 220.926 572.651 221.454 572.446 221.946C572.242 222.438 571.942 222.884 571.565 223.26C571.187 223.636 570.739 223.934 570.246 224.136C569.753 224.338 569.225 224.441 568.693 224.438Z" fill="white"/>
<path d="M291.318 216.312V209.983H287.067L291.318 207.511H288.135L292.385 204.74H296.411V201.556H291.73L296.411 199.703V192.793H291.73V188.28H287.067L291.73 186.707V183.487H288.397L291.131 180.772L293.49 178.393H365.844V181.633H370.619L365.301 184.03V186.707H375.056V191.688H379.382L375.056 193.86V199.422H371.985V202.081H365.844V209.983H369.289L366.462 212.81V216.349L291.318 216.312Z" fill="#5C86A7"/>
<path opacity="0.7" d="M291.318 216.312V209.983H287.067L291.318 207.511H288.135L292.385 204.74H296.411V201.556H291.73L296.411 199.703V192.793H291.73V188.28H287.067L291.73 186.707V183.487H288.397L291.131 180.772L293.49 178.393H365.844V181.633H370.619L365.301 184.03V186.707H375.056V191.688H379.382L375.056 193.86V199.422H371.985V202.081H365.844V209.983H369.289L366.462 212.81V216.349L291.318 216.312Z" fill="white"/>
<path opacity="0.1" d="M291.319 216.312V209.983H287.068L291.319 207.511H288.136L292.386 204.74H296.412V201.556H291.731L296.412 199.703V192.793H291.731V188.28H287.068L291.731 186.707V183.487H288.398L291.132 180.772L293.491 178.393H331.596V181.633H336.371L331.072 184.03V186.707H340.828V191.688H345.153L340.828 193.86V199.422H337.757V202.081H331.596V209.983H335.042L332.233 212.81V216.349L291.319 216.312Z" fill="black"/>
<path opacity="0.1" d="M365.301 186.707H331.071L365.301 185.472V186.707Z" fill="black"/>
<path opacity="0.1" d="M365.845 202.081H331.597L331.447 204.477L365.845 202.081Z" fill="black"/>
<path opacity="0.1" d="M371.987 199.422H337.758L371.987 200.62V199.422Z" fill="black"/>
<path opacity="0.1" d="M365.845 209.983H331.597L365.845 208.728V209.983Z" fill="black"/>
<path opacity="0.1" d="M366.463 212.81H332.234V214.121L366.463 212.81Z" fill="black"/>
<path opacity="0.1" d="M375.057 191.688H340.827L375.057 190.602V191.688Z" fill="black"/>
<path opacity="0.1" d="M365.845 181.633H331.597L365.845 180.435V181.633Z" fill="black"/>
<path opacity="0.1" d="M291.732 183.487H326.467L291.732 184.554V183.487Z" fill="black"/>
<path opacity="0.1" d="M331.072 186.707H291.731L327.402 187.868L331.072 186.707Z" fill="black"/>
<path opacity="0.1" d="M340.827 191.688L291.73 192.793V191.688H340.827Z" fill="black"/>
<path opacity="0.1" d="M340.827 193.86H316.541L340.827 195.04V193.86Z" fill="black"/>
<path opacity="0.1" d="M296.411 199.703L331.596 199.422L296.411 198.635V199.703Z" fill="black"/>
<path opacity="0.1" d="M296.412 201.556H332.233L296.412 202.755V201.556Z" fill="black"/>
<path opacity="0.1" d="M291.319 207.511H331.072V208.728L291.319 207.511Z" fill="black"/>
<path opacity="0.1" d="M291.318 209.983H320.117L291.318 210.788V209.983Z" fill="black"/>
<path d="M383.445 208.148V214.158C383.445 215.694 385.318 216.33 386.797 216.33H506.862C508.397 216.33 510.251 215.694 510.251 214.158V208.148H383.445Z" fill="#263238"/>
<path opacity="0.4" d="M383.445 208.148V214.158C383.445 215.694 385.318 216.33 386.797 216.33H506.862C508.397 216.33 510.251 215.694 510.251 214.158V208.148H383.445Z" fill="white"/>
<path opacity="0.2" d="M383.446 208.148V214.158C383.446 215.694 385.319 216.33 386.798 216.33H465.986C467.521 216.33 469.356 215.694 469.356 214.158V208.148H383.446Z" fill="black"/>
<path d="M363.353 145.756L377.659 210.601C377.905 211.653 378.496 212.593 379.337 213.272C380.178 213.95 381.222 214.328 382.303 214.346H460.368C460.853 214.335 461.33 214.212 461.76 213.986C462.19 213.76 462.562 213.438 462.847 213.044C463.132 212.651 463.322 212.197 463.402 211.717C463.481 211.238 463.449 210.747 463.307 210.282L449.039 145.943C448.746 144.961 448.125 144.109 447.28 143.53C446.435 142.95 445.417 142.679 444.395 142.76H366.312C364.214 142.685 362.904 143.64 363.353 145.756Z" fill="#263238"/>
<path opacity="0.4" d="M363.355 145.756L377.661 210.601C377.907 211.653 378.497 212.593 379.339 213.272C380.18 213.95 381.224 214.328 382.304 214.346H457.729C458.215 214.335 458.691 214.212 459.121 213.986C459.552 213.76 459.924 213.438 460.209 213.045C460.493 212.651 460.683 212.197 460.763 211.717C460.843 211.238 460.81 210.747 460.669 210.282L446.381 145.943C446.092 144.959 445.472 144.105 444.626 143.525C443.78 142.945 442.76 142.675 441.738 142.76H366.313C364.216 142.685 362.905 143.64 363.355 145.756Z" fill="white"/>
<path opacity="0.2" d="M401.852 178.712C401.852 184.329 407.806 188.767 412.169 188.767C416.532 188.767 419.116 184.254 417.787 178.712C416.457 173.169 412.169 168.844 407.937 168.675C409.173 174.293 406.514 178.712 402.17 178.712H401.852Z" fill="black"/>
</svg>
