<svg width="228" height="160" viewBox="0 0 228 160" fill="none" xmlns="http://www.w3.org/2000/svg">
<path d="M223.978 11.9775H190.278V76.4483H223.978V11.9775Z" fill="#E0E0E0"/>
<path d="M222.859 11.9775H189.16V76.4483H222.859V11.9775Z" fill="#EBEBEB"/>
<path d="M221.422 13.2856H190.594V75.1403H221.422V13.2856Z" fill="#FAFAFA"/>
<path d="M215.419 21.3235H196.461V67.106H215.419V21.3235Z" fill="#EBEBEB"/>
<path d="M196.461 50.9038C196.42 46.6266 199.747 42.4534 203.41 41.8551C205.159 41.5727 207.014 41.9703 208.647 41.1973C211.56 39.8187 212.486 35.3408 215.419 34.0141L215.554 67.1061H196.461V50.9038Z" fill="#E0E0E0"/>
<path d="M60.3361 1.8028H37.2246V29.6439H60.3361V1.8028Z" fill="#E0E0E0"/>
<path d="M58.7701 1.8028H35.6619V29.6439H58.7701V1.8028Z" fill="#FAFAFA"/>
<path d="M58.7767 29.6514H35.6523V1.78052H58.7767V29.6514ZM35.6684 29.6514H58.7638V1.81025H35.6684V29.6514Z" fill="#E0E0E0"/>
<path d="M55.6643 5.54492H38.7679V25.9018H55.6643V5.54492Z" fill="white"/>
<path d="M38.7679 26.0355C38.6473 26.2401 38.5071 26.4284 38.3499 26.5967C38.0798 26.9274 37.7069 27.3696 37.276 27.8564C36.8452 28.3432 36.4593 28.7706 36.1732 29.0753C36.026 29.2532 35.8621 29.4115 35.6844 29.5472C35.8015 29.3417 35.9409 29.1544 36.0992 28.9898C36.3693 28.6591 36.7423 28.2132 37.1763 27.7264C37.6104 27.2395 37.993 26.8085 38.2824 26.5038C38.4275 26.3259 38.5905 26.1687 38.7679 26.0355Z" fill="#E0E0E0"/>
<path d="M55.6642 25.9872C55.8408 26.1258 56.0037 26.2866 56.1497 26.4666C56.4326 26.7788 56.8185 27.2098 57.2365 27.7078C57.6544 28.2058 58.0306 28.6517 58.2943 28.9861C58.4488 29.1556 58.5858 29.3452 58.7026 29.551C58.5251 29.4138 58.3621 29.2529 58.2171 29.0716C57.9342 28.7595 57.5483 28.3284 57.1271 27.8267C56.7059 27.325 56.333 26.8828 56.0693 26.5484C55.9163 26.3797 55.7804 26.1914 55.6642 25.9872Z" fill="#E0E0E0"/>
<path d="M55.6191 5.59694C55.7362 5.39142 55.8756 5.20408 56.0339 5.03952C56.304 4.70879 56.677 4.26285 57.1078 3.77976C57.5387 3.29666 57.9245 2.8656 58.2139 2.55716C58.3588 2.37758 58.523 2.22022 58.7026 2.08893C58.581 2.29043 58.442 2.47719 58.2878 2.64634C58.0177 2.97708 57.6448 3.42301 57.2107 3.90611C56.7766 4.3892 56.3908 4.82399 56.1047 5.13242C55.9593 5.30896 55.7963 5.46489 55.6191 5.59694Z" fill="#E0E0E0"/>
<path d="M38.7197 5.64896C38.5441 5.5088 38.3824 5.3468 38.2374 5.16586C37.9512 4.85371 37.5654 4.42264 37.1474 3.92468C36.7294 3.42672 36.3564 2.98079 36.0896 2.65005C35.936 2.48064 35.8 2.29108 35.6844 2.08521C35.8623 2.22053 36.0244 2.38163 36.1667 2.56458C36.4529 2.87674 36.8387 3.30781 37.2567 3.80948C37.6747 4.31116 38.0509 4.75337 38.3178 5.08782C38.4714 5.25483 38.6064 5.44333 38.7197 5.64896Z" fill="#E0E0E0"/>
<path d="M55.6192 25.9018C55.6168 25.8684 55.6168 25.8349 55.6192 25.8015C55.6192 25.7309 55.6192 25.638 55.6192 25.5191C55.6192 25.2626 55.6192 24.8947 55.6192 24.4042C55.6192 23.4417 55.6192 22.0371 55.6192 20.257C55.6192 16.6896 55.5999 11.6096 55.5838 5.53009L55.6513 5.60441H38.8L38.874 5.51894C38.874 12.9883 38.874 19.9783 38.874 25.8758L38.8097 25.8015L51.0117 25.8386L54.4359 25.8572H55.3427H55.3587H54.4649L51.0503 25.8795L38.8097 25.9167H38.7454V25.8424C38.7454 19.9449 38.7454 12.9549 38.7454 5.48549V5.40002H38.8193H55.6706H55.7349V5.47435C55.7349 11.5762 55.7092 16.671 55.7028 20.2496C55.7028 22.0222 55.6867 23.4194 55.6835 24.3782C55.6835 24.8502 55.6835 25.2106 55.6835 25.4633C55.6835 25.5822 55.6835 25.6714 55.6835 25.7383C55.6835 25.8052 55.6192 25.9018 55.6192 25.9018Z" fill="#E0E0E0"/>
<path d="M50.0376 12.4643H44.3979V18.9824H50.0376V12.4643Z" fill="#EBEBEB"/>
<path d="M29.7877 21.8029H7.32568V59.4323H29.7877V21.8029Z" fill="#E0E0E0"/>
<path d="M28.6623 21.8029H6.20032V59.4323H28.6623V21.8029Z" fill="#F5F5F5"/>
<path d="M25.8713 25.8757H8.99109V55.3556H25.8713V25.8757Z" fill="white"/>
<path d="M25.8746 55.3556C25.8746 55.3556 25.8746 55.3073 25.8746 55.2144C25.8746 55.1215 25.8746 54.9766 25.8746 54.7945C25.8746 54.4229 25.8746 53.8841 25.8746 53.178C25.8746 51.7659 25.8746 49.7071 25.8746 47.1059C25.8746 41.9033 25.8746 34.5454 25.8457 25.8757L25.9036 25.9426H8.99118L9.05227 25.872C9.05227 36.9943 9.05227 47.2471 9.05227 55.3519L9.00082 55.2962L21.2896 55.3259H24.685H25.5756H25.8971C25.8971 55.3259 25.7975 55.3259 25.5981 55.3259H24.7171H21.3314L9.01368 55.3556H8.96545V55.2962C8.96545 47.1913 8.96545 36.9386 8.96545 25.8163V25.7457H9.02976H25.91H25.9647V25.8088C25.9647 34.4971 25.9454 41.8736 25.9389 47.0799C25.9389 49.6811 25.9389 51.7287 25.9229 53.1408C25.9229 53.8358 25.9229 54.3746 25.9229 54.7425C25.9229 54.9209 25.9229 55.0584 25.9229 55.155C25.9229 55.2516 25.8746 55.3556 25.8746 55.3556Z" fill="#E0E0E0"/>
<path d="M28.7137 21.8029C28.6027 22.0423 28.4736 22.2699 28.3279 22.483C28.0674 22.8843 27.6848 23.4343 27.2732 24.0252C26.8617 24.616 26.4566 25.14 26.164 25.5116C26.0138 25.7222 25.8481 25.9174 25.6688 26.095C25.7958 25.8686 25.9388 25.6548 26.0965 25.4559L27.18 23.9397L28.2603 22.4235C28.3954 22.2017 28.5471 21.994 28.7137 21.8029Z" fill="#E0E0E0"/>
<path d="M25.9614 55.2628C26.7987 56.806 27.7857 58.2335 28.9034 59.5177L25.9614 55.2628Z" fill="white"/>
<path d="M28.9034 59.5177C28.7162 59.3605 28.5448 59.1798 28.3921 58.9789C27.9999 58.5183 27.6286 58.0345 27.2796 57.5296C26.8713 56.9387 26.5337 56.3776 26.3151 55.9614C26.1793 55.7439 26.065 55.5096 25.9742 55.2628C26.1243 55.4656 26.2619 55.6804 26.3858 55.9056C26.6334 56.307 26.9838 56.8533 27.389 57.4441C27.7941 58.035 28.1831 58.5589 28.4661 58.912C28.6258 59.0998 28.7721 59.3024 28.9034 59.5177Z" fill="#E0E0E0"/>
<path d="M6.20679 59.4025L9.14877 55.207L6.20679 59.4025Z" fill="white"/>
<path d="M9.13913 55.207C8.69919 55.9508 8.22478 56.6666 7.71797 57.3512C7.24635 58.0657 6.7419 58.7505 6.20679 59.4025C6.64998 58.6616 7.12538 57.9472 7.63116 57.262C8.43498 56.1026 9.10054 55.1847 9.13913 55.207Z" fill="#E0E0E0"/>
<path d="M6.20679 21.8029C6.71556 22.4289 7.19326 23.0877 7.63759 23.7762C8.11011 24.4325 8.55229 25.1172 8.96229 25.8275C8.45515 25.2008 7.97855 24.542 7.5347 23.8542C7.06094 23.1981 6.61767 22.5134 6.20679 21.8029Z" fill="#E0E0E0"/>
<path d="M20.6144 31.8624H14.9619V50.4133H20.6144V31.8624Z" fill="#E0E0E0"/>
<path d="M227.695 159.455C227.695 159.507 176.893 159.552 114.247 159.552C51.6001 159.552 0.785767 159.507 0.785767 159.455C0.785767 159.403 51.5872 159.358 114.247 159.358C176.906 159.358 227.695 159.403 227.695 159.455Z" fill="#263238"/>
<path d="M56.7413 43.5682H201.677C202.251 43.5682 202.803 43.8321 203.209 44.3018C203.615 44.7715 203.844 45.4086 203.844 46.0728V152.491C203.844 153.927 203.35 155.304 202.472 156.32C201.593 157.335 200.402 157.905 199.159 157.905H58.9374C57.6949 157.905 56.5033 157.335 55.6248 156.32C54.7462 155.304 54.2527 153.927 54.2527 152.491V46.4519C54.2527 45.6881 54.5152 44.9555 54.9825 44.4154C55.4498 43.8753 56.0837 43.5719 56.7445 43.5719L56.7413 43.5682Z" fill="#263238"/>
<path d="M48.0054 149.448H210.056V154.353C210.056 155.022 209.942 155.685 209.72 156.304C209.498 156.923 209.173 157.485 208.764 157.958C208.354 158.432 207.868 158.807 207.332 159.063C206.797 159.32 206.224 159.451 205.644 159.451H52.4071C51.2388 159.448 50.1192 158.91 49.294 157.954C48.4688 156.998 48.0054 155.703 48.0054 154.353V149.448Z" fill="#263238"/>
<path d="M199.41 48.113H58.2654V144.665H199.41V48.113Z" fill="#F5F5F5"/>
<path d="M114.301 149.448L116.311 153.145H144.612L146.48 149.448H114.301Z" fill="#455A64"/>
<path d="M203.869 149.414H54.2751V149.964H203.869V149.414Z" fill="#455A64"/>
<path d="M184.433 34.59H191.102V118.359C191.102 123.896 187.954 128.392 184.07 128.392H176.556V34.59H184.433Z" fill="#E0E0E0"/>
<path d="M184.433 34.59H183.922H182.414L176.556 34.6086L176.588 34.5714C176.588 50.3872 176.617 86.1622 176.639 128.366L176.556 128.269H183.411C183.732 128.269 184.031 128.269 184.333 128.251L184.79 128.217L185.237 128.117C186.427 127.816 187.517 127.125 188.375 126.125C189.224 125.141 189.882 123.959 190.304 122.658C190.733 121.374 190.966 120.014 190.992 118.637C190.992 113.126 190.992 107.757 190.992 102.558C190.992 92.1526 190.992 82.4387 190.992 73.6687C190.992 56.136 191.021 42.3976 191.031 34.5714L191.06 34.6049H186.086H184.819H184.391H184.819H186.086H191.06H191.092V34.6421C191.092 42.4682 191.111 56.1955 191.127 73.7393C191.127 82.5093 191.127 92.2269 191.127 102.628C191.127 107.831 191.127 113.192 191.127 118.712C191.101 120.111 190.864 121.494 190.426 122.799C189.991 124.128 189.315 125.333 188.443 126.333C187.563 127.358 186.447 128.068 185.227 128.377L184.764 128.478L184.298 128.515C183.977 128.548 183.677 128.515 183.366 128.533H176.472V128.392C176.495 86.1882 176.514 50.4132 176.52 34.5975V34.5566H176.556H182.414H183.922L184.433 34.59Z" fill="#263238"/>
<path d="M184.433 128.392H70.0494C68.3765 128.391 66.7725 127.623 65.5896 126.256C64.4067 124.888 63.7418 123.035 63.741 121.101V10.4725H184.433V128.392Z" fill="white"/>
<path d="M184.433 128.392C184.433 127.708 184.404 81.4985 184.362 10.4799L184.433 10.5617H65.1075H63.7603L63.8439 10.465C63.8439 45.6195 63.8439 79.0905 63.8439 109.518V120.785C63.8243 121.699 63.9452 122.61 64.2008 123.476C64.5923 124.756 65.2885 125.884 66.2093 126.728C67.1301 127.572 68.2382 128.098 69.4064 128.247C70.1684 128.322 70.9529 128.281 71.7246 128.292H87.5277L120.063 128.31L184.459 128.374L120.105 128.437H87.5438H71.7021C70.924 128.437 70.1555 128.466 69.3646 128.392C68.1737 128.246 67.0425 127.715 66.1003 126.861C65.1581 126.007 64.443 124.863 64.0368 123.561C63.773 122.677 63.6478 121.746 63.6671 120.811V109.525C63.6671 79.0979 63.6671 45.6083 63.6671 10.4725V10.3759H65.1172H184.443H184.514V10.4576C184.462 81.4911 184.433 127.701 184.433 128.392Z" fill="#263238"/>
<path d="M184.433 21.1414C184.433 21.1934 157.425 21.238 124.092 21.238C90.759 21.238 63.741 21.1934 63.741 21.1414C63.741 21.0894 90.7494 21.0448 124.092 21.0448C157.434 21.0448 184.433 21.0857 184.433 21.1414Z" fill="#263238"/>
<path d="M146.393 15.8757C146.393 15.9277 136.808 15.9723 124.992 15.9723C113.176 15.9723 103.591 15.9277 103.591 15.8757C103.591 15.8236 113.173 15.7791 124.992 15.7791C136.811 15.7791 146.393 15.8199 146.393 15.8757Z" fill="#506CA9"/>
<path d="M67.7955 17.0537C68.4312 17.0537 68.9466 16.4581 68.9466 15.7233C68.9466 14.9886 68.4312 14.3929 67.7955 14.3929C67.1598 14.3929 66.6444 14.9886 66.6444 15.7233C66.6444 16.4581 67.1598 17.0537 67.7955 17.0537Z" fill="#E0E0E0"/>
<path d="M71.6988 17.0537C72.3345 17.0537 72.8499 16.4581 72.8499 15.7233C72.8499 14.9886 72.3345 14.3929 71.6988 14.3929C71.0631 14.3929 70.5477 14.9886 70.5477 15.7233C70.5477 16.4581 71.0631 17.0537 71.6988 17.0537Z" fill="#E0E0E0"/>
<path d="M75.5989 17.0537C76.2347 17.0537 76.75 16.4581 76.75 15.7233C76.75 14.9886 76.2347 14.3929 75.5989 14.3929C74.9632 14.3929 74.4479 14.9886 74.4479 15.7233C74.4479 16.4581 74.9632 17.0537 75.5989 17.0537Z" fill="#E0E0E0"/>
<path d="M111.298 36.5744H108.913L108.453 37.8453H107.234L109.523 31.8995H110.703L113.002 37.8453H111.755L111.298 36.5744ZM110.925 35.5302L110.109 33.2596L109.295 35.5339L110.925 35.5302Z" fill="#455A64"/>
<path d="M116.812 37.8453L115.822 36.1916H114.729V37.8453H113.539V31.8995H115.764C117.134 31.8995 117.996 32.7245 117.996 34.0549C118.006 34.4528 117.91 34.8449 117.721 35.1774C117.532 35.51 117.258 35.7669 116.938 35.9129L118.089 37.8193L116.812 37.8453ZM115.697 33.0144H114.732V35.1177H115.697C116.423 35.1177 116.79 34.7461 116.79 34.0809C116.79 33.4157 116.42 33.0292 115.693 33.0292L115.697 33.0144Z" fill="#455A64"/>
<path d="M119.922 33.0293H118.275V31.9144H122.754V33.0293H121.108V37.8602H119.922V33.0293Z" fill="#455A64"/>
<path d="M123.391 31.907H124.581V37.8528H123.391V31.907Z" fill="#455A64"/>
<path d="M125.474 34.8762C125.474 33.0888 126.664 31.8067 128.265 31.8067C128.663 31.7872 129.06 31.8717 129.425 32.0538C129.791 32.2358 130.117 32.5108 130.378 32.8584L129.616 33.6722C129.459 33.4536 129.263 33.2779 129.04 33.1577C128.818 33.0375 128.575 32.9759 128.33 32.9773C127.906 32.9989 127.506 33.2086 127.213 33.5627C126.92 33.9168 126.756 34.388 126.756 34.8781C126.756 35.3681 126.92 35.8393 127.213 36.1934C127.506 36.5475 127.906 36.7572 128.33 36.7789C128.576 36.7805 128.82 36.7178 129.042 36.5956C129.265 36.4733 129.461 36.2946 129.616 36.0728L130.378 36.8866C130.117 37.2381 129.79 37.5164 129.423 37.7005C129.055 37.8847 128.656 37.9698 128.256 37.9494C126.664 37.9494 125.474 36.6674 125.474 34.8762Z" fill="#455A64"/>
<path d="M131.178 31.907H132.365V36.738H134.937V37.8528H131.178V31.907Z" fill="#455A64"/>
<path d="M139.586 36.7454V37.8602H135.609V31.9144H139.493V33.0293H136.792V34.3188H139.178V35.389H136.792V36.764L139.586 36.7454Z" fill="#455A64"/>
<path d="M121.086 50.9446C121.086 51.0004 118.693 51.0413 115.742 51.0413C112.79 51.0413 110.398 51.0004 110.398 50.9446C110.398 50.8889 112.79 50.848 115.742 50.848C118.693 50.848 121.086 50.8926 121.086 50.9446Z" fill="#263238"/>
<path d="M135.84 50.9446C135.84 51.0004 133.22 51.0413 129.989 51.0413C126.757 51.0413 124.137 51.0004 124.137 50.9446C124.137 50.8889 126.757 50.848 129.989 50.848C133.22 50.848 135.84 50.8926 135.84 50.9446Z" fill="#263238"/>
<path d="M135.332 57.1802C135.332 57.2323 129.773 57.2769 122.918 57.2769C116.063 57.2769 110.501 57.2323 110.501 57.1802C110.501 57.1282 116.06 57.0836 122.918 57.0836C129.776 57.0836 135.332 57.1245 135.332 57.1802Z" fill="#263238"/>
<path d="M135.84 62.7062C135.84 62.7619 130.214 62.8028 123.272 62.8028C116.33 62.8028 110.703 62.7619 110.703 62.7062C110.703 62.6504 116.33 62.6096 123.272 62.6096C130.214 62.6096 135.84 62.6542 135.84 62.7062Z" fill="#263238"/>
<path d="M120.992 68.7076C120.992 68.7597 118.713 68.8043 115.906 68.8043C113.099 68.8043 110.816 68.7597 110.816 68.7076C110.816 68.6556 113.092 68.611 115.906 68.611C118.719 68.611 120.992 68.6519 120.992 68.7076Z" fill="#263238"/>
<path d="M134.313 68.5887C134.313 68.6408 131.809 68.6854 128.719 68.6854C125.629 68.6854 123.121 68.6408 123.121 68.5887C123.121 68.5367 125.626 68.4921 128.719 68.4921C131.812 68.4921 134.313 68.5367 134.313 68.5887Z" fill="#263238"/>
<path d="M134.313 74.7055C134.313 74.7575 129.027 74.8021 122.51 74.8021C115.993 74.8021 110.703 74.7575 110.703 74.7055C110.703 74.6535 115.989 74.6089 122.51 74.6089C129.03 74.6089 134.313 74.6498 134.313 74.7055Z" fill="#263238"/>
<path d="M89.5372 86.114C89.5372 86.166 87.3283 86.2106 84.6017 86.2106C81.8752 86.2106 79.6663 86.166 79.6663 86.114C79.6663 86.0619 81.8752 86.0173 84.6017 86.0173C87.3283 86.0173 89.5372 86.0619 89.5372 86.114Z" fill="#263238"/>
<path d="M104.395 86.4669C104.395 86.5189 101.842 86.5635 98.6976 86.5635C95.5531 86.5635 92.9969 86.5189 92.9969 86.4669C92.9969 86.4149 95.5499 86.3703 98.6976 86.3703C101.845 86.3703 104.395 86.4 104.395 86.4669Z" fill="#263238"/>
<path d="M104.7 92.1117C104.7 92.1674 99.1637 92.2083 92.3377 92.2083C85.5116 92.2083 79.9717 92.1674 79.9717 92.1117C79.9717 92.056 85.5052 92.0151 92.3377 92.0151C99.1701 92.0151 104.7 92.0597 104.7 92.1117Z" fill="#263238"/>
<path d="M106.228 97.8754C106.228 97.9275 100.257 97.9721 92.8971 97.9721C85.5374 97.9721 79.5634 97.9275 79.5634 97.8754C79.5634 97.8234 85.5309 97.7788 92.8971 97.7788C100.263 97.7788 106.228 97.8234 106.228 97.8754Z" fill="#263238"/>
<path d="M127.497 79.9973C127.497 80.0493 123.712 80.0939 119.05 80.0939C114.388 80.0939 110.604 80.0493 110.604 79.9973C110.604 79.9452 114.385 79.9006 119.05 79.9006C123.716 79.9006 127.497 79.9452 127.497 79.9973Z" fill="#263238"/>
<path d="M135.84 79.9973C134.011 80.1261 132.176 80.1261 130.346 79.9973C132.176 79.8684 134.011 79.8684 135.84 79.9973Z" fill="#263238"/>
<path d="M134.619 86.348C134.619 86.4038 129.426 86.4446 123.018 86.4446C116.61 86.4446 111.417 86.4038 111.417 86.348C111.417 86.2923 116.61 86.2514 123.018 86.2514C129.426 86.2514 134.619 86.296 134.619 86.348Z" fill="#263238"/>
<path d="M122.002 92.2306C122.002 92.2826 119.449 92.3272 116.301 92.3272C113.153 92.3272 110.604 92.2826 110.604 92.2306C110.604 92.1786 113.153 92.134 116.301 92.134C119.449 92.134 122.002 92.1749 122.002 92.2306Z" fill="#263238"/>
<path d="M136.043 98.2284C136.043 98.2805 130.461 98.3251 123.577 98.3251C116.694 98.3251 111.112 98.2805 111.112 98.2284C111.112 98.1764 116.694 98.1318 123.577 98.1318C130.461 98.1318 136.043 98.1764 136.043 98.2284Z" fill="#263238"/>
<path d="M137.069 92.3458C137.069 92.4016 134.336 92.4425 130.96 92.4425C127.584 92.4425 124.851 92.4016 124.851 92.3458C124.851 92.2901 127.584 92.2492 130.96 92.2492C134.336 92.2492 137.069 92.2938 137.069 92.3458Z" fill="#263238"/>
<path d="M166.971 51.0635C166.971 51.1156 161.161 51.1602 153.997 51.1602C146.833 51.1602 141.02 51.1156 141.02 51.0635C141.02 51.0115 146.83 50.9669 153.997 50.9669C161.164 50.9669 166.971 51.0115 166.971 51.0635Z" fill="#263238"/>
<path d="M146.425 56.7084C144.697 56.8372 142.964 56.8372 141.236 56.7084C142.964 56.5795 144.697 56.5795 146.425 56.7084Z" fill="#263238"/>
<path d="M166.971 56.8273C166.971 56.8793 162.894 56.9239 157.865 56.9239C152.836 56.9239 148.756 56.8793 148.756 56.8273C148.756 56.7752 152.833 56.7307 157.865 56.7307C162.897 56.7307 166.971 56.7752 166.971 56.8273Z" fill="#263238"/>
<path d="M165.659 62.472C165.659 62.5278 160.351 62.5687 153.804 62.5687C147.258 62.5687 141.946 62.5278 141.946 62.472C141.946 62.4163 147.255 62.3754 153.804 62.3754C160.354 62.3754 165.659 62.42 165.659 62.472Z" fill="#263238"/>
<path d="M166.473 68.1168C166.473 68.1725 161.007 68.2134 154.254 68.2134C147.502 68.2134 142.036 68.1725 142.036 68.1168C142.036 68.061 147.502 68.0201 154.254 68.0201C161.007 68.0201 166.473 68.0647 166.473 68.1168Z" fill="#263238"/>
<path d="M153.345 74.1368C153.345 74.1889 150.792 74.2335 147.647 74.2335C144.503 74.2335 141.946 74.1889 141.946 74.1368C141.946 74.0848 144.499 74.0402 147.647 74.0402C150.795 74.0402 153.345 74.0625 153.345 74.1368Z" fill="#263238"/>
<path d="M166.473 74.2335C166.473 74.2893 164.193 74.3301 161.383 74.3301C158.573 74.3301 156.296 74.2893 156.296 74.2335C156.296 74.1778 158.573 74.1369 161.383 74.1369C164.193 74.1369 166.473 74.1815 166.473 74.2335Z" fill="#263238"/>
<path d="M104.701 35.4075C104.701 35.4633 99.1895 35.5042 92.3956 35.5042C85.6017 35.5042 80.0875 35.4633 80.0875 35.4075C80.0875 35.3518 85.5953 35.3109 92.3956 35.3109C99.196 35.3109 104.701 35.3555 104.701 35.4075Z" fill="#263238"/>
<path d="M170.144 35.4075C170.144 35.4633 164.357 35.5042 157.222 35.5042C150.087 35.5042 144.3 35.4633 144.3 35.4075C144.3 35.3518 150.087 35.3109 157.222 35.3109C164.357 35.3109 170.144 35.3555 170.144 35.4075Z" fill="#263238"/>
<path d="M169.46 81.0042C169.46 81.034 169.061 80.7739 168.302 80.4951C167.227 80.114 166.092 80.0175 164.981 80.2127C164.217 80.3458 163.476 80.6207 162.788 81.0265C162.006 81.5136 161.282 82.1157 160.634 82.8177C159.926 83.5386 159.225 84.3562 158.415 85.1106C157.592 85.9278 156.627 86.5321 155.586 86.8831C155.046 87.0435 154.485 87.0826 153.933 86.9983C153.402 86.9046 152.886 86.7205 152.402 86.4521C151.517 85.9205 150.658 85.3312 149.83 84.6869C149.091 84.1205 148.276 83.6986 147.419 83.4383C146.668 83.229 145.893 83.16 145.123 83.2339C144.003 83.348 142.919 83.756 141.956 84.4268C141.278 84.9062 140.956 85.2666 140.937 85.2443C141.006 85.1476 141.084 85.0592 141.168 84.9805C141.397 84.7408 141.643 84.5245 141.905 84.3339C142.719 83.7258 143.631 83.3136 144.586 83.122C145.541 82.9305 146.52 82.9635 147.464 83.2191C148.347 83.475 149.187 83.8995 149.949 84.4751C150.769 85.1071 151.619 85.6853 152.496 86.2068C153.428 86.7598 154.501 86.905 155.518 86.6156C156.524 86.2759 157.457 85.6933 158.254 84.9062C159.052 84.1629 159.756 83.3528 160.473 82.6319C161.142 81.92 161.889 81.3128 162.695 80.8259C163.563 80.3286 164.509 80.0351 165.476 79.9624C166.444 79.8897 167.414 80.0392 168.331 80.4022C168.624 80.5171 168.909 80.6588 169.183 80.8259C169.281 80.8733 169.373 80.9331 169.46 81.0042Z" fill="#506CA9"/>
<path d="M149.509 87.3885H146.444V96.965H149.509V87.3885Z" fill="#506CA9"/>
<path d="M162.508 87.3885H159.444V96.965H162.508V87.3885Z" fill="#506CA9"/>
<path d="M166.839 81.7661H163.775V96.965H166.839V81.7661Z" fill="#506CA9"/>
<path d="M145.544 93.9475H142.48V97.1694H145.544V93.9475Z" fill="#506CA9"/>
<path d="M153.843 91.7141H150.779V96.965H153.843V91.7141Z" fill="#506CA9"/>
<path d="M158.174 90.5063H155.11V96.9612H158.174V90.5063Z" fill="#506CA9"/>
<path d="M105.922 50.9446H80.0714V79.8523H105.922V50.9446Z" fill="#455A64"/>
<g opacity="0.3">
<path opacity="0.3" d="M82.0746 77.381L89.2254 62.5054L95.0772 72.0112L98.6301 66.9611L103.919 77.381H82.0746Z" fill="black"/>
</g>
<g opacity="0.3">
<path opacity="0.3" d="M97.0706 58.035C98.5882 60.339 96.3375 62.9402 94.3441 61.1862C92.8297 58.9008 95.0804 56.2995 97.0706 58.035Z" fill="black"/>
</g>
<g opacity="0.3">
<path opacity="0.3" d="M103.919 77.4591C103.917 77.4195 103.917 77.3798 103.919 77.3402C103.919 77.2547 103.919 77.1432 103.919 77.0057C103.919 76.6973 103.919 76.2625 103.919 75.7051C103.919 74.5568 103.919 72.8994 103.894 70.7924C103.894 66.5709 103.861 60.5582 103.839 53.3267L103.945 53.4456L82.1036 53.4679C82.0746 53.4976 82.3351 53.2003 82.2258 53.3304V54.9655C82.2258 55.5117 82.2258 56.0543 82.2258 56.5968V59.815C82.2258 61.9406 82.2258 64.0167 82.2258 66.0432C82.2258 70.0938 82.2258 73.9214 82.2258 77.4405L82.1164 77.3179L97.9099 77.3811L102.366 77.4145H103.546H103.852H103.961C103.929 77.4184 103.897 77.4184 103.865 77.4145H103.572H102.411L97.9806 77.4479L82.1164 77.5111H82.0103V77.3848C82.0103 73.8656 82.0103 70.038 82.0103 65.9875C82.0103 63.9609 82.0103 61.8849 82.0103 59.7593V53.349C81.901 53.4716 82.1582 53.1706 82.1357 53.2003L103.977 53.2226H104.083V53.3267C104.061 60.5768 104.041 66.6155 104.029 70.8556C104.029 72.9514 104.006 74.5977 104 75.7385C104 76.2885 104 76.7159 104 77.0169C104 77.1507 104 77.2584 104 77.3402C103.978 77.3844 103.951 77.4245 103.919 77.4591Z" fill="black"/>
</g>
<path d="M106.269 103.948C106.269 104 100.324 104.044 92.9968 104.044C85.6691 104.044 79.7273 104 79.7273 103.948C79.7273 103.896 85.6659 103.851 92.9968 103.851C100.328 103.851 106.269 103.892 106.269 103.948Z" fill="#E0E0E0"/>
<path d="M137.262 103.747C137.262 103.803 131.545 103.844 124.494 103.844C117.443 103.844 111.719 103.803 111.719 103.747C111.719 103.691 117.436 103.65 124.494 103.65C131.551 103.65 137.262 103.695 137.262 103.747Z" fill="#E0E0E0"/>
<path d="M168.868 103.186C168.868 103.241 163.186 103.282 156.177 103.282C149.168 103.282 143.486 103.241 143.486 103.186C143.486 103.13 149.168 103.089 156.177 103.089C163.186 103.089 168.868 103.123 168.868 103.186Z" fill="#E0E0E0"/>
<path d="M106.269 108.92C106.269 108.975 100.324 109.016 92.9968 109.016C85.6691 109.016 79.7273 108.975 79.7273 108.92C79.7273 108.864 85.6659 108.823 92.9968 108.823C100.328 108.823 106.269 108.868 106.269 108.92Z" fill="#E0E0E0"/>
<path d="M137.262 108.723C137.262 108.775 131.545 108.819 124.494 108.819C117.443 108.819 111.719 108.775 111.719 108.723C111.719 108.671 117.436 108.626 124.494 108.626C131.551 108.626 137.262 108.667 137.262 108.723Z" fill="#E0E0E0"/>
<path d="M168.868 108.162C168.868 108.214 163.186 108.258 156.177 108.258C149.168 108.258 143.499 108.214 143.499 108.162C143.499 108.11 149.181 108.065 156.19 108.065C163.199 108.065 168.868 108.11 168.868 108.162Z" fill="#E0E0E0"/>
<path d="M146.924 115.835H105.225C100.435 115.835 96.553 120.322 96.553 125.856C96.553 131.39 100.435 135.876 105.225 135.876H146.924C151.713 135.876 155.595 131.39 155.595 125.856C155.595 120.322 151.713 115.835 146.924 115.835Z" fill="#506CA9"/>
<path d="M117.877 125.828C117.877 126.724 117.295 127.277 116.369 127.277H115.668V128.392H114.864V124.379H116.369C117.295 124.371 117.877 124.929 117.877 125.828ZM117.063 125.828C117.063 125.386 116.816 125.129 116.324 125.129H115.681V126.534H116.324C116.812 126.534 117.063 126.263 117.063 125.828Z" fill="white"/>
<path d="M118.42 126.62V124.371H119.224V126.601C119.224 127.363 119.51 127.679 119.999 127.679C120.488 127.679 120.771 127.363 120.771 126.601V124.371H121.565V126.62C121.565 127.801 120.98 128.455 119.992 128.455C119.005 128.455 118.42 127.801 118.42 126.62Z" fill="white"/>
<path d="M125.529 127.277C125.529 127.972 125.053 128.392 124.14 128.392H122.343V124.379H124.04C124.909 124.379 125.355 124.799 125.355 125.423C125.358 125.605 125.317 125.785 125.235 125.941C125.153 126.097 125.034 126.223 124.892 126.304C125.077 126.361 125.24 126.488 125.355 126.665C125.47 126.841 125.531 127.056 125.529 127.277ZM123.143 125.048V125.995H123.941C124.333 125.995 124.545 125.835 124.545 125.52C124.545 125.204 124.333 125.048 123.941 125.048H123.143ZM124.719 127.17C124.719 126.831 124.497 126.672 124.076 126.672H123.14V127.664H124.076C124.497 127.686 124.719 127.537 124.719 127.192V127.17Z" fill="white"/>
<path d="M126.137 124.371H126.941V127.627H128.68V128.37H126.137V124.371Z" fill="white"/>
<path d="M129.137 124.371H129.941V128.392H129.137V124.371Z" fill="white"/>
<path d="M130.494 127.991L130.764 127.288C131.101 127.559 131.501 127.706 131.911 127.708C132.387 127.708 132.58 127.526 132.58 127.277C132.58 126.534 130.561 127.043 130.561 125.553C130.561 124.869 131.037 124.304 132.024 124.304C132.446 124.294 132.863 124.416 133.23 124.657L132.982 125.363C132.69 125.163 132.357 125.055 132.018 125.048C131.542 125.048 131.358 125.256 131.358 125.508C131.358 126.252 133.374 125.735 133.374 127.21C133.374 127.879 132.895 128.455 131.902 128.455C131.403 128.469 130.911 128.307 130.494 127.991Z" fill="white"/>
<path d="M137.117 124.371V128.392H136.313V126.746H134.734V128.392H133.931V124.379H134.734V125.962H136.313V124.379L137.117 124.371Z" fill="white"/>
<path d="M144.503 135.735C144.793 136.358 144.982 137.037 145.062 137.738H146.101L150.46 137.653L150.428 137.742C150.428 137.742 151.139 133.877 151.267 132.729C151.377 131.781 151.882 129.514 151.267 128.515C151.155 128.341 150.998 128.211 150.819 128.145C150.64 128.078 150.447 128.078 150.268 128.143C150.142 128.185 150.029 128.266 149.941 128.377C149.853 128.489 149.793 128.627 149.769 128.775C149.769 128.775 149.718 127.437 148.885 127.415C148.052 127.393 148.023 128.158 148.023 128.158C148.023 128.158 147.795 126.627 146.869 126.642C146.692 126.663 146.524 126.745 146.387 126.877C146.251 127.01 146.152 127.187 146.104 127.385V124.494C146.104 124.211 146.012 123.938 145.844 123.731C145.677 123.524 145.448 123.398 145.203 123.379C145.079 123.375 144.956 123.399 144.839 123.45C144.723 123.502 144.617 123.579 144.528 123.679C144.438 123.778 144.366 123.897 144.316 124.029C144.267 124.16 144.241 124.302 144.239 124.446L144.142 131.135L142.728 129.039C142.358 128.496 141.477 128.768 141.364 129.232C141.364 129.232 141.11 129.849 141.634 130.752C142.043 131.432 144.503 135.735 144.503 135.735Z" fill="#EBEBEB"/>
<path d="M144.502 135.735C144.477 135.701 144.454 135.665 144.432 135.627L144.242 135.308L143.515 134.055L142.371 132.071L141.654 130.83C141.511 130.605 141.403 130.353 141.332 130.087C141.25 129.803 141.25 129.497 141.332 129.213C141.392 129.04 141.507 128.9 141.654 128.823C141.795 128.742 141.949 128.696 142.107 128.689C142.272 128.68 142.436 128.726 142.58 128.819C142.616 128.844 142.65 128.871 142.683 128.901L142.773 129.009L142.921 129.232L144.184 131.09L144.11 131.12C144.129 129.243 144.149 127.184 144.171 124.992V124.579C144.167 124.438 144.176 124.296 144.197 124.156C144.248 123.899 144.375 123.671 144.556 123.511C144.736 123.35 144.959 123.267 145.187 123.276C145.414 123.284 145.632 123.383 145.804 123.557C145.975 123.73 146.089 123.967 146.126 124.226C146.144 124.374 146.15 124.523 146.145 124.672V127.34H146.046C146.115 127.072 146.269 126.844 146.477 126.701C146.564 126.643 146.658 126.6 146.756 126.575C146.808 126.564 146.862 126.564 146.914 126.575C146.964 126.577 147.013 126.584 147.062 126.597C147.26 126.646 147.44 126.766 147.576 126.939C147.829 127.28 147.998 127.693 148.065 128.136H147.965C147.977 127.987 148.023 127.846 148.098 127.725C148.173 127.604 148.275 127.508 148.393 127.448C148.509 127.394 148.631 127.362 148.756 127.355C148.817 127.346 148.879 127.346 148.94 127.355H149.033L149.123 127.385C149.238 127.435 149.344 127.512 149.432 127.611C149.521 127.71 149.59 127.829 149.637 127.961C149.735 128.211 149.793 128.479 149.808 128.753H149.711C149.736 128.608 149.792 128.473 149.875 128.36C149.957 128.247 150.062 128.16 150.181 128.106C150.413 127.998 150.672 127.998 150.904 128.106C151.017 128.163 151.12 128.245 151.206 128.348C151.286 128.452 151.353 128.568 151.406 128.693C151.5 128.939 151.56 129.202 151.582 129.47C151.613 130.486 151.53 131.503 151.335 132.495C151.219 133.461 151.052 134.379 150.904 135.252L150.457 137.738L150.386 137.712L150.419 137.623L150.454 137.682L146.097 137.757L146.12 137.727V137.753H145.039V137.731C144.981 137.22 144.864 136.72 144.692 136.244C144.634 136.077 144.583 135.954 144.547 135.873C144.529 135.832 144.513 135.79 144.499 135.746C144.579 135.903 144.65 136.066 144.711 136.233C144.893 136.716 145.017 137.225 145.081 137.746L145.059 137.723H146.097L146.075 137.753V137.727H146.097L150.457 137.623H150.512L150.489 137.682C150.489 137.712 150.47 137.738 150.46 137.772L150.39 137.746C150.528 136.965 150.673 136.133 150.827 135.259C150.981 134.386 151.148 133.472 151.251 132.506C151.441 131.523 151.522 130.517 151.492 129.511C151.469 129.255 151.413 129.004 151.325 128.767C151.276 128.654 151.214 128.548 151.142 128.452C151.063 128.362 150.97 128.29 150.869 128.24C150.663 128.141 150.432 128.141 150.226 128.24C150.122 128.287 150.03 128.364 149.959 128.464C149.887 128.563 149.839 128.682 149.817 128.808L149.747 129.18L149.721 128.782C149.706 128.525 149.65 128.273 149.557 128.039C149.516 127.921 149.454 127.815 149.376 127.727C149.297 127.638 149.203 127.57 149.1 127.526C148.888 127.459 148.661 127.474 148.457 127.571C148.356 127.621 148.268 127.702 148.202 127.806C148.137 127.909 148.098 128.031 148.087 128.158L148.055 128.53L147.988 128.158C147.924 127.738 147.764 127.345 147.525 127.021C147.41 126.862 147.25 126.755 147.074 126.719C146.898 126.682 146.716 126.718 146.56 126.82C146.374 126.95 146.236 127.155 146.174 127.396L146.078 127.749V124.676C146.082 124.535 146.077 124.393 146.062 124.252C146.04 124.12 145.996 123.994 145.933 123.881C145.873 123.764 145.793 123.664 145.698 123.584C145.603 123.504 145.495 123.448 145.38 123.418C145.266 123.387 145.147 123.384 145.032 123.408C144.916 123.432 144.806 123.483 144.708 123.557C144.513 123.705 144.376 123.934 144.326 124.197C144.305 124.329 144.297 124.464 144.3 124.598C144.3 124.735 144.3 124.873 144.3 125.01C144.274 127.199 144.248 129.258 144.226 131.138V131.276L144.149 131.168C143.711 130.518 143.293 129.89 142.892 129.31C142.807 129.157 142.698 129.023 142.57 128.916C142.439 128.831 142.29 128.79 142.139 128.797C141.991 128.803 141.847 128.846 141.715 128.924C141.588 128.989 141.489 129.109 141.438 129.258C141.363 129.523 141.363 129.81 141.438 130.076C141.505 130.334 141.608 130.577 141.744 130.796L142.451 132.045L143.586 134.041C143.892 134.587 144.129 135.011 144.297 135.3L144.477 135.631L144.502 135.735Z" fill="#263238"/>
<path d="M150.518 137.66H145.059C144.645 137.66 144.31 138.048 144.31 138.526V138.589C144.31 139.067 144.645 139.455 145.059 139.455H150.518C150.932 139.455 151.267 139.067 151.267 138.589V138.526C151.267 138.048 150.932 137.66 150.518 137.66Z" fill="#EBEBEB"/>
<path d="M150.518 139.459C150.518 139.459 150.573 139.459 150.673 139.425C150.819 139.387 150.952 139.296 151.052 139.165C151.123 139.071 151.177 138.961 151.21 138.842C151.243 138.7 151.251 138.552 151.232 138.407C151.207 138.231 151.134 138.068 151.024 137.943C150.913 137.818 150.771 137.737 150.618 137.712H145.062C144.968 137.712 144.875 137.733 144.789 137.775C144.702 137.817 144.624 137.878 144.558 137.956C144.493 138.034 144.442 138.126 144.408 138.227C144.374 138.328 144.358 138.436 144.361 138.545C144.354 138.685 144.379 138.825 144.435 138.95C144.489 139.071 144.569 139.175 144.666 139.252C144.764 139.33 144.877 139.378 144.994 139.392C145.232 139.392 145.48 139.392 145.711 139.392H148.213L149.898 139.41H150.357H150.518C150.465 139.415 150.411 139.415 150.357 139.41H149.898L148.213 139.429H145.711C145.473 139.429 145.239 139.429 144.985 139.429C144.772 139.407 144.575 139.292 144.435 139.106C144.295 138.92 144.222 138.679 144.232 138.433C144.242 138.187 144.334 137.955 144.489 137.785C144.643 137.615 144.849 137.521 145.062 137.523C147.235 137.523 149.197 137.523 150.628 137.549C150.794 137.577 150.949 137.666 151.068 137.804C151.186 137.942 151.263 138.121 151.287 138.314C151.305 138.47 151.296 138.628 151.258 138.779C151.22 138.903 151.16 139.017 151.081 139.113C150.973 139.245 150.833 139.335 150.679 139.37C150.63 139.409 150.576 139.439 150.518 139.459Z" fill="#263238"/>
<path d="M146.072 129.827C146.003 128.961 146.003 128.091 146.072 127.225C146.14 128.091 146.14 128.961 146.072 129.827Z" fill="#263238"/>
<path d="M148.001 129.648C147.932 129.135 147.932 128.612 148.001 128.099C148.065 128.612 148.065 129.134 148.001 129.648Z" fill="#263238"/>
<path d="M149.766 130.299C149.701 129.786 149.701 129.265 149.766 128.753C149.834 129.265 149.834 129.786 149.766 130.299Z" fill="#263238"/>
<path d="M143.821 123.234C143.453 123.083 143.097 122.895 142.757 122.673C142.401 122.485 142.06 122.262 141.737 122.008C142.105 122.159 142.462 122.347 142.802 122.569C143.157 122.757 143.498 122.98 143.821 123.234Z" fill="#263238"/>
<path d="M144.785 122.621C144.661 122.06 144.568 121.49 144.506 120.915C144.413 120.347 144.351 119.772 144.322 119.195C144.451 119.754 144.545 120.323 144.605 120.897C144.7 121.466 144.761 122.042 144.785 122.621Z" fill="#263238"/>
<path d="M145.949 122.777C146.135 122.362 146.35 121.966 146.592 121.592C146.812 121.197 147.059 120.824 147.332 120.477C147.146 120.893 146.931 121.291 146.689 121.666C146.469 122.059 146.221 122.43 145.949 122.777Z" fill="#263238"/>
<path d="M27.0449 159.455H6.03302C5.78999 159.455 5.55691 159.344 5.38506 159.145C5.21321 158.946 5.11666 158.677 5.11666 158.396L5.11666 141.789C5.11666 141.534 5.20406 141.291 5.35963 141.111C5.5152 140.931 5.7262 140.83 5.9462 140.83H27.0449C27.5727 140.83 28.079 141.072 28.4522 141.504C28.8255 141.935 29.0352 142.52 29.0352 143.13V157.155C29.0352 157.765 28.8255 158.35 28.4522 158.781C28.079 159.213 27.5727 159.455 27.0449 159.455Z" fill="#263238"/>
<g opacity="0.4">
<path opacity="0.4" d="M27.0449 159.455H6.03302C5.78999 159.455 5.55691 159.344 5.38506 159.145C5.21321 158.946 5.11666 158.677 5.11666 158.396L5.11666 141.789C5.11666 141.534 5.20406 141.291 5.35963 141.111C5.5152 140.931 5.7262 140.83 5.9462 140.83H27.0449C27.5727 140.83 28.079 141.072 28.4522 141.504C28.8255 141.935 29.0352 142.52 29.0352 143.13V157.155C29.0352 157.765 28.8255 158.35 28.4522 158.781C28.079 159.213 27.5727 159.455 27.0449 159.455Z" fill="black"/>
</g>
<path d="M31.6589 159.455H8.68571L8.68571 140.826H31.2281C31.4067 140.826 31.5835 140.867 31.7485 140.946C31.9135 141.025 32.0635 141.141 32.1898 141.287C32.3161 141.433 32.4163 141.606 32.4846 141.797C32.5529 141.987 32.5881 142.192 32.5881 142.398V158.377C32.5886 158.519 32.5648 158.659 32.5183 158.79C32.4718 158.92 32.4034 159.039 32.3171 159.139C32.2308 159.239 32.1282 159.319 32.0153 159.373C31.9023 159.427 31.7812 159.455 31.6589 159.455Z" fill="#263238"/>
<path d="M8.65672 159.548C8.61492 159.548 8.58276 155.416 8.58276 150.321C8.58276 145.226 8.61492 141.09 8.65672 141.09C8.69851 141.09 8.73388 145.222 8.73388 150.321C8.73388 155.419 8.70173 159.548 8.65672 159.548Z" fill="#263238"/>
<path d="M14.4379 140.596C14.4379 140.596 14.4572 140.555 14.5022 140.488C14.5472 140.421 14.6179 140.321 14.7176 140.206C14.9954 139.871 15.3025 139.571 15.634 139.31C16.7326 138.426 18.0477 137.973 19.3858 138.017C20.7239 138.061 22.0145 138.6 23.0677 139.555C23.3854 139.837 23.6774 140.156 23.939 140.507C24.0323 140.629 24.0934 140.737 24.1384 140.804C24.1834 140.871 24.2027 140.912 24.1995 140.915C23.8303 140.46 23.4304 140.038 23.0034 139.656C21.9551 138.749 20.6897 138.238 19.3807 138.195C18.0717 138.152 16.7832 138.578 15.6918 139.414C15.2464 139.768 14.827 140.163 14.4379 140.596Z" fill="#263238"/>
<path d="M8.51206 143.491C8.52248 143.523 8.52897 143.557 8.53135 143.591C8.53135 143.665 8.55708 143.762 8.57637 143.885C8.59566 144.007 8.61174 144.174 8.64389 144.36C8.67604 144.546 8.72427 144.765 8.76928 145.003C9.06824 146.36 9.55347 147.652 10.2065 148.831C11.1757 150.582 12.4818 152.051 14.0231 153.123C15.9281 154.406 18.1049 155.049 20.3089 154.981C22.5127 154.938 24.668 154.226 26.5594 152.918C28.0922 151.832 29.4242 150.406 30.4789 148.723C31.1881 147.587 31.7724 146.354 32.2183 145.051C32.3695 144.587 32.482 144.223 32.5399 143.974L32.6235 143.691C32.6314 143.658 32.6422 143.626 32.6556 143.595C32.654 143.629 32.6475 143.663 32.6363 143.695L32.572 143.985C32.5142 144.238 32.4113 144.606 32.2505 145.074C31.8238 146.393 31.2499 147.642 30.5432 148.79C29.4912 150.5 28.1529 151.948 26.6077 153.049C24.7004 154.387 22.5205 155.118 20.2896 155.167C18.0572 155.235 15.8532 154.576 13.9298 153.264C12.375 152.173 11.0616 150.678 10.094 148.898C9.44319 147.703 8.96838 146.392 8.6889 145.018L8.60209 144.371C8.57315 144.182 8.56029 144.018 8.54421 143.888C8.52814 143.758 8.52492 143.669 8.51528 143.595C8.51136 143.56 8.51028 143.525 8.51206 143.491Z" fill="#455A64"/>
<path d="M221.576 88.4811C218.361 90.4024 215.901 93.7097 214.133 97.3552C212.364 101.001 211.239 104.996 210.091 108.964L209.091 129.436C212.824 122.093 215.824 113.457 216.634 104.992L214.149 104.735C215.814 104.442 217.213 103.045 218.104 101.391C218.994 99.7372 219.451 97.8272 219.898 95.9468L216.866 96.4671C219.265 94.6032 220.952 91.7436 221.576 88.4811Z" fill="#455A64"/>
<g opacity="0.3">
<path opacity="0.3" d="M221.576 88.4811C218.361 90.4024 215.901 93.7097 214.133 97.3552C212.364 101.001 211.239 104.996 210.091 108.964L209.091 129.436C212.824 122.093 215.824 113.457 216.634 104.992L214.149 104.735C215.814 104.442 217.213 103.045 218.104 101.391C218.994 99.7372 219.451 97.8272 219.898 95.9468L216.866 96.4671C219.265 94.6032 220.952 91.7436 221.576 88.4811Z" fill="black"/>
</g>
<path d="M208.551 134.234C208.551 134.234 200.442 123.019 200.535 112.309H203.812C203.812 112.309 200.252 109.607 200.535 108.091C200.818 106.575 200.908 100.845 200.908 100.845L203.905 101.71C203.905 101.71 201.654 100.414 201.378 98.366C201.101 96.3184 202.021 86.794 202.021 86.794C202.021 86.794 205.683 91.231 206.805 95.761C207.927 100.291 210.876 105.605 210.02 119.447C209.165 133.29 208.551 134.234 208.551 134.234Z" fill="#455A64"/>
<path d="M212.66 135.293C212.66 135.293 221.444 128.53 223.396 119.897L220.763 119.069C220.763 119.069 224.135 117.794 224.203 116.501C224.27 115.207 225.27 110.577 225.27 110.577L222.698 110.518C222.698 110.518 224.75 110.042 225.364 108.459C225.978 106.876 227.026 98.9904 227.026 98.9904C227.026 98.9904 223.238 101.636 221.489 105.007C219.74 108.377 216.345 111.893 214.416 123.242C212.486 134.591 212.66 135.293 212.66 135.293Z" fill="#455A64"/>
<path d="M204.246 96.5637C204.259 96.6021 204.27 96.6419 204.278 96.6826C204.294 96.768 204.32 96.8832 204.349 97.0245L204.606 98.3548C204.722 98.9345 204.85 99.6443 204.995 100.469C205.14 101.294 205.316 102.231 205.471 103.271C205.818 105.352 206.188 107.838 206.564 110.603C206.94 113.368 207.294 116.423 207.619 119.633C207.943 122.844 208.184 125.91 208.374 128.704C208.564 131.499 208.696 134.015 208.757 136.137C208.802 137.196 208.824 138.154 208.847 138.994C208.869 139.834 208.882 140.559 208.885 141.153C208.889 141.748 208.885 142.19 208.885 142.517C208.885 142.662 208.885 142.781 208.885 142.87C208.89 142.911 208.89 142.952 208.885 142.993C208.883 142.952 208.883 142.911 208.885 142.87C208.885 142.781 208.885 142.662 208.869 142.517C208.869 142.194 208.847 141.737 208.828 141.153C208.808 140.57 208.792 139.838 208.76 138.998C208.728 138.158 208.699 137.203 208.647 136.144C208.561 134.029 208.413 131.514 208.226 128.712C208.04 125.91 207.776 122.855 207.461 119.648C207.146 116.441 206.776 113.39 206.419 110.625C206.062 107.861 205.696 105.371 205.361 103.29C205.204 102.246 205.04 101.309 204.908 100.48C204.776 99.6518 204.654 98.9457 204.551 98.366C204.448 97.7863 204.378 97.344 204.323 97.0282C204.3 96.8832 204.281 96.768 204.268 96.6789C204.255 96.5897 204.246 96.5637 204.246 96.5637Z" fill="#263238"/>
<path d="M207.426 141.101C207.426 141.101 200.005 131.373 197.703 125.494L199.439 124.635C198.178 124.877 196.889 124.264 195.902 123.297C194.915 122.331 194.204 121.097 193.5 119.864L195.793 119.418C193.688 118.723 191.895 117.118 190.786 114.936C193.491 115.449 195.931 117.166 197.953 119.31C199.553 121.089 201.006 123.036 202.294 125.126C202.942 126.129 203.507 127.202 203.979 128.329C205.233 131.306 207.429 137.53 207.426 141.101Z" fill="#455A64"/>
<path d="M223.512 104.661C223.506 104.696 223.495 104.73 223.48 104.761L223.367 105.044C223.258 105.304 223.107 105.664 222.917 106.125C222.518 107.058 221.952 108.418 221.274 110.105C219.911 113.476 218.113 118.184 216.338 123.483C214.564 128.782 213.159 133.665 212.204 137.233C211.728 139.009 211.352 140.451 211.101 141.451C210.975 141.941 210.879 142.324 210.805 142.603C210.773 142.721 210.747 142.822 210.725 142.9C210.717 142.935 210.706 142.968 210.692 143C210.689 142.964 210.689 142.928 210.692 142.892L210.757 142.591L211.024 141.432C211.255 140.425 211.612 138.976 212.075 137.192C213.001 133.624 214.393 128.73 216.168 123.424C217.943 118.117 219.76 113.42 221.152 110.046C221.846 108.366 222.438 107.013 222.84 106.092C223.046 105.638 223.206 105.282 223.319 105.025C223.373 104.914 223.415 104.825 223.447 104.75C223.467 104.719 223.489 104.689 223.512 104.661Z" fill="#263238"/>
<path d="M208.056 145.271C208.034 145.214 208.021 145.154 208.017 145.092C207.998 144.955 207.972 144.784 207.943 144.576C207.885 144.13 207.789 143.48 207.651 142.684C207.512 141.889 207.329 140.949 207.085 139.916C206.84 138.883 206.525 137.761 206.149 136.601C205.773 135.442 205.358 134.371 204.956 133.402C204.554 132.432 204.152 131.588 203.799 130.886C203.445 130.183 203.156 129.626 202.934 129.247L202.696 128.801C202.641 128.697 202.616 128.641 202.622 128.637C202.66 128.68 202.694 128.727 202.722 128.779L202.988 129.202C203.22 129.574 203.532 130.124 203.898 130.819C204.265 131.514 204.677 132.361 205.094 133.323C205.512 134.286 205.924 135.371 206.307 136.534C206.689 137.697 206.988 138.831 207.233 139.879C207.477 140.927 207.647 141.871 207.77 142.673C207.892 143.476 207.969 144.126 208.008 144.58L208.049 145.1C208.056 145.156 208.059 145.214 208.056 145.271Z" fill="#263238"/>
<path d="M217.846 142.985H201.606V146.813H217.846V142.985Z" fill="#506CA9"/>
<path d="M203.153 146.813L204.911 159.689H214.721L216.361 146.813H203.153Z" fill="#506CA9"/>
<path d="M216.85 146.813C216.85 146.865 213.776 146.91 209.988 146.91C206.201 146.91 203.127 146.865 203.127 146.813C203.127 146.761 206.197 146.716 209.988 146.716C213.779 146.716 216.85 146.757 216.85 146.813Z" fill="#263238"/>
<path d="M9.9364 121.187L9.47983 94.3376C9.45206 92.6963 9.70754 91.0651 10.2314 89.5393C10.7552 88.0134 11.5368 86.6234 12.5306 85.4506C13.5244 84.2778 14.7105 83.3456 16.0195 82.7085C17.3285 82.0714 18.7342 81.7422 20.1546 81.74C22.9833 81.735 25.6984 83.026 27.7052 85.3301C29.7121 87.6342 30.847 90.7636 30.8615 94.0329L30.9804 121.187L9.9364 122.227" fill="#455A64"/>
<path d="M9.9364 125.769H42.6744C42.6744 123.238 41.1986 121.332 39.009 121.332L9.9364 121.187V125.769Z" fill="#455A64"/>
<path d="M37.0156 159.455H39.3146L39.3146 125.769H37.0156V159.455Z" fill="#455A64"/>
<path d="M12.5311 159.455H14.8301L14.8301 125.769H12.5311L12.5311 159.455Z" fill="#455A64"/>
<path d="M12.6084 121.332C12.6084 121.283 18.6981 121.246 26.209 121.246C33.7199 121.246 39.8129 121.283 39.8129 121.332C39.8129 121.38 33.7232 121.421 26.209 121.421C18.6949 121.421 12.6084 121.38 12.6084 121.332Z" fill="#263238"/>
<path d="M10.4895 125.791C10.4895 125.743 17.6467 125.705 26.4727 125.705C35.2986 125.705 42.4591 125.743 42.4591 125.791C42.4591 125.839 35.3051 125.88 26.4727 125.88C17.6403 125.88 10.4895 125.832 10.4895 125.791Z" fill="#263238"/>
<path d="M12.2385 86.5226C12.2803 86.5226 12.3125 94.1853 12.3125 103.639C12.3125 113.093 12.2803 120.755 12.2385 120.755C12.1967 120.755 12.1614 113.093 12.1614 103.639C12.1614 94.1853 12.1935 86.5226 12.2385 86.5226Z" fill="#263238"/>
<path d="M31.8614 106.118C31.8614 106.118 50.2849 106.029 51.7447 106.118C54.3394 106.281 56.0821 109.633 56.4293 111.369C56.7766 113.104 64.8277 139.864 64.8277 139.864L58.5707 144.539L50.1788 122.654L45.954 114.163L22.9775 118.805L31.8614 106.118Z" fill="#936760"/>
<path d="M46.0762 113.379C46.0762 113.379 49.478 113.379 51.3139 116.523C52.3943 118.381 52.0149 121.673 52.0374 124.167C52.0663 127.563 51.3011 153.896 51.3011 153.896C49.134 155.676 46.7129 155.884 44.0667 154.687L42.1954 125.538L42.6777 121.187L30.1123 121.51C30.1123 121.51 27.8617 116.679 30.9837 112.829C31.3824 112.335 46.0762 113.379 46.0762 113.379Z" fill="#936760"/>
<path d="M47.6582 113.528H47.7547L48.0312 113.58C48.3841 113.667 48.7256 113.807 49.0472 113.996C49.5551 114.298 50.0158 114.696 50.4105 115.174C50.9336 115.808 51.3569 116.542 51.6612 117.344C52.0267 118.317 52.239 119.358 52.2882 120.417C52.3382 121.627 52.3091 122.84 52.2014 124.044C52.1017 125.315 52.0503 126.646 52.0085 128.032C51.9667 129.418 51.9249 130.852 51.8831 132.324C51.7288 138.199 51.5905 143.52 51.4908 147.381C51.4362 149.303 51.3944 150.856 51.3622 151.945C51.3429 152.476 51.3301 152.892 51.3204 153.186C51.3204 153.32 51.3204 153.428 51.3043 153.509C51.3085 153.546 51.3085 153.584 51.3043 153.621C51.3011 153.584 51.3011 153.546 51.3043 153.509C51.3043 153.428 51.3043 153.32 51.3043 153.186C51.3043 152.889 51.3043 152.476 51.3043 151.945C51.3236 150.856 51.3493 149.299 51.3815 147.378C51.4587 143.524 51.5712 138.199 51.732 132.316C51.7738 130.848 51.8156 129.414 51.8574 128.028C51.8992 126.642 51.9603 125.3 52.0631 124.029C52.1731 122.834 52.2064 121.63 52.1628 120.428C52.1187 119.383 51.9151 118.356 51.5616 117.392C51.2669 116.6 50.8569 115.873 50.3494 115.241C49.9644 114.765 49.5148 114.364 49.0183 114.055C48.5898 113.803 48.1315 113.625 47.6582 113.528Z" fill="#6F4C47"/>
<path d="M51.2945 153.625V154.16C51.2945 154.16 59.1816 157.712 59.2781 159.437L43.684 159.522L43.8704 153.524C46.2015 154.75 48.6291 154.877 51.2945 153.625Z" fill="#506CA9"/>
<path d="M43.6904 159.522L43.7354 158.08L58.6672 158.522C58.6672 158.522 59.3617 158.868 59.2846 159.437L43.6904 159.522Z" fill="#E0E0E0"/>
<path d="M64.5223 138.749L64.6991 139.243C64.6991 139.243 73.165 139.191 73.8048 140.748L59.336 147.474L57.5966 141.818C60.1463 141.971 62.4452 141.053 64.5223 138.749Z" fill="#506CA9"/>
<path d="M59.336 147.474L58.9148 146.114L72.9366 140.168C72.9366 140.168 73.6955 140.194 73.8048 140.752L59.336 147.474Z" fill="#E0E0E0"/>
<path d="M65.2876 141.298C65.2683 141.298 65.1943 141.202 65.1332 140.997C65.0547 140.726 65.0359 140.436 65.0786 140.154C65.1195 139.87 65.2188 139.603 65.3679 139.373C65.4837 139.202 65.5834 139.132 65.5994 139.147C65.4431 139.473 65.3242 139.821 65.2458 140.183C65.2163 140.555 65.2304 140.93 65.2876 141.298Z" fill="#263238"/>
<path d="M64.458 141.462C64.3099 141.102 64.2613 140.698 64.3188 140.305C64.3763 139.912 64.5372 139.549 64.7795 139.265C64.6628 139.615 64.564 139.973 64.4837 140.336C64.4556 140.71 64.447 141.086 64.458 141.462Z" fill="#263238"/>
<path d="M66.5448 141.176C66.433 141.067 66.3425 140.933 66.2793 140.781C66.2161 140.629 66.1816 140.463 66.1782 140.295C66.1464 140.131 66.1446 139.961 66.1729 139.795C66.2011 139.63 66.2588 139.474 66.3422 139.336C66.3904 139.355 66.2843 139.763 66.3422 140.269C66.4001 140.774 66.5866 141.146 66.5448 141.176Z" fill="#263238"/>
<path d="M65.6895 139.291C65.6895 139.31 65.4708 139.187 65.2586 138.842C65.1389 138.641 65.0376 138.427 64.9564 138.203C64.9082 138.076 64.8631 137.946 64.8181 137.809C64.7895 137.734 64.768 137.655 64.7538 137.575C64.7453 137.522 64.7476 137.469 64.7604 137.418C64.7733 137.367 64.7964 137.32 64.8278 137.281C64.8637 137.239 64.9108 137.212 64.9615 137.205C65.0122 137.197 65.0636 137.21 65.1075 137.24C65.1746 137.283 65.2328 137.343 65.2779 137.415C65.3548 137.53 65.4205 137.655 65.474 137.786C65.5668 138.01 65.6256 138.25 65.6477 138.496C65.6851 138.72 65.6638 138.952 65.5866 139.161C65.5608 139.161 65.5866 138.905 65.5319 138.515C65.4935 138.288 65.4275 138.069 65.3358 137.864C65.2833 137.744 65.2197 137.631 65.1461 137.526C65.0786 137.415 64.9757 137.352 64.9467 137.407C64.9178 137.463 64.921 137.593 64.9725 137.734L65.0979 138.128C65.1693 138.347 65.2564 138.558 65.3583 138.76C65.5255 139.109 65.6895 139.265 65.6895 139.291Z" fill="#263238"/>
<path d="M65.7666 139.195C65.7666 139.195 65.7666 139.236 65.7087 139.291L65.6766 139.332V139.269C65.6529 139.021 65.6659 138.769 65.7152 138.526C65.7523 138.331 65.8073 138.142 65.8792 137.961C65.9202 137.859 65.9664 137.76 66.0174 137.664C66.0452 137.603 66.0835 137.55 66.1299 137.508C66.1592 137.48 66.1934 137.46 66.2302 137.45C66.2669 137.44 66.3052 137.439 66.3422 137.448C66.3896 137.465 66.4311 137.499 66.4602 137.545C66.4892 137.591 66.5043 137.647 66.5029 137.705C66.5003 137.783 66.4895 137.86 66.4708 137.935C66.4425 138.068 66.4048 138.199 66.3582 138.325C66.2757 138.535 66.1674 138.731 66.0367 138.905C65.8116 139.202 65.6187 139.314 65.6091 139.295C65.5994 139.277 65.7538 139.124 65.9306 138.823C66.0401 138.647 66.1308 138.456 66.2007 138.255C66.2397 138.133 66.272 138.009 66.2971 137.883C66.3293 137.753 66.3229 137.619 66.2971 137.63C66.2071 137.593 66.0914 137.872 66.0174 138.032C65.9432 138.199 65.8839 138.375 65.8406 138.556C65.7833 138.792 65.7435 139.033 65.7216 139.277L65.6798 139.254C65.7313 139.202 65.7602 139.187 65.7666 139.195Z" fill="#263238"/>
<path d="M51.1628 156.211C51.1403 156.211 51.1275 156.073 51.1628 155.862C51.2172 155.588 51.3274 155.333 51.4844 155.118C51.6459 154.901 51.8513 154.734 52.0824 154.632C52.2592 154.554 52.3782 154.554 52.3814 154.576C52.1004 154.76 51.841 154.984 51.6098 155.245C51.4248 155.543 51.2746 155.868 51.1628 156.211Z" fill="#263238"/>
<path d="M50.3815 155.85C50.3934 155.446 50.5396 155.063 50.7898 154.78C50.9979 154.456 51.307 154.239 51.6515 154.174C51.3942 154.406 51.1484 154.654 50.9152 154.918C50.7217 155.216 50.5434 155.528 50.3815 155.85Z" fill="#263238"/>
<path d="M52.2881 156.869C52.2434 156.708 52.228 156.539 52.243 156.371C52.2579 156.204 52.3029 156.042 52.3749 155.895C52.5743 155.379 52.9312 155.133 52.9505 155.178C52.9698 155.222 52.7061 155.509 52.5293 155.977C52.3524 156.445 52.3364 156.869 52.2881 156.869Z" fill="#263238"/>
<path d="M52.4072 154.743C52.2968 154.553 52.2395 154.329 52.2432 154.1C52.2317 153.852 52.2425 153.603 52.2754 153.357C52.2915 153.219 52.314 153.078 52.3365 152.937C52.3479 152.856 52.3651 152.777 52.3879 152.699C52.4045 152.649 52.4308 152.605 52.4648 152.569C52.4989 152.532 52.5397 152.506 52.584 152.491C52.634 152.478 52.6864 152.484 52.733 152.509C52.7795 152.534 52.8176 152.576 52.8413 152.629C52.8797 152.706 52.9018 152.792 52.9056 152.881C52.9201 153.027 52.9201 153.174 52.9056 153.32C52.8837 153.566 52.825 153.806 52.7319 154.03C52.5712 154.401 52.3911 154.576 52.3783 154.561C52.3654 154.546 52.5004 154.345 52.6258 153.974C52.6953 153.759 52.7386 153.534 52.7545 153.305C52.7656 153.17 52.7656 153.035 52.7545 152.9C52.7545 152.766 52.6869 152.651 52.6387 152.677C52.5905 152.703 52.5326 152.822 52.5101 152.97C52.4876 153.119 52.4619 153.249 52.4394 153.383C52.4033 153.612 52.3818 153.845 52.3751 154.078C52.359 154.494 52.4329 154.732 52.4072 154.743Z" fill="#263238"/>
<path d="M52.5229 154.71C52.5229 154.71 52.494 154.736 52.4297 154.758H52.3814L52.4039 154.698C52.4975 154.467 52.6247 154.256 52.7801 154.074C52.9013 153.936 53.0338 153.811 53.1756 153.703C53.2577 153.642 53.3424 153.586 53.4296 153.535C53.4808 153.503 53.5362 153.48 53.5936 153.468C53.6312 153.463 53.6694 153.468 53.7055 153.481C53.7415 153.495 53.7747 153.517 53.8026 153.546C53.8354 153.589 53.8551 153.643 53.8586 153.701C53.8621 153.758 53.8492 153.815 53.8219 153.862C53.7865 153.929 53.7432 153.989 53.6933 154.041C53.6092 154.138 53.5178 154.226 53.42 154.305C53.2551 154.436 53.0741 154.539 52.883 154.609C52.7135 154.691 52.5272 154.716 52.3461 154.68C52.3461 154.65 52.5454 154.624 52.8444 154.479C53.0171 154.396 53.1802 154.289 53.3299 154.16C53.4179 154.083 53.5006 153.998 53.5775 153.907C53.6643 153.818 53.719 153.699 53.6836 153.684C53.6225 153.598 53.4007 153.766 53.2624 153.859C53.1252 153.959 52.9951 154.072 52.8734 154.197C52.7197 154.364 52.5778 154.546 52.449 154.739L52.4232 154.695C52.4875 154.695 52.5068 154.698 52.5229 154.71Z" fill="#263238"/>
<path d="M52.7415 93.4606L55.5549 93.9846L57.3844 96.9092L56.8506 99.1388L56.5291 99.2652L56.5966 100.101C56.6114 100.282 56.5796 100.464 56.5052 100.624C56.4309 100.784 56.3172 100.915 56.1786 101.001L54.7221 98.0835L55.3234 101.056C55.157 101.101 54.9846 101.107 54.8162 101.074C54.6479 101.041 54.4869 100.969 54.3427 100.863C53.7222 100.492 53.0566 97.199 53.0566 97.199L52.092 96.4967L53.0566 100.168C52.9472 100.29 52.8167 100.383 52.6737 100.442C52.5306 100.501 52.3784 100.524 52.2271 100.51C51.6901 100.477 50.5937 97.147 50.5937 97.147L35.9449 99.5179L35.9127 97.3291L39.4688 90.5249L52.7415 93.4606Z" fill="#936760"/>
<path d="M20.9552 66.1473C20.1746 65.7931 19.4826 65.2196 18.942 64.4786C18.4014 63.7376 18.0291 62.8526 17.8589 61.9035C17.7238 61.1008 17.7335 60.2647 17.5374 59.4843C17.2351 58.3695 16.486 57.3995 16.4474 56.2253C16.4249 55.4486 16.7239 54.7054 16.7689 53.9287C16.8139 53.152 16.6596 52.4423 16.6467 51.6805C16.644 50.7208 16.8867 49.7817 17.3443 48.981C17.802 48.1803 18.4542 47.5538 19.2189 47.1802L23.2702 45.2813L29.5143 48.2245C29.5143 48.2245 33.0511 52.2081 32.0447 60.4059L20.9552 66.1473Z" fill="#506CA9"/>
<path d="M31.3728 61.1305C31.4897 60.9521 31.6433 60.8103 31.8197 60.718H31.7843C31.8167 60.7046 31.8501 60.6947 31.884 60.6883C31.9434 60.6587 32.0074 60.6435 32.0721 60.6435C32.1368 60.6435 32.2008 60.6587 32.2602 60.6883C32.4747 60.7529 32.6605 60.908 32.7811 61.1231C32.8766 61.3151 32.9246 61.5338 32.9201 61.7552C32.9156 61.9767 32.8586 62.1925 32.7554 62.3791C32.6831 62.5468 32.5685 62.6853 32.4267 62.7761C32.2849 62.8669 32.1226 62.9058 31.9612 62.8877C31.7999 62.8696 31.6471 62.7952 31.5231 62.6746C31.399 62.5539 31.3096 62.3926 31.2667 62.2119C31.2059 62.0355 31.1838 61.8445 31.2023 61.6558C31.2208 61.4671 31.2794 61.2867 31.3728 61.1305Z" fill="#455A64"/>
<path d="M31.2859 53.6277C30.8743 51.0078 29.0352 47.9829 26.7845 48.5701L19.9005 51.6173C19.5708 51.7022 19.2809 51.9276 19.0884 52.2485C18.896 52.5694 18.8151 52.9623 18.862 53.349L20.9037 70.8927C21.0333 72.0012 21.4898 73.0239 22.1963 73.7883C22.9028 74.5527 23.8159 75.0119 24.7813 75.0882C25.3818 75.1353 25.9841 75.0328 26.5473 74.7876C27.1106 74.5424 27.6217 74.1602 28.046 73.667C28.4704 73.1737 28.7981 72.5808 29.0071 71.9284C29.216 71.276 29.3012 70.5794 29.257 69.8857C29.1766 68.6742 29.122 67.7675 29.122 67.7712C29.122 67.7749 31.9804 66.8124 32.1315 62.3345C32.2215 60.1049 31.7585 56.5337 31.2859 53.6277Z" fill="#936760"/>
<path d="M30.5818 57.4924C30.5983 57.6396 30.5641 57.7883 30.4865 57.9065C30.4088 58.0248 30.2941 58.1029 30.167 58.1241C30.1057 58.1386 30.0425 58.1387 29.9811 58.1243C29.9198 58.1099 29.8616 58.0815 29.81 58.0405C29.7584 57.9996 29.7144 57.9471 29.6808 57.8861C29.6471 57.8252 29.6244 57.757 29.614 57.6856C29.5974 57.539 29.6312 57.3908 29.7082 57.2726C29.7851 57.1545 29.8991 57.076 30.0255 57.0539C30.0871 57.0394 30.1505 57.0393 30.212 57.0536C30.2735 57.068 30.332 57.0964 30.3838 57.1373C30.4357 57.1782 30.4799 57.2307 30.5139 57.2917C30.5479 57.3527 30.571 57.4209 30.5818 57.4924Z" fill="#263238"/>
<path d="M30.8164 55.5824C30.765 55.6641 30.3631 55.4003 29.8519 55.4746C29.3406 55.5489 28.9741 55.9019 28.9098 55.8462C28.8455 55.7905 28.9259 55.6753 29.077 55.5117C29.2864 55.3017 29.547 55.1719 29.8229 55.1401C30.0963 55.1001 30.3736 55.1627 30.6139 55.3185C30.7746 55.4188 30.8454 55.5563 30.8164 55.5824Z" fill="#263238"/>
<path d="M25.9229 58.0387C25.9394 58.1853 25.9056 58.3336 25.8287 58.4517C25.7517 58.5698 25.6378 58.6483 25.5113 58.6704C25.4498 58.6849 25.3864 58.685 25.3248 58.6707C25.2633 58.6564 25.2049 58.6279 25.153 58.587C25.1011 58.5462 25.0569 58.4937 25.0229 58.4327C24.9889 58.3717 24.9658 58.3034 24.9551 58.2319C24.9393 58.0855 24.9734 57.9377 25.0502 57.8198C25.127 57.7019 25.2405 57.6232 25.3666 57.6002C25.4282 57.5852 25.4917 57.5847 25.5534 57.5988C25.6151 57.6129 25.6737 57.6413 25.7257 57.6823C25.7777 57.7232 25.8219 57.7759 25.8558 57.8372C25.8897 57.8984 25.9125 57.967 25.9229 58.0387Z" fill="#263238"/>
<path d="M25.672 56.4036C25.6173 56.4854 25.2154 56.2178 24.6913 56.2921C24.1672 56.3665 23.8135 56.7232 23.7492 56.6637C23.6849 56.6043 23.7492 56.4928 23.9196 56.3293C24.1286 56.1208 24.3878 55.9911 24.6624 55.9577C24.9356 55.9208 25.2121 55.9831 25.4533 56.1361C25.6269 56.2401 25.6977 56.3665 25.672 56.4036Z" fill="#263238"/>
<path d="M28.0354 60.6399C28.3025 60.5027 28.5833 60.4041 28.8713 60.3464C29.0032 60.3129 29.1253 60.2646 29.1382 60.1531C29.1333 59.9921 29.0862 59.8366 29.0032 59.7072L28.4855 58.5924C27.7621 56.9907 27.2219 55.6641 27.2798 55.6195C27.3376 55.5749 27.9646 56.8607 28.6881 58.4623C28.8617 58.8599 29.0321 59.2353 29.1896 59.5994C29.2928 59.7749 29.3394 59.9866 29.3215 60.1977C29.3071 60.2545 29.2821 60.307 29.2482 60.3513C29.2143 60.3956 29.1724 60.4307 29.1253 60.4541C29.0528 60.4864 28.9773 60.5088 28.9003 60.521C28.6173 60.6017 28.3268 60.6416 28.0354 60.6399Z" fill="#263238"/>
<path d="M29.1349 67.7675C27.3506 68.043 25.5351 67.7407 23.8907 66.8942C23.8907 66.8942 25.4341 69.7444 29.1992 68.8117L29.1349 67.7675Z" fill="#6F4C47"/>
<path d="M28.106 62.093C27.9682 61.9082 27.7932 61.7654 27.5964 61.6773C27.3995 61.5891 27.187 61.5583 26.9774 61.5876C26.8409 61.6076 26.7108 61.6662 26.5987 61.7583C26.4865 61.8503 26.3957 61.9729 26.3344 62.1153C26.2655 62.2793 26.2417 62.4637 26.2659 62.6438C26.2902 62.8239 26.3614 62.9911 26.4701 63.1232C26.5788 63.2553 26.7198 63.3459 26.8742 63.3829C27.0286 63.42 27.1891 63.4016 27.3343 63.3304C27.6155 63.1808 27.8614 62.9552 28.0513 62.6727C28.1142 62.6032 28.1626 62.518 28.1928 62.4237C28.2086 62.3722 28.2122 62.3168 28.2032 62.2632C28.1941 62.2096 28.1728 62.1598 28.1414 62.119" fill="#6F4C47"/>
<path d="M26.5337 61.2717C26.6206 61.2717 26.6881 61.9109 27.225 62.3122C27.762 62.7136 28.3568 62.5575 28.3729 62.6504C28.3729 62.6876 28.2507 62.7953 27.9935 62.8399C27.657 62.8934 27.3149 62.8065 27.0289 62.5947C26.7579 62.3936 26.5644 62.0795 26.4887 61.7177C26.463 61.4427 26.4952 61.2717 26.5337 61.2717Z" fill="#263238"/>
<path d="M25.6464 53.8729C25.611 54.0439 25.0805 54.0402 24.4728 54.2074C23.8651 54.3746 23.3893 54.6422 23.2896 54.5047C23.2478 54.4378 23.3185 54.2706 23.5018 54.0847C23.7478 53.8494 24.0388 53.6851 24.3506 53.6054C24.6611 53.517 24.9855 53.517 25.2959 53.6054C25.5339 53.6983 25.6625 53.7912 25.6464 53.8729Z" fill="#263238"/>
<path d="M30.4178 53.5199C30.3407 53.6723 29.9645 53.5794 29.5304 53.6314C29.0963 53.6834 28.7362 53.832 28.6366 53.702C28.5915 53.6351 28.6366 53.4902 28.7845 53.3304C28.9823 53.1409 29.226 53.0267 29.4822 53.0034C29.7381 52.9727 29.9958 53.0364 30.2185 53.1854C30.3889 53.3267 30.4532 53.4493 30.4178 53.5199Z" fill="#263238"/>
<path d="M23.8554 49.5845C22.1067 49.6999 20.3937 50.2046 18.8107 51.071C18.3194 51.2859 17.9004 51.6765 17.6146 52.1858C17.4336 52.6738 17.3756 53.211 17.4474 53.7354C17.5696 55.3891 18.2737 57.3624 18.9136 58.8414L19.6627 60.1086C20.6273 59.7555 21.3218 56.7455 21.1707 55.3742C21.6323 55.0805 22.0134 54.6431 22.2708 54.1117C22.5282 53.5804 22.6517 52.9762 22.6272 52.3679C22.9992 52.0398 23.3026 51.6194 23.5152 51.1377C23.7278 50.6559 23.8441 50.1251 23.8554 49.5845Z" fill="#263238"/>
<path d="M20.7141 59.3467C20.6016 58.4066 19.5855 58.3062 18.9135 58.8525C18.547 59.1535 18.2898 59.7072 18.4023 60.7106C18.7045 63.375 20.9552 62.472 20.952 62.394C20.9488 62.3159 20.8491 60.4467 20.7141 59.3467Z" fill="#936760"/>
<path d="M20.1321 61.5021C20.1321 61.5021 20.0967 61.5393 20.0324 61.5876C19.9422 61.6485 19.8352 61.6671 19.7334 61.6396C19.5722 61.5526 19.434 61.4176 19.3329 61.2484C19.2318 61.0793 19.1713 60.8821 19.1579 60.6771C19.1251 60.4503 19.1372 60.2178 19.1932 59.9971C19.205 59.9107 19.2348 59.8289 19.2802 59.759C19.3256 59.689 19.3852 59.633 19.4537 59.5958C19.4984 59.5743 19.5482 59.5715 19.5945 59.5878C19.6408 59.604 19.6808 59.6384 19.7077 59.6849C19.7463 59.7555 19.7366 59.8113 19.7495 59.815C19.7623 59.8187 19.7945 59.763 19.7495 59.6552C19.7301 59.5908 19.6913 59.5367 19.6402 59.5028C19.5713 59.4561 19.4892 59.4427 19.4119 59.4657C19.3259 59.5055 19.2496 59.5689 19.1897 59.6505C19.1297 59.7321 19.0879 59.8294 19.0678 59.9339C18.9954 60.1787 18.9766 60.4405 19.0132 60.6957C19.0871 61.2308 19.3829 61.6954 19.7302 61.7585C19.7941 61.7697 19.8593 61.7642 19.9211 61.7423C19.9829 61.7205 20.0396 61.6828 20.0871 61.6322C20.1353 61.5541 20.1417 61.5021 20.1321 61.5021Z" fill="#6F4C47"/>
<path d="M18.8749 62.197C18.9955 62.0213 19.1495 61.8802 19.325 61.7845H19.2897C19.3219 61.7707 19.3553 61.7608 19.3893 61.7548C19.4488 61.7253 19.5128 61.71 19.5774 61.71C19.6421 61.71 19.7061 61.7253 19.7655 61.7548C19.9794 61.8189 20.1644 61.9743 20.2832 62.1896C20.3787 62.381 20.4269 62.599 20.4223 62.8199C20.4178 63.0408 20.3608 63.256 20.2575 63.4419C20.1746 63.6087 20.0521 63.7446 19.9046 63.8335C19.757 63.9224 19.5905 63.9606 19.4247 63.9436C19.2772 63.9058 19.1405 63.8247 19.0279 63.7082C18.9153 63.5917 18.8305 63.4437 18.7817 63.2784C18.7187 63.1033 18.6943 62.9129 18.7106 62.7242C18.7269 62.5355 18.7833 62.3544 18.8749 62.197Z" fill="#455A64"/>
<path d="M17.1129 50.0825C17.592 48.8265 18.7205 48.0386 19.8973 47.7711C20.2386 47.6931 20.5849 47.6484 20.9327 47.6373C20.7968 47.1112 20.7466 46.5606 20.7848 46.0134C20.8582 45.2248 21.1031 44.4705 21.4966 43.8208C21.8902 43.171 22.4195 42.6469 23.0355 42.2972C24.245 41.6851 25.614 41.6451 26.8488 42.1858C28.0657 42.6299 29.0851 43.6042 29.6911 44.9022C30.2731 46.2512 30.228 48.0795 29.3889 49.1943C28.4243 50.2237 27.2925 50.6808 26.0417 50.9595C24.941 51.2402 23.7895 51.05 22.8007 50.4244C19.907 53.1854 19.161 57.7525 18.6787 61.8849C17.4119 59.3133 17.1386 56.2698 16.891 53.3378C16.8171 52.2416 16.7271 51.097 17.1129 50.0825Z" fill="#506CA9"/>
<path d="M20.5532 50.3872C20.5178 50.3501 20.6786 50.0862 20.9133 49.7964C21.148 49.5065 21.3603 49.3058 21.3956 49.343C21.431 49.3802 21.267 49.6403 21.0355 49.9301C20.804 50.22 20.5854 50.4207 20.5532 50.3872Z" fill="#263238"/>
<path d="M27.2764 49.0271C27.2572 49.0011 27.5047 48.7336 27.7941 48.2133C28.1733 47.5356 28.4039 46.7614 28.4661 45.9576C28.5242 45.1538 28.4139 44.3457 28.1446 43.6016C27.9324 43.033 27.7266 42.7209 27.7491 42.6986C27.7716 42.6763 27.8198 42.7618 27.9131 42.903C28.0429 43.1045 28.156 43.3197 28.2507 43.5459C28.5714 44.2983 28.7091 45.1373 28.6491 45.9732C28.589 46.809 28.3335 47.6103 27.9099 48.2913C27.7828 48.4957 27.6396 48.686 27.4822 48.8599C27.3536 48.9788 27.2861 49.0346 27.2764 49.0271Z" fill="#263238"/>
<path d="M25.8199 46.7195C25.9303 46.5302 26.061 46.3578 26.209 46.2066C26.538 45.823 26.8422 45.4119 27.1189 44.9766C27.3866 44.5388 27.5818 44.0474 27.6945 43.5273C27.7781 43.1297 27.7716 42.8696 27.8006 42.8658C27.8505 43.0914 27.8505 43.3278 27.8006 43.5533C27.7165 44.1059 27.5252 44.6294 27.2411 45.0844C26.9633 45.5342 26.6394 45.9434 26.2765 46.3032C26.1431 46.4675 25.9892 46.6078 25.8199 46.7195Z" fill="#263238"/>
<g opacity="0.3">
<path opacity="0.3" d="M20.7719 46.3329C20.7829 47.1612 20.9746 47.9728 21.3293 48.6925C21.6839 49.4123 22.1901 50.0169 22.8008 50.4504L22.759 50.5284C22.333 50.5368 21.9131 50.4104 21.5447 50.1629C21.1763 49.9155 20.8735 49.5564 20.6689 49.1244C20.4643 48.6925 20.3658 48.2041 20.384 47.7121C20.4021 47.2201 20.5363 46.7432 20.7719 46.3329Z" fill="black"/>
</g>
<path d="M17.9939 52.2118C18.2652 52.3249 18.5251 52.4719 18.7688 52.6503C19.0373 52.7736 19.2938 52.9293 19.534 53.1148C19.2365 53.1098 18.946 53.0095 18.6948 52.8249C18.4174 52.6978 18.1751 52.4858 17.9939 52.2118Z" fill="white"/>
<path d="M16.5696 54.958C16.9156 54.9644 17.2606 55.0017 17.6017 55.0695C17.9496 55.0751 18.2967 55.1099 18.6402 55.1735C18.3012 55.3015 17.9404 55.3321 17.5888 55.2627C17.2327 55.258 16.883 55.1535 16.5696 54.958Z" fill="white"/>
<path d="M19.4408 47.1245C19.489 47.1245 19.3186 47.8677 19.2575 48.767C19.1965 49.6663 19.2575 50.417 19.2029 50.4244C18.9715 49.3236 19.055 48.1658 19.4408 47.1245Z" fill="white"/>
<path d="M20.2993 51.8403C20.2993 51.7845 20.5951 51.8068 20.9424 51.7957C21.2896 51.7845 21.5854 51.7511 21.5854 51.7957C21.3858 51.9081 21.1675 51.9692 20.9455 51.975C20.7235 51.9808 20.5031 51.931 20.2993 51.8291V51.8403Z" fill="white"/>
<path d="M18.129 56.935C18.3953 57.1353 18.6159 57.4068 18.7721 57.7265C18.971 58.0124 19.1087 58.3486 19.174 58.7076C18.9659 58.4424 18.7847 58.1507 18.6338 57.838C18.4362 57.5603 18.2668 57.2573 18.129 56.935Z" fill="white"/>
<path d="M24.0612 49.3542C24.1434 48.9917 24.2509 48.6375 24.3827 48.2951C24.611 47.5927 24.8907 46.7232 25.2026 45.7681C25.5145 44.8131 25.7717 43.9324 25.9935 43.2263C26.0859 42.8674 26.2042 42.5181 26.3472 42.1821C26.2973 42.5519 26.2165 42.9153 26.1061 43.2672C25.9325 43.9324 25.672 44.8391 25.3569 45.8313C25.0418 46.8235 24.7332 47.7116 24.492 48.3471C24.3756 48.6974 24.2313 49.0345 24.0612 49.3542Z" fill="white"/>
<path d="M22.0516 44.2148C22.2153 44.0304 22.4017 43.8752 22.6047 43.754C23.081 43.4261 23.5774 43.1392 24.0901 42.8955C24.6032 42.6523 25.1308 42.4524 25.6688 42.2972C25.8887 42.2178 26.117 42.174 26.3473 42.1672C26.3473 42.2266 25.3409 42.5091 24.1544 43.0739C22.968 43.6388 22.0774 44.2631 22.0516 44.2148Z" fill="white"/>
<path d="M28.6622 45.7941C28.9995 46.1543 29.2616 46.5984 29.4287 47.0928C29.5958 47.5872 29.6635 48.119 29.6268 48.6481C29.5754 48.6481 29.5432 47.9532 29.2764 47.1617C29.0095 46.3701 28.6236 45.8313 28.6622 45.7941Z" fill="white"/>
<path d="M24.2894 50.9929C24.6042 50.9318 24.9132 50.836 25.2122 50.7068C25.4893 50.5223 25.7508 50.3083 25.9935 50.0676C25.8452 50.4252 25.5946 50.7126 25.2841 50.8812C24.9736 51.0498 24.6222 51.0893 24.2894 50.9929Z" fill="white"/>
<path d="M21.0678 48.2282C21.051 47.8637 21.1417 47.5034 21.325 47.2063C21.5886 46.6897 21.968 46.4147 21.968 46.463C21.968 46.5113 21.7076 46.8346 21.4632 47.314C21.2189 47.7934 21.116 48.2393 21.0678 48.2282Z" fill="white"/>
<path d="M31.3407 53.8395C31.3117 53.7949 31.4146 53.6574 31.5143 53.4679C31.614 53.2784 31.6815 53.1223 31.7265 53.1297C31.7715 53.1371 31.7779 53.3564 31.6558 53.5719C31.5336 53.7875 31.3632 53.8841 31.3407 53.8395Z" fill="white"/>
<path d="M21.714 49.6514C21.7333 49.6737 21.3667 50.1457 20.8362 50.9595C20.1549 52.0269 19.5628 53.1667 19.0678 54.3635C18.5783 55.5647 18.1907 56.8179 17.9103 58.1056C17.6949 59.0978 17.6145 59.7258 17.5888 59.7184C17.5855 59.569 17.5952 59.4196 17.6177 59.2724C17.6434 58.99 17.7045 58.5775 17.7978 58.0759C18.2954 55.447 19.3073 52.9847 20.7558 50.8777C21.0356 50.4764 21.2703 50.1643 21.4471 49.9599C21.5253 49.8453 21.6149 49.7418 21.714 49.6514Z" fill="#263238"/>
<path d="M16.7817 54.1851C16.9004 53.8344 17.0547 53.5013 17.2415 53.1929C17.6611 52.4251 18.1423 51.7047 18.6788 51.0412C19.2156 50.3762 19.8067 49.7726 20.4439 49.2389C20.6984 49.0042 20.9757 48.8047 21.2703 48.6443C21.0304 48.8952 20.7781 49.1297 20.5147 49.3467C19.9078 49.9086 19.3352 50.5183 18.8009 51.1713C18.2713 51.828 17.7824 52.5272 17.338 53.2635C17.1668 53.5818 16.9811 53.8895 16.7817 54.1851Z" fill="#263238"/>
<path d="M22.6432 42.6949C22.6432 42.6949 22.5435 42.8807 22.3956 43.2263C22.1939 43.7145 22.0697 44.2406 22.0291 44.7796C21.9659 45.5785 22.0833 46.3827 22.3699 47.1133C22.7304 48.003 23.317 48.7445 24.0515 49.2389C24.783 49.7414 25.6185 50.0059 26.4694 50.0045C27.1637 50.0127 27.8517 49.8519 28.4886 49.5325C28.9165 49.3138 29.2991 48.992 29.6107 48.5886C29.8294 48.2988 29.913 48.1018 29.9323 48.1167C29.9516 48.1315 29.9323 48.1687 29.8776 48.2579C29.8164 48.3887 29.7454 48.513 29.6654 48.6295C29.3634 49.0643 28.9797 49.4138 28.5433 49.6514C27.8935 49.9956 27.1874 50.1743 26.4726 50.1754C25.5928 50.1875 24.7273 49.9187 23.9711 49.3987C23.206 48.881 22.5983 48.1021 22.2317 47.1691C21.9408 46.4086 21.8299 45.5725 21.9101 44.7462C21.9631 44.1939 22.1083 43.6588 22.3378 43.1705C22.4025 43.0414 22.4744 42.9172 22.5532 42.7989C22.6046 42.732 22.6368 42.6912 22.6432 42.6949Z" fill="#263238"/>
<path d="M20.9134 45.4262C20.9423 45.4262 20.8845 45.8275 20.8941 46.4667C20.8944 47.302 21.0675 48.1251 21.3989 48.8673C21.7414 49.5891 22.2773 50.1629 22.9262 50.5024C23.2031 50.6258 23.488 50.7239 23.7782 50.796C23.6977 50.816 23.6144 50.816 23.5339 50.796C23.3134 50.7732 23.0969 50.7144 22.8908 50.6213C22.1928 50.2982 21.6148 49.7025 21.2574 48.9379C20.9139 48.1741 20.7498 47.3194 20.7816 46.4593C20.7885 46.2024 20.8121 45.9465 20.8523 45.6938C20.8589 45.6011 20.8796 45.5106 20.9134 45.4262Z" fill="#263238"/>
<g opacity="0.3">
<path opacity="0.3" d="M19.2286 53.7504C18.6906 55.1406 18.2497 56.5784 17.9103 58.0499C17.7462 58.5214 17.7038 59.0376 17.7881 59.5364C17.8106 59.6293 17.8781 59.7444 17.9617 59.711C18.0453 59.6776 18.0325 59.6181 18.0453 59.5549C18.5835 57.0926 19.247 54.6692 20.0324 52.2974L19.2286 53.7504Z" fill="black"/>
</g>
<g opacity="0.3">
<path opacity="0.3" d="M28.0964 43.2114C28.7395 45.1809 28.6623 47.34 27.3666 48.9751C27.6542 48.9016 27.9208 48.7447 28.1413 48.519C28.3619 48.2934 28.529 48.0066 28.627 47.6856C28.8674 46.9476 28.9448 46.152 28.8522 45.3708C28.7595 44.5895 28.4998 43.8473 28.0964 43.2114Z" fill="black"/>
</g>
<path d="M52.2528 106.036C46.3002 105.868 40.5588 105.882 35.0285 106.081L35.0896 106.036L37.0188 85.1552L29.7201 71.0005L29.2828 70.5248C27.762 71.3647 26.3505 71.7512 24.6882 71.4204L20.4472 70.5843C18.518 72.5241 15.0102 76.6787 15.0102 76.8236C15.0102 76.9686 19.7109 103.453 19.7109 103.453L22.5146 106.634L14.5825 113.085C14.5825 113.085 14.7433 119.451 18.4666 121.187C22.1899 122.922 38.7422 121.61 40.6745 121.332C40.6745 121.332 47.9057 118.084 48.9089 117.091C49.9121 116.099 52.5389 108.202 52.2528 106.036Z" fill="#263238"/>
<path d="M32.4369 108.979C32.4952 108.981 32.5532 108.989 32.6105 109.001L33.096 109.087C33.5204 109.169 34.1313 109.299 34.8805 109.477C36.3853 109.826 38.4495 110.38 40.7162 111.042L46.5038 112.777L48.2593 113.308L48.7352 113.457C48.7912 113.473 48.846 113.494 48.8991 113.52C48.8414 113.52 48.7841 113.51 48.7287 113.49L48.2464 113.375C47.8252 113.268 47.224 113.108 46.478 112.9C44.9861 112.483 42.9412 111.874 40.668 111.213C38.3948 110.551 36.3467 109.979 34.8516 109.6C34.1024 109.406 33.4947 109.258 33.0767 109.157L32.5944 109.035C32.5401 109.024 32.4872 109.005 32.4369 108.979Z" fill="#455A64"/>
<path d="M30.8325 105.921C31.296 105.871 31.7629 105.88 32.2247 105.947C32.6894 105.956 33.1519 106.023 33.6041 106.147C33.1406 106.197 32.6738 106.189 32.2119 106.121C31.7472 106.112 31.2847 106.045 30.8325 105.921Z" fill="#455A64"/>
<path d="M30.7489 102.116C30.7875 102.082 31.2473 102.792 31.9386 103.528C32.6298 104.263 33.2697 104.747 33.244 104.791C32.7184 104.515 32.2411 104.129 31.8357 103.654C31.396 103.221 31.0278 102.7 30.7489 102.116Z" fill="#455A64"/>
<path d="M30.3503 91.153C30.331 91.127 30.585 90.8594 30.929 90.3614C31.8198 89.0505 32.3255 87.4454 32.3727 85.7795C32.3888 85.144 32.3437 84.7501 32.3727 84.7464C32.4026 84.8344 32.4211 84.9271 32.4273 85.0214C32.4602 85.2674 32.4774 85.5158 32.4788 85.7646C32.4919 87.4709 31.9699 89.125 31.0094 90.4209C30.8665 90.6143 30.7118 90.7957 30.5464 90.9635C30.4902 91.0383 30.424 91.1023 30.3503 91.153Z" fill="#455A64"/>
<path d="M32.4016 71.4315C34.4658 72.918 36.5043 76.7084 37.0156 80.7478L38.1602 87.0058C38.1602 87.0058 39.0251 86.4669 39.5588 87.2287C39.7437 87.4899 39.8797 87.7924 39.9582 88.1173C40.0368 88.4423 40.0563 88.7825 40.0154 89.1165L42.3915 91.034L38.5943 94.2262L35.9963 97.92C35.9963 97.92 38.2245 105.486 38.5943 106.229C38.964 106.972 39.6971 108.258 39.6971 108.258L36.2953 107.515C36.2953 107.515 33.9996 105.605 34.0896 102.416C34.1797 99.228 34.453 87.0169 34.0896 85.4227C33.7263 83.8285 29.2667 70.5359 29.2667 70.5359L32.4016 71.4315Z" fill="#506CA9"/>
<path d="M36.3917 97.8568C36.3788 97.7959 36.3712 97.7337 36.3692 97.671C36.3692 97.5298 36.3467 97.3552 36.3338 97.1396C36.3145 96.6788 36.3049 96.0248 36.3338 95.1812C36.3756 93.5239 36.5332 91.2459 36.6328 88.7301C36.7243 86.5819 36.7146 84.4296 36.6039 82.2826C36.5492 81.4576 36.5042 80.7962 36.4528 80.3354C36.4528 80.1198 36.4206 79.9452 36.4078 79.804C36.4021 79.7422 36.4021 79.6799 36.4078 79.6182C36.4281 79.6764 36.4411 79.7377 36.4464 79.8003L36.5171 80.3279C36.5878 80.7813 36.6489 81.4428 36.7196 82.2715C36.8633 84.4228 36.8869 86.5826 36.7904 88.7375C36.6907 91.2607 36.5171 93.535 36.4496 95.185C36.4142 96.0099 36.4078 96.6714 36.4078 97.1396C36.4078 97.3552 36.4078 97.5298 36.4078 97.671C36.4109 97.7336 36.4054 97.7963 36.3917 97.8568Z" fill="#263238"/>
<path d="M29.0352 94.6758L27.4276 87.5818L20.4375 70.5843L14.4796 73.9102C14.322 73.9778 14.1702 74.0624 14.0263 74.1629C13.4351 74.6081 12.9463 75.2125 12.6019 75.9243C11.7605 77.5916 11.4511 79.5467 11.7273 81.4502L14.0198 98.2656C14.6561 100.182 15.4082 102.045 16.2705 103.84L12.7948 115.936C12.7948 115.936 21.6593 121.057 24.5338 121.042C26.9549 121.042 29.0706 121.012 29.4693 115.557C29.868 110.101 29.0352 94.6758 29.0352 94.6758Z" fill="#506CA9"/>
<path d="M21.6401 97.8568C21.6208 97.8568 21.7269 97.5224 21.8652 96.9761C21.9466 96.6539 22.0443 96.3375 22.1577 96.0285C22.2963 95.6341 22.5172 95.2856 22.8008 95.014C23.0864 94.751 23.436 94.5977 23.8008 94.5755C24.0986 94.5603 24.3955 94.6238 24.6689 94.7613C24.8535 94.8484 25.0225 94.9744 25.1673 95.1329C25.2669 95.2481 25.3087 95.3225 25.3023 95.3299C25.0968 95.1439 24.8708 94.9902 24.6303 94.8728C24.3685 94.7602 24.0892 94.7121 23.8104 94.7316C23.4719 94.755 23.1472 94.8947 22.878 95.1329C22.618 95.3978 22.4144 95.7284 22.2831 96.0991C22.1481 96.4299 22.0549 96.7495 21.9616 97.017C21.8877 97.3124 21.7796 97.5949 21.6401 97.8568Z" fill="#263238"/>
<path d="M19.7108 91.2756C19.7108 91.2756 19.7783 91.2273 19.9166 91.1827C20.1119 91.1249 20.3131 91.0986 20.5146 91.1047C20.8519 91.1066 21.1853 91.1878 21.4946 91.3434C21.8039 91.499 22.0825 91.7257 22.3135 92.0097C22.5445 92.2938 22.7231 92.6292 22.8384 92.9955C22.9536 93.3619 23.0032 93.7515 22.984 94.1407C22.9771 94.3745 22.9413 94.606 22.8779 94.8282C22.8329 94.9806 22.7943 95.0623 22.7846 95.0586C22.8369 94.7548 22.8681 94.4466 22.8779 94.137C22.8853 93.3935 22.6434 92.6756 22.2028 92.1338C21.7622 91.592 21.1572 91.2684 20.5146 91.231C20.2461 91.225 19.9776 91.2399 19.7108 91.2756Z" fill="#263238"/>
<path d="M19.7108 77.8864C19.7718 78.0502 19.8181 78.2208 19.8491 78.3955C19.9295 78.7263 20.0356 79.2056 20.1545 79.8002C20.3925 80.9931 20.6658 82.6542 20.8683 84.5048C21.0709 86.3554 21.1577 88.05 21.1898 89.2726C21.1898 89.882 21.1898 90.3874 21.1898 90.7181C21.1941 90.8958 21.1855 91.0736 21.1641 91.2495C21.1401 91.0738 21.1293 90.896 21.132 90.7181C21.132 90.3465 21.0998 89.8597 21.0773 89.2763C21.0259 88.0574 20.9198 86.374 20.7204 84.5271C20.5211 82.6802 20.2606 81.0228 20.0516 79.8262C19.9487 79.2539 19.8619 78.7746 19.7944 78.4104C19.754 78.2387 19.726 78.0635 19.7108 77.8864Z" fill="#263238"/>
<path d="M14.5182 74.5085C14.7373 74.4352 14.9657 74.4063 15.1934 74.423C16.3004 74.4333 17.3699 74.8878 18.219 75.7088C18.4002 75.8664 18.5568 76.0587 18.682 76.2773C18.1045 75.713 17.4534 75.2577 16.7528 74.9284C16.0315 74.6542 15.2775 74.5125 14.5182 74.5085Z" fill="#263238"/>
<path d="M16.531 104.353C16.5754 104.405 16.6153 104.462 16.65 104.524L16.9715 105.033C17.3876 105.626 17.9012 106.119 18.4827 106.482C19.3611 106.984 20.3432 107.192 21.3186 107.084C22.5123 106.937 23.6536 106.44 24.6335 105.638C24.8747 105.442 25.1066 105.232 25.328 105.007L25.3055 105.074C25.3055 102.35 25.2862 99.9267 25.2798 98.1615C25.2798 97.3031 25.2798 96.6045 25.2798 96.0991C25.2798 95.8687 25.2798 95.6866 25.2798 95.5417C25.273 95.4775 25.273 95.4126 25.2798 95.3484C25.2855 95.4127 25.2855 95.4775 25.2798 95.5417C25.2798 95.6866 25.2798 95.8687 25.2991 96.0991C25.2991 96.6045 25.3216 97.3031 25.3377 98.1578C25.357 99.9267 25.3827 102.35 25.4116 105.07V105.114L25.3859 105.137C25.1597 105.367 24.9225 105.583 24.6753 105.783C23.6842 106.597 22.5278 107.1 21.3186 107.244C20.3198 107.348 19.3161 107.121 18.4248 106.59C17.8373 106.211 17.324 105.696 16.9168 105.077C16.785 104.851 16.6918 104.665 16.6242 104.542C16.5876 104.483 16.5564 104.419 16.531 104.353Z" fill="#263238"/>
<g opacity="0.3">
<path opacity="0.3" d="M29.4306 103.888C28.3792 104.397 27.0545 104.877 26.8359 106.17C26.8117 106.604 26.7612 107.037 26.6848 107.463C26.389 108.448 25.3151 108.73 24.4148 108.827C22.8972 108.987 21.3281 109.057 19.878 108.507C18.4279 107.957 17.1032 106.675 16.756 104.958C18.0775 105.902 18.6852 106.98 20.2317 107.273C21.0902 107.441 22.6946 106.794 23.5209 106.478C24.3473 106.162 25.3697 104.873 25.3697 104.873C25.4437 104.542 25.3697 103.442 25.3022 103.777C25.2797 103.888 26.7041 102.836 27.4146 102.528C28.2603 102.156 29.4306 101.51 29.4306 101.51" fill="black"/>
</g>
<g opacity="0.3">
<path opacity="0.3" d="M22.5147 95.3856C22.2864 96.5822 21.6272 98.4588 21.2832 99.6182C21.2313 99.8252 21.1486 100.02 21.0388 100.194C20.9823 100.281 20.908 100.349 20.8226 100.394C20.7373 100.439 20.6436 100.458 20.5501 100.451C20.414 100.408 20.2965 100.308 20.2205 100.171C20.1445 100.033 20.1153 99.8682 20.1386 99.7074C20.1858 99.3908 20.3032 99.0938 20.4794 98.8453L22.5147 95.3707" fill="black"/>
</g>
<path d="M17.0519 110.235C17.1263 110.032 17.2179 109.838 17.3252 109.656C17.5117 109.284 17.785 108.775 18.1161 108.169L18.1419 108.121H18.1933C18.8685 108.407 19.6852 108.73 20.5726 109.046C21.7848 109.481 22.9005 109.808 23.7107 110.035L24.6753 110.298C24.7957 110.321 24.9133 110.359 25.0258 110.414C24.9046 110.411 24.784 110.395 24.6657 110.365C24.4342 110.324 24.0998 110.254 23.7011 110.157C22.8844 109.96 21.7719 109.648 20.5437 109.213C19.653 108.897 18.8364 108.559 18.1644 108.258L18.2383 108.229C17.8975 108.842 17.5953 109.343 17.4056 109.696C17.3016 109.888 17.1832 110.068 17.0519 110.235Z" fill="#263238"/>
<path d="M24.4181 113.412C24.5439 112.935 24.6954 112.467 24.8714 112.012C24.9975 111.533 25.1489 111.064 25.3248 110.607C25.2154 111.611 24.905 112.571 24.4181 113.412Z" fill="#263238"/>
<path d="M17.0647 110.477C17.0647 110.451 17.4505 110.711 18.0743 111.075C18.8852 111.55 19.7282 111.948 20.5951 112.264C21.4625 112.582 22.3491 112.824 23.2477 112.989C23.939 113.115 24.3698 113.16 24.3698 113.19C24.2685 113.206 24.1657 113.206 24.0644 113.19C23.8682 113.19 23.5821 113.156 23.2348 113.108C22.3239 112.977 21.4253 112.751 20.5501 112.431C19.6746 112.111 18.8282 111.693 18.0229 111.183C17.7013 110.986 17.473 110.811 17.3091 110.685C17.2202 110.628 17.138 110.558 17.0647 110.477Z" fill="#263238"/>
<g opacity="0.3">
<path opacity="0.3" d="M23.8715 113.156C23.91 113.262 23.9124 113.38 23.8784 113.488C23.8444 113.595 23.7765 113.684 23.6883 113.736C23.5077 113.833 23.3073 113.87 23.1095 113.844C20.953 113.747 18.877 112.871 17.1741 111.339C17.0005 111.187 16.8236 110.9 16.9715 110.715C17.1194 110.529 17.3156 110.663 17.4763 110.767C19.4932 112.129 21.738 112.979 24.0612 113.26" fill="black"/>
</g>
<path d="M25.3699 95.6272L38.6072 92.3198L41.3723 91.5246L43.5555 93.0482C43.7094 93.1545 43.8405 93.2996 43.9391 93.4727C44.0376 93.6458 44.1011 93.8424 44.1246 94.0478L44.3143 95.6829L44.0475 95.9505L44.3947 96.6937C44.4692 96.8545 44.5013 97.037 44.487 97.2186C44.4727 97.4002 44.4127 97.573 44.3143 97.7156L42.0829 95.7795L43.5394 98.143C43.4023 98.2597 43.2461 98.3431 43.0804 98.3885C42.9147 98.4338 42.7427 98.4401 42.5749 98.4068C41.8836 98.3548 40.157 95.616 40.157 95.616L39.0252 95.4116L41.4077 98.3845C41.4077 98.3845 41.5138 98.6335 41.0058 98.8453C40.4978 99.0571 37.858 96.7049 37.858 96.7049L25.431 103.702" fill="#936760"/>
<path d="M39.0935 95.3271L40.1377 95.5156C40.1566 95.52 40.1736 95.5318 40.1859 95.5491C40.6189 96.2312 41.0881 96.8815 41.591 97.4963C41.8346 97.8119 42.1241 98.076 42.4462 98.2767C42.6192 98.322 42.7983 98.3266 42.9729 98.2902C43.129 98.2577 43.2787 98.1929 43.4147 98.0993L43.0314 97.4777L42.0058 95.8129C41.9997 95.8035 41.9955 95.7928 41.9932 95.7815C41.9909 95.7701 41.9906 95.7583 41.9924 95.7468C41.9942 95.7353 41.9981 95.7244 42.0037 95.7146C42.0093 95.7049 42.0166 95.6966 42.025 95.6903C42.0377 95.6797 42.0529 95.674 42.0685 95.674C42.084 95.674 42.0992 95.6797 42.1119 95.6903L42.1408 95.7154L42.1537 95.7014L42.1869 95.7555L43.9188 97.2585L44.1407 97.4517L44.25 97.5484L44.265 97.5608C44.3421 97.4173 44.3809 97.25 44.3754 97.0801C44.3599 96.8813 44.3001 96.6906 44.2018 96.5264L43.9446 95.9764C43.9339 95.9612 43.928 95.9422 43.928 95.9226C43.928 95.9029 43.9339 95.8839 43.9446 95.8687L44.1807 95.6352C44.1245 95.1449 44.0683 94.6618 44.0121 94.1927C44.0004 93.9604 43.9368 93.7356 43.8275 93.5402C43.7182 93.3448 43.5668 93.1855 43.3883 93.0779L41.2976 91.6022L39.6457 92.0968C39.0831 92.2566 38.53 92.4201 37.9866 92.5465L34.8935 93.312L29.8391 94.5755L26.5467 95.3744L25.6721 95.5788L25.447 95.6308H25.3699L25.4438 95.6048L25.6689 95.5454L26.537 95.315L29.823 94.4677L34.8807 93.1856L37.9706 92.4053C38.514 92.2752 39.0638 92.1117 39.6297 91.9482L41.3563 91.4539C41.3643 91.4494 41.3731 91.447 41.382 91.447C41.3909 91.447 41.3997 91.4494 41.4077 91.4539L43.5202 92.9218C43.7173 93.0436 43.8843 93.2214 44.0057 93.4383C44.1265 93.6626 44.1972 93.9179 44.2114 94.1816C44.2693 94.6758 44.3272 95.1738 44.3883 95.668C44.3896 95.6819 44.3879 95.6959 44.3834 95.7089C44.3789 95.7218 44.3718 95.7333 44.3626 95.7423L44.1291 95.9764L44.3561 96.4558C44.4638 96.6438 44.53 96.8595 44.549 97.0838C44.556 97.3176 44.4936 97.547 44.3722 97.7342V97.7527H44.2661L44.2372 97.7267L44.1825 97.6784L44.0732 97.5818L43.8513 97.3886L42.4367 96.1609L43.1793 97.3663C43.3272 97.6041 43.4719 97.8456 43.6102 98.0649C43.6206 98.0795 43.6264 98.0979 43.6264 98.1169C43.6264 98.1359 43.6206 98.1543 43.6102 98.169C43.445 98.3175 43.2486 98.4124 43.0411 98.4439C42.9431 98.4601 42.8443 98.4688 42.7453 98.47H42.5974C42.5442 98.4599 42.4916 98.4462 42.4398 98.4291C42.0925 98.2241 41.7817 97.9455 41.5235 97.6078C41.023 96.9964 40.5563 96.3492 40.1264 95.6699L39.2394 95.5097L39.0252 95.4711L39.0924 95.3269L39.0927 95.3261C39.093 95.3264 39.0932 95.3268 39.0935 95.3271Z" fill="#6F4C47"/>
<path d="M43.5393 98.1355C43.3419 97.8931 43.1623 97.6321 43.0024 97.3552C42.6809 96.8609 42.2597 96.1734 41.7967 95.4042C41.6283 95.0267 41.3421 94.7371 40.9961 94.5941C40.6745 94.49 40.353 94.4269 40.0958 94.3525C39.8125 94.2995 39.5346 94.2136 39.2662 94.0961C39.553 94.1128 39.838 94.1576 40.1183 94.2299C40.3819 94.2894 40.6874 94.334 41.0379 94.4417C41.4207 94.5883 41.739 94.9016 41.9253 95.315C42.3883 96.0768 42.7998 96.7754 43.0924 97.2883C43.2647 97.5534 43.4144 97.8371 43.5393 98.1355Z" fill="#6F4C47"/>
<path d="M43.9863 95.9913C43.8012 95.7828 43.6293 95.5593 43.4718 95.3224C43.0694 94.7776 42.6399 94.2602 42.1857 93.7728L41.7934 93.3603L41.6069 93.1671L41.5137 93.0705C41.5137 93.0705 41.4815 93.0333 41.4719 93.0333H41.4462C41.1504 92.9924 40.8546 92.9999 40.6199 92.9887C40.361 93.0025 40.1016 92.9888 39.845 92.9478C40.1 92.8889 40.3598 92.8615 40.6199 92.8661C40.9025 92.844 41.1861 92.844 41.4687 92.8661H41.5041L41.5555 92.8921C41.5754 92.9054 41.5938 92.9217 41.6102 92.9404L41.7034 93.0333L41.8931 93.2228L42.2886 93.6353C42.7483 94.1279 43.1721 94.6636 43.5554 95.237C43.7271 95.4655 43.8719 95.7191 43.9863 95.9913Z" fill="#6F4C47"/>
<path d="M62.6766 101.588L67.3131 86.7902C67.4177 86.4967 67.4581 86.1778 67.4307 85.8619C67.4033 85.546 67.309 85.2427 67.1561 84.9789C67.0032 84.7152 66.7965 84.499 66.5541 84.3496C66.3117 84.2001 66.0412 84.122 65.7665 84.1221H52.0662C51.7165 84.1216 51.3754 84.248 51.0911 84.4833C50.8067 84.7186 50.5934 85.0511 50.4811 85.4339L46.0986 100.358L38.4752 100.387C38.0604 100.387 37.7003 101.03 37.7003 101.502H40.2082H45.8639L62.6766 101.588Z" fill="#E0E0E0"/>
<path d="M62.6767 101.588H62.5609H55.722L47.8124 101.569C44.774 101.551 41.3819 101.592 37.7068 101.569H37.6296V101.48C37.6372 101.261 37.689 101.047 37.7808 100.856C37.8713 100.66 38.0042 100.495 38.1666 100.376C38.2542 100.314 38.3534 100.277 38.456 100.269H39.2694H41.4848L46.1051 100.25L46.028 100.313L48.0118 93.5499C48.4587 92.0337 48.896 90.5324 49.3301 89.0571C49.5444 88.3139 49.7588 87.5806 49.9731 86.8572L50.2946 85.7721C50.3525 85.59 50.3943 85.4005 50.4618 85.2295C50.533 85.0477 50.6249 84.8777 50.7351 84.7241C50.9029 84.5006 51.1103 84.3215 51.3434 84.199C51.5764 84.0765 51.8296 84.0136 52.0856 84.0144H58.1592H64.9756H65.7698C66.0413 84.0138 66.3091 84.0877 66.5511 84.2299C66.786 84.3675 66.991 84.5646 67.1508 84.8065C67.3106 85.0485 67.421 85.329 67.4739 85.6271C67.5266 85.9171 67.5211 86.2171 67.4578 86.5041C67.3871 86.7829 67.2971 87.0393 67.2167 87.2994C67.0527 87.8159 66.8951 88.3213 66.7376 88.8156L63.7602 98.1913C63.4098 99.2839 63.1397 100.135 62.95 100.718C62.86 101.001 62.7892 101.22 62.7378 101.372C62.6863 101.525 62.6638 101.588 62.6638 101.588C62.6638 101.588 62.6831 101.506 62.7281 101.357L62.9307 100.689C63.1108 100.098 63.3776 99.2393 63.7152 98.1356C64.4001 95.9059 65.3904 92.7286 66.609 88.7858C66.7633 88.2953 66.9305 87.7899 67.0784 87.2734C67.1588 87.017 67.2488 86.7531 67.3131 86.4967C67.3647 86.23 67.3647 85.9533 67.3131 85.6866C67.2621 85.4114 67.1585 85.1528 67.01 84.9297C66.8615 84.7066 66.6718 84.5247 66.4547 84.3971C66.0142 84.1184 65.474 84.2225 64.9403 84.2039H58.1239H52.5614C52.247 84.181 51.9313 84.206 51.6226 84.2782C51.3235 84.38 51.0565 84.5801 50.8541 84.8542C50.7524 84.9902 50.669 85.143 50.6065 85.3076C50.5486 85.4711 50.5004 85.6792 50.4458 85.839L50.1242 86.9241C49.9099 87.6524 49.6955 88.3857 49.4812 89.124C49.0525 90.6104 48.6131 92.1068 48.1629 93.6131C47.4845 95.9319 46.8157 98.2062 46.1759 100.38L46.1598 100.443H46.0987H41.4816H39.2662H38.456C38.3793 100.449 38.3051 100.477 38.2405 100.525C38.1048 100.63 37.9922 100.771 37.9118 100.935C37.8314 101.1 37.7854 101.284 37.7775 101.473L37.7004 101.383C41.3722 101.383 44.774 101.365 47.7964 101.383L55.6802 101.447L60.8247 101.502L62.1944 101.521H62.5513L62.6767 101.588Z" fill="#263238"/>
<path d="M52.1854 84.1704C52.1815 84.2316 52.1696 84.2918 52.15 84.3488L52.0085 84.8579C51.8703 85.3224 51.687 85.9504 51.4619 86.7159C50.9925 88.2804 50.3333 90.4321 49.597 92.8066C48.8607 95.1812 48.1855 97.3254 47.6872 98.8788L47.0891 100.711L46.9219 101.205C46.9029 101.263 46.8792 101.319 46.8512 101.372C46.8549 101.309 46.8679 101.248 46.8898 101.19L47.028 100.685C47.1663 100.217 47.3496 99.5923 47.5746 98.8268C48.0441 97.266 48.7032 95.1106 49.4395 92.736C50.1758 90.3614 50.851 88.2173 51.3494 86.6676L51.9474 84.8356C52.0149 84.6386 52.0696 84.464 52.1178 84.3413C52.134 84.2813 52.1567 84.2239 52.1854 84.1704Z" fill="#263238"/>
<path d="M34.8484 104.208H78.0104C78.3199 104.208 78.6168 104.066 78.8357 103.813C79.0546 103.56 79.1775 103.216 79.1775 102.859C79.1767 102.501 79.0535 102.159 78.8348 101.906C78.6161 101.653 78.3197 101.511 78.0104 101.51H34.8484C34.5389 101.51 34.242 101.652 34.0231 101.905C33.8042 102.158 33.6813 102.501 33.6813 102.859C33.6809 103.036 33.7108 103.212 33.7693 103.376C33.8278 103.539 33.9137 103.688 34.0222 103.814C34.1306 103.939 34.2595 104.038 34.4013 104.106C34.5431 104.174 34.695 104.208 34.8484 104.208Z" fill="#455A64"/>
<path d="M54.9279 159.455H58.693L58.693 103.702H54.9279L54.9279 159.455Z" fill="#455A64"/>
<path d="M69.5157 159.455H43.9027C44.0699 159.455 54.9311 156.129 54.9311 156.129H58.6962L69.5157 159.455Z" fill="#455A64"/>
<path d="M34.736 104.092C34.736 104.044 44.4943 104.007 56.5324 104.007C68.5704 104.007 78.332 104.044 78.332 104.092C78.332 104.141 68.5736 104.182 56.5324 104.182C44.4911 104.182 34.736 104.141 34.736 104.092Z" fill="#263238"/>
</svg>
