<svg width="231" height="147" viewBox="0 0 231 147" fill="none" xmlns="http://www.w3.org/2000/svg">
<path d="M217.081 88.5903H14.0925V90.1884H217.081V88.5903Z" fill="#263238"/>
<path d="M196.291 69.0729C196.634 69.1627 196.989 69.2016 197.344 69.1885C197.344 69.1885 197.184 68.6988 197.17 68.6682C197.006 68.3282 196.488 67.7604 196.066 67.8182C195.996 67.829 195.929 67.8545 195.869 67.8931C195.81 67.9316 195.76 67.9823 195.721 68.0417C195.683 68.1012 195.658 68.168 195.647 68.2379C195.637 68.3078 195.641 68.3792 195.66 68.4472C195.713 68.5911 195.797 68.7216 195.906 68.8297C196.015 68.9378 196.146 69.0208 196.291 69.0729Z" fill="#263238"/>
<path d="M206.088 66.5295C205.665 66.4853 205.161 67.0633 205.008 67.4101C205.008 67.4407 204.837 67.9338 204.847 67.9338L204.592 68.233C204.428 68.437 204.251 68.6682 204.057 68.9334C203.855 69.216 203.669 69.5101 203.501 69.8141C203.312 70.1551 203.153 70.5124 203.028 70.8818C203.028 70.756 203.028 70.4092 203.028 70.382C202.977 70.0045 202.66 69.3075 202.241 69.2293C202.171 69.2187 202.1 69.2229 202.032 69.2415C201.964 69.2601 201.9 69.2927 201.846 69.3372C201.791 69.3818 201.746 69.4372 201.715 69.5001C201.683 69.5629 201.665 69.6316 201.661 69.7019C201.666 69.8547 201.705 70.0045 201.775 70.1408C201.844 70.2771 201.943 70.3965 202.063 70.4908C202.36 70.6815 202.682 70.8281 203.021 70.926C202.9 71.3042 202.807 71.6906 202.741 72.0821C202.701 72.3065 202.666 72.5377 202.636 72.7621C202.636 72.6567 202.636 72.5581 202.636 72.5445C202.588 72.1705 202.271 71.47 201.852 71.3918C201.782 71.3808 201.711 71.3845 201.642 71.4029C201.574 71.4212 201.51 71.4538 201.455 71.4984C201.4 71.5429 201.355 71.5986 201.323 71.6617C201.291 71.7248 201.273 71.7938 201.269 71.8645C201.276 72.0174 201.315 72.1671 201.385 72.3033C201.455 72.4395 201.554 72.5589 201.675 72.6533C201.96 72.8435 202.272 72.988 202.602 73.0817C202.602 73.1702 202.578 73.2586 202.568 73.347C202.517 73.772 202.469 74.2004 202.408 74.6153C202.384 74.7615 202.36 74.9077 202.333 75.0505C202.336 74.9882 202.336 74.9258 202.333 74.8635C202.285 74.486 201.968 73.7856 201.549 73.7108C201.479 73.6997 201.408 73.7035 201.339 73.7218C201.271 73.7402 201.208 73.7728 201.153 73.8175C201.098 73.8621 201.053 73.9178 201.022 73.9809C200.99 74.0439 200.972 74.113 200.969 74.1834C200.973 74.336 201.011 74.4858 201.081 74.6218C201.151 74.7577 201.25 74.8763 201.372 74.9689C201.649 75.1542 201.954 75.2953 202.275 75.3871C202.241 75.5333 202.21 75.6829 202.176 75.8223C202.142 75.9618 202.128 76.0128 202.094 76.1046C202.06 76.1964 202.033 76.2916 202.005 76.3868C201.941 76.5602 201.876 76.7438 201.808 76.9138C201.763 77.0294 201.716 77.1416 201.671 77.2538C201.695 77.111 201.733 76.822 201.733 76.7982C201.73 76.4646 201.639 76.1375 201.47 75.8495C201.475 75.8123 201.475 75.7746 201.47 75.7373C201.46 75.6663 201.434 75.5984 201.395 75.5381C201.355 75.4778 201.304 75.4267 201.243 75.388C201.182 75.3494 201.114 75.3241 201.043 75.314C200.971 75.3039 200.899 75.3091 200.83 75.3293C200.421 75.4415 200.148 76.1624 200.148 76.5398C200.148 76.5636 200.148 76.8084 200.175 76.9614C200.152 76.873 200.135 76.7846 200.111 76.6928C200.07 76.5126 200.019 76.3324 199.968 76.1352C199.94 76.0434 199.913 75.9516 199.882 75.8563C199.852 75.7611 199.818 75.6659 199.784 75.5673C199.702 75.3463 199.61 75.1253 199.511 74.9043C199.844 74.8347 200.165 74.7142 200.462 74.5473C200.59 74.4639 200.698 74.3528 200.778 74.2221C200.857 74.0914 200.907 73.9446 200.922 73.7924C200.923 73.7203 200.908 73.6489 200.879 73.5829C200.85 73.517 200.807 73.4581 200.753 73.4103C200.699 73.3625 200.635 73.3269 200.566 73.306C200.497 73.2851 200.424 73.2793 200.353 73.2892C199.93 73.3334 199.562 74.0066 199.487 74.3806C199.487 74.4044 199.456 74.6765 199.446 74.8261C199.385 74.6935 199.323 74.5609 199.259 74.4282C199.071 74.0508 198.867 73.67 198.666 73.2892L198.482 72.9491C198.826 72.8777 199.158 72.7551 199.467 72.5853C199.594 72.5 199.701 72.3885 199.781 72.2582C199.861 72.128 199.912 71.9821 199.93 71.8305C199.932 71.7598 199.918 71.6896 199.891 71.6243C199.864 71.5591 199.824 71.5002 199.772 71.4516C199.721 71.4029 199.66 71.3655 199.593 71.3417C199.526 71.318 199.455 71.3084 199.385 71.3136C198.962 71.3612 198.594 72.0345 198.516 72.4051C198.516 72.4357 198.475 72.8267 198.472 72.9287C198.339 72.6703 198.206 72.4153 198.09 72.1569C197.928 71.8094 197.789 71.4516 197.674 71.0858C198.02 71.0129 198.353 70.8891 198.662 70.7186C198.79 70.6338 198.897 70.5224 198.977 70.392C199.057 70.2617 199.108 70.1156 199.126 69.9637C199.128 69.8932 199.114 69.8231 199.087 69.758C199.06 69.6929 199.019 69.6343 198.968 69.5859C198.916 69.5375 198.855 69.5004 198.789 69.477C198.722 69.4537 198.651 69.4445 198.581 69.4503C198.158 69.4945 197.79 70.1677 197.712 70.5418C197.712 70.569 197.667 70.9906 197.667 71.0688C197.658 71.048 197.652 71.0263 197.647 71.0042C197.54 70.6353 197.467 70.2574 197.429 69.8753C197.405 69.6611 197.395 69.4605 197.388 69.2599C197.733 69.2304 198.071 69.1466 198.39 69.0117C198.525 68.9409 198.644 68.8416 198.738 68.7207C198.831 68.5998 198.897 68.4601 198.932 68.3112C198.941 68.2413 198.936 68.1702 198.916 68.1025C198.896 68.0348 198.863 67.972 198.817 67.9181C198.771 67.8642 198.715 67.8205 198.651 67.7899C198.588 67.7592 198.518 67.7422 198.448 67.74C198.022 67.74 197.582 68.3656 197.466 68.7294C197.466 68.7464 197.415 68.9538 197.388 69.1069C197.388 69.0151 197.388 68.9232 197.388 68.8382C197.388 68.4982 197.412 68.2228 197.429 67.961C197.429 67.8148 197.456 67.6788 197.473 67.5564C197.762 67.3702 198.021 67.1408 198.24 66.8763C198.328 66.7516 198.389 66.6091 198.416 66.4587C198.444 66.3084 198.438 66.1538 198.4 66.0058C198.376 65.9408 198.339 65.8814 198.291 65.8313C198.243 65.7812 198.186 65.7415 198.122 65.7147C198.058 65.6879 197.989 65.6746 197.919 65.6755C197.85 65.6765 197.782 65.6917 197.718 65.7202C197.34 65.914 197.241 66.6757 197.303 67.0497C197.303 67.0837 197.453 67.5802 197.456 67.5734C197.44 67.6912 197.423 67.8204 197.405 67.961C197.381 68.2228 197.354 68.5186 197.347 68.8416C197.333 69.1886 197.341 69.5361 197.371 69.8821C197.401 70.2714 197.466 70.6571 197.565 71.0348C197.497 70.9294 197.303 70.6404 197.282 70.62C197.033 70.3343 196.383 69.9399 195.991 70.0895C195.926 70.1191 195.869 70.1619 195.822 70.2152C195.775 70.2685 195.74 70.3311 195.719 70.3988C195.698 70.4665 195.692 70.5379 195.7 70.6082C195.709 70.6786 195.733 70.7463 195.769 70.807C195.859 70.9309 195.974 71.0338 196.108 71.1084C196.242 71.183 196.39 71.2275 196.543 71.2388C196.89 71.2361 197.234 71.1822 197.565 71.079C197.676 71.4591 197.811 71.8316 197.971 72.1943C198.063 72.4085 198.161 72.6193 198.264 72.8301C198.202 72.7383 198.148 72.6601 198.138 72.6499C197.889 72.3643 197.238 71.9699 196.846 72.1195C196.782 72.149 196.724 72.1919 196.677 72.2451C196.63 72.2984 196.595 72.361 196.574 72.4287C196.553 72.4965 196.547 72.5678 196.556 72.6382C196.564 72.7085 196.588 72.7763 196.625 72.8369C196.714 72.9609 196.83 73.0637 196.963 73.1383C197.097 73.2129 197.245 73.2574 197.398 73.2688C197.745 73.2692 198.089 73.2177 198.42 73.1158L198.54 73.3572C198.731 73.7414 198.925 74.1222 199.105 74.5031C199.17 74.6391 199.228 74.7717 199.286 74.9077L199.177 74.7513C198.928 74.4656 198.277 74.0542 197.885 74.2208C197.821 74.2505 197.763 74.2933 197.717 74.3465C197.67 74.3997 197.635 74.4621 197.613 74.5297C197.592 74.5973 197.585 74.6686 197.593 74.739C197.602 74.8094 197.624 74.8773 197.661 74.9383C197.75 75.0619 197.866 75.1645 198 75.2391C198.133 75.3136 198.281 75.3583 198.434 75.3701C198.767 75.3734 199.098 75.3241 199.415 75.2239C199.47 75.3633 199.525 75.5027 199.572 75.6421C199.62 75.7815 199.637 75.8257 199.664 75.921L199.743 76.2032C199.787 76.3868 199.831 76.5738 199.872 76.7506C199.899 76.8764 199.923 76.992 199.947 77.1144C199.886 76.9784 199.76 76.7166 199.746 76.6962C199.545 76.3766 198.962 75.8733 198.55 75.9788C198.48 75.9971 198.415 76.0301 198.359 76.0755C198.303 76.1209 198.258 76.1776 198.226 76.242C198.193 76.3063 198.175 76.3768 198.172 76.4486C198.17 76.5205 198.182 76.5921 198.209 76.6588C198.278 76.7926 198.374 76.9103 198.491 77.0041C198.609 77.0979 198.745 77.1656 198.891 77.2028C199.237 77.2551 199.59 77.2551 199.937 77.2028C199.974 77.4001 200.012 77.5905 200.046 77.7741C200.155 78.4065 200.227 78.9336 200.267 79.3076C200.267 79.3722 200.267 79.43 200.288 79.4878H199.007L199.508 88.5903H201.692L202.162 79.4742H200.966L200.993 79.4198C201.157 79.0798 201.385 78.5867 201.631 77.9883C201.709 77.7979 201.787 77.5939 201.869 77.3865C202.204 77.4643 202.549 77.4907 202.891 77.4647C203.043 77.4415 203.187 77.3856 203.315 77.3011C203.443 77.2165 203.551 77.1053 203.631 76.975C203.662 76.9115 203.679 76.8421 203.682 76.7715C203.685 76.7008 203.672 76.6304 203.646 76.5647C203.62 76.4991 203.58 76.4396 203.529 76.3902C203.478 76.3409 203.418 76.3026 203.351 76.278C202.946 76.142 202.329 76.618 202.104 76.907C202.104 76.924 201.968 77.1348 201.893 77.2708C201.927 77.1858 201.958 77.1008 201.988 77.0124C202.053 76.8356 202.114 76.6724 202.179 76.4718L202.261 76.1896C202.292 76.0944 202.312 75.9924 202.339 75.8937C202.394 75.6625 202.438 75.4279 202.476 75.1899C202.792 75.3134 203.125 75.3902 203.464 75.4177C203.617 75.4171 203.769 75.383 203.908 75.3178C204.047 75.2526 204.17 75.1579 204.268 75.0403C204.309 74.9828 204.337 74.9174 204.351 74.8482C204.365 74.7791 204.364 74.7078 204.348 74.6391C204.332 74.5704 204.302 74.5058 204.26 74.4495C204.217 74.3932 204.163 74.3466 204.101 74.3126C203.719 74.1154 203.041 74.4758 202.772 74.7445C202.772 74.7615 202.585 74.9757 202.493 75.0845C202.513 74.9383 202.537 74.7955 202.554 74.6493C202.609 74.2276 202.646 73.7992 202.69 73.3742C202.69 73.2416 202.718 73.1124 202.731 72.9831C203.058 73.1123 203.403 73.1925 203.754 73.2212C203.906 73.2201 204.057 73.1857 204.196 73.1205C204.334 73.0554 204.456 72.9609 204.554 72.8437C204.595 72.7863 204.624 72.7208 204.637 72.6517C204.651 72.5825 204.65 72.5113 204.634 72.4425C204.619 72.3738 204.588 72.3092 204.546 72.2529C204.503 72.1967 204.449 72.15 204.387 72.1161C204.006 71.9223 203.328 72.2793 203.058 72.5479C203.038 72.5683 202.793 72.8879 202.718 72.9593C202.748 72.6703 202.782 72.3847 202.827 72.1025C202.885 71.7237 202.967 71.3489 203.072 70.9804C203.399 71.1117 203.743 71.1931 204.094 71.2218C204.247 71.2214 204.398 71.1877 204.536 71.1231C204.674 71.0585 204.797 70.9645 204.895 70.8478C204.936 70.7901 204.964 70.7243 204.978 70.6549C204.992 70.5855 204.991 70.514 204.975 70.445C204.96 70.376 204.929 70.3112 204.887 70.2546C204.844 70.198 204.79 70.151 204.728 70.1167C204.347 69.9229 203.668 70.2799 203.399 70.5486C203.379 70.569 203.113 70.8886 203.058 70.9668V70.8988C203.175 70.5327 203.325 70.1777 203.505 69.8379C203.6 69.6475 203.706 69.4741 203.808 69.3041C204.114 69.4657 204.443 69.5803 204.783 69.6441C204.935 69.6597 205.088 69.6422 205.233 69.5929C205.378 69.5436 205.51 69.4636 205.621 69.3585C205.668 69.3056 205.703 69.2434 205.725 69.176C205.746 69.1086 205.753 69.0374 205.745 68.9672C205.737 68.8969 205.714 68.8291 205.678 68.7682C205.642 68.7074 205.594 68.6547 205.536 68.6138C205.195 68.3792 204.466 68.6614 204.173 68.8994C204.173 68.8994 204.009 69.0593 203.9 69.1715C203.948 69.0933 203.996 69.0151 204.043 68.9437C204.224 68.6784 204.384 68.4438 204.565 68.2364C204.657 68.1208 204.742 68.0154 204.824 67.9202C205.17 67.9249 205.515 67.8756 205.846 67.774C205.989 67.7195 206.118 67.6343 206.224 67.5244C206.33 67.4145 206.41 67.2826 206.459 67.1381C206.49 67.0083 206.468 66.8716 206.399 66.7576C206.329 66.6437 206.218 66.5617 206.088 66.5295ZM201.399 77.8897C201.143 78.4779 200.905 78.9574 200.738 79.2906C200.704 79.3586 200.673 79.4198 200.642 79.4742H200.615C200.615 79.4096 200.615 79.3382 200.588 79.2566C200.533 78.8826 200.455 78.3487 200.325 77.7129C200.288 77.5123 200.24 77.298 200.192 77.0804C200.392 77.0001 200.587 76.9081 200.775 76.805C201.031 77.0264 201.316 77.2107 201.624 77.3525C201.549 77.5395 201.47 77.7095 201.399 77.8897Z" fill="#263238"/>
<path d="M203.856 69.2361C203.856 69.2361 203.992 68.7397 203.996 68.7057C204.05 68.3316 203.931 67.5734 203.546 67.3898C203.482 67.361 203.412 67.3462 203.342 67.3461C203.271 67.346 203.202 67.3607 203.137 67.3892C203.073 67.4178 203.015 67.4595 202.968 67.5118C202.921 67.564 202.886 67.6255 202.864 67.6924C202.829 67.8413 202.827 67.9961 202.858 68.1459C202.889 68.2957 202.953 68.4369 203.045 68.5594C203.28 68.8235 203.554 69.0515 203.856 69.2361Z" fill="#263238"/>
<path d="M36.2565 70.0318C36.5899 70.1187 36.9345 70.1553 37.2788 70.1406C37.2788 70.1406 37.1254 69.6781 37.1118 69.6475C36.9551 69.3245 36.4609 68.7873 36.0588 68.8383C35.9924 68.8497 35.9292 68.8748 35.8731 68.912C35.817 68.9492 35.7693 68.9977 35.733 69.0543C35.6968 69.111 35.6728 69.1745 35.6626 69.241C35.6524 69.3074 35.6562 69.3752 35.6738 69.4401C35.7239 69.574 35.8017 69.6958 35.9021 69.7977C36.0025 69.8996 36.1232 69.9794 36.2565 70.0318Z" fill="#263238"/>
<path d="M45.5766 67.6142C45.1711 67.5734 44.694 68.1242 44.5543 68.454C44.5543 68.4812 44.3942 68.9505 44.401 68.9505L44.159 69.2327C44.0023 69.4265 43.8182 69.6475 43.6479 69.9127C43.4564 70.1828 43.2801 70.4631 43.1197 70.7526C42.9389 71.0782 42.7884 71.4197 42.6698 71.7727C42.6698 71.6536 42.6698 71.3238 42.6698 71.2966C42.6221 70.9396 42.3291 70.2765 41.9235 70.2017C41.8571 70.1911 41.7893 70.1946 41.7243 70.2121C41.6594 70.2295 41.5989 70.2604 41.5467 70.3027C41.4946 70.3451 41.4521 70.398 41.4219 70.458C41.3916 70.5179 41.3745 70.5835 41.3715 70.6506C41.3764 70.7959 41.4135 70.9383 41.4801 71.0676C41.5467 71.1969 41.6411 71.31 41.7566 71.3986C42.0355 71.5827 42.3412 71.7227 42.663 71.8135C42.5505 72.1734 42.4617 72.5402 42.3972 72.9117C42.3597 73.1294 42.3257 73.347 42.2984 73.568C42.2984 73.466 42.2984 73.3742 42.2984 73.3606C42.2507 73.0035 41.9576 72.3405 41.5521 72.2657C41.4857 72.2551 41.4178 72.2586 41.3529 72.276C41.2879 72.2934 41.2274 72.3243 41.1753 72.3667C41.1232 72.4091 41.0806 72.462 41.0504 72.5219C41.0202 72.5819 41.003 72.6475 41 72.7145C41.0055 72.8597 41.0428 73.002 41.1093 73.1312C41.1758 73.2605 41.27 73.3736 41.3851 73.4626C41.6561 73.6417 41.9524 73.7793 42.2643 73.8706L42.2336 74.1222C42.1859 74.5268 42.1382 74.9349 42.0803 75.3293C42.0599 75.4687 42.036 75.6047 42.0087 75.7441C42.0087 75.6523 42.0087 75.5741 42.0087 75.5639C41.961 75.2239 41.668 74.5439 41.2624 74.4656C41.1959 74.4556 41.1279 74.4596 41.0629 74.4774C40.998 74.4952 40.9376 74.5265 40.8855 74.5691C40.8334 74.6117 40.791 74.6648 40.7608 74.7249C40.7306 74.785 40.7134 74.8507 40.7104 74.9179C40.7176 75.0627 40.7557 75.2044 40.8221 75.3333C40.8885 75.4623 40.9817 75.5757 41.0955 75.6659C41.3581 75.8422 41.6467 75.9764 41.9508 76.0638C41.9201 76.2032 41.8929 76.3426 41.8554 76.4752C41.8179 76.6078 41.8111 76.6554 41.7804 76.7472C41.7497 76.839 41.7225 76.924 41.6952 77.0124C41.6339 77.179 41.5725 77.3525 41.5078 77.5123C41.4431 77.6721 41.4226 77.7333 41.3783 77.8523C41.4022 77.7129 41.4362 77.4409 41.4396 77.4171C41.4335 77.1002 41.3467 76.7902 41.1875 76.516C41.1926 76.481 41.1926 76.4455 41.1875 76.4106C41.1797 76.3436 41.1578 76.279 41.1231 76.2212C41.0885 76.1633 41.0419 76.1134 40.9865 76.0748C40.9311 76.0363 40.8681 76.0099 40.8017 75.9974C40.7353 75.9849 40.667 75.9867 40.6013 76.0026C40.2095 76.108 39.9641 76.7914 39.9436 77.1518C39.9436 77.1756 39.9436 77.4069 39.9675 77.5531C39.9471 77.4681 39.93 77.3865 39.9096 77.298C39.8687 77.1246 39.821 76.958 39.7733 76.771L39.6915 76.5024C39.6676 76.414 39.6301 76.3222 39.5961 76.2304C39.5211 76.0162 39.4325 75.8087 39.3371 75.5979C39.6534 75.5302 39.9578 75.4156 40.2401 75.2579C40.3607 75.176 40.4623 75.0693 40.5381 74.945C40.6139 74.8206 40.6622 74.6815 40.6797 74.5371C40.6814 74.47 40.6689 74.4033 40.643 74.3413C40.6172 74.2794 40.5786 74.2235 40.5298 74.1773C40.481 74.1312 40.423 74.0958 40.3596 74.0734C40.2962 74.051 40.2288 74.0422 40.1617 74.0474C39.7596 74.0916 39.4086 74.7275 39.3371 75.0675C39.3371 75.0913 39.3064 75.3497 39.2962 75.4925C39.2417 75.3678 39.1837 75.242 39.1224 75.1151C38.9418 74.7547 38.7475 74.3942 38.5567 74.0338C38.4954 73.9216 38.4408 73.8128 38.3829 73.6938C38.7108 73.6287 39.0268 73.514 39.32 73.3538C39.4402 73.2722 39.5416 73.1661 39.6174 73.0423C39.6932 72.9186 39.7417 72.7802 39.7596 72.6363C39.7618 72.5689 39.7496 72.5019 39.724 72.4395C39.6984 72.3771 39.6599 72.3209 39.611 72.2743C39.5622 72.2278 39.504 72.1921 39.4403 72.1695C39.3767 72.1469 39.309 72.138 39.2417 72.1433C38.8361 72.1875 38.4885 72.8233 38.4136 73.1838C38.4136 73.2076 38.3761 73.5816 38.3727 73.6768C38.2432 73.4354 38.1205 73.1906 38.0081 72.9457C37.8542 72.6147 37.7221 72.2739 37.6128 71.9257C37.9415 71.8596 38.2585 71.745 38.5533 71.5856C38.6747 71.5054 38.777 71.3996 38.853 71.2756C38.9289 71.1517 38.9767 71.0126 38.9929 70.8682C38.9951 70.801 38.9829 70.734 38.9573 70.6718C38.9317 70.6096 38.8931 70.5535 38.8442 70.5072C38.7952 70.461 38.737 70.4256 38.6734 70.4034C38.6097 70.3812 38.5421 70.3728 38.4749 70.3786C38.0728 70.4228 37.7252 71.0586 37.6502 71.3986C37.6502 71.4258 37.6093 71.8271 37.6059 71.9019C37.6007 71.881 37.5938 71.8605 37.5855 71.8407C37.4861 71.488 37.4177 71.1273 37.381 70.7628C37.3606 70.5622 37.347 70.3718 37.3435 70.1813C37.6709 70.1518 37.9917 70.0715 38.2943 69.9433C38.4256 69.8756 38.54 69.7793 38.629 69.6616C38.7181 69.5439 38.7795 69.4078 38.8089 69.2633C38.818 69.1968 38.813 69.1292 38.7942 69.0647C38.7755 69.0003 38.7434 68.9405 38.7 68.8892C38.6567 68.838 38.603 68.7963 38.5425 68.767C38.482 68.7378 38.416 68.7215 38.3488 68.7192C37.9433 68.7192 37.5276 69.3177 37.4151 69.6611C37.4151 69.6815 37.3674 69.8753 37.3401 70.0215C37.3401 69.9365 37.3401 69.8481 37.3401 69.7665C37.3401 69.4605 37.3606 69.1817 37.3776 68.9335C37.3776 68.7906 37.4049 68.6648 37.4185 68.5458C37.6933 68.3689 37.9392 68.151 38.1478 67.8998C38.2312 67.7804 38.288 67.6446 38.3144 67.5015C38.3409 67.3584 38.3363 67.2113 38.3011 67.0701C38.2778 67.0073 38.2416 66.95 38.1949 66.9019C38.1482 66.8538 38.092 66.8159 38.0298 66.7906C37.9676 66.7653 37.9009 66.7533 37.8338 66.7551C37.7667 66.757 37.7007 66.7728 37.64 66.8015C37.2788 66.9851 37.1834 67.7094 37.2447 68.0664C37.2447 68.097 37.3844 68.5696 37.3913 68.5662C37.3913 68.6818 37.3606 68.8042 37.347 68.9368C37.3231 69.1851 37.2958 69.4639 37.289 69.7733C37.2787 70.1033 37.2867 70.4336 37.3129 70.7628C37.3408 71.1326 37.4024 71.499 37.4969 71.8577C37.4321 71.7557 37.2447 71.4836 37.2277 71.4632C36.9925 71.1912 36.3723 70.8036 36.0009 70.96C35.9395 70.9878 35.8847 71.0282 35.8401 71.0786C35.7954 71.1291 35.7621 71.1884 35.7421 71.2526C35.7221 71.3169 35.716 71.3847 35.7242 71.4514C35.7324 71.5182 35.7547 71.5825 35.7896 71.64C35.8739 71.7582 35.9833 71.8563 36.1099 71.9274C36.2366 71.9985 36.3773 72.0409 36.5223 72.0515C36.8575 72.0496 37.1905 71.9981 37.5105 71.8985C37.6146 72.2615 37.7433 72.6171 37.8956 72.9627C37.9842 73.1634 38.0762 73.364 38.175 73.5646L38.0558 73.3946C37.8172 73.1191 37.2004 72.7315 36.8256 72.8913C36.7645 72.9195 36.7101 72.9602 36.6658 73.0107C36.6215 73.0612 36.5883 73.1204 36.5684 73.1845C36.5485 73.2486 36.5423 73.3162 36.5502 73.3828C36.5581 73.4494 36.5799 73.5137 36.6143 73.5714C36.7006 73.6883 36.8109 73.7854 36.9378 73.8564C37.0647 73.9273 37.2054 73.9704 37.3504 73.9828C37.6751 73.9823 37.9979 73.933 38.3079 73.8366C38.3454 73.9114 38.3829 73.9896 38.4238 74.0644C38.6078 74.4282 38.7918 74.7921 38.9622 75.1559C39.0236 75.2817 39.0781 75.4109 39.1326 75.5401C39.0815 75.4653 39.0372 75.4007 39.027 75.3905C38.7918 75.1185 38.1716 74.7309 37.8002 74.8873C37.7388 74.915 37.684 74.9555 37.6393 75.0059C37.5947 75.0564 37.5613 75.1157 37.5414 75.1799C37.5214 75.2442 37.5153 75.3119 37.5235 75.3787C37.5317 75.4455 37.554 75.5098 37.5889 75.5673C37.6735 75.6854 37.7829 75.7837 37.9094 75.8553C38.0359 75.9269 38.1766 75.9702 38.3216 75.9822C38.638 75.9825 38.9528 75.9355 39.2553 75.8427C39.3098 75.9754 39.3609 76.108 39.4052 76.2372C39.4495 76.3664 39.47 76.4106 39.4938 76.5024C39.5177 76.5942 39.5415 76.6826 39.5688 76.7744C39.6097 76.9444 39.654 77.1144 39.6881 77.2946C39.7153 77.4103 39.7392 77.5225 39.7596 77.6347C39.7017 77.5055 39.5824 77.2572 39.5722 77.2402C39.378 76.9342 38.8259 76.4548 38.434 76.5602C38.3693 76.5791 38.3092 76.6113 38.2577 76.6547C38.2061 76.6981 38.1643 76.7518 38.1347 76.8123C38.1052 76.8728 38.0887 76.9388 38.0863 77.0061C38.0838 77.0733 38.0955 77.1403 38.1205 77.2028C38.1881 77.3312 38.2823 77.4436 38.3969 77.5327C38.5115 77.6219 38.6438 77.6856 38.785 77.7197C39.1135 77.7723 39.4482 77.7723 39.7767 77.7197C39.8142 77.9101 39.8516 78.0937 39.8789 78.2637C39.9879 78.8656 40.0527 79.3688 40.0936 79.7224C40.0936 79.787 40.0936 79.8414 40.1106 79.8958H38.8907L39.3166 88.5903H41.3953L41.8418 79.923H40.7036L40.7308 79.8686C40.8842 79.5286 41.1023 79.0798 41.334 78.5085C41.409 78.3283 41.4839 78.1345 41.5623 77.9373C41.8861 78.012 42.2193 78.0372 42.5506 78.0121C42.6945 77.9902 42.832 77.9372 42.9533 77.8567C43.0745 77.7763 43.1767 77.6703 43.2526 77.5463C43.2825 77.4859 43.2994 77.4199 43.3021 77.3525C43.3047 77.2852 43.2931 77.2181 43.2681 77.1555C43.243 77.0929 43.205 77.0364 43.1565 76.9894C43.108 76.9425 43.0502 76.9063 42.9868 76.8832C42.6051 76.754 42.0156 77.1892 41.8009 77.4817C41.8009 77.4987 41.6714 77.6993 41.6032 77.8217C41.6305 77.7401 41.6611 77.6585 41.6918 77.5769C41.7532 77.4069 41.8111 77.2368 41.8724 77.06C41.8997 76.9716 41.9235 76.8832 41.9508 76.7914C41.9781 76.6996 41.9985 76.6044 42.0258 76.5126C42.0769 76.2916 42.1178 76.0672 42.1553 75.8325C42.4561 75.9511 42.7732 76.0233 43.0958 76.0468C43.2402 76.0494 43.3835 76.0203 43.5154 75.9616C43.6473 75.9028 43.7647 75.8158 43.8591 75.7067C43.8954 75.6522 43.92 75.5908 43.9316 75.5264C43.9432 75.462 43.9414 75.3959 43.9264 75.3322C43.9114 75.2685 43.8835 75.2085 43.8444 75.1559C43.8053 75.1034 43.7558 75.0594 43.699 75.0267C43.3378 74.8431 42.6767 75.1831 42.4381 75.4381C42.4381 75.4551 42.2575 75.6591 42.1689 75.7781C42.1928 75.6421 42.2132 75.5061 42.2302 75.3667C42.2814 74.9655 42.3188 74.5575 42.3597 74.1528C42.3597 74.027 42.3836 73.9046 42.3972 73.7788C42.7076 73.9032 43.035 73.98 43.3684 74.0066C43.5138 74.0047 43.6571 73.9718 43.7887 73.9103C43.9203 73.8487 44.0373 73.7598 44.1318 73.6496C44.168 73.595 44.1927 73.5337 44.2042 73.4692C44.2158 73.4048 44.214 73.3387 44.199 73.275C44.184 73.2113 44.1561 73.1513 44.117 73.0988C44.0779 73.0463 44.0284 73.0023 43.9716 72.9695C43.6104 72.7859 42.9663 73.126 42.7107 73.381C42.6903 73.4014 42.4552 73.6938 42.4006 73.7686C42.4279 73.4966 42.4586 73.2246 42.5029 72.9593C42.5557 72.5986 42.6331 72.2419 42.7346 71.8917C43.0475 72.0154 43.3771 72.0922 43.7126 72.1195C43.8584 72.1198 44.0024 72.088 44.1343 72.0263C44.2663 71.9645 44.383 71.8744 44.4759 71.7625C44.5122 71.7079 44.5368 71.6465 44.5484 71.5821C44.56 71.5177 44.5582 71.4516 44.5432 71.3879C44.5282 71.3242 44.5003 71.2642 44.4612 71.2117C44.422 71.1591 44.3726 71.1151 44.3158 71.0824C43.9546 70.8988 43.2935 71.2388 43.0515 71.4938C43.0345 71.5142 42.7789 71.8339 42.738 71.8883C42.738 71.8679 42.738 71.8475 42.755 71.8271C42.8665 71.4756 43.0078 71.1344 43.1776 70.807C43.2696 70.6268 43.3684 70.467 43.4672 70.3004C43.7567 70.461 44.0694 70.5757 44.3942 70.6404C44.5387 70.6569 44.6851 70.6414 44.8229 70.595C44.9608 70.5486 45.0867 70.4723 45.1916 70.3718C45.236 70.3214 45.2694 70.2623 45.2895 70.1982C45.3096 70.1342 45.316 70.0667 45.3083 70C45.3005 69.9333 45.2789 69.869 45.2447 69.8112C45.2105 69.7534 45.1646 69.7034 45.1098 69.6645C44.769 69.4401 44.0875 69.7087 43.808 69.9331C43.808 69.9331 43.6513 70.0861 43.549 70.1915L43.6853 69.9773C43.8557 69.7223 44.0261 69.5013 44.1795 69.2973L44.4248 68.9981C44.7527 69.0012 45.0791 68.9542 45.3926 68.8586C45.5284 68.8067 45.651 68.7256 45.7517 68.621C45.8525 68.5164 45.9288 68.3908 45.9753 68.2534C46 68.1852 46.0089 68.1124 46.0012 68.0403C45.9936 67.9682 45.9697 67.8988 45.9313 67.8373C45.893 67.7758 45.8411 67.7237 45.7797 67.6851C45.7182 67.6464 45.6488 67.6222 45.5766 67.6142ZM41.1125 78.4167C40.8706 78.9744 40.6456 79.4368 40.4855 79.7496L40.3969 79.923H40.3696C40.3696 79.8584 40.3526 79.7904 40.3424 79.7156C40.2946 79.3756 40.2163 78.852 40.097 78.2501C40.0595 78.0563 40.0152 77.8557 39.9675 77.6449C40.158 77.5707 40.3435 77.4844 40.523 77.3865C40.7662 77.5971 41.0381 77.7722 41.3306 77.9067C41.2556 78.0835 41.1841 78.2569 41.1125 78.4167Z" fill="#263238"/>
<path d="M43.4537 70.1881C43.4537 70.1881 43.5797 69.7155 43.5866 69.6849C43.6343 69.3279 43.5218 68.607 43.1572 68.4302C43.0956 68.4031 43.0289 68.3891 42.9616 68.3892C42.8942 68.3892 42.8276 68.4033 42.766 68.4305C42.7045 68.4577 42.6492 68.4974 42.6039 68.5472C42.5586 68.5969 42.5242 68.6555 42.5029 68.7192C42.4716 68.8608 42.4709 69.0075 42.5009 69.1494C42.5308 69.2913 42.5908 69.4251 42.6767 69.5421C42.9022 69.7946 43.164 70.0123 43.4537 70.1881Z" fill="#263238"/>
<path d="M148.882 89.5321V1" stroke="#263238" stroke-linecap="round" stroke-linejoin="round"/>
<path d="M69.5194 89.5322V1.55084" stroke="#263238" stroke-linecap="round" stroke-linejoin="round"/>
<path d="M18.8566 46.0736H210.739" stroke="#263238" stroke-linecap="round" stroke-linejoin="round"/>
<path d="M16.4507 77.3457L14.6139 78.4746" stroke="#263238" stroke-width="0.5" stroke-linecap="round" stroke-linejoin="round"/>
<path d="M47.4304 58.2941L18.9213 75.8258" stroke="#263238" stroke-width="0.5" stroke-linecap="round" stroke-linejoin="round"/>
<path d="M51.1925 59.4774L28.3505 73.5238" stroke="#263238" stroke-width="0.5" stroke-linecap="round" stroke-linejoin="round"/>
<path d="M61.1704 53.3434L54.2698 57.5869" stroke="#263238" stroke-width="0.5" stroke-linecap="round" stroke-linejoin="round"/>
<path d="M157.361 76.3902L155.306 77.6551" stroke="#263238" stroke-width="0.5" stroke-linecap="round" stroke-linejoin="round"/>
<path d="M191.966 55.1115L160.118 74.6969" stroke="#263238" stroke-width="0.5" stroke-linecap="round" stroke-linejoin="round"/>
<path d="M196.168 56.4342L170.651 72.1263" stroke="#263238" stroke-width="0.5" stroke-linecap="round" stroke-linejoin="round"/>
<path d="M207.311 49.5827L199.606 54.3226" stroke="#263238" stroke-width="0.5" stroke-linecap="round" stroke-linejoin="round"/>
<path d="M143.075 97.0161H157.32V80.5963H143.075V97.0161Z" fill="white" stroke="#263238" stroke-linecap="round" stroke-linejoin="round"/>
<path d="M158.424 97.7505H142.336V82.9255H149.949L158.424 97.7505Z" fill="#D1D1D1" stroke="#263238" stroke-linecap="round" stroke-linejoin="round"/>
<path d="M138.887 98.5768H148.088C148.188 98.5982 148.291 98.5972 148.39 98.5737C148.489 98.5502 148.581 98.505 148.66 98.4412C148.739 98.3775 148.803 98.2969 148.847 98.2053C148.891 98.1137 148.914 98.0136 148.914 97.9121C148.914 97.8106 148.891 97.7104 148.847 97.6188C148.803 97.5273 148.739 97.4467 148.66 97.3829C148.581 97.3192 148.489 97.2739 148.39 97.2504C148.291 97.227 148.188 97.2259 148.088 97.2473H138.887C138.645 97.2473 138.405 97.1912 138.188 97.0835C137.97 96.9758 137.781 96.8194 137.634 96.6265C137.487 96.4335 137.387 96.2093 137.341 95.9714C137.296 95.7334 137.306 95.4882 137.371 95.2548L140.636 83.5817C140.684 83.4913 140.712 83.391 140.716 83.2884C140.721 83.1857 140.702 83.0834 140.661 82.9891C140.62 82.8948 140.558 82.811 140.48 82.744C140.402 82.6769 140.31 82.6284 140.211 82.6019C140.111 82.5755 140.007 82.572 139.906 82.5915C139.805 82.611 139.71 82.6532 139.627 82.7148C139.545 82.7763 139.477 82.8557 139.43 82.947C139.383 83.0383 139.357 83.139 139.354 83.2417L136.086 94.9148C135.966 95.3458 135.947 95.7987 136.031 96.2382C136.115 96.6776 136.3 97.0917 136.572 97.448C136.843 97.8042 137.193 98.0931 137.595 98.2919C137.997 98.4906 138.439 98.594 138.887 98.5938V98.5768Z" fill="#D1D1D1" stroke="#263238" stroke-linecap="round" stroke-linejoin="round"/>
<path d="M143.262 95.0971L145.347 94.848L142.12 67.9674L140.036 68.2165L143.262 95.0971Z" fill="white" stroke="#263238" stroke-linecap="round" stroke-linejoin="round"/>
<path d="M140.036 68.2296C140.036 68.2296 136.335 81.409 143.263 95.1086L140.036 68.2296Z" fill="#D1D1D1" stroke="#263238" stroke-linecap="round" stroke-linejoin="round"/>
<path d="M215.21 98.5156H131.05V145.874H215.21V98.5156Z" fill="#263238"/>
<path d="M215.21 98.5156H131.05V145.874H215.21V98.5156Z" fill="white" stroke="#263238" stroke-linecap="round" stroke-linejoin="round"/>
<path d="M215.21 98.5156H131.05V145.874H215.21V98.5156Z" stroke="#263238" stroke-linecap="round" stroke-linejoin="round"/>
<path d="M215.149 99.6547H131.09V100.964H215.149V99.6547Z" fill="#263238"/>
<path d="M215.827 97.7404H129.213V99.8111H215.827V97.7404Z" fill="white" stroke="#263238" stroke-linecap="round" stroke-linejoin="round"/>
<path d="M16.3825 60.5725L28.3982 60.6711C28.3982 60.6711 29.1956 60.5725 29.3932 61.1675C29.3932 61.1675 31.4787 66.4175 31.5776 68.308C31.6764 70.1986 31.1789 69.8926 31.9763 72.3713C32.7737 74.8501 35.0432 80.6951 36.345 85.4487C38.0795 91.8411 38.5328 98.628 38.6418 105.224C38.6589 106.285 39.2927 115.395 37.6433 115.395C36.2802 115.395 23.6273 117.068 23.4774 114.633C22.8708 104.942 24.6224 95.4692 21.2487 86.0437C19.9401 82.3816 18.4373 78.5156 17.3264 74.6869C16.2155 70.8582 16.0178 66.8663 15.2818 62.9561C14.7945 60.2767 16.3825 60.5725 16.3825 60.5725Z" fill="#263238" stroke="#263238" stroke-linecap="round" stroke-linejoin="round"/>
<path d="M15.2069 61.7589C15.3262 60.375 16.3826 60.5723 16.3826 60.5723L28.3983 60.6709C28.3983 60.6709 29.1957 60.5723 29.3933 61.1673C29.3933 61.1673 31.4789 66.4173 31.5777 68.3078C31.6037 68.8058 31.5889 69.305 31.5334 69.8005L31.2812 70.1916C31.2812 70.1916 30.8825 73.6598 26.1151 73.857C21.3477 74.0542 18.6692 71.8747 17.6741 69.7767C16.6791 67.6788 16.2838 64.3363 15.4898 62.3472C15.4064 62.1461 15.3119 61.9497 15.2069 61.7589Z" fill="#D1D1D1" stroke="#263238" stroke-linecap="round" stroke-linejoin="round"/>
<path d="M17.991 65.6284C18.7987 68.5254 18.3318 69.3279 19.1224 74.3126C19.913 79.2974 22.8266 84.9282 23.9546 90.0728C25.0825 95.2173 24.602 113.392 24.4385 114.194C24.3765 114.622 24.3536 115.054 24.3703 115.486C23.8319 115.286 23.4911 115.007 23.4911 114.626C22.8845 104.935 24.6361 95.4622 21.2624 86.0367C19.9539 82.3746 18.4511 78.5085 17.3401 74.6799C16.2292 70.8512 16.0316 66.8593 15.2955 62.949C14.9888 61.3067 15.4727 60.7865 15.8884 60.6301C16.7981 62.2009 17.5046 63.8804 17.991 65.6284Z" fill="#D1D1D1" stroke="#263238" stroke-linecap="round" stroke-linejoin="round"/>
<path d="M41.2113 138.798L41.2931 138.734V127.543H39.6812V120.468H45.6414V127.543H44.0295V138.914L58.2909 143.45V144.575C58.2739 144.905 58.1306 145.216 57.8906 145.443C57.6505 145.671 57.3321 145.798 57.0011 145.798C56.67 145.798 56.3516 145.671 56.1116 145.443C55.8715 145.216 55.7282 144.905 55.7112 144.575V144.415L43.7841 143.032V144.732C43.7841 145.03 43.6653 145.316 43.4538 145.528C43.2422 145.739 42.9553 145.857 42.6562 145.857C42.357 145.857 42.0701 145.739 41.8586 145.528C41.6471 145.316 41.5282 145.03 41.5282 144.732V142.994L29.1138 144.429V144.589C29.0968 144.919 28.9535 145.23 28.7135 145.457C28.4735 145.685 28.1551 145.811 27.824 145.811C27.493 145.811 27.1745 145.685 26.9345 145.457C26.6945 145.23 26.5512 144.919 26.5342 144.589V143.463L41.2113 138.798Z" fill="#263238" stroke="#263238" stroke-linecap="round" stroke-linejoin="round"/>
<path d="M23.9238 121.773H59.8857C60.6385 121.773 61.2488 121.164 61.2488 120.413V114.925C61.2488 114.174 60.6385 113.565 59.8857 113.565H23.9238C23.171 113.565 22.5607 114.174 22.5607 114.925V120.413C22.5607 121.164 23.171 121.773 23.9238 121.773Z" fill="#263238" stroke="#263238" stroke-linecap="round" stroke-linejoin="round"/>
<path d="M85.045 80.5963H70.8007V97.0161H85.045V80.5963Z" fill="white" stroke="#263238" stroke-linecap="round" stroke-linejoin="round"/>
<path d="M69.6965 97.7505H85.7811V82.9255H78.1682L69.6965 97.7505Z" fill="#D1D1D1" stroke="#263238" stroke-linecap="round" stroke-linejoin="round"/>
<path d="M89.2332 98.5768H80.0323C79.88 98.544 79.7436 98.4602 79.6457 98.3392C79.5479 98.2183 79.4945 98.0675 79.4945 97.9121C79.4945 97.7566 79.5479 97.6059 79.6457 97.4849C79.7436 97.364 79.88 97.2801 80.0323 97.2473H89.2332C89.476 97.2473 89.7155 97.1912 89.933 97.0835C90.1504 96.9758 90.34 96.8194 90.4868 96.6265C90.6337 96.4335 90.7338 96.2093 90.7794 95.9714C90.825 95.7334 90.8148 95.4882 90.7496 95.2548L87.485 83.5817C87.4362 83.4913 87.4085 83.391 87.4041 83.2884C87.3997 83.1857 87.4186 83.0834 87.4595 82.9891C87.5004 82.8948 87.5621 82.811 87.6401 82.744C87.7181 82.6769 87.8103 82.6284 87.9098 82.6019C88.0093 82.5755 88.1135 82.572 88.2146 82.5915C88.3157 82.611 88.411 82.6532 88.4934 82.7148C88.5759 82.7763 88.6432 82.8557 88.6905 82.947C88.7378 83.0383 88.7637 83.139 88.7663 83.2417L92.0309 94.9148C92.152 95.3455 92.1714 95.7984 92.0876 96.2379C92.0039 96.6774 91.8193 97.0916 91.5483 97.448C91.2772 97.8043 90.9272 98.0933 90.5255 98.2921C90.1239 98.4909 89.6815 98.5942 89.2332 98.5938V98.5768Z" fill="#D1D1D1" stroke="#263238" stroke-linecap="round" stroke-linejoin="round"/>
<path d="M88.096 68.2244L86.0117 67.9753L82.785 94.8559L84.8693 95.105L88.096 68.2244Z" fill="white" stroke="#263238" stroke-linecap="round" stroke-linejoin="round"/>
<path d="M88.0916 68.2296C88.0916 68.2296 91.7924 81.409 84.8611 95.1086L88.0916 68.2296Z" fill="#D1D1D1" stroke="#263238" stroke-linecap="round" stroke-linejoin="round"/>
<path d="M12.91 145.878H97.0709V98.519H12.91V145.878Z" fill="#263238"/>
<path d="M12.91 145.878H97.0709V98.519H12.91V145.878Z" fill="white" stroke="#263238" stroke-linecap="round" stroke-linejoin="round"/>
<path d="M12.91 145.878H97.0709V98.519H12.91V145.878Z" stroke="#263238" stroke-linecap="round" stroke-linejoin="round"/>
<path d="M12.9714 100.964L97.03 100.964V99.6546L12.9714 99.6546V100.964Z" fill="#263238"/>
<path d="M12.2932 99.811L98.9077 99.811V97.7403L12.2932 97.7403V99.811Z" fill="white" stroke="#263238" stroke-linecap="round" stroke-linejoin="round"/>
<path d="M191.704 60.5722L179.688 60.6708C179.688 60.6708 178.894 60.5722 178.693 61.1673C178.693 61.1673 176.608 66.4173 176.509 68.3078C176.41 70.1983 176.907 69.8923 176.113 72.3711C175.319 74.8499 173.046 80.6949 171.741 85.4484C170.007 91.8409 169.557 98.6278 169.444 105.224C169.427 106.285 168.794 115.394 170.446 115.394C171.809 115.394 184.459 117.067 184.609 114.633C185.219 104.942 183.464 95.4689 186.838 86.0435C188.146 82.3814 189.649 78.5153 190.763 74.6866C191.878 70.858 192.068 66.8661 192.808 62.9558C193.292 60.2764 191.704 60.5722 191.704 60.5722Z" fill="#263238" stroke="#263238" stroke-linecap="round" stroke-linejoin="round"/>
<path d="M192.879 61.7589C192.76 60.375 191.704 60.5723 191.704 60.5723L179.688 60.6709C179.688 60.6709 178.894 60.5723 178.693 61.1673C178.693 61.1673 176.608 66.4173 176.509 68.3078C176.483 68.8058 176.497 69.305 176.553 69.8005L176.809 70.1916C176.809 70.1916 177.204 73.6598 181.971 73.857C186.739 74.0542 189.421 71.8747 190.412 69.7767C191.404 67.6788 191.803 64.3363 192.597 62.3472C192.68 62.1461 192.774 61.9497 192.879 61.7589Z" fill="#D1D1D1" stroke="#263238" stroke-linecap="round" stroke-linejoin="round"/>
<path d="M190.095 65.6284C189.288 68.5254 189.772 69.3279 188.967 74.3126C188.163 79.2974 185.26 84.9282 184.132 90.0728C183.004 95.2173 183.488 113.392 183.648 114.194C183.71 114.622 183.734 115.054 183.72 115.486C184.258 115.286 184.588 115.007 184.609 114.626C185.219 104.935 183.464 95.4622 186.838 86.0367C188.146 82.3746 189.649 78.5085 190.763 74.6799C191.878 70.8512 192.068 66.8593 192.808 62.949C193.115 61.3067 192.631 60.7865 192.215 60.6301C191.299 62.1996 190.586 63.8793 190.095 65.6284Z" fill="#D1D1D1" stroke="#263238" stroke-linecap="round" stroke-linejoin="round"/>
<path d="M166.885 138.798L166.807 138.734V127.543H168.419V120.468H162.455V127.543H164.067V138.914L149.802 143.45V144.575C149.819 144.905 149.963 145.216 150.203 145.443C150.443 145.671 150.761 145.798 151.092 145.798C151.423 145.798 151.742 145.671 151.982 145.443C152.222 145.216 152.365 144.905 152.382 144.575V144.415L164.309 143.032V144.732C164.309 145.03 164.428 145.316 164.639 145.528C164.851 145.739 165.138 145.857 165.437 145.857C165.736 145.857 166.023 145.739 166.235 145.528C166.446 145.316 166.565 145.03 166.565 144.732V142.994L178.972 144.436V144.596C178.989 144.926 179.133 145.236 179.373 145.464C179.613 145.691 179.931 145.818 180.262 145.818C180.593 145.818 180.912 145.691 181.152 145.464C181.392 145.236 181.535 144.926 181.552 144.596V143.47L166.885 138.798Z" fill="#263238" stroke="#263238" stroke-linecap="round" stroke-linejoin="round"/>
<path d="M184.162 113.562H148.201C147.448 113.562 146.838 114.171 146.838 114.922V120.41C146.838 121.161 147.448 121.77 148.201 121.77H184.162C184.915 121.77 185.526 121.161 185.526 120.41V114.922C185.526 114.171 184.915 113.562 184.162 113.562Z" fill="#263238" stroke="#263238" stroke-linecap="round" stroke-linejoin="round"/>
<path d="M144.002 104.571C144.002 104.571 138.063 104.84 137.528 108.199C136.993 111.559 151.714 131.909 152.862 132.528C154.011 133.147 154.457 136.609 154.457 138.013C154.457 139.417 154.191 139.961 153.305 141.11C152.419 142.26 153.571 141.906 154.546 141.641C155.521 141.376 155.967 141.729 157.119 139.519C158.271 137.309 158.093 137.139 158.714 135.979C159.334 134.82 159.777 133.235 158.802 132.44C157.828 131.644 154.713 130.318 154.28 129.964C153.847 129.611 147.805 110.501 147.805 110.501C147.805 110.501 153.125 113.419 156.407 114.391C159.688 115.364 161.992 116.163 165.181 115.898C168.371 115.632 165.522 109.26 160.84 107.139C156.158 105.017 144.002 104.571 144.002 104.571Z" fill="white" stroke="#263238" stroke-miterlimit="10"/>
<path d="M160.85 107.152C158.066 105.894 152.672 105.228 148.742 104.891L150.007 111.657C151.85 112.589 154.484 113.834 156.417 114.405C159.695 115.381 162.002 116.176 165.192 115.911C168.381 115.646 165.546 109.274 160.85 107.152Z" fill="#949494" stroke="#263238" stroke-linecap="round" stroke-linejoin="round"/>
<path d="M158.809 132.453C158.38 132.133 157.924 131.85 157.446 131.607V132.365C157.446 133.725 155.858 137.805 155.858 137.805L154.467 138.445C154.416 139.56 154.127 140.094 153.326 141.124C152.44 142.273 153.592 141.92 154.566 141.655C155.541 141.389 155.987 141.743 157.139 139.533C158.291 137.323 158.114 137.153 158.734 135.993C159.354 134.834 159.801 133.249 158.809 132.453Z" fill="#506CA9" stroke="#263238" stroke-linecap="round" stroke-linejoin="round"/>
<path d="M165.386 78.0665C165.386 78.0665 164.135 77.4987 161.862 79.7666C159.589 82.0346 154.594 96.7679 154.934 97.7879C155.275 98.808 156.979 99.0358 157.661 98.468C158.342 97.9001 161.978 89.0527 161.978 89.0527L166.292 79.9877" fill="white"/>
<path d="M165.386 78.0665C165.386 78.0665 164.135 77.4987 161.862 79.7666C159.589 82.0346 154.594 96.7679 154.934 97.7879C155.275 98.808 156.979 99.0358 157.661 98.468C158.342 97.9001 161.978 89.0527 161.978 89.0527L166.292 79.9877" stroke="#263238" stroke-linecap="round" stroke-linejoin="round"/>
<path d="M166.292 79.9945L165.386 78.0665C165.386 78.0665 164.135 77.4987 161.862 79.7666C161.252 80.3787 160.438 81.7626 159.586 83.4695L163.259 86.3665L166.292 79.9945Z" fill="#506CA9" stroke="#263238" stroke-linecap="round" stroke-linejoin="round"/>
<path d="M163.174 83.1499C162.939 83.7449 162.724 84.3026 162.544 84.7582C161.75 86.7983 161.068 87.9306 161.409 89.4029C161.75 90.8752 163.113 93.2588 163.113 93.2588L159.024 100.631L177.197 104.711L177.654 93.83C177.654 93.83 183.106 82.497 183.218 80.6847C183.331 78.8724 180.264 78.0767 177.538 77.0566C176.198 76.535 174.834 76.081 173.449 75.6965L171.063 76.0366C171.063 76.0366 165.839 77.5089 165.386 78.0767C165.278 78.2287 165.184 78.3903 165.106 78.5595" fill="#506CA9"/>
<path d="M163.174 83.1499C162.939 83.7449 162.724 84.3026 162.544 84.7582C161.75 86.7983 161.068 87.9306 161.409 89.4029C161.75 90.8752 163.113 93.2588 163.113 93.2588L159.024 100.631L177.197 104.711L177.654 93.83C177.654 93.83 183.106 82.497 183.218 80.6847C183.331 78.8724 180.264 78.0767 177.538 77.0566C176.198 76.535 174.834 76.081 173.449 75.6965L171.063 76.0366C171.063 76.0366 165.839 77.5089 165.386 78.0767C165.278 78.2287 165.184 78.3903 165.106 78.5595" stroke="#263238" stroke-linecap="round" stroke-linejoin="round"/>
<path d="M170.416 93.9626L171.053 94.3435" stroke="#263238" stroke-linecap="round" stroke-linejoin="round"/>
<path d="M167.713 92.3441L169.441 93.3812" stroke="#263238" stroke-linecap="round" stroke-linejoin="round"/>
<path d="M159.801 101.98C159.801 101.98 157.684 99.9233 156.689 99.9233C155.694 99.9233 153.622 100.981 153.622 100.981C153.622 100.981 156.921 101.413 157.729 101.477C158.536 101.542 159.535 102.47 160.281 101.912L159.801 101.98Z" fill="white" stroke="#263238" stroke-linecap="round" stroke-linejoin="round"/>
<path d="M178.448 83.9591L174.471 97.7879L159.801 100.049L159.923 101.787C159.923 101.787 173.745 103.181 174.818 103.116C178.567 102.888 178.052 101.467 179.589 98.3558C180.206 97.1147 184.81 82.3542 184.588 81.4667C183.907 78.7465 180.612 78.1787 180.612 78.1787" fill="white"/>
<path d="M178.448 83.9591L174.471 97.7879L159.801 100.049L159.923 101.787C159.923 101.787 173.745 103.181 174.818 103.116C178.567 102.888 178.052 101.467 179.589 98.3558C180.206 97.1147 184.81 82.3542 184.588 81.4667C183.907 78.7465 180.612 78.1787 180.612 78.1787" stroke="#263238" stroke-linecap="round" stroke-linejoin="round"/>
<path d="M178.448 83.9592L177.269 88.0599C179.123 87.2725 181.153 86.9863 183.154 87.2302C184.016 84.2754 184.67 81.8068 184.582 81.4498C183.9 78.7296 180.605 78.1617 180.605 78.1617" fill="#506CA9"/>
<path d="M178.448 83.9592L177.269 88.0599C179.123 87.2725 181.153 86.9863 183.154 87.2302C184.016 84.2754 184.67 81.8068 184.582 81.4498C183.9 78.7296 180.605 78.1617 180.605 78.1617" stroke="#263238" stroke-linecap="round" stroke-linejoin="round"/>
<path d="M169.482 75.6999C169.556 76.5814 169.511 77.4689 169.349 78.3385C169.076 79.5558 167.788 83.0751 168.327 83.0751C168.865 83.0751 174.226 78.1345 174.904 77.4579C175.582 76.7812 176.396 71.8441 176.396 71.8441C176.396 71.8441 171.247 75.4279 169.482 75.6999Z" fill="white" stroke="#263238" stroke-linecap="round" stroke-linejoin="round"/>
<path d="M169.431 77.8863L173.595 75.0709L170.961 75.1525C170.495 75.4006 169.997 75.5847 169.482 75.7C169.541 76.4285 169.524 77.1613 169.431 77.8863Z" fill="#263238" stroke="#263238" stroke-linecap="round" stroke-linejoin="round"/>
<path d="M176.897 104.765C176.897 104.765 154.198 100.345 149.056 99.9878C143.914 99.6308 140.986 99.1888 141.167 101.579C141.348 103.97 151.097 132.011 151.806 133.514C151.806 133.514 151.363 137.595 150.917 138.999C150.47 140.403 148.702 142.627 148.531 143.157C148.361 143.688 153.053 142.539 154.205 141.478C155.357 140.417 155.534 138.292 157.132 136.258C158.731 134.225 158.018 133.337 157.044 132.719C156.069 132.1 154.825 130.508 154.825 130.508C154.367 129.151 154.012 127.761 153.762 126.35C153.23 123.606 151.901 110.427 151.901 110.427C151.901 110.427 157.398 115.187 163.692 115.823C169.986 116.459 173.622 115.116 176.55 112.106C179.477 109.097 176.897 104.765 176.897 104.765Z" fill="white" stroke="#263238" stroke-miterlimit="10"/>
<path d="M151.895 110.427C151.895 110.427 151.816 107.227 150.392 105.364" stroke="#263238" stroke-linecap="round" stroke-linejoin="round"/>
<path d="M157.037 132.719C156.957 132.669 156.879 132.614 156.805 132.555C156.712 132.938 156.539 133.298 156.297 133.609C155.561 134.5 154.594 138.71 153.684 139.39C152.941 139.948 151.199 139.818 150.6 139.757C149.918 141.1 148.671 142.715 148.524 143.157C148.347 143.688 153.046 142.539 154.198 141.478C155.35 140.417 155.527 138.292 157.126 136.258C158.724 134.225 158.012 133.337 157.037 132.719Z" fill="#506CA9" stroke="#263238" stroke-linecap="round" stroke-linejoin="round"/>
<path d="M151.895 110.427C151.895 110.427 157.391 115.187 163.685 115.823C169.98 116.459 173.616 115.116 176.543 112.106C179.47 109.097 176.884 104.765 176.884 104.765C176.884 104.765 154.185 100.345 149.042 99.9879C150.396 101.324 151.372 102.993 151.873 104.825C152.373 106.658 152.381 108.59 151.895 110.427Z" fill="#949494" stroke="#263238" stroke-linecap="round" stroke-linejoin="round"/>
<path d="M155.728 95.7784C155.728 95.7784 154.594 97.4786 154.481 98.723C154.369 99.9675 156.12 101.222 157.838 101.858C159.578 102.436 161.348 102.922 163.14 103.313C162.894 104.002 162.829 104.742 162.953 105.462C163.133 106.822 164.149 106.969 164.149 106.969C164.149 106.969 163.716 107.428 163.75 107.676C163.822 107.869 163.937 108.044 164.086 108.186C164.236 108.329 164.415 108.436 164.612 108.499C164.985 108.552 165.365 108.516 165.721 108.393C166.076 108.27 166.397 108.063 166.657 107.792C166.947 107.502 167.649 106.564 167.628 106.159C167.58 105.245 166.541 103.891 166.541 103.891C165.931 102.912 165.054 102.127 164.013 101.627C162.309 100.828 157.661 97.1385 157.661 97.1385L157.388 96.9447" fill="white"/>
<path d="M155.728 95.7784C155.728 95.7784 154.594 97.4786 154.481 98.723C154.369 99.9675 156.12 101.222 157.838 101.858C159.578 102.436 161.348 102.922 163.14 103.313C162.894 104.002 162.829 104.742 162.953 105.462C163.133 106.822 164.149 106.969 164.149 106.969C164.149 106.969 163.716 107.428 163.75 107.676C163.822 107.869 163.937 108.044 164.086 108.186C164.236 108.329 164.415 108.436 164.612 108.499C164.985 108.552 165.365 108.516 165.721 108.393C166.076 108.27 166.397 108.063 166.657 107.792C166.947 107.502 167.649 106.564 167.628 106.159C167.58 105.245 166.541 103.891 166.541 103.891C165.931 102.912 165.054 102.127 164.013 101.627C162.309 100.828 157.661 97.1385 157.661 97.1385L157.388 96.9447" stroke="#263238" stroke-linecap="round" stroke-linejoin="round"/>
<path d="M164.149 106.969C164.149 106.969 164.49 107.577 164.991 107.57" stroke="#263238" stroke-linecap="round" stroke-linejoin="round"/>
<path d="M167.226 67.3319C167.226 67.3319 164.101 64.2105 165.488 62.3642C166.875 60.5178 174.866 59.4774 178.454 59.9398C182.043 60.4022 182.622 72.2963 182.159 73.568C181.695 74.8397 177.528 75.7611 176.366 75.5299C175.203 75.2987 167.802 75.9923 166.064 75.0709C164.326 74.1494 163.171 72.1807 163.171 72.1807C163.171 72.1807 164.329 72.8607 165.948 71.5006C167.567 70.1405 167.226 67.3319 167.226 67.3319Z" fill="#263238" stroke="#263238" stroke-linecap="round" stroke-linejoin="round"/>
<path d="M171.278 64.7886C171.278 64.7886 167.226 65.7134 167.11 66.7539C166.994 67.7944 165.372 74.9553 166.878 75.6455C168.385 76.3358 173.244 75.8768 174.75 74.6085C175.688 73.8033 176.506 72.8691 177.18 71.8339C177.18 71.8339 177.521 72.1739 177.991 71.2592C178.461 70.3446 178.332 68.9471 178.332 68.9471C178.332 68.9471 177.057 70.7968 175.323 69.1783C173.588 67.5598 171.278 64.7886 171.278 64.7886Z" fill="white" stroke="#263238" stroke-linecap="round" stroke-linejoin="round"/>
<path d="M168.218 68.3588C168.218 68.6478 168.061 68.8859 167.877 68.8859C167.693 68.8859 167.536 68.6478 167.536 68.3588C167.536 68.0698 167.693 67.8318 167.877 67.8318C168.061 67.8318 168.218 68.0664 168.218 68.3588Z" fill="#263238"/>
<path d="M171.387 68.9504C171.387 69.2395 171.227 69.4775 171.046 69.4775C170.865 69.4775 170.705 69.2395 170.705 68.9504C170.705 68.6614 170.862 68.4234 171.046 68.4234C171.23 68.4234 171.387 68.658 171.387 68.9504Z" fill="#263238"/>
<path d="M169.226 67.893C169.226 67.893 169.049 68.9471 168.698 69.2123C168.347 69.4775 167.376 70.0896 167.287 70.6166C167.199 71.1436 169.138 71.4939 169.138 71.4939" stroke="#263238" stroke-linecap="round" stroke-linejoin="round"/>
<path d="M167.771 72.4629C167.771 72.4629 168.828 73.2517 169.881 72.5479" stroke="#263238" stroke-linecap="round" stroke-linejoin="round"/>
<path d="M170.365 67.8998C170.712 67.8064 171.079 67.8144 171.422 67.9228C171.765 68.0313 172.07 68.2357 172.3 68.5118" stroke="#263238" stroke-linecap="round" stroke-linejoin="round"/>
<path d="M168.872 67.4577C168.872 67.4577 168.432 66.8457 167.55 67.4577" stroke="#263238" stroke-linecap="round" stroke-linejoin="round"/>
<path d="M176.815 73.432C176.815 73.432 175.02 74.5643 174.263 74.7513C173.924 74.8509 173.576 74.9148 173.224 74.9417C173.224 74.9417 173.224 75.5062 176.059 75.7884C178.894 76.0706 180.973 75.4109 181.634 73.9998" fill="#263238"/>
<path d="M176.815 73.432C176.815 73.432 175.02 74.5643 174.263 74.7513C173.924 74.8509 173.576 74.9148 173.224 74.9417C173.224 74.9417 173.224 75.5062 176.059 75.7884C178.894 76.0706 180.973 75.4109 181.634 73.9998" stroke="#263238" stroke-linecap="round" stroke-linejoin="round"/>
<path d="M120.4 138.574C120.4 138.574 121.058 141.076 121.709 141.654C122.2 142.09 123.164 143.144 124.404 143.885C124.786 144.113 126.343 144.524 126.449 144.8C126.498 144.92 126.517 145.051 126.504 145.181C126.49 145.31 126.445 145.435 126.372 145.543C126.299 145.651 126.2 145.739 126.084 145.8C125.969 145.86 125.84 145.892 125.71 145.891H114.529L114.607 139.091L120.4 138.574Z" fill="#666666" stroke="#263238" stroke-linecap="round" stroke-linejoin="round"/>
<path d="M102.009 81.5246L101.896 89.8416L101.624 113.453C101.624 113.453 101.76 120.791 102.036 121.991C102.312 123.191 101.76 138.557 101.76 138.557L107.383 139.091L109.427 116.921L112.58 94.9114L114.225 117.322L114.566 139.278L120.4 138.574L120.823 121.073C120.823 121.073 122.867 104.932 122.867 99.5969V86.5094L123.266 81.8204L102.009 81.5246Z" fill="#263238" stroke="#263238" stroke-linecap="round" stroke-linejoin="round"/>
<path d="M101.76 138.574C101.76 138.574 101.102 141.076 100.451 141.654C99.9607 142.09 98.9964 143.144 97.7559 143.885C97.3743 144.113 95.8169 144.524 95.7113 144.8C95.6619 144.921 95.6431 145.052 95.6568 145.182C95.6705 145.312 95.7161 145.436 95.7896 145.544C95.8631 145.652 95.9623 145.74 96.0782 145.801C96.1942 145.861 96.3233 145.892 96.4542 145.891H107.475L107.393 139.091L101.76 138.574Z" fill="#666666" stroke="#263238" stroke-linecap="round" stroke-linejoin="round"/>
<path d="M143.161 46.9815C143.092 46.9231 143.013 46.8793 142.927 46.8529C142.841 46.8265 142.75 46.818 142.661 46.8278C142.571 46.8377 142.485 46.8658 142.407 46.9104C142.328 46.9549 142.26 47.015 142.206 47.0869L140.659 49.0828L141.556 47.2943C141.65 47.1171 141.676 46.9113 141.629 46.7162C141.581 46.5211 141.463 46.3504 141.297 46.2368C141.173 46.1555 141.029 46.1129 140.881 46.1144C140.22 46.1144 139.337 48.4232 139.337 48.4232L137.463 51.3916L136.914 50.8476C136.914 50.8476 137.793 48.9774 137.463 48.4266C137.132 47.8757 136.141 47.6581 136.141 48.4266C136.141 49.195 135.371 49.9669 135.149 50.5177C134.928 51.0686 136.253 55.3563 136.253 55.3563L129.308 63.4931C129.308 63.4931 126.442 52.9353 125.781 52.6123C125.12 52.2893 116.965 50.7422 116.965 50.7422H108.712C108.712 50.7422 100.557 52.2825 99.896 52.6123C99.2349 52.9421 96.3689 63.4931 96.3689 63.4931L89.424 55.3563C89.424 55.3563 90.7462 51.0652 90.5281 50.5177C90.31 49.9703 89.5364 49.1984 89.5364 48.4266C89.5364 47.6547 88.5448 47.8791 88.2142 48.4266C87.8837 48.974 88.7629 50.8476 88.7629 50.8476L88.2142 51.395L86.34 48.4266C86.34 48.4266 85.4574 46.1178 84.7963 46.1178C84.6485 46.1163 84.5037 46.1589 84.3805 46.2402C84.2145 46.3538 84.0963 46.5245 84.0485 46.7196C84.0007 46.9147 84.0267 47.1205 84.1215 47.2977L85.0178 49.0862L83.4673 47.0869C83.4133 47.015 83.3452 46.9549 83.2671 46.9104C83.189 46.8658 83.1025 46.8377 83.0131 46.8278C82.9236 46.818 82.8331 46.8265 82.7471 46.8529C82.6611 46.8793 82.5815 46.9231 82.5131 46.9815C82.4151 47.063 82.34 47.1686 82.2952 47.2878C82.2504 47.407 82.2374 47.5358 82.2575 47.6615C82.37 48.43 83.1844 49.9193 83.1844 49.9193C83.1844 49.9193 82.1621 51.5106 82.479 52.0614C82.8154 52.561 83.1842 53.0381 83.5831 53.4896C83.5831 53.4896 83.0311 53.9282 84.3533 55.4685C85.6755 57.0088 86.5581 57.3386 86.5581 57.3386C86.5581 57.3386 90.3066 65.693 91.8469 68.0018C93.3872 70.3106 97.3572 72.7315 97.9058 72.7315C98.4034 72.7315 101.487 68.1004 102.097 67.1755C102.159 69.0661 101.416 79.6442 101.617 80.6099C101.638 80.7056 101.666 80.7998 101.699 80.8921L101.75 82.0618C101.75 82.0618 101.75 82.667 102.598 82.9085C103.048 83.0377 108.051 83.0275 112.822 82.9935C117.592 83.0275 122.609 83.0377 123.045 82.9085C123.893 82.667 123.893 82.0618 123.893 82.0618L123.944 80.8921C123.975 80.7969 124.006 80.7017 124.026 80.6099C124.241 79.6442 123.484 69.0661 123.546 67.1755C124.156 68.1004 127.24 72.7315 127.734 72.7315C128.286 72.7315 132.252 70.314 133.796 68.0018C135.34 65.6896 139.085 57.3386 139.085 57.3386C139.085 57.3386 139.968 56.9986 141.29 55.4685C142.612 53.9384 142.06 53.4896 142.06 53.4896C142.459 53.0381 142.828 52.561 143.164 52.0614C143.505 51.5106 142.459 49.9193 142.459 49.9193C142.459 49.9193 143.273 48.43 143.382 47.6615C143.407 47.5387 143.4 47.4115 143.361 47.2923C143.323 47.1731 143.253 47.066 143.161 46.9815Z" fill="white" stroke="#263238" stroke-linecap="round" stroke-linejoin="round"/>
<path d="M135.115 56.6824L129.322 63.4829C129.322 63.4829 126.456 52.9252 125.795 52.6021C125.134 52.2791 116.979 50.732 116.979 50.732H108.712C108.712 50.732 100.557 52.2723 99.896 52.6021C99.2349 52.932 96.369 63.4829 96.369 63.4829L90.5452 56.6586C89.4786 57.7025 87.9519 58.0867 86.9705 58.2295C87.9928 60.4533 90.6167 66.1453 91.8503 67.9882C93.394 70.3004 97.3607 72.718 97.9093 72.718C98.4068 72.718 101.491 68.0868 102.101 67.162C102.162 69.0525 101.419 79.6307 101.62 80.5963C101.642 80.692 101.669 80.7863 101.702 80.8786L101.753 82.0482C101.753 82.0482 101.753 82.6535 102.602 82.8949C103.052 83.0241 108.054 83.0139 112.825 82.9799C117.596 83.0139 122.612 83.0241 123.048 82.8949C123.897 82.6535 123.897 82.0482 123.897 82.0482L123.948 80.8786C123.979 80.7833 124.009 80.6881 124.03 80.5963C124.244 79.6307 123.488 69.0525 123.549 67.162C124.159 68.0868 127.243 72.718 127.737 72.718C128.289 72.718 132.256 70.3004 133.8 67.9882C134.87 66.3901 136.993 61.895 138.199 59.2768C136.434 58.8008 135.381 57.1483 135.115 56.6824Z" fill="white" stroke="#263238" stroke-linecap="round" stroke-linejoin="round"/>
<path d="M102.101 67.1687L101.716 60.4193L100.642 69.1477L102.101 67.1687Z" fill="#263238" stroke="#263238" stroke-linecap="round" stroke-linejoin="round"/>
<path d="M123.576 67.1687L123.525 60.8069L124.851 68.8077L123.576 67.1687Z" fill="#263238" stroke="#263238" stroke-linecap="round" stroke-linejoin="round"/>
<path d="M135.115 56.6824L133.561 58.5049C133.851 59.61 134.692 61.2251 137.112 61.6705C137.521 60.8035 137.906 59.9704 138.226 59.2904C136.434 58.8007 135.381 57.1482 135.115 56.6824Z" fill="white" stroke="#263238" stroke-linecap="round" stroke-linejoin="round"/>
<path d="M82.813 50.4022C82.813 50.4022 84.5782 48.6442 85.2393 49.5249C85.9004 50.4056 84.2476 51.7215 84.2476 51.7215L84.9088 52.4933" fill="white"/>
<path d="M82.813 50.4022C82.813 50.4022 84.5782 48.6442 85.2393 49.5249C85.9004 50.4056 84.2476 51.7215 84.2476 51.7215L84.9088 52.4933" stroke="#263238" stroke-linecap="round" stroke-linejoin="round"/>
<path d="M83.5865 53.4828C83.5865 53.4828 84.9087 51.9425 85.7879 52.1635C86.6671 52.3845 85.3483 54.1424 85.3483 54.1424C85.8197 54.1364 86.2857 54.2432 86.7073 54.4538C87.1288 54.6644 87.4937 54.9727 87.7712 55.3529" fill="white"/>
<path d="M83.5865 53.4828C83.5865 53.4828 84.9087 51.9425 85.7879 52.1635C86.6671 52.3845 85.3483 54.1424 85.3483 54.1424C85.8197 54.1364 86.2857 54.2432 86.7073 54.4538C87.1288 54.6644 87.4937 54.9727 87.7712 55.3529" stroke="#263238" stroke-linecap="round" stroke-linejoin="round"/>
<path d="M142.864 50.4022C142.864 50.4022 141.099 48.6442 140.438 49.5249C139.777 50.4056 141.429 51.7215 141.429 51.7215L140.768 52.4933" fill="white"/>
<path d="M142.864 50.4022C142.864 50.4022 141.099 48.6442 140.438 49.5249C139.777 50.4056 141.429 51.7215 141.429 51.7215L140.768 52.4933" stroke="#263238" stroke-linecap="round" stroke-linejoin="round"/>
<path d="M142.08 53.4828C142.08 53.4828 140.758 51.9425 139.879 52.1635C139 52.3845 140.319 54.1424 140.319 54.1424C139.847 54.1364 139.381 54.2432 138.96 54.4538C138.538 54.6644 138.173 54.9727 137.896 55.3529" fill="white"/>
<path d="M142.08 53.4828C142.08 53.4828 140.758 51.9425 139.879 52.1635C139 52.3845 140.319 54.1424 140.319 54.1424C139.847 54.1364 139.381 54.2432 138.96 54.4538C138.538 54.6644 138.173 54.9727 137.896 55.3529" stroke="#263238" stroke-linecap="round" stroke-linejoin="round"/>
<path d="M87.8394 60.1269C88.8856 60.0112 90.2828 59.5386 91.8435 58.1853L90.5452 56.6654C89.4786 57.7093 87.9519 58.0935 86.9705 58.2363C87.192 58.726 87.4952 59.3788 87.8394 60.1269Z" fill="white" stroke="#263238" stroke-linecap="round" stroke-linejoin="round"/>
<path d="M111.915 56.0398L114.369 59.134L111.956 79.0118L115.313 82.2352L118.063 79.1274L115.401 59.2598L117.858 54.8769L113.854 52.2995L111.915 56.0398Z" fill="#506CA9" stroke="#263238" stroke-linecap="round" stroke-linejoin="round"/>
<path d="M110.528 48.2056L109.206 48.8653L107.72 51.3372L110.364 58.2669L114.91 55.3801L119.787 58.5117C119.787 58.5117 119.787 51.4222 119.371 50.596C118.955 49.7697 117.306 48.039 117.306 48.039L110.528 48.2056Z" fill="white" stroke="#263238" stroke-linecap="round" stroke-linejoin="round"/>
<path d="M109.983 45.0433L110.446 50.1029C110.446 50.1029 113.421 55.2951 114.495 55.7915C115.568 56.2879 117.306 51.5038 117.637 50.7625C117.967 50.0213 118.131 47.5459 118.131 47.5459C118.131 47.5459 115.156 47.4609 113.67 46.4714C112.184 45.482 110.116 44.4109 110.116 44.4109L109.983 45.0433Z" fill="white" stroke="#263238" stroke-linecap="round" stroke-linejoin="round"/>
<path d="M110.116 44.4109L109.983 45.0433L110.446 50.1029C110.446 50.1029 110.593 50.3613 110.835 50.7659C113.299 50.4556 115.712 49.8199 118.008 48.8754C118.09 48.1648 118.131 47.5459 118.131 47.5459C118.131 47.5459 115.156 47.4609 113.67 46.4714C112.184 45.482 110.116 44.4109 110.116 44.4109Z" fill="#263238" stroke="#263238" stroke-linecap="round" stroke-linejoin="round"/>
<path d="M109.666 39.8342C109.666 39.8342 109.189 38.4741 108.006 39.2051C106.824 39.9362 107.161 41.4459 107.666 42.1634C108.099 42.8182 108.742 43.3081 109.489 43.5541C109.98 43.6527 109.666 39.8342 109.666 39.8342Z" fill="white" stroke="#263238" stroke-linecap="round" stroke-linejoin="round"/>
<path d="M110.906 30.997C110.906 30.997 108.133 31.4084 107.928 33.9688C107.724 36.5292 109.158 43.1971 109.973 45.0434C110.787 46.8897 111.513 47.3998 113.156 48.6307C114.798 49.8615 117.984 49.2461 118.809 48.5286C119.634 47.8112 120.554 45.8629 120.762 42.4796C120.942 40.1606 120.976 37.8325 120.864 35.5091C120.762 33.469 119.32 31.8164 119.32 31.8164C119.32 31.8164 119.732 30.4836 117.371 29.9735C115.009 29.4635 112.242 30.4836 110.906 30.997Z" fill="white" stroke="#263238" stroke-linecap="round" stroke-linejoin="round"/>
<path d="M119.947 45.0434V44.7272C119.947 44.4211 118.611 43.3943 117.381 43.1903C116.151 42.9862 114.314 43.4997 113.578 43.9077C112.842 44.3157 112.655 45.3426 112.655 45.3426C112.376 45.3347 112.103 45.2664 111.855 45.1425C111.606 45.0186 111.387 44.842 111.213 44.6252C110.702 43.9077 109.983 39.399 110.191 39.0896C110.399 38.7801 111.527 37.3452 111.424 36.8352C111.322 36.3252 110.808 36.1177 110.705 35.2949C110.603 34.472 112.041 33.656 112.041 33.656C112.965 32.9385 115.224 33.86 116.662 33.758C117.472 33.7216 118.256 33.4627 118.928 33.0099L119.583 33.69L119.923 34.71C120.089 34.9742 120.285 35.2174 120.509 35.4343C120.83 35.7505 120.707 35.6009 120.888 35.8661C120.888 35.7369 120.888 35.6077 120.871 35.4785C120.768 33.4384 119.327 31.7858 119.327 31.7858C119.327 31.7858 119.739 30.4529 117.378 29.9429C115.016 29.4329 112.239 30.4529 110.903 30.963C110.903 30.963 108.129 31.3744 107.925 33.9348C107.72 36.4952 109.155 43.1631 109.969 45.0094C110.784 46.8557 111.51 47.3658 113.152 48.5966C114.795 49.8275 117.981 49.2121 118.806 48.4946C119.422 47.954 120.1 46.7163 120.486 44.6898L119.947 45.0434Z" fill="#D1D1D1" stroke="#263238" stroke-linecap="round" stroke-linejoin="round"/>
<path d="M117.885 38.4809L118.373 38.0626C118.373 38.0626 119.201 37.3826 120.523 38.4027" stroke="#263238" stroke-width="2" stroke-linecap="round" stroke-linejoin="round"/>
<path d="M115.428 42.3776C115.428 42.3776 115.735 43.095 116.352 43.095C116.909 43.0533 117.46 42.9507 117.994 42.789L117.79 39.0963L117.892 38.4809" stroke="#263238" stroke-linecap="round" stroke-linejoin="round"/>
<path d="M114.904 44.3871C114.904 44.3871 115.422 45.567 116.09 45.6724C116.757 45.7778 117.224 44.7985 117.224 44.7985C116.433 44.7914 115.649 44.6524 114.904 44.3871Z" fill="#263238" stroke="#263238" stroke-linecap="round" stroke-linejoin="round"/>
<path d="M117.79 44.7272C117.79 44.7272 115.885 44.8904 114.542 44.0675" stroke="#263238" stroke-linecap="round" stroke-linejoin="round"/>
<path d="M115.565 39.4465C115.565 39.8342 115.36 40.147 115.112 40.147C114.863 40.147 114.655 39.8342 114.655 39.4465C114.655 39.0589 114.859 38.7461 115.112 38.7461C115.364 38.7461 115.565 39.0589 115.565 39.4465Z" fill="#263238"/>
<path d="M119.947 39.4465C119.947 39.8342 119.743 40.147 119.49 40.147C119.238 40.147 119.037 39.8342 119.037 39.4465C119.037 39.0589 119.242 38.7461 119.49 38.7461C119.739 38.7461 119.947 39.0589 119.947 39.4465Z" fill="#263238"/>
<path d="M113.009 38.3925C113.821 37.9677 114.759 37.8471 115.653 38.0525" stroke="#263238" stroke-width="2" stroke-linecap="round" stroke-linejoin="round"/>
<path d="M61.61 126.989C61.61 126.989 59.8482 140.716 59.5176 142.032C59.1871 143.348 59.4086 145.561 59.4086 145.561C60.3496 145.777 61.3052 145.923 62.2677 146H64.4691C64.4691 146 65.8322 145.66 66.1729 145.541C66.5137 145.422 67.6042 145.653 68.923 145.653C70.2418 145.653 74.757 145.762 75.3057 145.432C75.8543 145.102 75.8066 143.79 74.4878 142.692C73.169 141.593 69.8465 141.07 69.4069 140.519L68.9673 139.971L68.0847 138.435C68.0847 138.435 69.2058 136.214 68.9843 135.007C68.7628 133.8 68.3266 131.712 68.3266 131.267C68.3266 130.821 69.0968 127.425 69.4273 126.874C69.7579 126.323 68.9843 121.386 66.2343 121.165C63.4842 120.944 61.719 123.477 61.61 126.989Z" fill="#263238" stroke="#263238" stroke-linecap="round" stroke-linejoin="round"/>
<path d="M73.2747 140.825C73.2747 140.825 75.2546 142.141 75.9157 142.362C76.5768 142.583 79.9845 143.681 80.4275 144.229C80.8705 144.776 80.9762 145.874 80.9762 145.874H65.0211C65.0211 145.874 64.251 145.657 64.4691 143.899C64.6872 142.141 71.5129 139.835 73.2747 140.825Z" fill="#666666" stroke="#263238" stroke-linecap="round" stroke-linejoin="round"/>
<path d="M58.7475 82.6331C58.7475 82.6331 57.6468 89.7736 58.5294 92.5142C59.0432 94.1441 59.906 95.643 61.0579 96.9073C61.0579 96.9073 62.6016 113.487 62.6016 116.01C62.6016 118.533 61.0579 122.049 61.2794 125.782C61.5009 129.516 63.6989 140.495 63.6989 141.923V144.12L64.6906 144.997C64.6906 144.997 70.6337 141.937 71.0733 141.597C71.7555 141.212 72.5009 140.952 73.2747 140.828C73.6154 140.828 73.4928 140.488 73.2747 139.621C73.0566 138.754 71.7344 137.863 71.5129 136.765C71.2914 135.667 71.5129 131.716 71.6219 130.726C71.731 129.737 73.6052 122.052 73.9324 117.88C74.2595 113.708 75.5851 105.364 75.5851 101.304V89.2227L75.6942 83.6225L58.7475 82.6331Z" fill="#263238" stroke="#263238" stroke-linecap="round" stroke-linejoin="round"/>
<path d="M61.1397 50.5076C61.1397 50.5076 57.197 55.4039 56.3314 58.8586C55.4658 62.3132 56.7165 69.6033 56.9107 70.2766C57.105 70.9498 57.7763 76.7064 57.7763 79.4878C57.7763 82.2692 57.9671 83.5171 59.1223 83.8061C60.2776 84.0952 71.2402 85.5335 73.2576 85.4383C75.275 85.3431 77.105 84.3808 77.5855 83.4219C78.066 82.463 77.105 74.4963 76.3348 69.9876C75.5647 65.4788 73.9494 59.5284 73.5473 57.7059C73.1452 55.8833 70.1804 53.2856 69.7988 52.8129C69.4171 52.3403 61.7224 49.9329 61.7224 49.9329L61.1397 50.5076Z" fill="white" stroke="#263238" stroke-linecap="round" stroke-linejoin="round"/>
<path d="M71.932 31.2758C73.5843 32.162 74.9709 33.4704 75.9497 35.067C77.3946 37.369 75.9497 39.7696 75.8543 40.7284C75.7589 41.6873 76.5359 42.6462 77.105 43.1086C77.6741 43.571 77.2958 44.2613 76.7199 44.5503C76.4541 44.7037 76.1594 44.801 75.8543 44.8359C75.8543 44.8359 75.0842 48.3858 74.6991 49.059C74.314 49.7323 73.1622 50.0179 72.3921 50.0179C71.6219 50.0179 69.9896 49.8275 69.9896 49.8275L69.4103 53.2821L62.2949 49.7323L62.5846 46.7571C62.5846 46.7571 59.6982 42.0545 59.3132 37.9164C58.7304 31.677 67.1476 28.7732 71.932 31.2758Z" fill="#D1D1D1" stroke="#263238" stroke-linecap="round" stroke-linejoin="round"/>
<path d="M69.9896 49.8445L68.4119 48.8312L69.5875 51.31L69.9896 49.8445Z" fill="#263238" stroke="#263238" stroke-linecap="round" stroke-linejoin="round"/>
<path d="M74.9105 45.8662C74.9105 45.8662 73.9086 45.618 73.5474 45.1147" stroke="#263238" stroke-linecap="round" stroke-linejoin="round"/>
<path d="M74.1334 32.8501C73.474 32.2287 72.7335 31.6992 71.932 31.2757C67.1612 28.7732 58.7304 31.677 59.3234 37.9436C59.6369 41.3031 61.6032 45.0399 62.329 46.3184C62.772 46.3728 63.3513 46.247 64.326 46.0056C65.8628 45.6214 66.4387 43.7988 66.4387 43.7988L67.1203 42.0715C67.1203 42.0715 68.0813 42.0715 68.3709 41.3031C68.6606 40.5346 67.8904 39.2867 68.8514 38.6169C69.8124 37.947 71.3527 38.4265 71.0631 36.6991C70.8075 35.2608 71.4311 33.1017 74.1334 32.8501Z" fill="#263238" stroke="#263238" stroke-linecap="round" stroke-linejoin="round"/>
<path d="M68.0643 42.347C68.0643 42.347 67.4883 40.521 65.9481 41.2895C64.4078 42.0579 65.4676 43.8805 66.1423 45.1284C66.817 46.3762 68.3539 45.8968 68.3539 45.8968" fill="#D1D1D1"/>
<path d="M68.0643 42.347C68.0643 42.347 67.4883 40.521 65.9481 41.2895C64.4078 42.0579 65.4676 43.8805 66.1423 45.1284C66.817 46.3762 68.3539 45.8968 68.3539 45.8968" stroke="#263238" stroke-linecap="round" stroke-linejoin="round"/>
<path d="M74.8934 40.9189C74.8934 41.2895 74.7639 41.5989 74.6038 41.5989C74.4436 41.5989 74.3175 41.2963 74.3175 40.9189C74.3175 40.5415 74.4436 40.2388 74.6038 40.2388C74.7639 40.2388 74.8934 40.5483 74.8934 40.9189Z" fill="#263238"/>
<path d="M73.353 39.3854C73.353 39.3854 74.3174 38.2327 75.4692 38.8073" stroke="#263238" stroke-linecap="round" stroke-linejoin="round"/>
<path d="M73.0566 57.7807L75.442 81.5654L78.8054 83.0479L78.6078 79.8891L74.0584 58.2737C74.0584 58.2737 72.9577 56.101 73.0566 57.7807Z" fill="#506CA9" stroke="#263238" stroke-linecap="round" stroke-linejoin="round"/>
<path d="M68.705 54.2274L73.0566 57.7807C73.0566 57.7807 73.5508 56.2029 73.1555 55.1149C72.7602 54.0268 69.7954 52.8197 69.7954 52.8197L68.705 54.2274Z" fill="#506CA9" stroke="#263238" stroke-linecap="round" stroke-linejoin="round"/>
<path d="M61.8145 48.5966L70.4702 52.5307L69.1991 56.203L61.1398 50.5144L61.8145 48.5966Z" fill="white" stroke="#263238" stroke-linecap="round" stroke-linejoin="round"/>
<path d="M78.4647 62.5886C78.4647 62.5886 80.9489 62.5682 82.186 63.8875C83.423 65.2068 83.9205 66.1929 83.5899 67.4272C83.2594 68.6615 82.3529 68.9097 81.7736 69.0729C81.1943 69.2361 80.3696 69.3211 78.4715 66.6043C76.5734 63.8875 76.9721 62.694 78.4647 62.5886Z" fill="white" stroke="#263238" stroke-linecap="round" stroke-linejoin="round"/>
<path d="M60.373 55.7915C59.4497 57.266 58.9195 58.9514 58.8327 60.6879C58.7372 63.4693 59.4086 64.5267 60.2741 64.8124C61.1397 65.098 68.8344 70.7628 71.046 71.8169C73.2576 72.8709 78.3215 75.7033 79.7664 74.8397C81.2113 73.976 83.0344 73.2076 83.0344 70.7118C83.0344 68.216 81.5929 66.6825 80.7274 65.7236C79.8618 64.7648 74.5934 61.6433 72.968 60.0146C71.3425 58.3859 67.9688 55.6963 67.3929 55.5943" fill="white"/>
<path d="M60.373 55.7915C59.4497 57.266 58.9195 58.9514 58.8327 60.6879C58.7372 63.4693 59.4086 64.5267 60.2741 64.8124C61.1397 65.098 68.8344 70.7628 71.046 71.8169C73.2576 72.8709 78.3215 75.7033 79.7664 74.8397C81.2113 73.976 83.0344 73.2076 83.0344 70.7118C83.0344 68.216 81.5929 66.6825 80.7274 65.7236C79.8618 64.7648 74.5934 61.6433 72.968 60.0146C71.3425 58.3859 67.9688 55.6963 67.3929 55.5943" stroke="#263238" stroke-linecap="round" stroke-linejoin="round"/>
<path d="M78.4647 62.5886C78.4647 62.5886 77.7831 61.7929 77.3469 61.8473C76.9107 61.9017 76.3893 63.9691 76.8698 64.5675C77.3503 65.166 77.9331 65.1524 78.0387 64.6219C78.1443 64.0915 78.5703 63.3842 78.4647 62.5886Z" fill="#D1D1D1" stroke="#263238" stroke-linecap="round" stroke-linejoin="round"/>
<path d="M79.4768 63.3333C79.4768 63.3333 79.0168 62.8028 78.7305 62.8368C78.4443 62.8708 78.0933 64.2513 78.4136 64.639C78.7339 65.0266 79.1224 65.03 79.194 64.6764C79.2655 64.3227 79.545 63.8637 79.4768 63.3333Z" fill="#D1D1D1" stroke="#263238" stroke-linecap="round" stroke-linejoin="round"/>
<path d="M77.0266 61.4733C77.0266 61.4733 76.3451 60.6777 75.9123 60.7321C75.4795 60.7865 74.9547 62.8539 75.4318 63.4523C75.9089 64.0507 76.495 64.0371 76.6041 63.5067C76.7131 62.9763 77.1357 62.2724 77.0266 61.4733Z" fill="#D1D1D1" stroke="#263238" stroke-linecap="round" stroke-linejoin="round"/>
<path d="M75.6465 60.2527C75.6465 60.2527 74.9649 59.457 74.5287 59.5114C74.0925 59.5658 73.5711 61.6331 74.0482 62.2316C74.5253 62.83 75.1114 62.8164 75.2205 62.286C75.3295 61.7556 75.7521 61.0483 75.6465 60.2527Z" fill="#D1D1D1" stroke="#263238" stroke-linecap="round" stroke-linejoin="round"/>
<path d="M63.4809 66.9341C63.4809 66.9341 60.4139 66.9341 58.86 66.1656L63.4809 66.9341Z" fill="white"/>
<path d="M63.4809 66.9341C63.4809 66.9341 60.4139 66.9341 58.86 66.1656" stroke="#263238" stroke-linecap="round" stroke-linejoin="round"/>
<path d="M57.9842 25.1281V30.5107H29.3865V9.31018H31.6151" stroke="#263238" stroke-linecap="round" stroke-linejoin="round"/>
<path d="M33.9938 9.31018H57.9843V23.547" stroke="#263238" stroke-linecap="round" stroke-linejoin="round"/>
<path d="M57.9842 26.2264H29.3865V30.5107H57.9842V26.2264Z" stroke="#263238" stroke-linecap="round" stroke-linejoin="round"/>
<path d="M55.9566 27.6035H31.4175V29.1336H55.9566V27.6035Z" stroke="#263238" stroke-linecap="round" stroke-linejoin="round"/>
<path d="M49.1411 18.2426L39.8721 12.9042V23.5844L49.1411 18.2426Z" stroke="#263238" stroke-linecap="round" stroke-linejoin="round"/>
<path d="M178.158 8.82397C180.23 10.0637 181.941 11.8219 183.123 13.9243" stroke="#263238" stroke-linecap="round" stroke-linejoin="round"/>
<path d="M160.141 29.0112C158.286 26.5943 157.287 23.6317 157.299 20.5874C157.312 17.543 158.336 14.5888 160.211 12.1872C162.086 9.78556 164.706 8.0722 167.662 7.31534C170.617 6.55848 173.74 6.80086 176.543 8.00451" stroke="#263238" stroke-linecap="round" stroke-linejoin="round"/>
<path d="M163.266 31.9626C162.72 31.5883 162.202 31.1747 161.716 30.7249" stroke="#263238" stroke-linecap="round" stroke-linejoin="round"/>
<path d="M184.861 20.123C184.861 20.293 184.861 20.463 184.861 20.633C184.859 22.9957 184.247 25.318 183.085 27.3762C181.922 29.4344 180.248 31.1592 178.223 32.3844C176.198 33.6095 173.892 34.2938 171.525 34.3712C169.159 34.4486 166.812 33.9165 164.711 32.8263" stroke="#263238" stroke-linecap="round" stroke-linejoin="round"/>
<path d="M161.205 20.0312C161.307 18.272 161.881 16.5727 162.868 15.111" stroke="#263238" stroke-linecap="round" stroke-linejoin="round"/>
<path d="M164.084 13.6489C165.675 12.0645 167.759 11.0683 169.993 10.8247C172.227 10.581 174.478 11.1045 176.373 12.3087C178.269 13.5129 179.697 15.3259 180.422 17.4487C181.146 19.5715 181.124 21.8772 180.358 23.9856C179.593 26.094 178.13 27.879 176.211 29.0464C174.292 30.2137 172.032 30.6935 169.803 30.4068C167.574 30.12 165.509 29.0837 163.95 27.4688C162.391 25.854 161.43 23.757 161.225 21.5239" stroke="#263238" stroke-linecap="round" stroke-linejoin="round"/>
<path d="M175.084 24.6249C174.081 25.6259 172.738 26.2145 171.321 26.2738C169.903 26.3331 168.515 25.859 167.432 24.9453C166.349 24.0316 165.649 22.7451 165.471 21.3408C165.294 19.9364 165.651 18.5168 166.474 17.3633C167.296 16.2098 168.522 15.4065 169.91 15.1128C171.297 14.8191 172.745 15.0563 173.966 15.7775C175.186 16.4986 176.091 17.6511 176.5 19.0064C176.909 20.3617 176.793 21.8209 176.175 23.0948" stroke="#263238" stroke-linecap="round" stroke-linejoin="round"/>
<path d="M171.084 23.1016C172.45 23.1016 173.558 21.9964 173.558 20.633C173.558 19.2696 172.45 18.1644 171.084 18.1644C169.717 18.1644 168.61 19.2696 168.61 20.633C168.61 21.9964 169.717 23.1016 171.084 23.1016Z" stroke="#263238" stroke-linecap="round" stroke-linejoin="round"/>
<path d="M182.169 17.2294L185.158 19.1811L191.237 17.4232L190.48 14.8254L182.169 17.2294Z" stroke="#263238" stroke-linecap="round" stroke-linejoin="round"/>
<path d="M182.118 17.0525L183.597 13.8087L189.673 12.0474L190.429 14.6486L182.118 17.0525Z" stroke="#263238" stroke-linecap="round" stroke-linejoin="round"/>
<path d="M190.532 14.703L171.714 20.1502" stroke="#263238" stroke-width="2" stroke-linecap="round" stroke-linejoin="round"/>
<path d="M99.5246 17.2056H95.6807V25.6824H99.5246V17.2056Z" stroke="#263238" stroke-linecap="round" stroke-linejoin="round"/>
<path d="M104.783 12.3636H100.939V25.6824H104.783V12.3636Z" stroke="#263238" stroke-linecap="round" stroke-linejoin="round"/>
<path d="M110.041 14.5806H106.197V25.679H110.041V14.5806Z" stroke="#263238" stroke-linecap="round" stroke-linejoin="round"/>
<path d="M115.299 9.33398H111.455V25.679H115.299V9.33398Z" stroke="#263238" stroke-linecap="round" stroke-linejoin="round"/>
<path d="M120.557 7.117H116.713V25.6823H120.557V7.117Z" stroke="#263238" stroke-linecap="round" stroke-linejoin="round"/>
<path d="M94.9991 25.6415H93.4622" stroke="#263238" stroke-linecap="round" stroke-linejoin="round"/>
<path d="M123.041 25.6415H121.504" stroke="#263238" stroke-linecap="round" stroke-linejoin="round"/>
<path d="M94.9991 23.819H93.4622" stroke="#263238" stroke-linecap="round" stroke-linejoin="round"/>
<path d="M123.041 23.819H121.504" stroke="#263238" stroke-linecap="round" stroke-linejoin="round"/>
<path d="M94.9991 21.9999H93.4622" stroke="#263238" stroke-linecap="round" stroke-linejoin="round"/>
<path d="M123.041 21.9999H121.504" stroke="#263238" stroke-linecap="round" stroke-linejoin="round"/>
<path d="M94.9991 20.1774H93.4622" stroke="#263238" stroke-linecap="round" stroke-linejoin="round"/>
<path d="M123.041 20.1774H121.504" stroke="#263238" stroke-linecap="round" stroke-linejoin="round"/>
<path d="M94.9991 18.3582H93.4622" stroke="#263238" stroke-linecap="round" stroke-linejoin="round"/>
<path d="M123.041 18.3582H121.504" stroke="#263238" stroke-linecap="round" stroke-linejoin="round"/>
<path d="M94.9991 16.5357H93.4622" stroke="#263238" stroke-linecap="round" stroke-linejoin="round"/>
<path d="M123.041 16.5357H121.504" stroke="#263238" stroke-linecap="round" stroke-linejoin="round"/>
<path d="M94.9991 14.7166H93.4622" stroke="#263238" stroke-linecap="round" stroke-linejoin="round"/>
<path d="M123.041 14.7166H121.504" stroke="#263238" stroke-linecap="round" stroke-linejoin="round"/>
<path d="M94.9991 12.894H93.4622" stroke="#263238" stroke-linecap="round" stroke-linejoin="round"/>
<path d="M123.041 12.894H121.504" stroke="#263238" stroke-linecap="round" stroke-linejoin="round"/>
<path d="M94.9991 11.0749H93.4622" stroke="#263238" stroke-linecap="round" stroke-linejoin="round"/>
<path d="M123.041 11.0749H121.504" stroke="#263238" stroke-linecap="round" stroke-linejoin="round"/>
<path d="M94.9991 9.25238H93.4622" stroke="#263238" stroke-linecap="round" stroke-linejoin="round"/>
<path d="M123.041 9.25238H121.504" stroke="#263238" stroke-linecap="round" stroke-linejoin="round"/>
<path d="M97.1766 14.1249L102.629 8.17451L108.081 12.7648L113.023 6.13436L116.536 3.8324" stroke="#263238" stroke-width="2" stroke-linecap="round" stroke-linejoin="round"/>
<path d="M117.156 5.85892L118.986 2.22406L114.917 2.45868L117.156 5.85892Z" fill="#263238"/>
<path d="M1 145.874H230" stroke="#263238" stroke-linecap="round" stroke-linejoin="round"/>
</svg>
