<?xml version="1.0" encoding="utf-8"?>
<!-- Generator: Adobe Illustrator 24.0.2, SVG Export Plug-In . SVG Version: 6.00 Build 0)  -->
<svg version="1.1" id="Layer_1" xmlns="http://www.w3.org/2000/svg" xmlns:xlink="http://www.w3.org/1999/xlink" x="0px" y="0px"
	 viewBox="0 0 370 370" style="enable-background:new 0 0 370 370;" xml:space="preserve">
<style type="text/css">
	.st0{fill:none;stroke:#1B75BC;stroke-width:3;stroke-miterlimit:10;}
	.st1{fill:#1B75BC;}
	.st2{fill:#F7941D;}
</style>
<circle class="st0" cx="185" cy="185" r="121.33"/>
<g>
	<g>
		<path class="st1" d="M220.59,231.97c-1.48-4.28-3.81-8.28-6.73-11.74l-1.13-1.28l-0.57-0.63l-0.46-0.49l-1.77-1.83l-3.54-3.66
			l-5.15-5.22c0.04-0.05,0.09-0.1,0.14-0.16c2.52-3.07,4.93-6.24,6.99-9.76c-3.52,2.06-6.69,4.47-9.76,6.99
			c-0.05,0.04-0.09,0.08-0.14,0.12l-4.31-4.37c0.03-0.04,0.06-0.07,0.09-0.1c2.52-3.07,4.93-6.24,6.99-9.76
			c-3.52,2.06-6.69,4.47-9.76,6.99c-0.03,0.03-0.06,0.06-0.09,0.08l-13.79-13.63l-3.66-3.54l-1.83-1.77
			c-0.14-0.14-0.34-0.32-0.43-0.42l-0.29-0.31l-0.58-0.61c-1.52-1.66-2.71-3.58-3.61-5.65c-0.89-2.08-1.41-4.34-1.52-6.66
			c-0.07-2.31,0.2-4.65,0.89-6.89c0.69-2.24,1.8-4.36,3.25-6.28c1.43-1.94,3.23-3.67,5.31-4.97c2.08-1.31,4.39-2.33,6.87-2.9
			c2.48-0.58,5.09-0.7,7.7-0.41c5.22,0.57,10.35,3.17,14.22,7.31c3.92,4.07,6.44,9.79,6.77,15.97c0.37,6.17-1.48,12.72-5.48,18.34
			c5.59-4.02,9.74-10.56,11.04-17.95c0.68-3.69,0.65-7.56-0.08-11.37c-0.75-3.81-2.26-7.52-4.39-10.89
			c-2.15-3.36-4.92-6.36-8.19-8.84c-3.27-2.49-7.09-4.28-11.11-5.41c-8.05-2.26-17.09-1.49-24.89,2.36
			c-7.83,3.8-14.17,10.63-17.53,18.9c-1.69,4.12-2.65,8.56-2.74,13.04c-0.09,4.48,0.63,9,2.12,13.28c1.48,4.29,3.83,8.28,6.74,11.75
			l1.13,1.28l0.57,0.63l0.46,0.49l1.77,1.83l3.54,3.66l13.45,13.61c-0.79,0.9-1.59,1.78-2.36,2.71c-2.52,3.06-4.93,6.24-6.99,9.77
			c3.53-2.05,6.7-4.47,9.77-6.99c0.93-0.77,1.82-1.58,2.72-2.37l4.02,3.97c-0.8,0.91-1.62,1.81-2.39,2.75
			c-2.52,3.06-4.93,6.24-6.99,9.77c3.53-2.05,6.7-4.47,9.77-6.99c0.94-0.78,1.85-1.6,2.77-2.41l5.05,4.98l3.66,3.54l1.83,1.77
			c0.14,0.14,0.34,0.32,0.43,0.42l0.29,0.31l0.58,0.61c1.52,1.66,2.72,3.58,3.62,5.65c0.89,2.08,1.41,4.35,1.52,6.66
			c0.07,2.31-0.19,4.66-0.89,6.9c-0.69,2.25-1.81,4.36-3.25,6.29c-1.44,1.95-3.23,3.67-5.32,4.98c-2.08,1.31-4.39,2.34-6.88,2.9
			c-2.48,0.57-5.1,0.7-7.71,0.41c-5.23-0.57-10.36-3.18-14.23-7.32c-3.92-4.08-6.44-9.8-6.77-15.99c-0.36-6.18,1.49-12.72,5.5-18.34
			c-5.58,4.02-9.73,10.56-11.03,17.95c-0.68,3.68-0.65,7.56,0.09,11.37c0.75,3.81,2.27,7.51,4.39,10.88
			c2.14,3.36,4.92,6.36,8.19,8.83c3.26,2.49,7.09,4.28,11.1,5.41c8.04,2.27,17.08,1.48,24.88-2.36c7.82-3.8,14.16-10.62,17.52-18.89
			c1.68-4.12,2.65-8.55,2.74-13.03C222.8,240.75,222.08,236.24,220.59,231.97z"/>
		
			<ellipse transform="matrix(0.3827 -0.9239 0.9239 0.3827 -111.9623 299.0496)" class="st1" cx="167.8" cy="233.31" rx="5.3" ry="5.3"/>
		<circle class="st1" cx="201.47" cy="177.62" r="5.3"/>
	</g>
	<path class="st2" d="M186.5,91.42l0.95-2.19l-0.02,2.39c-0.02,1.93,2.27,2.95,3.7,1.65l1.76-1.61l-0.99,2.17
		c-0.8,1.75,0.88,3.62,2.71,3.01l2.26-0.76l-1.79,1.58c-1.44,1.28-0.67,3.66,1.25,3.85l2.38,0.23l-2.28,0.72
		c-1.84,0.58-2.1,3.07-0.42,4.02l2.08,1.18l-2.37-0.27c-1.92-0.22-3.17,1.95-2.02,3.5l1.42,1.92l-2.06-1.21
		c-1.66-0.98-3.69,0.5-3.27,2.38l0.52,2.33l-1.39-1.94c-1.12-1.57-3.57-1.05-3.96,0.84l-0.48,2.34l-0.48-2.34
		c-0.38-1.89-2.84-2.41-3.96-0.84l-1.39,1.94l0.52-2.33c0.42-1.88-1.61-3.36-3.27-2.38l-2.06,1.21l1.42-1.92
		c1.15-1.55-0.11-3.72-2.02-3.5l-2.37,0.27l2.08-1.18c1.68-0.95,1.42-3.44-0.42-4.02l-2.28-0.72l2.38-0.23
		c1.92-0.18,2.69-2.57,1.25-3.85l-1.79-1.58l2.26,0.76c1.83,0.61,3.51-1.25,2.71-3.01l-0.99-2.17l1.76,1.61
		c1.42,1.3,3.71,0.28,3.7-1.65l-0.02-2.39l0.95,2.19C183.23,93.19,185.74,93.19,186.5,91.42z"/>
</g>
</svg>
