<svg width="774" height="597" viewBox="0 0 774 597" fill="none" xmlns="http://www.w3.org/2000/svg">
<path d="M696.274 550.543H645.017V550.943H696.274V550.543Z" fill="#EBEBEB"/>
<path d="M512.602 554.895H499.153V555.295H512.602V554.895Z" fill="#EBEBEB"/>
<path d="M643.469 535.694H613.77V536.094H643.469V535.694Z" fill="#EBEBEB"/>
<path d="M148.03 538.382H81.1881V538.782H148.03V538.382Z" fill="#EBEBEB"/>
<path d="M171.615 538.382H161.819V538.782H171.615V538.382Z" fill="#EBEBEB"/>
<path d="M348.446 545.135H203.465V545.535H348.446V545.135Z" fill="#EBEBEB"/>
<path d="M363.861 453.435H65C62.659 453.431 60.4153 452.466 58.7614 450.754C57.1075 449.041 56.1786 446.719 56.1786 444.299V9.99242C56.199 7.58596 57.1369 5.28498 58.7886 3.5893C60.4403 1.89361 62.6724 0.940158 65 0.936035H363.845C366.189 0.936035 368.437 1.89862 370.094 3.61202C371.751 5.32543 372.682 7.6493 372.682 10.0724V444.299C372.682 446.719 371.753 449.041 370.099 450.754C368.445 452.466 366.202 453.431 363.861 453.435ZM65 1.25605C62.7617 1.26029 60.6163 2.18259 59.035 3.82052C57.4537 5.45845 56.5655 7.67816 56.5655 9.99242V444.299C56.5655 446.613 57.4537 448.833 59.035 450.471C60.6163 452.109 62.7617 453.031 65 453.035H363.845C366.085 453.031 368.232 452.109 369.816 450.472C371.4 448.834 372.291 446.614 372.295 444.299V9.99242C372.291 7.67669 371.4 5.45701 369.816 3.81954C368.232 2.18207 366.085 1.26028 363.845 1.25605H65Z" fill="#EBEBEB"/>
<path d="M698.611 453.435H399.766C397.423 453.431 395.178 452.467 393.521 450.754C391.865 449.042 390.933 446.721 390.929 444.299V9.99242C390.953 7.5845 391.894 5.28354 393.549 3.5883C395.203 1.89305 397.436 0.940113 399.766 0.936035H698.611C700.955 0.936035 703.202 1.89862 704.859 3.61202C706.517 5.32543 707.448 7.6493 707.448 10.0724V444.299C707.448 446.722 706.517 449.046 704.859 450.759C703.202 452.473 700.955 453.435 698.611 453.435ZM399.766 1.25605C397.526 1.26028 395.379 2.18207 393.795 3.81954C392.211 5.45701 391.32 7.67669 391.316 9.99242V444.299C391.32 446.614 392.211 448.834 393.795 450.472C395.379 452.109 397.526 453.031 399.766 453.035H698.611C700.851 453.031 702.998 452.109 704.581 450.472C706.165 448.834 707.057 446.614 707.061 444.299V9.99242C707.057 7.67669 706.165 5.45701 704.581 3.81954C702.998 2.18207 700.851 1.26028 698.611 1.25605H399.766Z" fill="#EBEBEB"/>
<path d="M773.81 524.798H0V525.198H773.81V524.798Z" fill="#EBEBEB"/>
<path d="M463.559 501.07H468.201C473.804 501.07 477.626 497.293 476.744 492.621L436.15 279.204C435.253 274.532 429.96 270.756 424.404 270.756H101.741L145.476 501.07H463.559Z" fill="#F0F0F0"/>
<path d="M147.829 501.07C140.957 501.07 134.504 496.43 133.405 490.701L93.5846 281.093C92.4858 275.364 97.1751 270.724 104.062 270.724C110.933 270.724 117.387 275.364 118.47 281.093L158.306 490.701C159.405 496.43 154.762 501.07 147.829 501.07Z" fill="#E0E0E0"/>
<path d="M330.324 501.069H680.396V519.07C680.396 520.62 679.804 522.108 678.749 523.211C677.695 524.313 676.262 524.941 674.762 524.958H330.324V501.069Z" fill="#EBEBEB"/>
<path d="M147.023 501.069H391.547V519.07C391.547 520.631 390.947 522.129 389.879 523.233C388.811 524.337 387.362 524.958 385.852 524.958H152.657C151.157 524.941 149.724 524.313 148.67 523.211C147.615 522.108 147.023 520.62 147.023 519.07V501.069Z" fill="#E0E0E0"/>
<path opacity="0.2" d="M546.31 501.069C546.434 505.197 550.473 508.525 555.456 508.525H593.311C598.294 508.525 602.334 505.197 602.457 501.069H546.31Z" fill="#E0E0E0"/>
<path d="M451.874 482.956H177.032L139.889 287.54H414.731L451.874 482.956Z" fill="#E0E0E0"/>
<path d="M280.274 277.588C280.456 278.455 280.374 279.359 280.039 280.175C279.703 280.992 279.131 281.681 278.401 282.148C277.671 282.614 276.82 282.835 275.963 282.78C275.107 282.724 274.288 282.396 273.619 281.84C272.951 281.283 272.466 280.526 272.231 279.673C271.997 278.819 272.024 277.912 272.309 277.075C272.594 276.238 273.123 275.513 273.824 275C274.524 274.488 275.361 274.212 276.219 274.212C277.187 274.117 278.153 274.417 278.91 275.047C279.668 275.678 280.157 276.589 280.274 277.588Z" fill="#E0E0E0"/>
<path d="M650 388.537C650.186 386.527 650.082 384.499 649.69 382.521L655.138 378.424L652.476 372.44L645.914 374.04C643.504 370.832 640.231 368.433 636.505 367.144L635.793 360.216L629.448 359.624L627.513 366.296C623.62 366.852 619.974 368.589 617.036 371.288L610.845 368.456L607.162 373.832L611.805 378.888C610.311 382.653 609.939 386.793 610.737 390.777L605.289 394.873L607.951 400.857L614.513 399.257C616.926 402.469 620.206 404.869 623.938 406.153L624.635 413.082L630.98 413.69L632.914 407.002C636.808 406.449 640.456 404.711 643.392 402.009L649.582 404.841L653.25 399.465L648.607 394.409C649.359 392.537 649.828 390.556 650 388.537ZM629.185 397.753C627.149 397.56 625.216 396.746 623.628 395.415C622.041 394.084 620.871 392.296 620.268 390.277C619.664 388.259 619.654 386.1 620.238 384.075C620.822 382.051 621.974 380.251 623.549 378.904C625.123 377.556 627.049 376.723 629.082 376.508C631.115 376.294 633.164 376.708 634.969 377.699C636.775 378.689 638.255 380.211 639.222 382.072C640.19 383.933 640.601 386.05 640.405 388.153C640.146 390.963 638.819 393.553 636.716 395.353C634.612 397.153 631.903 398.016 629.185 397.753Z" fill="#F0F0F0"/>
<path d="M674.762 416.281C674.766 414.769 674.552 413.264 674.127 411.817L677.904 408.393L675.458 404.153L670.692 405.753C668.685 403.538 666.09 401.985 663.232 401.289L662.242 396.185H657.475L656.5 401.289C653.641 401.981 651.045 403.535 649.041 405.753L644.258 404.153L641.891 408.425L645.667 411.849C644.82 414.756 644.82 417.855 645.667 420.762L641.891 424.202L644.258 428.458L649.041 426.858C651.042 429.077 653.64 430.626 656.5 431.306L657.475 436.41H662.242L663.232 431.306C666.091 430.623 668.688 429.074 670.692 426.858L675.458 428.458L677.826 424.202L674.05 420.762C674.504 419.314 674.744 417.803 674.762 416.281ZM659.936 424.554C658.405 424.554 656.909 424.085 655.637 423.205C654.364 422.326 653.372 421.077 652.787 419.615C652.201 418.153 652.048 416.545 652.346 414.993C652.645 413.441 653.382 412.015 654.464 410.896C655.546 409.778 656.925 409.016 658.426 408.707C659.927 408.398 661.483 408.557 662.897 409.162C664.311 409.768 665.52 410.793 666.37 412.109C667.22 413.424 667.674 414.971 667.674 416.553C667.674 417.611 667.471 418.658 667.078 419.634C666.684 420.61 666.107 421.495 665.38 422.239C664.653 422.983 663.791 423.571 662.843 423.968C661.896 424.365 660.881 424.564 659.858 424.554H659.936Z" fill="#F0F0F0"/>
<path d="M639.476 174.175H586.857V119.773H639.476V174.175ZM588.405 172.575H637.929V121.373H588.405V172.575Z" fill="#E0E0E0"/>
<path d="M650.371 214.881H577.958V195.408H650.371V214.881ZM579.506 213.28H648.824V197.008H579.506V213.28Z" fill="#E0E0E0"/>
<path d="M578.268 274.244H549.172V244.147H578.268V274.244ZM550.72 272.644H576.72V245.747H550.72V272.644Z" fill="#E0E0E0"/>
<path d="M611.975 274.244H582.88V244.147H611.975V274.244ZM584.428 272.644H610.428V245.747H584.428V272.644Z" fill="#E0E0E0"/>
<path d="M645.682 274.244H616.587V244.147H645.682V274.244ZM618.135 272.644H644.135V245.747H618.135V272.644Z" fill="#E0E0E0"/>
<path d="M679.404 274.244H650.309V244.147H679.404V274.244ZM651.857 272.644H677.857V245.747H651.857V272.644Z" fill="#E0E0E0"/>
<path d="M665.631 244.563H664.083V233.65H563.798V244.563H562.25V232.05H665.631V244.563Z" fill="#E0E0E0"/>
<path d="M615.055 214.081H613.507V232.85H615.055V214.081Z" fill="#E0E0E0"/>
<path d="M615.055 172.832H613.507V196.209H615.055V172.832Z" fill="#E0E0E0"/>
<path d="M598.805 232.85H597.257V244.962H598.805V232.85Z" fill="#E0E0E0"/>
<path d="M631.63 232.85H630.082V244.962H631.63V232.85Z" fill="#E0E0E0"/>
<path d="M169.356 150.799H115.979V131.342H169.356V150.799ZM117.526 149.199H167.809V132.942H117.526V149.199Z" fill="#E0E0E0"/>
<path d="M178.874 113.325H106.461V93.8521H178.874V113.325ZM108.008 111.725H177.326V95.4521H108.008V111.725Z" fill="#E0E0E0"/>
<path d="M123.5 201.248H94.4046V171.167H123.5V201.248ZM95.9522 199.648H121.952V172.767H95.9522V199.648Z" fill="#E0E0E0"/>
<path d="M157.223 201.248H128.127V171.167H157.223V201.248ZM129.675 199.648H155.675V172.767H129.675V199.648Z" fill="#E0E0E0"/>
<path d="M190.93 201.248H161.835V171.167H190.93V201.248ZM163.382 199.648H189.382V172.767H163.382V199.648Z" fill="#E0E0E0"/>
<path d="M175.964 173.648L142.66 151.423L109.355 172.064L108.566 170.688L142.675 149.551L176.8 172.304L175.964 173.648Z" fill="#E0E0E0"/>
<path d="M143.449 150.479H141.901V171.375H143.449V150.479Z" fill="#E0E0E0"/>
<path d="M143.449 114.109H141.901V133.918H143.449V114.109Z" fill="#E0E0E0"/>
<path d="M386.905 596.177C552.628 596.177 686.973 588.068 686.973 578.064C686.973 568.061 552.628 559.952 386.905 559.952C221.182 559.952 86.8371 568.061 86.8371 578.064C86.8371 588.068 221.182 596.177 386.905 596.177Z" fill="#F5F5F5"/>
<path d="M606.28 16.4409H154.468V370.952H606.28V16.4409Z" fill="#6A99AB"/>
<path opacity="0.6" d="M606.28 16.4409H154.468V370.952H606.28V16.4409Z" fill="white"/>
<path d="M606.28 16.4409H154.746V39.8659H606.28V16.4409Z" fill="#6A99AB"/>
<path d="M173.937 28.2809C173.937 29.1955 173.674 30.0896 173.183 30.85C172.691 31.6104 171.993 32.2031 171.176 32.5531C170.358 32.9031 169.459 32.9947 168.592 32.8163C167.724 32.6379 166.927 32.1974 166.301 31.5507C165.676 30.904 165.25 30.0801 165.077 29.1831C164.905 28.2861 164.993 27.3563 165.332 26.5113C165.67 25.6664 166.244 24.9442 166.979 24.4361C167.715 23.9279 168.579 23.6567 169.464 23.6567C170.65 23.6567 171.788 24.1439 172.627 25.0111C173.465 25.8783 173.937 27.0545 173.937 28.2809Z" fill="white"/>
<path d="M189.552 28.2809C189.552 29.1955 189.29 30.0896 188.799 30.85C188.307 31.6104 187.609 32.2031 186.791 32.5531C185.974 32.9031 185.075 32.9947 184.207 32.8163C183.34 32.6379 182.543 32.1974 181.917 31.5507C181.292 30.904 180.866 30.0801 180.693 29.1831C180.521 28.2861 180.609 27.3563 180.948 26.5113C181.286 25.6664 181.859 24.9442 182.595 24.4361C183.331 23.9279 184.195 23.6567 185.08 23.6567C186.266 23.6567 187.404 24.1439 188.242 25.0111C189.081 25.8783 189.552 27.0545 189.552 28.2809Z" fill="white"/>
<path d="M205.152 28.2809C205.152 29.1955 204.89 30.0896 204.399 30.85C203.907 31.6104 203.209 32.2031 202.391 32.5531C201.574 32.9031 200.675 32.9947 199.807 32.8163C198.94 32.6379 198.143 32.1974 197.517 31.5507C196.892 30.904 196.466 30.0801 196.293 29.1831C196.12 28.2861 196.209 27.3563 196.548 26.5113C196.886 25.6664 197.459 24.9442 198.195 24.4361C198.93 23.9279 199.795 23.6567 200.68 23.6567C201.866 23.6567 203.004 24.1439 203.842 25.0111C204.681 25.8783 205.152 27.0545 205.152 28.2809Z" fill="white"/>
<g opacity="0.8">
<path opacity="0.8" d="M404.78 80.1076H403.232V77.7075H400.911V76.1074H404.78V80.1076Z" fill="white"/>
<path opacity="0.8" d="M404.764 107.468H403.217V100.636H404.764V107.468ZM404.764 93.7878H403.217V86.9556H404.764V93.7878Z" fill="white"/>
<path opacity="0.8" d="M404.764 189.552H403.217V182.703H404.764V189.552ZM404.764 175.871H403.217V169.023H404.764V175.871ZM404.764 162.19H403.217V155.358H404.764V162.19ZM404.764 148.51H403.217V141.742H404.764V148.51ZM404.764 134.829H403.217V127.997H404.764V134.829ZM404.764 121.149H403.217V114.316H404.764V121.149Z" fill="white"/>
<path opacity="0.8" d="M404.78 200.384H400.911V198.784H403.232V196.384H404.78V200.384Z" fill="white"/>
<path opacity="0.8" d="M394.937 200.384H388.963V198.784H394.937V200.384ZM383.005 200.384H377.031V198.784H383.005V200.384Z" fill="white"/>
<path opacity="0.8" d="M371.073 200.384H365.099V198.784H371.073V200.384ZM359.14 200.384H353.167V198.784H359.14V200.384ZM347.193 200.384H341.234V198.784H347.193V200.384ZM335.261 200.384H329.302V198.784H335.261V200.384ZM323.329 200.384H317.37V198.784H323.329V200.384ZM311.396 200.384H305.438V198.784H311.396V200.384ZM299.464 200.384H293.49V198.784H299.464V200.384ZM287.532 200.384H281.558V198.784H287.532V200.384ZM275.6 200.384H269.626V198.784H275.6V200.384ZM263.668 200.384H257.694V198.784H263.668V200.384ZM251.736 200.384H245.762V198.784H251.736V200.384ZM239.788 200.384H233.83V198.784H239.788V200.384Z" fill="white"/>
<path opacity="0.8" d="M227.856 200.384H223.987V196.384H225.534V198.784H227.856V200.384Z" fill="white"/>
<path opacity="0.8" d="M225.534 189.552H223.987V182.704H225.534V189.552ZM225.534 175.871H223.987V169.023H225.534V175.871Z" fill="white"/>
<path opacity="0.8" d="M225.534 162.191H223.987V155.343H225.534V162.191ZM225.534 148.511H223.987V141.742H225.534V148.511ZM225.534 134.83H223.987V127.998H225.534V134.83ZM225.534 121.15H223.987V114.317H225.534V121.15ZM225.534 107.469H223.987V100.637H225.534V107.469ZM225.534 93.7883H223.987V86.9561H225.534V93.7883Z" fill="white"/>
<path opacity="0.8" d="M225.534 80.1076H223.987V76.1074H227.856V77.7075H225.534V80.1076Z" fill="white"/>
<path opacity="0.8" d="M251.736 77.7392H245.762V76.1392H251.736V77.7392ZM239.788 77.7392H233.83V76.1392H239.788V77.7392Z" fill="white"/>
<path opacity="0.8" d="M394.937 77.7392H388.963V76.1392H394.937V77.7392ZM383.004 77.7392H377.031V76.1392H383.004V77.7392ZM371.072 77.7392H365.098V76.1392H371.072V77.7392ZM359.14 77.7392H353.166V76.1392H359.14V77.7392ZM347.193 77.7392H341.234V76.1392H347.193V77.7392ZM335.26 77.7392H329.302V76.1392H335.26V77.7392ZM323.328 77.7392H317.37V76.1392H323.328V77.7392ZM311.396 77.7392H305.438V76.1392H311.396V77.7392ZM299.464 77.7392H293.49V76.1392H299.464V77.7392ZM287.532 77.7392H281.558V76.1392H287.532V77.7392ZM275.6 77.7392H269.626V76.1392H275.6V77.7392ZM263.668 77.7392H257.694V76.1392H263.668V77.7392Z" fill="white"/>
</g>
<g opacity="0.8">
<path opacity="0.8" d="M538.355 218.753H536.808V216.353H534.486V214.753H538.355V218.753Z" fill="white"/>
<path opacity="0.8" d="M538.355 244.69H536.808V238.21H538.355V244.69ZM538.355 231.73H536.808V225.25H538.355V231.73Z" fill="white"/>
<path opacity="0.8" d="M538.355 322.549H536.808V316.053H538.355V322.549ZM538.355 309.573H536.808V303.093H538.355V309.573ZM538.355 296.612H536.808V290.116H538.355V296.612ZM538.355 283.636H536.808V277.235H538.355V283.636ZM538.355 270.659H536.808V264.147H538.355V270.659ZM538.355 257.699H536.808V251.298H538.355V257.699Z" fill="white"/>
<path opacity="0.8" d="M538.355 332.998H534.486V331.398H536.808V328.998H538.355V332.998Z" fill="white"/>
<path opacity="0.8" d="M527.862 332.999H521.223V331.398H527.862V332.999ZM514.599 332.999H507.96V331.398H514.599V332.999Z" fill="white"/>
<path opacity="0.8" d="M501.336 332.999H494.697V331.398H501.336V332.999ZM488.073 332.999H481.433V331.398H488.073V332.999ZM474.81 332.999H468.17V331.398H474.81V332.999ZM461.547 332.999H455V331.398H461.624L461.547 332.999ZM448.283 332.999H441.66V331.398H448.283V332.999ZM435.02 332.999H428.397V331.398H435.02V332.999ZM421.757 332.999H415.133V331.398H421.757V332.999ZM408.494 332.999H401.87V331.398H408.572L408.494 332.999ZM395.231 332.999H388.607V331.398H395.231V332.999Z" fill="white"/>
<path opacity="0.8" d="M381.968 332.998H378.099V328.998H379.646V331.398H381.968V332.998Z" fill="white"/>
<path opacity="0.8" d="M379.646 322.55H378.099V316.053H379.646V322.55ZM379.646 309.573H378.099V303.093H379.646V309.573Z" fill="white"/>
<path opacity="0.8" d="M379.646 296.565H378.099V290.165H379.646V296.565ZM379.646 283.604H378.099V277.204H379.646V283.604ZM379.646 270.628H378.099V264.148H379.646V270.628ZM379.646 257.667H378.099V251.267H379.646V257.667ZM379.646 244.691H378.099V238.21H379.646V244.691ZM379.646 231.73H378.099V225.234H379.646V231.73Z" fill="white"/>
<path opacity="0.8" d="M379.646 218.753H378.099V214.753H381.968V216.353H379.646V218.753Z" fill="white"/>
<path opacity="0.8" d="M408.572 216.353H401.948V214.753H408.572V216.353ZM395.308 216.353H388.607V214.753H395.231L395.308 216.353Z" fill="white"/>
<path opacity="0.8" d="M527.862 216.353H521.223V214.753H527.862V216.353ZM514.599 216.353H507.96V214.753H514.599V216.353ZM501.336 216.353H494.697V214.753H501.336V216.353ZM488.073 216.353H481.434V214.753H488.073V216.353ZM474.81 216.353H468.186V214.753H474.81V216.353ZM461.547 216.353H455V214.753H461.624L461.547 216.353ZM448.284 216.353H441.66V214.753H448.284V216.353ZM435.021 216.353H428.397V214.753H435.021V216.353ZM421.758 216.353H415.134V214.753H421.758V216.353Z" fill="white"/>
</g>
<g opacity="0.8">
<path opacity="0.8" d="M368.225 218.561H366.678V216.161H364.356V214.561H368.225V218.561Z" fill="white"/>
<path opacity="0.8" d="M368.225 244.594H366.677V238.082H368.225V244.594ZM368.225 231.569H366.677V225.057H368.225V231.569Z" fill="white"/>
<path opacity="0.8" d="M368.225 322.694H366.677V316.15H368.225V322.694ZM368.225 309.669H366.677V303.157H368.225V309.669ZM368.225 296.661H366.677V290.148H368.225V296.661ZM368.225 283.636H366.677V277.124H368.225V283.636ZM368.225 270.628H366.677V264.115H368.225V270.628ZM368.225 257.603H366.677V251.091H368.225V257.603Z" fill="white"/>
<path opacity="0.8" d="M368.225 333.19H364.356V331.59H366.678V329.19H368.225V333.19Z" fill="white"/>
<path opacity="0.8" d="M358.428 333.189H352.501V331.589H358.428V333.189ZM346.574 333.189H340.646V331.589H346.574V333.189Z" fill="white"/>
<path opacity="0.8" d="M334.719 333.189H328.792V331.589H334.719V333.189ZM322.864 333.189H316.921V331.589H322.864V333.189ZM310.994 333.189H305.067V331.589H311.071L310.994 333.189ZM299.139 333.189H293.212V331.589H299.139V333.189ZM287.285 333.189H281.357V331.589H287.285V333.189ZM275.43 333.189H269.502V331.589H275.476L275.43 333.189ZM263.575 333.189H257.632V331.589H263.575V333.189ZM251.705 333.189H245.777V331.589H251.705V333.189ZM239.85 333.189H233.923V331.589H239.881L239.85 333.189Z" fill="white"/>
<path opacity="0.8" d="M227.995 333.19H224.126V329.19H225.674V331.59H227.995V333.19Z" fill="white"/>
<path opacity="0.8" d="M225.674 322.694H224.126V316.149H225.674V322.694ZM225.674 309.669H224.126V303.157H225.674V309.669Z" fill="white"/>
<path opacity="0.8" d="M225.674 296.66H224.126V290.148H225.674V296.66ZM225.674 283.636H224.126V277.123H225.674V283.636ZM225.674 270.627H224.126V264.115H225.674V270.627ZM225.674 257.603H224.126V251.09H225.674V257.603ZM225.674 244.594H224.126V238.082H225.674V244.594ZM225.674 231.569H224.126V225.057H225.674V231.569Z" fill="white"/>
<path opacity="0.8" d="M225.674 218.561H224.126V214.561H227.995V216.161H225.674V218.561Z" fill="white"/>
<path opacity="0.8" d="M251.705 216.161H245.777V214.561H251.705V216.161ZM239.85 216.161H233.923V214.561H239.881L239.85 216.161Z" fill="white"/>
<path opacity="0.8" d="M358.429 216.161H352.502V214.561H358.429V216.161ZM346.574 216.161H340.647V214.561H346.574V216.161ZM334.719 216.161H328.792V214.561H334.719V216.161ZM322.865 216.161H316.922V214.561H322.865V216.161ZM310.994 216.161H305.067V214.561H311.072L310.994 216.161ZM299.14 216.161H293.212V214.561H299.14V216.161ZM287.285 216.161H281.358V214.561H287.285V216.161ZM275.43 216.161H269.503V214.561H275.477L275.43 216.161ZM263.575 216.161H257.633V214.561H263.575V216.161Z" fill="white"/>
</g>
<path opacity="0.8" d="M484.792 215.505H483.244V213.745H484.792V215.505ZM484.792 207.377H483.244V200.977H484.792V207.377ZM484.792 194.576H483.244V188.176H484.792V194.576ZM484.792 181.776H483.244V175.376H484.792V181.776ZM484.792 168.975H483.244V162.575H484.792V168.975ZM484.792 156.175H483.244V149.775H484.792V156.175ZM484.792 143.374H483.244V136.974H484.792V143.374ZM484.792 130.574H483.244V124.173H484.792V130.574ZM484.018 118.093H478.292V116.493H484.792V117.773H484.018V118.093ZM472.101 118.093H465.911V116.493H472.101V118.093ZM459.72 118.093H453.53V116.493H459.72V118.093ZM447.339 118.093H441.149V116.493H447.339V118.093ZM434.958 118.093H428.768V116.493H434.958V118.093ZM422.577 118.093H416.387V116.493H422.577V118.093ZM410.196 118.093H404.006V116.493H410.196V118.093Z" fill="white"/>
<path opacity="0.2" d="M205.276 58.378V179.951H383.841V58.378L205.276 58.378Z" fill="black"/>
<path d="M197.383 48.8741V170.447H375.948V48.8741H197.383Z" fill="#6A99AB"/>
<path opacity="0.8" d="M197.383 48.8741V170.447H375.948V48.8741H197.383Z" fill="white"/>
<path d="M288.662 58.042H213.943C210.934 58.042 208.495 60.5636 208.495 63.6742V127.965C208.495 131.076 210.934 133.597 213.943 133.597H288.662C291.671 133.597 294.11 131.076 294.11 127.965V63.6742C294.11 60.5636 291.671 58.042 288.662 58.042Z" fill="#6A99AB"/>
<g opacity="0.4">
<path opacity="0.4" d="M288.662 58.042H213.943C210.934 58.042 208.495 60.5636 208.495 63.6742V127.965C208.495 131.076 210.934 133.597 213.943 133.597H288.662C291.671 133.597 294.11 131.076 294.11 127.965V63.6742C294.11 60.5636 291.671 58.042 288.662 58.042Z" fill="white"/>
</g>
<path d="M288.786 61.4341H213.804C212.675 61.4341 211.761 62.3797 211.761 63.5462V128.109C211.761 129.275 212.675 130.221 213.804 130.221H288.786C289.914 130.221 290.829 129.275 290.829 128.109V63.5462C290.829 62.3797 289.914 61.4341 288.786 61.4341Z" fill="#6A99AB"/>
<path d="M288.786 61.4341H213.804C212.675 61.4341 211.761 62.3797 211.761 63.5462V128.109C211.761 129.275 212.675 130.221 213.804 130.221H288.786C289.914 130.221 290.829 129.275 290.829 128.109V63.5462C290.829 62.3797 289.914 61.4341 288.786 61.4341Z" fill="#6A99AB"/>
<path opacity="0.1" d="M232.406 93.7393L211.761 126.621V128.141C211.765 128.698 211.982 129.231 212.364 129.624C212.747 130.016 213.264 130.237 213.804 130.237H255.357L232.406 93.7393Z" fill="white"/>
<path d="M290.829 121.357L269.533 83.0835L243.317 130.205H288.786C289.325 130.206 289.842 129.985 290.225 129.593C290.607 129.2 290.824 128.667 290.829 128.109V121.357Z" fill="#6A99AB"/>
<path opacity="0.2" d="M290.829 121.357L269.533 83.0835L243.317 130.205H288.786C289.325 130.206 289.842 129.985 290.225 129.593C290.607 129.2 290.824 128.667 290.829 128.109V121.357Z" fill="white"/>
<path d="M256.626 77.5793C256.626 78.6718 256.313 79.7397 255.725 80.6479C255.138 81.556 254.303 82.2636 253.327 82.6809C252.35 83.0982 251.276 83.2066 250.24 82.9923C249.203 82.778 248.252 82.2507 247.506 81.477C246.76 80.7034 246.253 79.7183 246.048 78.6464C245.844 77.5746 245.952 76.4641 246.359 75.4557C246.765 74.4473 247.452 73.5863 248.332 72.9817C249.212 72.377 250.246 72.0559 251.302 72.0591C252.003 72.0591 252.696 72.202 253.343 72.4796C253.99 72.7572 254.578 73.1641 255.072 73.6769C255.567 74.1897 255.959 74.7984 256.225 75.4681C256.492 76.1377 256.628 76.8552 256.626 77.5793Z" fill="white"/>
<path d="M321.673 59.2261H311.722V60.8261H321.673V59.2261Z" fill="#6A99AB"/>
<path d="M348.137 59.2261H326.564V60.8261H348.137V59.2261Z" fill="#6A99AB"/>
<path d="M362.391 59.2261H353.925V60.8261H362.391V59.2261Z" fill="#6A99AB"/>
<path d="M334.688 73.5469H301.384V75.1469H334.688V73.5469Z" fill="#6A99AB"/>
<path d="M360.085 73.5469H342.303V75.1469H360.085V73.5469Z" fill="#6A99AB"/>
<path d="M318.624 87.8682H304.076V89.4682H318.624V87.8682Z" fill="#6A99AB"/>
<path d="M351.418 87.8682H323.468V89.4682H351.418V87.8682Z" fill="#6A99AB"/>
<path d="M362.406 87.8682H356.541V89.4682H362.406V87.8682Z" fill="#6A99AB"/>
<path d="M334.688 102.171H301.384V103.771H334.688V102.171Z" fill="#6A99AB"/>
<path d="M360.069 102.171H340.956V103.771H360.069V102.171Z" fill="#6A99AB"/>
<path d="M321.673 116.493H311.722V118.093H321.673V116.493Z" fill="#6A99AB"/>
<path d="M348.137 116.493H326.564V118.093H348.137V116.493Z" fill="#6A99AB"/>
<path d="M362.391 116.493H353.925V118.093H362.391V116.493Z" fill="#6A99AB"/>
<path d="M334.688 130.813H301.384V132.414H334.688V130.813Z" fill="#6A99AB"/>
<path d="M359.466 130.813H342.303V132.414H359.466V130.813Z" fill="#6A99AB"/>
<path d="M261.114 143.791H210.956V145.391H261.114V143.791Z" fill="#6A99AB"/>
<path d="M326.579 143.791H273.217V145.391H326.579V143.791Z" fill="#6A99AB"/>
<path d="M361.803 143.791H340.863V145.391H361.803V143.791Z" fill="#6A99AB"/>
<path d="M224.931 158.095H210.956V159.695H224.931V158.095Z" fill="#6A99AB"/>
<path d="M272.567 158.095H235.114V159.695H272.567V158.095Z" fill="#6A99AB"/>
<path d="M301.383 158.095H280.707V159.695H301.383V158.095Z" fill="#6A99AB"/>
<path d="M334.704 158.095H312.108V159.695H334.704V158.095Z" fill="#6A99AB"/>
<path d="M361.803 158.095H344.16V159.695H361.803V158.095Z" fill="#6A99AB"/>
<path opacity="0.2" d="M526.438 78.7948L526.608 175.823C526.608 176.423 526.379 176.998 525.97 177.424C525.561 177.85 525.006 178.091 524.426 178.095L437.651 178.255C437.072 178.255 436.517 178.017 436.108 177.594C435.699 177.171 435.469 176.597 435.469 175.999L435.237 49.7856C435.237 49.1872 435.467 48.6134 435.876 48.1903C436.285 47.7672 436.84 47.5295 437.419 47.5295L495.888 47.4175L526.438 78.7948Z" fill="black"/>
<path d="M532.737 72.1223L532.908 169.15C532.908 169.749 532.678 170.323 532.268 170.746C531.859 171.169 531.304 171.407 530.725 171.407L443.95 171.567C443.37 171.567 442.814 171.329 442.402 170.907C441.99 170.484 441.757 169.91 441.753 169.31L441.536 43.1131C441.536 42.5133 441.766 41.9378 442.174 41.5121C442.583 41.0865 443.138 40.8452 443.718 40.841L502.187 40.729L532.737 72.1223Z" fill="#6A99AB"/>
<g opacity="0.8">
<path opacity="0.8" d="M532.737 72.1223L532.908 169.15C532.908 169.749 532.678 170.323 532.268 170.746C531.859 171.169 531.304 171.407 530.725 171.407L443.95 171.567C443.37 171.567 442.814 171.329 442.402 170.907C441.99 170.484 441.757 169.91 441.753 169.31L441.536 43.1131C441.536 42.5133 441.766 41.9378 442.174 41.5121C442.583 41.0865 443.138 40.8452 443.718 40.841L502.187 40.729L532.737 72.1223Z" fill="white"/>
</g>
<path d="M502.234 40.666V69.9313C502.233 70.2372 502.293 70.54 502.41 70.8213C502.526 71.1026 502.697 71.3565 502.911 71.5675C503.125 71.7785 503.379 71.9423 503.656 72.0489C503.933 72.1554 504.229 72.2025 504.524 72.1873H532.753L502.234 40.666Z" fill="#6A99AB"/>
<path opacity="0.8" d="M502.234 40.666V69.9313C502.233 70.2372 502.293 70.54 502.41 70.8213C502.526 71.1026 502.697 71.3565 502.911 71.5675C503.125 71.7785 503.379 71.9423 503.656 72.0489C503.933 72.1554 504.229 72.2025 504.524 72.1873H532.753L502.234 40.666Z" fill="white"/>
<path opacity="0.2" d="M536.467 48.5705V159.103L458.606 159.247C458.028 159.247 457.473 159.01 457.063 158.586C456.654 158.163 456.424 157.589 456.424 156.991L456.192 30.7778C456.19 30.4809 456.245 30.1866 456.354 29.9119C456.463 29.6372 456.624 29.3877 456.827 29.1777C457.03 28.9678 457.271 28.8017 457.537 28.6891C457.802 28.5764 458.087 28.5195 458.374 28.5217L516.905 28.4097L536.467 48.5705Z" fill="black"/>
<path d="M553.63 53.1466L553.8 150.175C553.8 150.775 553.571 151.35 553.162 151.776C552.754 152.201 552.198 152.443 551.618 152.447L464.843 152.607C464.263 152.607 463.707 152.37 463.295 151.947C462.883 151.524 462.65 150.951 462.646 150.351L462.429 24.1374C462.429 23.8411 462.485 23.5478 462.595 23.274C462.705 23.0003 462.866 22.7516 463.068 22.5421C463.271 22.3326 463.511 22.1664 463.776 22.053C464.041 21.9397 464.325 21.8813 464.611 21.8813L523.096 21.7373L553.63 53.1466Z" fill="#6A99AB"/>
<g opacity="0.8">
<path opacity="0.8" d="M553.63 53.1466L553.8 150.175C553.8 150.775 553.571 151.35 553.162 151.776C552.754 152.201 552.198 152.443 551.618 152.447L464.843 152.607C464.263 152.607 463.707 152.37 463.295 151.947C462.883 151.524 462.65 150.951 462.646 150.351L462.429 24.1374C462.429 23.8411 462.485 23.5478 462.595 23.274C462.705 23.0003 462.866 22.7516 463.068 22.5421C463.271 22.3326 463.511 22.1664 463.776 22.053C464.041 21.9397 464.325 21.8813 464.611 21.8813L523.096 21.7373L553.63 53.1466Z" fill="white"/>
</g>
<path d="M523.096 21.7373V51.0025C523.096 51.2988 523.152 51.5922 523.262 51.8659C523.372 52.1396 523.532 52.3883 523.735 52.5978C523.938 52.8073 524.178 52.9735 524.443 53.0869C524.708 53.2003 524.991 53.2586 525.278 53.2586H553.506L523.096 21.7373Z" fill="#6A99AB"/>
<path d="M523.096 21.7373V51.0025C523.096 51.2988 523.152 51.5922 523.262 51.8659C523.372 52.1396 523.532 52.3883 523.735 52.5978C523.938 52.8073 524.178 52.9735 524.443 53.0869C524.708 53.2003 524.991 53.2586 525.278 53.2586H553.506L523.096 21.7373Z" fill="white"/>
<path d="M490.007 70.9551H476.466V72.5551H490.007V70.9551Z" fill="#6A99AB"/>
<path d="M525.974 70.9551H496.647V72.5551H525.974V70.9551Z" fill="#6A99AB"/>
<path d="M542.239 70.9551H533.836V72.5551H542.239V70.9551Z" fill="#6A99AB"/>
<path d="M507.697 83.0513H473.881V84.6513H507.697V83.0513Z" fill="#6A99AB"/>
<path d="M542.209 83.0513H518.035V84.6513H542.209V83.0513Z" fill="#6A99AB"/>
<path d="M485.875 95.1479H473.881V96.748H485.875V95.1479Z" fill="#6A99AB"/>
<path d="M530.401 95.1479H492.422V96.748H530.401V95.1479Z" fill="#6A99AB"/>
<path d="M542.24 95.1479H537.38V96.748H542.24V95.1479Z" fill="#6A99AB"/>
<path d="M507.697 107.245H473.881V108.845H507.697V107.245Z" fill="#6A99AB"/>
<path d="M542.209 107.245H516.224V108.845H542.209V107.245Z" fill="#6A99AB"/>
<path d="M490.007 119.341H476.466V120.941H490.007V119.341Z" fill="#6A99AB"/>
<path d="M525.974 119.341H496.647V120.941H525.974V119.341Z" fill="#6A99AB"/>
<path d="M542.239 119.341H533.836V120.941H542.239V119.341Z" fill="#6A99AB"/>
<path d="M507.697 131.438H473.881V133.038H507.697V131.438Z" fill="#6A99AB"/>
<path d="M541.373 131.454H518.035V133.054H541.373V131.454Z" fill="#6A99AB"/>
<g opacity="0.2">
<path opacity="0.2" d="M199.643 336.631H334.038C336.568 336.7 339.021 335.727 340.858 333.927C342.695 332.127 343.766 329.646 343.834 327.031V217.282C343.766 214.666 342.695 212.186 340.858 210.386C339.021 208.585 336.568 207.613 334.038 207.682H199.643C197.114 207.617 194.663 208.591 192.827 210.39C190.991 212.19 189.919 214.668 189.846 217.282V327.015C189.915 329.632 190.985 332.114 192.822 333.917C194.658 335.719 197.111 336.696 199.643 336.631Z" fill="black"/>
<g opacity="0.4">
<path opacity="0.2" d="M199.643 336.631H334.038C336.568 336.7 339.021 335.727 340.858 333.927C342.695 332.127 343.766 329.646 343.834 327.031V217.282C343.766 214.666 342.695 212.186 340.858 210.386C339.021 208.585 336.568 207.613 334.038 207.682H199.643C197.114 207.617 194.663 208.591 192.827 210.39C190.991 212.19 189.919 214.668 189.846 217.282V327.015C189.915 329.632 190.985 332.114 192.822 333.917C194.658 335.719 197.111 336.696 199.643 336.631Z" fill="black"/>
</g>
</g>
<path d="M193.05 329.271H327.445C329.974 329.335 332.425 328.361 334.261 326.562C336.097 324.763 337.169 322.285 337.242 319.67V209.922C337.169 207.307 336.097 204.829 334.261 203.03C332.425 201.231 329.974 200.257 327.445 200.321H193.05C190.521 200.257 188.07 201.231 186.234 203.03C184.398 204.829 183.327 207.307 183.254 209.922V319.654C183.323 322.272 184.393 324.754 186.229 326.556C188.065 328.359 190.518 329.335 193.05 329.271Z" fill="#6A99AB"/>
<g opacity="0.4">
<path opacity="0.4" d="M193.05 329.271H327.445C329.974 329.335 332.425 328.361 334.261 326.562C336.097 324.763 337.169 322.285 337.242 319.67V209.922C337.169 207.307 336.097 204.829 334.261 203.03C332.425 201.231 329.974 200.257 327.445 200.321H193.05C190.521 200.257 188.07 201.231 186.234 203.03C184.398 204.829 183.327 207.307 183.254 209.922V319.654C183.323 322.272 184.393 324.754 186.229 326.556C188.065 328.359 190.518 329.335 193.05 329.271Z" fill="white"/>
</g>
<path d="M192.818 206.081C192.348 206.069 191.881 206.152 191.443 206.326C191.004 206.5 190.603 206.761 190.262 207.096C189.922 207.43 189.648 207.83 189.457 208.274C189.266 208.718 189.162 209.196 189.15 209.682V319.894C189.162 320.38 189.266 320.858 189.457 321.302C189.648 321.745 189.922 322.146 190.262 322.48C190.603 322.814 191.004 323.076 191.443 323.25C191.881 323.424 192.348 323.507 192.818 323.494H327.677C328.147 323.507 328.614 323.424 329.053 323.25C329.491 323.076 329.892 322.814 330.233 322.48C330.573 322.146 330.847 321.745 331.038 321.302C331.229 320.858 331.333 320.38 331.345 319.894V209.682C331.333 209.196 331.229 208.718 331.038 208.274C330.847 207.83 330.573 207.43 330.233 207.096C329.892 206.761 329.491 206.5 329.053 206.326C328.614 206.152 328.147 206.069 327.677 206.081H192.818Z" fill="#6A99AB"/>
<path opacity="0.2" d="M192.818 206.081C192.348 206.069 191.881 206.152 191.443 206.326C191.004 206.5 190.603 206.761 190.262 207.096C189.922 207.43 189.648 207.83 189.457 208.274C189.266 208.718 189.162 209.196 189.15 209.682V319.894C189.162 320.38 189.266 320.858 189.457 321.302C189.648 321.745 189.922 322.146 190.262 322.48C190.603 322.814 191.004 323.076 191.443 323.25C191.881 323.424 192.348 323.507 192.818 323.494H327.677C328.147 323.507 328.614 323.424 329.053 323.25C329.491 323.076 329.892 322.814 330.233 322.48C330.573 322.146 330.847 321.745 331.038 321.302C331.229 320.858 331.333 320.38 331.345 319.894V209.682C331.333 209.196 331.229 208.718 331.038 208.274C330.847 207.83 330.573 207.43 330.233 207.096C329.892 206.761 329.491 206.5 329.053 206.326C328.614 206.152 328.147 206.069 327.677 206.081H192.818Z" fill="black"/>
<path d="M226.262 261.172L189.119 317.302V319.894C189.131 320.38 189.235 320.858 189.426 321.302C189.617 321.745 189.891 322.146 190.231 322.48C190.572 322.815 190.973 323.076 191.411 323.25C191.85 323.424 192.317 323.507 192.787 323.495H267.444L226.262 261.172Z" fill="#6A99AB"/>
<path d="M331.345 308.373L293.057 243.059L245.901 323.494H327.677C328.147 323.507 328.614 323.424 329.053 323.25C329.491 323.076 329.892 322.814 330.233 322.48C330.573 322.145 330.847 321.745 331.038 321.301C331.229 320.857 331.333 320.379 331.345 319.894V308.373Z" fill="#6A99AB"/>
<path opacity="0.2" d="M331.345 308.373L293.057 243.059L245.901 323.494H327.677C328.147 323.507 328.614 323.424 329.053 323.25C329.491 323.076 329.892 322.814 330.233 322.48C330.573 322.145 330.847 321.745 331.038 321.301C331.229 320.857 331.333 320.379 331.345 319.894V308.373Z" fill="white"/>
<path d="M269.843 233.65C269.945 235.635 269.469 237.606 268.476 239.309C267.483 241.011 266.02 242.366 264.274 243.2C262.528 244.033 260.581 244.306 258.684 243.983C256.787 243.66 255.027 242.756 253.632 241.388C252.237 240.02 251.271 238.251 250.859 236.309C250.446 234.368 250.607 232.343 251.319 230.497C252.031 228.65 253.263 227.067 254.855 225.952C256.446 224.837 258.325 224.241 260.248 224.242C261.477 224.199 262.703 224.41 263.853 224.861C265.004 225.312 266.056 225.995 266.949 226.871C267.841 227.746 268.557 228.796 269.054 229.96C269.551 231.124 269.819 232.378 269.843 233.65Z" fill="white"/>
<path d="M238.566 197.169C239.138 197.057 239.757 197.681 239.927 198.593C240.098 199.505 239.804 200.337 239.216 200.449C238.627 200.561 238.039 199.921 237.854 199.009C237.668 198.097 237.993 197.265 238.566 197.169Z" fill="#263238"/>
<path d="M239.711 209.154C240.46 209.192 241.209 209.06 241.904 208.767C242.6 208.474 243.224 208.027 243.734 207.457C241.537 205.448 239.62 203.133 238.039 200.577L239.711 209.154Z" fill="#932A2A"/>
<path d="M234.031 194.545C234.448 194.004 234.985 193.576 235.597 193.297C236.209 193.019 236.877 192.898 237.544 192.945H237.714C237.792 192.958 237.872 192.954 237.948 192.933C238.024 192.912 238.094 192.873 238.155 192.821C238.215 192.768 238.263 192.703 238.297 192.629C238.33 192.555 238.347 192.474 238.347 192.393C238.347 192.311 238.33 192.231 238.297 192.157C238.263 192.083 238.215 192.017 238.155 191.965C238.094 191.912 238.024 191.874 237.948 191.852C237.872 191.831 237.792 191.827 237.714 191.841C236.889 191.751 236.056 191.868 235.283 192.179C234.51 192.491 233.821 192.989 233.273 193.633C233.195 193.734 233.147 193.856 233.133 193.985C233.133 194.131 233.188 194.271 233.286 194.375C233.385 194.48 233.518 194.541 233.659 194.545C233.779 194.591 233.911 194.591 234.031 194.545Z" fill="#263238"/>
<path d="M230.394 225.331C228.846 231.859 228.753 239.971 235.64 242.195C235.64 242.195 244.261 249.652 227.67 249.652C212.596 249.652 210.368 241.139 210.368 241.139C216.047 235.539 215.011 223.922 213.463 215.538L230.394 225.331Z" fill="#B55B52"/>
<path d="M204.286 239.698C204.286 239.698 207.025 232.226 210.724 230.018C214.423 227.81 230.069 231.09 232.483 232.226C234.898 233.362 237.126 239.346 237.126 239.346L204.286 239.698Z" fill="#6A99AB"/>
<path d="M204.286 239.698C204.286 239.698 207.025 232.226 210.724 230.018C214.423 227.81 230.069 231.09 232.483 232.226C234.898 233.362 237.126 239.346 237.126 239.346L204.286 239.698Z" fill="#263238"/>
<path d="M227.995 575.104C227.94 575.094 227.891 575.064 227.854 575.02C227.818 574.977 227.796 574.922 227.794 574.864C227.78 574.813 227.784 574.758 227.803 574.709C227.823 574.66 227.858 574.619 227.902 574.592C228.119 574.496 232.004 572.224 233.83 572.736C234.005 572.775 234.171 572.85 234.318 572.957C234.464 573.065 234.588 573.202 234.681 573.36C234.802 573.532 234.867 573.74 234.867 573.952C234.867 574.165 234.802 574.372 234.681 574.544C234.217 575.216 232.901 575.424 231.415 575.424C230.269 575.414 229.125 575.307 227.995 575.104ZM233.18 573.168C231.651 573.358 230.173 573.858 228.831 574.64C230.889 574.928 233.69 574.912 234.201 574.176C234.325 574.064 234.387 573.92 234.201 573.584C234.151 573.483 234.079 573.396 233.99 573.329C233.902 573.262 233.799 573.218 233.69 573.2C233.522 573.168 233.349 573.168 233.18 573.2V573.168Z" fill="#6A99AB"/>
<path d="M227.887 575.041C227.823 574.977 227.784 574.892 227.778 574.801C227.778 574.657 228.026 571.6 229.512 570.368C229.721 570.179 229.968 570.039 230.236 569.959C230.503 569.879 230.784 569.86 231.059 569.904C231.771 569.984 232.034 570.368 232.034 570.672C232.236 572 229.589 574.433 228.243 575.073H228.134C228.094 575.089 228.05 575.094 228.007 575.089C227.963 575.083 227.922 575.067 227.887 575.041ZM230.812 570.432C230.466 570.432 230.134 570.57 229.883 570.816C229.03 571.81 228.49 573.049 228.336 574.369C229.713 573.505 231.431 571.552 231.431 570.784C231.431 570.784 231.431 570.464 230.92 570.464H230.765L230.812 570.432Z" fill="#6A99AB"/>
<path d="M216.976 548.239H228.072L226.958 574.784H215.877L216.976 548.239Z" fill="#B55B52"/>
<path d="M229.574 574.369C237.064 579.169 239.386 579.361 248.068 581.329C249.956 581.745 248.702 586.513 244.152 586.513C236.615 586.513 235.842 586.145 229.419 586.145C223.925 586.145 217.611 586.417 213.231 586.481C213.097 586.497 212.962 586.497 212.829 586.481C212.622 586.436 212.427 586.349 212.255 586.223C212.083 586.098 211.937 585.937 211.827 585.751C211.717 585.565 211.644 585.358 211.614 585.143C211.584 584.927 211.597 584.707 211.652 584.497L213.819 574.305C213.869 574.08 213.991 573.88 214.165 573.738C214.34 573.595 214.556 573.518 214.779 573.521H226.896C227.847 573.544 228.773 573.837 229.574 574.369Z" fill="#263238"/>
<path d="M243.053 239.523C232.024 238.677 220.959 238.415 209.903 238.739C207.004 238.941 204.126 239.235 201.268 239.619C199.832 239.797 198.446 240.275 197.194 241.023C195.941 241.77 194.848 242.772 193.98 243.968C193.113 245.164 192.488 246.53 192.145 247.982C191.801 249.435 191.746 250.944 191.982 252.419C198.559 293.189 194.195 333.175 193.282 341.207L252.587 340.871C258.777 290.421 258.189 264.74 255.806 252.387C255.186 249.162 253.636 246.206 251.36 243.91C249.083 241.613 246.187 240.084 243.053 239.523Z" fill="#263238"/>
<path opacity="0.2" d="M216.961 548.256L216.403 561.936H227.5L228.072 548.256H216.961Z" fill="black"/>
<path d="M207.938 196.145C208.691 192.098 210.968 188.525 214.267 186.212C217.566 183.899 221.619 183.035 225.534 183.808C236.956 186.033 241.661 202.257 241.32 212.754C240.995 224.402 228.63 232.291 218.756 225.426C212.209 220.834 211.018 214.226 208.232 203.265C207.601 200.948 207.5 198.51 207.938 196.145Z" fill="#B55B52"/>
<path d="M193.328 340.871C193.328 340.871 183.95 363.672 175.144 401.993C163.676 451.948 136.035 554 136.035 554L155.597 558.432C155.597 558.432 195.944 439.627 206.545 403.818C213.239 382.157 221.623 361.095 231.616 340.839L193.328 340.871Z" fill="#6A99AB"/>
<path opacity="0.3" d="M218.926 367.912C201.469 416.97 197.786 431.691 197.507 432.651C199.627 402.794 208.34 369.464 218.926 367.912C219.669 367.784 218.214 367.672 218.926 367.912Z" fill="black"/>
<path d="M213.571 340.871C213.571 340.871 214.268 367.768 213.432 406.729C212.689 442.459 213.432 559.28 213.432 559.28H232.298C232.298 559.28 246.737 440.107 250.559 403.769C252.781 382.887 253.484 361.862 252.664 340.871H213.571Z" fill="#6A99AB"/>
<path d="M210.724 552.415L211.343 559.599H234.201C234.201 559.599 235.346 551.599 235.254 551.599L210.724 552.415Z" fill="#6A99AB"/>
<path d="M135.494 574.96C135.482 575.013 135.455 575.062 135.417 575.099C135.378 575.136 135.329 575.16 135.277 575.168C135.226 575.181 135.172 575.175 135.124 575.152C135.076 575.129 135.037 575.089 135.014 575.04C134.906 574.832 132.724 570.8 133.25 568.912C133.337 568.555 133.553 568.246 133.853 568.048C134.023 567.924 134.226 567.857 134.434 567.857C134.642 567.857 134.844 567.924 135.014 568.048C135.649 568.544 135.834 569.904 135.834 571.44C135.814 572.621 135.7 573.798 135.494 574.96ZM133.683 569.6C133.85 571.174 134.307 572.7 135.03 574.096C135.339 571.968 135.339 569.072 134.627 568.544C134.534 568.416 134.38 568.352 134.055 568.544C133.957 568.596 133.872 568.67 133.808 568.762C133.743 568.854 133.7 568.96 133.683 569.072C133.652 569.247 133.652 569.425 133.683 569.6Z" fill="#6A99AB"/>
<path d="M135.478 575.072C135.449 575.109 135.41 575.138 135.367 575.154C135.323 575.171 135.276 575.176 135.23 575.168C135.122 575.168 132.135 574.896 130.975 573.36C130.803 573.152 130.675 572.91 130.601 572.648C130.526 572.386 130.506 572.11 130.541 571.84C130.541 571.104 130.975 570.832 131.284 570.832C132.538 570.64 134.905 573.392 135.509 574.784V574.88C135.522 574.946 135.511 575.014 135.478 575.072ZM131.006 572.064C131.026 572.412 131.157 572.743 131.377 573.008C132.329 573.894 133.524 574.453 134.797 574.608C133.977 573.184 132.104 571.312 131.346 571.408C131.346 571.408 131.052 571.408 131.052 571.92V572.096L131.006 572.064Z" fill="#6A99AB"/>
<path d="M140.338 552.943L151.14 553.791L146.157 575.76L135.324 574.96L140.338 552.943Z" fill="#B55B52"/>
<path opacity="0.2" d="M140.462 552.336L138.28 562L149.098 562.8L151.295 553.104L140.462 552.336Z" fill="black"/>
<path d="M132.724 573.488C129.799 577.056 128.251 578.896 119.77 581.665C117.913 582.257 119.584 586.881 124.119 586.465C131.625 585.777 127.477 585.793 133.869 585.217C139.347 584.705 145.662 584.401 150.01 584.081C150.158 584.079 150.305 584.052 150.444 584.001C150.651 583.943 150.845 583.842 151.012 583.702C151.18 583.563 151.318 583.39 151.417 583.192C151.516 582.995 151.574 582.779 151.588 582.557C151.601 582.335 151.57 582.113 151.496 581.905L148.401 571.936C148.335 571.72 148.199 571.534 148.016 571.408C147.832 571.283 147.613 571.227 147.395 571.248L135.324 572.352C134.347 572.367 133.415 572.775 132.724 573.488Z" fill="#263238"/>
<path d="M133.699 550.271L133.59 557.503L157.114 560.111C157.114 560.111 159.126 552.223 159.049 552.223L133.699 550.271Z" fill="#6A99AB"/>
<path d="M296.214 325.975L302.528 320.694C303.287 320.694 308.61 324.407 310.591 325.959C314.089 328.663 316.658 325.959 319.506 330.151C320.821 332.071 311.907 335.639 310.22 336.343C303.999 338.759 296.214 325.975 296.214 325.975Z" fill="#B55B52"/>
<path d="M302.544 320.679L302.358 321.031C301.727 322.262 300.848 323.339 299.78 324.189C298.712 325.039 297.48 325.643 296.168 325.959L277.596 314.758C273.387 311.926 264.735 306.022 263.528 303.398C259.35 299.238 240.02 279.125 235.671 258.596C234.969 255.484 235.273 252.22 236.536 249.304C237.8 246.388 239.953 243.981 242.666 242.451C246.876 240.275 250.776 241.347 253.763 245.987C258.514 259.316 273.681 292.389 273.681 292.389L302.544 320.679Z" fill="#263238"/>
<path d="M177.001 238.627C176.568 238.371 177.233 223.234 177.233 223.234L185.761 231.538L183.47 239.347C183.47 239.347 182.851 242.003 177.001 238.627Z" fill="#B55B52"/>
<path d="M177.233 223.234L180.916 219.202C181.244 218.833 181.65 218.548 182.104 218.371C182.557 218.194 183.044 218.129 183.525 218.182C184.007 218.235 184.47 218.404 184.877 218.676C185.284 218.947 185.624 219.314 185.869 219.746L188.314 223.922C188.622 224.431 188.785 225.019 188.785 225.618C188.785 226.218 188.622 226.806 188.314 227.314L185.714 231.539C185.714 231.539 178.224 229.491 177.233 223.234Z" fill="#B55B52"/>
<path d="M187.711 285.861C186.964 287.513 185.966 289.031 184.755 290.357C183.809 291.25 182.726 291.975 181.551 292.501C180.944 292.745 180.318 292.933 179.678 293.061C178.644 293.191 177.596 292.972 176.692 292.437C175.258 291.638 174.09 290.41 173.342 288.914C172.594 287.419 172.299 285.724 172.497 284.053C173.101 278.196 174.184 265.492 175.005 241.507C174.996 241.113 175.065 240.721 175.206 240.355C175.348 239.989 175.559 239.657 175.828 239.377C176.097 239.098 176.417 238.878 176.771 238.729C177.124 238.581 177.502 238.508 177.883 238.515L183.408 238.739C184.229 238.739 185.016 239.076 185.597 239.676C186.177 240.276 186.503 241.09 186.503 241.939L186.72 249.059L187.711 285.861Z" fill="#263238"/>
<path d="M173.519 281.908L186.566 249.043L187.494 246.723C188.303 244.739 189.659 243.045 191.393 241.853C193.127 240.66 195.162 240.022 197.244 240.019L204.177 240.211C204.177 240.211 194.412 272.996 187.711 285.861C186.964 287.513 185.966 289.031 184.755 290.357C183.809 291.25 182.727 291.975 181.551 292.501C180.945 292.745 180.318 292.933 179.679 293.061C178.659 293.199 177.624 292.997 176.723 292.485C175.428 291.749 174.388 290.613 173.75 289.236C173.111 287.858 172.906 286.309 173.163 284.804L173.519 281.908Z" fill="#263238"/>
<path d="M208.557 203.057C205.597 202.645 202.904 201.074 201.032 198.668C199.16 196.263 198.253 193.206 198.498 190.128C202.046 185.366 206.765 181.675 212.163 179.44C218.072 177.292 224.443 176.882 230.564 178.256C232.021 180.677 233.092 183.324 233.737 186.096C234.148 187.43 234.261 188.843 234.068 190.229C233.875 191.614 233.381 192.937 232.623 194.097C227.361 201.265 217.177 204.257 208.557 203.057Z" fill="#263238"/>
<path d="M203.341 203.313L214.175 221.282L226.184 221.426L231.632 207.425L233.087 193.889C233.087 193.889 204.378 203.297 201.066 198.689C197.754 194.081 203.341 203.313 203.341 203.313Z" fill="#263238"/>
<g opacity="0.5">
<path opacity="0.5" d="M203.341 203.313L214.175 221.282L226.184 221.426L231.632 207.425L233.087 193.889C233.087 193.889 204.378 203.297 201.066 198.689C197.754 194.081 203.341 203.313 203.341 203.313Z" fill="white"/>
</g>
<path d="M232.143 198.401C235.238 199.393 236.909 204.241 237.018 207.313C237.126 210.69 234.913 212.802 232.096 210.514C229.963 208.744 228.451 206.298 227.794 203.553C227.051 200.225 229.047 197.409 232.143 198.401Z" fill="#B55B52"/>
<path opacity="0.2" d="M555.456 204.816H387.214C384.086 204.816 381.55 207.438 381.55 210.673V330.822C381.55 334.056 384.086 336.678 387.214 336.678H555.456C558.584 336.678 561.12 334.056 561.12 330.822V210.673C561.12 207.438 558.584 204.816 555.456 204.816Z" fill="black"/>
<path d="M561.91 195.567H393.668C390.54 195.567 388.004 198.189 388.004 201.424V321.573C388.004 324.807 390.54 327.429 393.668 327.429H561.91C565.038 327.429 567.574 324.807 567.574 321.573V201.424C567.574 198.189 565.038 195.567 561.91 195.567Z" fill="#6A99AB"/>
<path opacity="0.4" d="M561.91 195.567H393.668C390.54 195.567 388.004 198.189 388.004 201.424V321.573C388.004 324.807 390.54 327.429 393.668 327.429H561.91C565.038 327.429 567.574 324.807 567.574 321.573V201.424C567.574 198.189 565.038 195.567 561.91 195.567Z" fill="white"/>
<path d="M561.894 199.984H393.683C392.905 199.984 392.275 200.636 392.275 201.44V321.574C392.275 322.378 392.905 323.03 393.683 323.03H561.894C562.672 323.03 563.302 322.378 563.302 321.574V201.44C563.302 200.636 562.672 199.984 561.894 199.984Z" fill="#6A99AB"/>
<path opacity="0.2" d="M561.894 199.984H393.683C392.905 199.984 392.275 200.636 392.275 201.44V321.574C392.275 322.378 392.905 323.03 393.683 323.03H561.894C562.672 323.03 563.302 322.378 563.302 321.574V201.44C563.302 200.636 562.672 199.984 561.894 199.984Z" fill="black"/>
<path d="M499.881 261.491C499.884 265.995 498.595 270.398 496.177 274.145C493.759 277.891 490.32 280.812 486.296 282.538C482.273 284.264 477.844 284.717 473.571 283.84C469.298 282.963 465.373 280.796 462.291 277.613C459.21 274.429 457.111 270.372 456.26 265.955C455.409 261.537 455.844 256.959 457.51 252.797C459.177 248.636 461.999 245.079 465.621 242.576C469.243 240.074 473.502 238.738 477.858 238.738C483.696 238.738 489.295 241.134 493.425 245.401C497.555 249.668 499.877 255.455 499.881 261.491Z" fill="#6A99AB"/>
<path opacity="0.9" d="M489.31 261.491L471.962 273.108V249.891L489.31 261.491Z" fill="white"/>
<path opacity="0.8" d="M541.605 304.021H400.617V305.253H541.605V304.021Z" fill="white"/>
<path d="M454.69 304.628C454.69 305.053 454.527 305.46 454.237 305.76C453.947 306.06 453.553 306.228 453.143 306.228H399.379C398.968 306.228 398.574 306.06 398.284 305.76C397.994 305.46 397.831 305.053 397.831 304.628C397.831 304.204 397.994 303.797 398.284 303.497C398.574 303.197 398.968 303.028 399.379 303.028H453.096C453.507 303.028 453.901 303.197 454.191 303.497C454.481 303.797 454.644 304.204 454.644 304.628H454.69Z" fill="#6A99AB"/>
<g opacity="0.8">
<path opacity="0.8" d="M554.45 301.028H556.261V302.644H557.793V300.036H554.45V301.028Z" fill="white"/>
<path opacity="0.8" d="M545.102 302.644V301.028H546.913V300.036H543.57V302.644H545.102Z" fill="white"/>
<path opacity="0.8" d="M546.913 308.244H545.102V306.628H543.57V309.221H546.913V308.244Z" fill="white"/>
<path opacity="0.8" d="M556.261 306.628V308.244H554.45V309.221H557.793V306.628H556.261Z" fill="white"/>
</g>
<g opacity="0.8">
<path opacity="0.9" d="M474.422 317.702L479.607 314.246L474.422 310.773V317.702Z" fill="white"/>
<path opacity="0.9" d="M479.607 311.142V314.246V317.334H481V311.142H479.607Z" fill="white"/>
</g>
<g opacity="0.8">
<path opacity="0.9" d="M488.165 311.141H486.354V317.333H488.165V311.141Z" fill="white"/>
<path opacity="0.9" d="M491.384 311.141H489.573V317.333H491.384V311.141Z" fill="white"/>
</g>
<path opacity="0.8" d="M469.362 314.246L464.177 317.702V310.773L469.362 314.246Z" fill="white"/>
<path d="M588.9 260.611L599.408 287.812C599.616 288.198 599.739 288.626 599.768 289.067C599.796 289.507 599.729 289.948 599.572 290.359C599.415 290.769 599.172 291.139 598.86 291.44C598.548 291.741 598.175 291.967 597.768 292.101L567.713 307.253L572.557 313.653C572.557 313.653 603.014 304.949 609.297 297.109C613.847 291.429 601.049 256.227 601.049 256.227L588.9 260.611Z" fill="#B55B52"/>
<path d="M567.713 307.285L565.763 307.413C563.939 307.531 562.157 308.032 560.527 308.885C558.896 309.738 557.449 310.924 556.276 312.373L554.28 314.837C554.072 315.016 553.904 315.239 553.79 315.492C553.675 315.746 553.615 316.022 553.615 316.301C553.615 316.581 553.675 316.857 553.79 317.11C553.904 317.363 554.072 317.586 554.28 317.765C555.487 318.821 555.131 319.141 556.028 319.909C556.524 320.341 556.694 320.021 557.313 319.797L564.401 318.789C567.36 317.543 570.112 315.827 572.557 313.701L567.713 307.285Z" fill="#B55B52"/>
<path d="M580.666 256.946C585.317 262.215 589.579 267.837 593.419 273.763L606.449 268.659L603.788 254.258C603.169 249.842 598.928 243.538 595.446 242.258C585.588 238.658 580.357 249.842 580.666 256.946Z" fill="#6A99AB"/>
<path d="M531.994 208.944C532.571 208.637 533.21 208.476 533.859 208.476C534.508 208.476 535.147 208.637 535.724 208.944L535.863 209.04C535.993 209.094 536.137 209.095 536.267 209.041C536.397 208.987 536.502 208.884 536.559 208.752C536.611 208.62 536.611 208.473 536.559 208.341C536.507 208.21 536.407 208.105 536.281 208.048C535.575 207.64 534.786 207.413 533.978 207.385C533.17 207.357 532.368 207.529 531.638 207.888C531.523 207.937 531.429 208.028 531.375 208.144C531.346 208.209 531.331 208.279 531.328 208.351C531.326 208.422 531.338 208.494 531.362 208.56C531.386 208.627 531.423 208.689 531.471 208.741C531.518 208.793 531.575 208.835 531.638 208.864C531.743 208.935 531.87 208.964 531.994 208.944Z" fill="#263238"/>
<path d="M533.34 212.609C532.89 215.014 532.195 217.363 531.266 219.617C531.614 219.972 532.049 220.219 532.525 220.332C533.001 220.445 533.497 220.419 533.959 220.257L533.34 212.609Z" fill="#932A2A"/>
<path d="M564.664 221.474C564.54 229.474 565.577 244.131 571.783 248.355C571.783 248.355 571.087 256.675 557.05 259.299C541.574 262.179 548.306 252.755 548.306 252.755C556.369 249.091 555.022 242.675 552.469 236.882L564.664 221.474Z" fill="#B55B52"/>
<path d="M532.551 210.001C531.87 210.001 531.39 210.977 531.483 212.049C531.576 213.121 532.195 213.953 532.876 213.905C533.557 213.857 534.037 212.929 533.944 211.841C533.851 210.753 533.232 209.937 532.551 210.001Z" fill="#263238"/>
<path d="M531.808 211.073C531.569 211.03 531.345 210.921 531.16 210.757C530.975 210.594 530.835 210.383 530.756 210.145C531.216 210.321 531.709 210.381 532.195 210.321C531.991 210.522 531.855 210.786 531.808 211.073Z" fill="#263238"/>
<path d="M569.121 203.904C569.415 217.185 569.802 222.801 563.906 230.13C555.022 241.17 539.144 238.642 535.089 225.793C531.39 214.161 530.121 197.072 542.239 190.736C550.844 186.176 562.776 187.04 567.187 195.92C568.417 198.392 569.079 201.125 569.121 203.904Z" fill="#B55B52"/>
<path d="M584.21 235.57C582.895 231.17 585.216 226.962 585.062 222.529C584.993 220.235 584.482 217.978 583.56 215.891C582.638 213.803 581.323 211.926 579.691 210.369C577.308 208.081 574.476 206.625 572.866 203.553C571.582 201.105 570.576 198.512 569.322 196.032C568.152 193.389 566.296 191.133 563.96 189.515C561.624 187.896 558.9 186.979 556.09 186.864C538.958 186.288 534.872 192.944 534.532 200.049C534.627 203.977 535.779 207.8 537.859 211.089C541.218 216.017 540.134 225.266 537.472 230.578C537.101 232.033 537.11 233.565 537.499 235.016C537.888 236.466 538.642 237.784 539.685 238.834C543.276 242.21 556.988 232.898 569.26 233.17C581.533 233.442 584.21 235.57 584.21 235.57Z" fill="#263238"/>
<path d="M542.781 213.744C542.983 216.253 542.483 218.769 541.341 220.993C539.794 223.857 537.689 223.025 536.946 220.145C536.265 217.616 536.265 213.056 538.339 211.088C540.413 209.12 542.502 210.624 542.781 213.744Z" fill="#B55B52"/>
<path d="M526.639 197.313C526.336 198.503 526.475 199.767 527.028 200.856C527.58 201.946 528.507 202.782 529.626 203.201C529.814 204.319 530.227 205.384 530.839 206.326C531.451 207.269 532.247 208.067 533.177 208.671C534.106 209.274 535.148 209.669 536.235 209.829C537.322 209.99 538.429 209.912 539.484 209.601C537.38 208.993 536.807 206.033 537.565 203.905C538.958 200.001 544.468 195.249 539.221 191.969C535.213 189.505 527.738 192.737 526.639 197.313Z" fill="#263238"/>
<path d="M532.644 266.547C535.647 278.372 539.717 299.172 543.478 334.086L586.981 328.774C584.551 308.741 588.312 293.668 593.868 256.771C594.1 255.252 594.036 253.701 593.68 252.209C593.324 250.717 592.683 249.313 591.795 248.08C590.907 246.847 589.789 245.811 588.508 245.031C587.227 244.251 585.808 243.743 584.335 243.538C581.309 243.123 578.256 242.952 575.204 243.026C567.241 243.105 559.296 243.795 551.432 245.09C548.653 245.619 545.904 246.308 543.199 247.154C539.35 248.339 536.097 251.024 534.127 254.643C532.158 258.262 531.626 262.531 532.644 266.547Z" fill="#6A99AB"/>
<path opacity="0.2" d="M546.031 264.242L538.572 296.788L532.056 264.242C533.929 264.146 546.031 264.242 546.031 264.242Z" fill="black"/>
<path d="M528.961 256.387L543.029 258.947C543.029 258.947 536.668 288.676 530.772 299.813C525.169 310.421 491.957 325.75 491.957 325.75L490.271 319.621L516.193 297.652C518.73 295.493 520.517 292.539 521.285 289.236L528.961 256.387Z" fill="#B55B52"/>
<path d="M490.27 319.621L494.913 323.013L486.2 331.014C483.337 333.91 476.791 333.494 472.473 333.782C472.198 333.813 471.92 333.788 471.654 333.709C471.389 333.629 471.141 333.496 470.925 333.318L469.238 331.974C467.783 330.79 467.412 327.733 469.238 327.365L479.514 326.181C481.402 324.325 490.27 319.621 490.27 319.621Z" fill="#B55B52"/>
<path d="M524.643 259.251C523.327 268.611 522.708 277.652 522.708 277.652L538.185 281.204C538.185 281.204 549.668 263.203 545.923 256.147C543.044 250.003 536.25 246.227 530.029 250.259C528.556 251.267 527.312 252.592 526.382 254.144C525.453 255.697 524.859 257.439 524.643 259.251Z" fill="#6A99AB"/>
<path d="M670.134 398.697L673.941 409.77L650.526 422.73L644.552 411.69L670.134 398.697Z" fill="#B55B52"/>
<path d="M668.896 411.705L662.984 403.081C662.856 402.896 662.796 402.67 662.816 402.444C662.836 402.218 662.934 402.006 663.092 401.849L672.827 390.888C673.198 390.561 673.678 390.398 674.165 390.434C674.651 390.47 675.105 390.702 675.427 391.08C675.473 391.135 675.515 391.194 675.551 391.256C678.089 395.033 679.126 396.985 682.422 401.705C684.434 404.585 691.894 412.473 693.89 416.954C695.886 421.434 691.692 423.706 690.47 422.026C686.585 416.586 678.599 413.113 672.347 413.177C671.116 412.92 669.944 412.42 668.896 411.705Z" fill="#263238"/>
<path opacity="0.2" d="M637.309 415.145L643.5 426.793L658.543 418.281L653.606 407.081L637.309 415.145Z" fill="black"/>
<path d="M520.588 416.809C530.028 420.585 540.707 418.233 550.364 415.209C565.732 410.297 581.44 404.969 594.394 395.208C603.262 388.52 605.893 380.808 604.051 377.607C592.683 375.69 581.159 374.935 569.647 375.351C558.288 375.975 546.774 379.111 537.767 386.184C528.759 393.256 521.795 414.985 522.213 414.297L520.588 416.809Z" fill="#6A99AB"/>
<g opacity="0.2">
<path opacity="0.2" d="M520.588 416.809C530.028 420.585 540.707 418.233 550.364 415.209C565.732 410.297 581.44 404.969 594.394 395.208C603.262 388.52 605.893 380.808 604.051 377.607C592.683 375.69 581.159 374.935 569.647 375.351C558.288 375.975 546.774 379.111 537.767 386.184C528.759 393.256 521.795 414.985 522.213 414.297L520.588 416.809Z" fill="black"/>
</g>
<path d="M552.639 329.782C552.639 329.782 544.004 456.379 584.443 467.004C609.762 473.228 655.216 424.954 655.216 424.954L648.158 409.305C648.158 409.305 608.586 425.626 601.064 421.818C582.864 384.68 606.249 352.039 586.47 326.822L552.639 329.782Z" fill="#263238"/>
<path d="M672.131 412.569C672.097 412.529 672.053 412.5 672.003 412.486C671.954 412.471 671.901 412.472 671.852 412.489C671.8 412.502 671.754 412.533 671.721 412.577C671.687 412.62 671.668 412.673 671.666 412.729C671.666 413.161 671.295 417.449 672.456 418.345C672.584 418.446 672.736 418.512 672.896 418.534C673.056 418.557 673.219 418.536 673.369 418.473C673.62 418.396 673.849 418.255 674.033 418.061C674.217 417.868 674.351 417.63 674.421 417.369V417.225C674.638 415.865 673.09 413.753 672.131 412.569ZM672.131 413.497C673.446 415.097 674.05 416.505 673.88 417.225C673.829 417.397 673.737 417.553 673.613 417.679C673.488 417.805 673.335 417.896 673.168 417.945C673.105 417.984 673.032 418.005 672.959 418.005C672.885 418.005 672.813 417.984 672.75 417.945C672.115 417.465 672.038 415.193 672.131 413.481V413.497Z" fill="#6A99AB"/>
<path d="M672.223 412.777C672.224 412.73 672.212 412.683 672.191 412.641C672.169 412.599 672.138 412.564 672.1 412.537C672.061 412.51 672.015 412.495 671.968 412.495C671.921 412.495 671.875 412.51 671.837 412.537C671.713 412.537 668.834 414.137 668.447 415.866C668.386 416.071 668.369 416.288 668.399 416.501C668.428 416.714 668.503 416.918 668.618 417.098C668.724 417.291 668.89 417.442 669.089 417.526C669.289 417.61 669.509 417.623 669.716 417.562C670.831 417.178 671.914 414.649 672.131 413.209C672.176 413.069 672.207 412.924 672.223 412.777ZM668.912 416.106C668.918 416.079 668.918 416.052 668.912 416.026C669.144 415.001 670.645 413.897 671.573 413.305C671.31 414.713 670.289 416.794 669.531 417.034C669.407 417.034 669.237 417.034 669.051 416.778C668.981 416.683 668.931 416.574 668.904 416.459C668.878 416.343 668.875 416.222 668.896 416.106H668.912Z" fill="#6A99AB"/>
<path d="M584.907 570.672L573.764 572.8L568.007 546.175L579.15 544.047L584.907 570.672Z" fill="#B55B52"/>
<path d="M569.431 574.992C569.484 574.972 569.53 574.938 569.566 574.893C569.601 574.848 569.624 574.794 569.632 574.736C569.627 574.678 569.607 574.622 569.574 574.575C569.541 574.527 569.497 574.489 569.446 574.464C568.92 574.256 564.138 572.416 562.853 573.376C562.732 573.463 562.634 573.581 562.569 573.718C562.504 573.855 562.474 574.008 562.482 574.16C562.48 574.411 562.534 574.659 562.642 574.885C562.749 575.11 562.907 575.306 563.101 575.456C563.977 575.909 564.974 576.044 565.933 575.84C567.12 575.66 568.29 575.377 569.431 574.992ZM563.658 573.664C565.33 573.726 566.978 574.084 568.533 574.72C566.072 575.44 564.2 575.552 563.457 575.008C563.328 574.908 563.224 574.777 563.154 574.627C563.084 574.477 563.05 574.311 563.055 574.144C563.049 574.083 563.058 574.021 563.083 573.965C563.107 573.909 563.146 573.86 563.194 573.824C563.345 573.733 563.515 573.678 563.689 573.664H563.658Z" fill="#6A99AB"/>
<path d="M569.524 574.912C569.547 574.868 569.559 574.818 569.559 574.768C569.559 574.718 569.547 574.668 569.524 574.624C569.524 574.512 568.874 571.424 567.326 570.336C567.1 570.182 566.846 570.08 566.579 570.035C566.312 569.991 566.039 570.006 565.778 570.08C565.036 570.256 564.912 570.672 564.865 570.976C564.788 572.336 567.728 574.528 569.152 574.992H569.245C569.294 575.008 569.346 575.009 569.396 574.995C569.445 574.981 569.49 574.952 569.524 574.912ZM566.119 570.592C566.459 570.521 566.812 570.584 567.109 570.768C568.057 571.677 568.697 572.878 568.936 574.192C567.388 573.536 565.438 571.776 565.484 570.992C565.484 570.992 565.484 570.72 565.98 570.608H566.134L566.119 570.592Z" fill="#6A99AB"/>
<path d="M573.95 568.064L584.149 567.616C584.368 567.596 584.587 567.663 584.762 567.802C584.937 567.941 585.055 568.143 585.093 568.368L588.729 582.768C588.796 583.266 588.672 583.771 588.382 584.175C588.093 584.579 587.662 584.849 587.182 584.928H586.965C582.524 585.072 580.372 584.928 574.754 585.216C571.319 585.392 560.826 587.616 556.183 586.912C551.54 586.208 551.881 581.344 553.908 581.2C560.424 580.752 567.574 575.712 570.932 570.256C571.396 569.776 573.238 568.08 573.95 568.064Z" fill="#263238"/>
<path opacity="0.2" d="M568.007 546.176L570.979 559.904L582.121 557.792L579.165 544.063L568.007 546.176Z" fill="black"/>
<path opacity="0.2" d="M580.233 354.567L560.934 376.136L569.493 434.763L580.233 354.567Z" fill="black"/>
<path d="M542.038 331.302C542.038 331.302 530.431 362.519 529.41 391.865C527.676 441.963 540.816 486.893 545.458 502.845C554.961 535.407 564.788 551.839 564.788 551.839L583.251 549.567C583.251 549.567 559.371 407.369 570.87 390.601C594.982 355.511 574.136 327.878 574.136 327.878L542.038 331.302Z" fill="#263238"/>
<path d="M585.077 299.621C602.101 323.83 602.101 357.447 604.608 378.808C601.513 383.4 581.935 388.825 576.503 388.649C565.728 388.395 555.05 390.806 545.359 395.682C535.668 400.559 527.244 407.758 520.789 416.682C515.914 399.417 539.36 307.765 539.36 307.765C544.669 306.117 581.765 294.949 585.077 299.621Z" fill="#6A99AB"/>
<path d="M574.878 254.899L557.143 256.947C556.11 257.046 555.075 256.785 554.203 256.205C553.33 255.625 552.671 254.76 552.33 253.747C551.812 252.618 551.14 251.573 550.333 250.643C548.902 248.699 546.956 247.226 544.731 246.403C549.996 244.456 555.434 243.052 560.965 242.21C569.245 241.33 572.309 243.043 572.309 243.043C576.472 244.243 577.958 245.939 578.794 249.059C578.961 249.712 578.988 250.395 578.875 251.06C578.762 251.725 578.511 252.357 578.138 252.912C577.766 253.467 577.282 253.932 576.719 254.275C576.156 254.618 575.528 254.831 574.878 254.899Z" fill="#B55B52"/>
<path d="M388.05 536.047C388.05 536.047 403.016 521.454 402.768 511.87C402.521 502.285 393.483 524.75 393.204 520.03C392.925 515.31 403.542 501.741 404.037 492.477C404.533 483.213 393.204 509.102 392.693 504.749C392.183 500.397 402.954 481.148 402.861 474.348C402.768 467.548 393.374 491.421 392.028 487.149C390.681 482.877 399.859 467.212 397.506 455.451C395.154 443.691 390.155 474.556 389.397 470.636C388.638 466.716 394.984 446.635 390.496 438.635C386.008 430.634 387.261 460.38 385.729 456.923C384.197 453.467 383.268 436.379 377.542 430.554C371.816 424.73 379.09 447.771 377.294 448.923C375.499 450.075 367.374 432.922 365.177 436.203C362.979 439.483 376.768 457.867 376.907 462.268C377.047 466.668 365.765 454.923 364.759 459.692C363.753 464.46 380.452 471.964 381.303 476.524C382.154 481.084 367.374 472.924 367.467 477.628C367.56 482.333 381.504 484.845 382.34 490.189C383.175 495.533 368.659 486.333 369.448 492.589C370.237 498.845 380.018 497.629 381.133 503.789C382.247 509.95 371.042 502.925 371.475 508.798C371.909 514.67 383.082 515.326 384.259 519.806C385.435 524.286 373.565 517.71 373.905 522.462C374.246 527.214 385.713 527.902 388.05 536.047Z" fill="#6A99AB"/>
<path d="M386.812 556.8C388.787 545.999 389.822 535.038 389.908 524.046C390.465 500.157 387.571 476.044 379.863 453.483C379.306 451.883 376.768 452.427 377.279 454.091C384.667 476.562 388.049 500.231 387.261 523.95C387.151 534.691 386.115 545.401 384.166 555.952C383.825 557.664 386.348 558.496 386.704 556.768L386.812 556.8Z" fill="#6A99AB"/>
<path d="M392.43 540.974C392.43 540.974 382.015 520.381 385.342 506.429C388.669 492.476 391.099 524.957 392.647 517.181C394.194 509.405 387.772 494.3 393.746 483.084C399.719 471.867 394.194 504.141 398.172 497.052C402.149 489.964 397.522 471.883 403.047 465.051C408.572 458.219 404.811 479.915 407.473 476.491C410.135 473.067 409.469 457.035 413.663 453.37C417.857 449.706 414.112 468.699 416.325 465.051C418.538 461.403 423.63 444.682 430.718 442.65C437.806 440.618 426.075 452.954 430.718 451.802C435.361 450.65 445.978 448.138 446.875 453.178C447.773 458.219 424.512 463.643 421.866 469.755C419.219 475.867 432.482 464.955 434.912 469.531C437.342 474.107 414.561 480.508 412.781 487.372C411.001 494.236 431.6 481.66 431.151 488.748C430.703 495.836 407.473 497.212 406.39 503.388C405.306 509.565 425.41 496.524 424.744 502.7C424.079 508.877 403.944 513.693 402.613 520.301C401.282 526.909 417.455 514.125 417.888 519.389C418.322 524.653 392.43 540.974 392.43 540.974Z" fill="#6A99AB"/>
<path opacity="0.2" d="M392.43 540.974C392.43 540.974 382.015 520.381 385.342 506.429C388.669 492.476 391.099 524.957 392.647 517.181C394.194 509.405 387.772 494.3 393.746 483.084C399.719 471.867 394.194 504.141 398.172 497.052C402.149 489.964 397.522 471.883 403.047 465.051C408.572 458.219 404.811 479.915 407.473 476.491C410.135 473.067 409.469 457.035 413.663 453.37C417.857 449.706 414.112 468.699 416.325 465.051C418.538 461.403 423.63 444.682 430.718 442.65C437.806 440.618 426.075 452.954 430.718 451.802C435.361 450.65 445.978 448.138 446.875 453.178C447.773 458.219 424.512 463.643 421.866 469.755C419.219 475.867 432.482 464.955 434.912 469.531C437.342 474.107 414.561 480.508 412.781 487.372C411.001 494.236 431.6 481.66 431.151 488.748C430.703 495.836 407.473 497.212 406.39 503.388C405.306 509.565 425.41 496.524 424.744 502.7C424.079 508.877 403.944 513.693 402.613 520.301C401.282 526.909 417.455 514.125 417.888 519.389C418.322 524.653 392.43 540.974 392.43 540.974Z" fill="white"/>
<path d="M377.712 540.367C377.712 540.367 387.787 521.806 384.785 512.75C381.782 503.693 379.585 527.934 378.006 523.486C376.428 519.038 382.649 502.845 380.343 493.869C378.037 484.893 374.88 513.07 373.054 509.086C371.228 505.101 376.025 483.389 373.998 476.988C371.97 470.588 369.881 496.189 367.343 492.605C364.805 489.021 369.045 471.164 363.397 460.604C357.748 450.043 361.849 481.1 360.054 477.596C358.258 474.092 358.506 452.939 351.82 446.651C345.135 440.363 355.039 468.412 352.563 465.58C350.087 462.748 344.283 446.747 337.087 442.955C329.891 439.163 343.51 458.956 342.163 460.556C340.817 462.156 328.08 448.379 326.919 452.171C325.759 455.963 344.253 469.244 345.645 473.404C347.038 477.564 332.893 469.836 333.264 474.7C333.636 479.564 351.836 481.565 353.91 485.661C355.983 489.757 339.625 486.525 341.049 490.989C342.473 495.453 356.525 493.533 358.862 498.381C361.199 503.229 344.686 498.925 347.255 504.653C349.824 510.382 358.8 506.254 361.648 511.742C364.495 517.23 351.774 514.046 353.91 519.518C356.045 524.99 366.879 522.142 369.293 526.062C371.707 529.983 358.46 527.358 360.178 531.791C361.895 536.223 373.131 533.311 377.712 540.367Z" fill="#6A99AB"/>
<path opacity="0.1" d="M377.712 540.367C377.712 540.367 387.787 521.806 384.785 512.75C381.782 503.693 379.585 527.934 378.006 523.486C376.428 519.038 382.649 502.845 380.343 493.869C378.037 484.893 374.88 513.07 373.054 509.086C371.228 505.101 376.025 483.389 373.998 476.988C371.97 470.588 369.881 496.189 367.343 492.605C364.805 489.021 369.045 471.164 363.397 460.604C357.748 450.043 361.849 481.1 360.054 477.596C358.258 474.092 358.506 452.939 351.82 446.651C345.135 440.363 355.039 468.412 352.563 465.58C350.087 462.748 344.283 446.747 337.087 442.955C329.891 439.163 343.51 458.956 342.163 460.556C340.817 462.156 328.08 448.379 326.919 452.171C325.759 455.963 344.253 469.244 345.645 473.404C347.038 477.564 332.893 469.836 333.264 474.7C333.636 479.564 351.836 481.565 353.91 485.661C355.983 489.757 339.625 486.525 341.049 490.989C342.473 495.453 356.525 493.533 358.862 498.381C361.199 503.229 344.686 498.925 347.255 504.653C349.824 510.382 358.8 506.254 361.648 511.742C364.495 517.23 351.774 514.046 353.91 519.518C356.045 524.99 366.879 522.142 369.293 526.062C371.707 529.983 358.46 527.358 360.178 531.791C361.895 536.223 373.131 533.311 377.712 540.367Z" fill="white"/>
<path d="M382.541 560.56C381.317 549.64 379.152 538.856 376.072 528.334C369.917 505.223 359.76 483.457 346.094 464.092C345.073 462.7 342.767 464.092 343.788 465.484C357.34 484.638 367.413 506.178 373.518 529.055C376.54 539.34 378.669 549.883 379.879 560.56C380.049 562.304 382.711 562.32 382.541 560.56Z" fill="#6A99AB"/>
<path d="M391.981 557.92C392.392 548.363 393.473 538.849 395.216 529.455C398.404 511.31 403.496 492.781 413.307 477.196C418.682 468.158 426.404 460.862 435.593 456.139C437.141 455.387 435.794 453.019 434.247 453.755C417.502 461.9 407.458 479.228 401.097 496.493C395.37 512.682 391.697 529.57 390.171 546.735C389.784 550.447 389.443 554.176 389.319 557.936C389.319 559.696 391.919 559.696 391.981 557.936V557.92Z" fill="#6A99AB"/>
<path d="M413.663 543.039H358.785L364.975 571.84V578.353C364.975 580.513 365.805 582.584 367.283 584.111C368.76 585.639 370.763 586.497 372.853 586.497H399.596C401.685 586.497 403.688 585.639 405.166 584.111C406.643 582.584 407.473 580.513 407.473 578.353V571.84L413.663 543.039Z" fill="#263238"/>
</svg>
