<svg width="229" height="160" viewBox="0 0 229 160" fill="none" xmlns="http://www.w3.org/2000/svg">
<path d="M205.332 147.52H190.283V147.627H205.332V147.52Z" fill="#EBEBEB"/>
<path d="M151.408 148.681H147.459V148.787H151.408V148.681Z" fill="#EBEBEB"/>
<path d="M189.829 143.561H181.109V143.667H189.829V143.561Z" fill="#EBEBEB"/>
<path d="M44.3728 144.277H24.7488V144.384H44.3728V144.277Z" fill="#EBEBEB"/>
<path d="M51.2973 144.277H48.4211V144.384H51.2973V144.277Z" fill="#EBEBEB"/>
<path d="M103.213 146.078H60.6481V146.185H103.213V146.078Z" fill="#EBEBEB"/>
<path d="M107.739 121.625H19.9961C19.3088 121.624 18.65 121.366 18.1645 120.91C17.6789 120.453 17.4062 119.834 17.4062 119.188V3.37329C17.4122 2.73156 17.6875 2.11797 18.1724 1.66579C18.6574 1.2136 19.3127 0.959351 19.9961 0.958252H107.734C108.422 0.958252 109.082 1.21494 109.568 1.67185C110.055 2.12876 110.328 2.74846 110.328 3.39462V119.188C110.328 119.834 110.056 120.453 109.57 120.91C109.085 121.366 108.426 121.624 107.739 121.625ZM19.9961 1.04359C19.3389 1.04472 18.7091 1.29067 18.2448 1.72745C17.7805 2.16423 17.5198 2.75615 17.5198 3.37329V119.188C17.5198 119.805 17.7805 120.397 18.2448 120.834C18.7091 121.271 19.3389 121.517 19.9961 121.518H107.734C108.392 121.517 109.022 121.271 109.487 120.834C109.952 120.398 110.214 119.806 110.215 119.188V3.37329C110.214 2.75576 109.952 2.16385 109.487 1.72719C109.022 1.29053 108.392 1.04472 107.734 1.04359H19.9961Z" fill="#EBEBEB"/>
<path d="M206.018 121.625H118.28C117.592 121.624 116.933 121.367 116.447 120.91C115.96 120.453 115.687 119.834 115.685 119.188V3.37329C115.692 2.73118 115.969 2.11759 116.454 1.66552C116.94 1.21346 117.596 0.959339 118.28 0.958252H206.018C206.706 0.958252 207.366 1.21494 207.852 1.67185C208.339 2.12876 208.612 2.74846 208.612 3.39462V119.188C208.612 119.834 208.339 120.454 207.852 120.911C207.366 121.368 206.706 121.625 206.018 121.625ZM118.28 1.04359C117.622 1.04472 116.992 1.29053 116.527 1.72719C116.062 2.16385 115.8 2.75576 115.799 3.37329V119.188C115.8 119.806 116.062 120.398 116.527 120.834C116.992 121.271 117.622 121.517 118.28 121.518H206.018C206.675 121.517 207.306 121.271 207.771 120.834C208.235 120.398 208.497 119.806 208.498 119.188V3.37329C208.497 2.75576 208.235 2.16385 207.771 1.72719C207.306 1.29053 206.675 1.04472 206.018 1.04359H118.28Z" fill="#EBEBEB"/>
<path d="M228.095 140.655H0.91272V140.762H228.095V140.655Z" fill="#EBEBEB"/>
<path d="M137.009 134.327H138.372C140.017 134.327 141.139 133.32 140.88 132.074L128.962 75.1631C128.698 73.9171 127.144 72.9102 125.513 72.9102H30.7826L43.623 134.327H137.009Z" fill="#F0F0F0"/>
<path d="M44.3136 134.327C42.2962 134.327 40.4015 133.09 40.0789 131.562L28.3881 75.6665C28.0655 74.139 29.4422 72.9016 31.4641 72.9016C33.4815 72.9016 35.3762 74.139 35.6943 75.6665L47.3896 131.562C47.7122 133.09 46.3491 134.327 44.3136 134.327Z" fill="#E0E0E0"/>
<path d="M97.8923 134.327H200.67V139.127C200.67 139.541 200.496 139.938 200.186 140.232C199.877 140.526 199.456 140.693 199.016 140.697H97.8923V134.327Z" fill="#EBEBEB"/>
<path d="M44.0774 134.327H115.867V139.127C115.867 139.544 115.691 139.943 115.377 140.238C115.064 140.532 114.638 140.697 114.195 140.697H45.7313C45.291 140.693 44.8703 140.526 44.5607 140.232C44.251 139.938 44.0774 139.541 44.0774 139.127V134.327Z" fill="#E0E0E0"/>
<path opacity="0.2" d="M161.304 134.327C161.34 135.428 162.526 136.315 163.989 136.315H175.103C176.566 136.315 177.752 135.428 177.788 134.327H161.304Z" fill="#E0E0E0"/>
<path d="M133.578 129.497H52.8876L41.9828 77.386H122.673L133.578 129.497Z" fill="#E0E0E0"/>
<path d="M83.1982 74.732C83.2518 74.9632 83.2277 75.2043 83.1292 75.4221C83.0308 75.6399 82.8628 75.8236 82.6485 75.948C82.4342 76.0724 82.1841 76.1313 81.9326 76.1166C81.6812 76.1019 81.4408 76.0143 81.2446 75.8659C81.0484 75.7175 80.906 75.5156 80.8371 75.288C80.7682 75.0604 80.7761 74.8184 80.8598 74.5953C80.9436 74.3721 81.0989 74.1788 81.3045 74.0421C81.5101 73.9054 81.7558 73.8319 82.0077 73.8317C82.292 73.8064 82.5755 73.8864 82.7979 74.0546C83.0203 74.2228 83.1639 74.4659 83.1982 74.732Z" fill="#E0E0E0"/>
<path d="M191.746 104.318C191.801 103.782 191.77 103.242 191.655 102.714L193.255 101.622L192.473 100.026L190.547 100.453C189.839 99.5972 188.878 98.9574 187.784 98.6136L187.575 96.7661L185.712 96.6082L185.144 98.3875C184.001 98.5358 182.931 98.9991 182.068 99.7187L180.251 98.9635L179.169 100.397L180.532 101.745C180.094 102.749 179.985 103.853 180.219 104.916L178.62 106.008L179.401 107.604L181.328 107.177C182.036 108.034 182.999 108.674 184.095 109.016L184.299 110.864L186.162 111.026L186.73 109.242C187.873 109.095 188.944 108.632 189.806 107.911L191.623 108.666L192.7 107.233L191.337 105.884C191.558 105.385 191.696 104.857 191.746 104.318ZM185.635 106.776C185.037 106.724 184.47 106.508 184.004 106.153C183.538 105.798 183.194 105.321 183.017 104.783C182.84 104.244 182.837 103.669 183.008 103.129C183.18 102.589 183.518 102.109 183.98 101.75C184.443 101.39 185.008 101.168 185.605 101.111C186.202 101.054 186.803 101.164 187.333 101.428C187.863 101.692 188.298 102.098 188.582 102.595C188.866 103.091 188.987 103.655 188.929 104.216C188.853 104.965 188.464 105.656 187.846 106.136C187.228 106.616 186.433 106.846 185.635 106.776Z" fill="#F0F0F0"/>
<path d="M199.016 111.717C199.017 111.314 198.954 110.913 198.83 110.527L199.938 109.614L199.22 108.483L197.821 108.909C197.232 108.319 196.47 107.905 195.631 107.719L195.34 106.358H193.941L193.654 107.719C192.815 107.904 192.053 108.318 191.464 108.909L190.06 108.483L189.365 109.622L190.474 110.535C190.225 111.31 190.225 112.137 190.474 112.912L189.365 113.829L190.06 114.964L191.464 114.537C192.052 115.129 192.815 115.542 193.654 115.724L193.941 117.085H195.34L195.631 115.724C196.47 115.541 197.233 115.128 197.821 114.537L199.22 114.964L199.916 113.829L198.807 112.912C198.94 112.526 199.011 112.123 199.016 111.717ZM194.663 113.923C194.214 113.923 193.775 113.798 193.401 113.563C193.027 113.329 192.736 112.996 192.564 112.606C192.392 112.216 192.347 111.787 192.435 111.373C192.523 110.96 192.739 110.579 193.057 110.281C193.374 109.983 193.779 109.779 194.22 109.697C194.661 109.615 195.117 109.657 195.533 109.819C195.948 109.98 196.302 110.253 196.552 110.604C196.802 110.955 196.935 111.368 196.935 111.79C196.935 112.072 196.875 112.351 196.76 112.611C196.644 112.871 196.475 113.107 196.262 113.306C196.048 113.504 195.795 113.661 195.517 113.767C195.239 113.873 194.941 113.926 194.64 113.923H194.663Z" fill="#F0F0F0"/>
<path d="M188.656 47.1554H173.208V32.6481H188.656V47.1554ZM173.662 46.7287H188.202V33.0748H173.662V46.7287Z" fill="#E0E0E0"/>
<path d="M191.855 58.0103H170.595V52.8175H191.855V58.0103ZM171.05 57.5836H191.401V53.2442H171.05V57.5836Z" fill="#E0E0E0"/>
<path d="M170.686 73.8403H162.144V65.8143H170.686V73.8403ZM162.599 73.4136H170.232V66.241H162.599V73.4136Z" fill="#E0E0E0"/>
<path d="M180.582 73.8403H172.04V65.8143H180.582V73.8403ZM172.495 73.4136H180.128V66.241H172.495V73.4136Z" fill="#E0E0E0"/>
<path d="M190.478 73.8403H181.936V65.8143H190.478V73.8403ZM182.391 73.4136H190.024V66.241H182.391V73.4136Z" fill="#E0E0E0"/>
<path d="M200.379 73.8403H191.837V65.8143H200.379V73.8403ZM192.291 73.4136H199.925V66.241H192.291V73.4136Z" fill="#E0E0E0"/>
<path d="M196.335 65.9252H195.881V63.0152H166.438V65.9252H165.984V62.5886H196.335V65.9252Z" fill="#E0E0E0"/>
<path d="M181.486 57.7969H181.032V62.8019H181.486V57.7969Z" fill="#E0E0E0"/>
<path d="M181.486 46.797H181.032V53.0309H181.486V46.797Z" fill="#E0E0E0"/>
<path d="M176.716 62.8019H176.261V66.0319H176.716V62.8019Z" fill="#E0E0E0"/>
<path d="M186.353 62.8019H185.898V66.0319H186.353V62.8019Z" fill="#E0E0E0"/>
<path d="M50.6339 40.9216H34.9629V35.7331H50.6339V40.9216ZM35.4173 40.4949H50.1796V36.1598H35.4173V40.4949Z" fill="#E0E0E0"/>
<path d="M53.4283 30.9286H32.1686V25.7358H53.4283V30.9286ZM32.6229 30.5019H52.974V26.1625H32.6229V30.5019Z" fill="#E0E0E0"/>
<path d="M37.1711 54.3749H28.629V46.3533H37.1711V54.3749ZM29.0834 53.9483H36.7167V46.78H29.0834V53.9483Z" fill="#E0E0E0"/>
<path d="M47.0717 54.3749H38.5297V46.3533H47.0717V54.3749ZM38.984 53.9483H46.6174V46.78H38.984V53.9483Z" fill="#E0E0E0"/>
<path d="M56.9677 54.3749H48.4257V46.3533H56.9677V54.3749ZM48.88 53.9483H56.5134V46.78H48.88V53.9483Z" fill="#E0E0E0"/>
<path d="M52.574 47.0146L42.796 41.088L33.0181 46.5922L32.7864 46.2252L42.8006 40.5887L52.8193 46.6562L52.574 47.0146Z" fill="#E0E0E0"/>
<path d="M43.0279 40.8362H42.5735V46.4087H43.0279V40.8362Z" fill="#E0E0E0"/>
<path d="M43.0279 31.1376H42.5735V36.42H43.0279V31.1376Z" fill="#E0E0E0"/>
<path d="M114.504 159.689C163.158 159.689 202.601 157.527 202.601 154.859C202.601 152.192 163.158 150.029 114.504 150.029C65.8494 150.029 26.4071 152.192 26.4071 154.859C26.4071 157.527 65.8494 159.689 114.504 159.689Z" fill="#F5F5F5"/>
<path d="M178.91 5.09283H46.2629V99.6291H178.91V5.09283Z" fill="#506CA9"/>
<path opacity="0.6" d="M178.91 5.09283H46.2629V99.6291H178.91V5.09283Z" fill="white"/>
<path d="M178.91 5.09283H46.3447V11.3395H178.91V5.09283Z" fill="#506CA9"/>
<path d="M51.9789 8.25033C51.9789 8.49422 51.9019 8.73263 51.7576 8.93541C51.6133 9.1382 51.4082 9.29625 51.1683 9.38958C50.9283 9.48292 50.6643 9.50734 50.4096 9.45976C50.1549 9.41218 49.9209 9.29473 49.7373 9.12228C49.5536 8.94982 49.4286 8.7301 49.3779 8.4909C49.3272 8.2517 49.3532 8.00376 49.4526 7.77844C49.552 7.55312 49.7203 7.36053 49.9363 7.22503C50.1522 7.08953 50.4061 7.01721 50.6658 7.01721C51.014 7.01721 51.348 7.14713 51.5943 7.37839C51.8405 7.60964 51.9789 7.92329 51.9789 8.25033Z" fill="white"/>
<path d="M56.5634 8.25033C56.5634 8.49422 56.4864 8.73263 56.3421 8.93541C56.1978 9.1382 55.9927 9.29625 55.7528 9.38958C55.5128 9.48292 55.2488 9.50734 54.9941 9.45976C54.7394 9.41218 54.5054 9.29473 54.3217 9.12228C54.1381 8.94982 54.013 8.7301 53.9624 8.4909C53.9117 8.2517 53.9377 8.00376 54.0371 7.77844C54.1365 7.55312 54.3048 7.36053 54.5207 7.22503C54.7367 7.08953 54.9905 7.01721 55.2502 7.01721C55.5985 7.01721 55.9325 7.14713 56.1788 7.37839C56.425 7.60964 56.5634 7.92329 56.5634 8.25033Z" fill="white"/>
<path d="M61.1434 8.25033C61.1434 8.49422 61.0664 8.73263 60.9221 8.93541C60.7779 9.1382 60.5728 9.29625 60.3328 9.38958C60.0929 9.48292 59.8289 9.50734 59.5741 9.45976C59.3194 9.41218 59.0855 9.29473 58.9018 9.12228C58.7182 8.94982 58.5931 8.7301 58.5424 8.4909C58.4918 8.2517 58.5178 8.00376 58.6172 7.77844C58.7166 7.55312 58.8849 7.36053 59.1008 7.22503C59.3167 7.08953 59.5706 7.01721 59.8303 7.01721C60.1786 7.01721 60.5126 7.14713 60.7588 7.37839C61.0051 7.60964 61.1434 7.92329 61.1434 8.25033Z" fill="white"/>
<g opacity="0.8">
<path opacity="0.8" d="M119.752 22.0706H119.298V21.4306H118.616V21.0039H119.752V22.0706Z" fill="white"/>
<path opacity="0.8" d="M119.747 29.3669H119.293V27.545H119.747V29.3669ZM119.747 25.7188H119.293V23.8969H119.747V25.7188Z" fill="white"/>
<path opacity="0.8" d="M119.747 51.2559H119.293V49.4297H119.747V51.2559ZM119.747 47.6077H119.293V45.7815H119.747V47.6077ZM119.747 43.9596H119.293V42.1376H119.747V43.9596ZM119.747 40.3114H119.293V38.5066H119.747V40.3114ZM119.747 36.6633H119.293V34.8413H119.747V36.6633ZM119.747 33.0151H119.293V31.1932H119.747V33.0151Z" fill="white"/>
<path opacity="0.8" d="M119.752 54.1445H118.616V53.7178H119.298V53.0778H119.752V54.1445Z" fill="white"/>
<path opacity="0.8" d="M116.862 54.1445H115.108V53.7178H116.862V54.1445ZM113.359 54.1445H111.605V53.7178H113.359V54.1445Z" fill="white"/>
<path opacity="0.8" d="M109.856 54.1445H108.102V53.7178H109.856V54.1445ZM106.353 54.1445H104.599V53.7178H106.353V54.1445ZM102.845 54.1445H101.096V53.7178H102.845V54.1445ZM99.3418 54.1445H97.5925V53.7178H99.3418V54.1445ZM95.8387 54.1445H94.0894V53.7178H95.8387V54.1445ZM92.3355 54.1445H90.5862V53.7178H92.3355V54.1445ZM88.8324 54.1445H87.0785V53.7178H88.8324V54.1445ZM85.3292 54.1445H83.5754V53.7178H85.3292V54.1445ZM81.8261 54.1445H80.0722V53.7178H81.8261V54.1445ZM78.3229 54.1445H76.5691V53.7178H78.3229V54.1445ZM74.8198 54.1445H73.0659V53.7178H74.8198V54.1445ZM71.3121 54.1445H69.5627V53.7178H71.3121V54.1445Z" fill="white"/>
<path opacity="0.8" d="M67.8089 54.1445H66.673V53.0778H67.1273V53.7178H67.8089V54.1445Z" fill="white"/>
<path opacity="0.8" d="M67.1273 51.2559H66.673V49.4297H67.1273V51.2559ZM67.1273 47.6078H66.673V45.7816H67.1273V47.6078Z" fill="white"/>
<path opacity="0.8" d="M67.1273 43.9596H66.673V42.1334H67.1273V43.9596ZM67.1273 40.3114H66.673V38.5065H67.1273V40.3114ZM67.1273 36.6633H66.673V34.8413H67.1273V36.6633ZM67.1273 33.0151H66.673V31.1932H67.1273V33.0151ZM67.1273 29.3669H66.673V27.545H67.1273V29.3669ZM67.1273 25.7188H66.673V23.8969H67.1273V25.7188Z" fill="white"/>
<path opacity="0.8" d="M67.1273 22.0706H66.673V21.0039H67.8089V21.4306H67.1273V22.0706Z" fill="white"/>
<path opacity="0.8" d="M74.8198 21.4391H73.0659V21.0125H74.8198V21.4391ZM71.3121 21.4391H69.5627V21.0125H71.3121V21.4391Z" fill="white"/>
<path opacity="0.8" d="M116.862 21.4391H115.108V21.0125H116.862V21.4391ZM113.359 21.4391H111.605V21.0125H113.359V21.4391ZM109.856 21.4391H108.102V21.0125H109.856V21.4391ZM106.353 21.4391H104.599V21.0125H106.353V21.4391ZM102.845 21.4391H101.096V21.0125H102.845V21.4391ZM99.3418 21.4391H97.5924V21.0125H99.3418V21.4391ZM95.8386 21.4391H94.0893V21.0125H95.8386V21.4391ZM92.3354 21.4391H90.5861V21.0125H92.3354V21.4391ZM88.8323 21.4391H87.0784V21.0125H88.8323V21.4391ZM85.3291 21.4391H83.5753V21.0125H85.3291V21.4391ZM81.826 21.4391H80.0721V21.0125H81.826V21.4391ZM78.3228 21.4391H76.569V21.0125H78.3228V21.4391Z" fill="white"/>
</g>
<g opacity="0.8">
<path opacity="0.8" d="M158.968 59.0429H158.514V58.4029H157.832V57.9762H158.968V59.0429Z" fill="white"/>
<path opacity="0.8" d="M158.968 65.9594H158.514V64.2313H158.968V65.9594ZM158.968 62.5033H158.514V60.7752H158.968V62.5033Z" fill="white"/>
<path opacity="0.8" d="M158.968 86.7219H158.514V84.9895H158.968V86.7219ZM158.968 83.2615H158.514V81.5334H158.968V83.2615ZM158.968 79.8053H158.514V78.073H158.968V79.8053ZM158.968 76.3449H158.514V74.6382H158.968V76.3449ZM158.968 72.8845H158.514V71.1479H158.968V72.8845ZM158.968 69.4284H158.514V67.7216H158.968V69.4284Z" fill="white"/>
<path opacity="0.8" d="M158.968 89.5082H157.832V89.0815H158.514V88.4415H158.968V89.5082Z" fill="white"/>
<path opacity="0.8" d="M155.888 89.5082H153.938V89.0815H155.888V89.5082ZM151.994 89.5082H150.044V89.0815H151.994V89.5082Z" fill="white"/>
<path opacity="0.8" d="M148.1 89.5082H146.151V89.0815H148.1V89.5082ZM144.206 89.5082H142.257V89.0815H144.206V89.5082ZM140.312 89.5082H138.363V89.0815H140.312V89.5082ZM136.418 89.5082H134.496V89.0815H136.441L136.418 89.5082ZM132.524 89.5082H130.58V89.0815H132.524V89.5082ZM128.63 89.5082H126.686V89.0815H128.63V89.5082ZM124.736 89.5082H122.792V89.0815H124.736V89.5082ZM120.843 89.5082H118.898V89.0815H120.865L120.843 89.5082ZM116.949 89.5082H115.004V89.0815H116.949V89.5082Z" fill="white"/>
<path opacity="0.8" d="M113.055 89.5082H111.919V88.4415H112.373V89.0815H113.055V89.5082Z" fill="white"/>
<path opacity="0.8" d="M112.373 86.7219H111.919V84.9896H112.373V86.7219ZM112.373 83.2615H111.919V81.5334H112.373V83.2615Z" fill="white"/>
<path opacity="0.8" d="M112.373 79.7925H111.919V78.0858H112.373V79.7925ZM112.373 76.3364H111.919V74.6297H112.373V76.3364ZM112.373 72.876H111.919V71.1479H112.373V72.876ZM112.373 69.4198H111.919V67.7131H112.373V69.4198ZM112.373 65.9594H111.919V64.2313H112.373V65.9594ZM112.373 62.5033H111.919V60.7709H112.373V62.5033Z" fill="white"/>
<path opacity="0.8" d="M112.373 59.0429H111.919V57.9762H113.055V58.4029H112.373V59.0429Z" fill="white"/>
<path opacity="0.8" d="M120.865 58.4029H118.92V57.9762H120.865V58.4029ZM116.971 58.4029H115.004V57.9762H116.948L116.971 58.4029Z" fill="white"/>
<path opacity="0.8" d="M155.888 58.4029H153.938V57.9762H155.888V58.4029ZM151.994 58.4029H150.044V57.9762H151.994V58.4029ZM148.1 58.4029H146.151V57.9762H148.1V58.4029ZM144.206 58.4029H142.257V57.9762H144.206V58.4029ZM140.312 58.4029H138.367V57.9762H140.312V58.4029ZM136.418 58.4029H134.496V57.9762H136.441L136.418 58.4029ZM132.524 58.4029H130.579V57.9762H132.524V58.4029ZM128.63 58.4029H126.686V57.9762H128.63V58.4029ZM124.736 58.4029H122.792V57.9762H124.736V58.4029Z" fill="white"/>
</g>
<g opacity="0.8">
<path opacity="0.8" d="M109.02 58.9916H108.566V58.3516H107.884V57.9249H109.02V58.9916Z" fill="white"/>
<path opacity="0.8" d="M109.02 65.9338H108.566V64.1972H109.02V65.9338ZM109.02 62.4606H108.566V60.724H109.02V62.4606Z" fill="white"/>
<path opacity="0.8" d="M109.02 86.7603H108.566V85.0151H109.02V86.7603ZM109.02 83.2871H108.566V81.5505H109.02V83.2871ZM109.02 79.8181H108.566V78.0815H109.02V79.8181ZM109.02 76.3449H108.566V74.6083H109.02V76.3449ZM109.02 72.876H108.566V71.1394H109.02V72.876ZM109.02 69.4027H108.566V67.6661H109.02V69.4027Z" fill="white"/>
<path opacity="0.8" d="M109.02 89.5593H107.884V89.1326H108.566V88.4926H109.02V89.5593Z" fill="white"/>
<path opacity="0.8" d="M106.144 89.5593H104.404V89.1326H106.144V89.5593ZM102.663 89.5593H100.923V89.1326H102.663V89.5593Z" fill="white"/>
<path opacity="0.8" d="M99.183 89.5593H97.4428V89.1326H99.183V89.5593ZM95.7026 89.5593H93.9578V89.1326H95.7026V89.5593ZM92.2176 89.5593H90.4774V89.1326H92.2403L92.2176 89.5593ZM88.7372 89.5593H86.9969V89.1326H88.7372V89.5593ZM85.2567 89.5593H83.5165V89.1326H85.2567V89.5593ZM81.7763 89.5593H80.0361V89.1326H81.7899L81.7763 89.5593ZM78.2958 89.5593H76.5511V89.1326H78.2958V89.5593ZM74.8109 89.5593H73.0706V89.1326H74.8109V89.5593ZM71.3304 89.5593H69.5902V89.1326H71.3395L71.3304 89.5593Z" fill="white"/>
<path opacity="0.8" d="M67.8499 89.5593H66.714V88.4926H67.1684V89.1326H67.8499V89.5593Z" fill="white"/>
<path opacity="0.8" d="M67.1684 86.7602H66.714V85.0151H67.1684V86.7602ZM67.1684 83.287H66.714V81.5504H67.1684V83.287Z" fill="white"/>
<path opacity="0.8" d="M67.1684 79.8181H66.714V78.0815H67.1684V79.8181ZM67.1684 76.3449H66.714V74.6083H67.1684V76.3449ZM67.1684 72.876H66.714V71.1394H67.1684V72.876ZM67.1684 69.4028H66.714V67.6662H67.1684V69.4028ZM67.1684 65.9338H66.714V64.1972H67.1684V65.9338ZM67.1684 62.4606H66.714V60.724H67.1684V62.4606Z" fill="white"/>
<path opacity="0.8" d="M67.1684 58.9916H66.714V57.9249H67.8499V58.3516H67.1684V58.9916Z" fill="white"/>
<path opacity="0.8" d="M74.8107 58.3516H73.0705V57.9249H74.8107V58.3516ZM71.3303 58.3516H69.5901V57.9249H71.3394L71.3303 58.3516Z" fill="white"/>
<path opacity="0.8" d="M106.144 58.3516H104.404V57.9249H106.144V58.3516ZM102.663 58.3516H100.923V57.9249H102.663V58.3516ZM99.1829 58.3516H97.4427V57.9249H99.1829V58.3516ZM95.7025 58.3516H93.9578V57.9249H95.7025V58.3516ZM92.2175 58.3516H90.4773V57.9249H92.2403L92.2175 58.3516ZM88.7371 58.3516H86.9969V57.9249H88.7371V58.3516ZM85.2567 58.3516H83.5164V57.9249H85.2567V58.3516ZM81.7762 58.3516H80.036V57.9249H81.7899L81.7762 58.3516ZM78.2958 58.3516H76.551V57.9249H78.2958V58.3516Z" fill="white"/>
</g>
<path opacity="0.8" d="M143.243 58.1767H142.788V57.7073H143.243V58.1767ZM143.243 56.0091H142.788V54.3024H143.243V56.0091ZM143.243 52.5957H142.788V50.8889H143.243V52.5957ZM143.243 49.1822H142.788V47.4754H143.243V49.1822ZM143.243 45.7687H142.788V44.062H143.243V45.7687ZM143.243 42.3552H142.788V40.6485H143.243V42.3552ZM143.243 38.9417H142.788V37.235H143.243V38.9417ZM143.243 35.5283H142.788V33.8215H143.243V35.5283ZM143.015 32.2001H141.334V31.7734H143.243V32.1148H143.015V32.2001ZM139.517 32.2001H137.699V31.7734H139.517V32.2001ZM135.882 32.2001H134.064V31.7734H135.882V32.2001ZM132.247 32.2001H130.43V31.7734H132.247V32.2001ZM128.612 32.2001H126.795V31.7734H128.612V32.2001ZM124.977 32.2001H123.16V31.7734H124.977V32.2001ZM121.342 32.2001H119.525V31.7734H121.342V32.2001Z" fill="white"/>
<path opacity="0.2" d="M61.1797 16.2763V48.6958H113.604V16.2763H61.1797Z" fill="black"/>
<path d="M58.8624 13.7418L58.8624 46.1613H111.287L111.287 13.7418H58.8624Z" fill="#506CA9"/>
<path opacity="0.8" d="M58.8624 13.7418L58.8624 46.1613H111.287L111.287 13.7418H58.8624Z" fill="white"/>
<path d="M85.6609 16.1866H63.7241C62.8408 16.1866 62.1248 16.8591 62.1248 17.6886V34.8328C62.1248 35.6623 62.8408 36.3347 63.7241 36.3347H85.6609C86.5442 36.3347 87.2602 35.6623 87.2602 34.8328V17.6886C87.2602 16.8591 86.5442 16.1866 85.6609 16.1866Z" fill="#506CA9"/>
<g opacity="0.4">
<path opacity="0.4" d="M85.6609 16.1866H63.7241C62.8408 16.1866 62.1248 16.8591 62.1248 17.6886V34.8328C62.1248 35.6623 62.8408 36.3347 63.7241 36.3347H85.6609C86.5442 36.3347 87.2602 35.6623 87.2602 34.8328V17.6886C87.2602 16.8591 86.5442 16.1866 85.6609 16.1866Z" fill="white"/>
</g>
<path d="M85.6971 17.0912H63.6831C63.3519 17.0912 63.0834 17.3434 63.0834 17.6545V34.8712C63.0834 35.1823 63.3519 35.4344 63.6831 35.4344H85.6971C86.0284 35.4344 86.2969 35.1823 86.2969 34.8712V17.6545C86.2969 17.3434 86.0284 17.0912 85.6971 17.0912Z" fill="#506CA9"/>
<path d="M85.6971 17.0912H63.6831C63.3519 17.0912 63.0834 17.3434 63.0834 17.6545V34.8712C63.0834 35.1823 63.3519 35.4344 63.6831 35.4344H85.6971C86.0284 35.4344 86.2969 35.1823 86.2969 34.8712V17.6545C86.2969 17.3434 86.0284 17.0912 85.6971 17.0912Z" fill="#506CA9"/>
<path opacity="0.1" d="M69.1446 25.706L63.0834 34.4744V34.8797C63.0846 35.0284 63.1483 35.1705 63.2606 35.2752C63.373 35.3799 63.5248 35.4387 63.6831 35.4387H75.8828L69.1446 25.706Z" fill="white"/>
<path d="M86.2969 33.0706L80.0448 22.8643L72.3479 35.4301H85.6971C85.8554 35.4301 86.0073 35.3714 86.1196 35.2667C86.232 35.162 86.2957 35.0198 86.2969 34.8712V33.0706Z" fill="#506CA9"/>
<path opacity="0.2" d="M86.2969 33.0706L80.0448 22.8643L72.3479 35.4301H85.6971C85.8554 35.4301 86.0073 35.3714 86.1196 35.2667C86.232 35.162 86.2957 35.0198 86.2969 34.8712V33.0706Z" fill="white"/>
<path d="M76.2556 21.3965C76.2556 21.6878 76.1635 21.9726 75.9911 22.2148C75.8187 22.457 75.5736 22.6456 75.2869 22.7569C75.0002 22.8682 74.6848 22.8971 74.3806 22.84C74.0764 22.7828 73.797 22.6422 73.578 22.4359C73.359 22.2296 73.21 21.9669 73.1501 21.6811C73.0901 21.3952 73.1218 21.0991 73.2411 20.8302C73.3605 20.5613 73.5621 20.3317 73.8205 20.1705C74.0788 20.0092 74.3824 19.9236 74.6926 19.9244C74.8982 19.9244 75.1018 19.9626 75.2918 20.0366C75.4817 20.1106 75.6542 20.2191 75.7994 20.3559C75.9446 20.4926 76.0596 20.6549 76.1379 20.8335C76.2162 21.0121 76.2562 21.2034 76.2556 21.3965Z" fill="white"/>
<path d="M95.3525 16.5024H92.4309V16.9291H95.3525V16.5024Z" fill="#506CA9"/>
<path d="M103.122 16.5024H96.7883V16.9291H103.122V16.5024Z" fill="#506CA9"/>
<path d="M107.307 16.5024H104.821V16.9291H107.307V16.5024Z" fill="#506CA9"/>
<path d="M99.1737 20.3212H89.3958V20.7479H99.1737V20.3212Z" fill="#506CA9"/>
<path d="M106.63 20.3212H101.409V20.7479H106.63V20.3212Z" fill="#506CA9"/>
<path d="M94.4573 24.1401H90.1863V24.5668H94.4573V24.1401Z" fill="#506CA9"/>
<path d="M104.085 24.1401H95.8795V24.5668H104.085V24.1401Z" fill="#506CA9"/>
<path d="M107.311 24.1401H105.589V24.5668H107.311V24.1401Z" fill="#506CA9"/>
<path d="M99.1737 27.9546H89.3958V28.3813H99.1737V27.9546Z" fill="#506CA9"/>
<path d="M106.625 27.9546H101.014V28.3813H106.625V27.9546Z" fill="#506CA9"/>
<path d="M95.3525 31.7734H92.4309V32.2001H95.3525V31.7734Z" fill="#506CA9"/>
<path d="M103.122 31.7734H96.7883V32.2001H103.122V31.7734Z" fill="#506CA9"/>
<path d="M107.307 31.7734H104.821V32.2001H107.307V31.7734Z" fill="#506CA9"/>
<path d="M99.1737 35.5923H89.3958V36.019H99.1737V35.5923Z" fill="#506CA9"/>
<path d="M106.448 35.5923H101.409V36.019H106.448V35.5923Z" fill="#506CA9"/>
<path d="M77.5731 39.0527H62.8472V39.4794H77.5731V39.0527Z" fill="#506CA9"/>
<path d="M96.7929 39.0527H81.1263V39.4794H96.7929V39.0527Z" fill="#506CA9"/>
<path d="M107.134 39.0527H100.987V39.4794H107.134V39.0527Z" fill="#506CA9"/>
<path d="M66.9501 42.8672H62.8472V43.2939H66.9501V42.8672Z" fill="#506CA9"/>
<path d="M80.9355 42.8672H69.9398V43.2939H80.9355V42.8672Z" fill="#506CA9"/>
<path d="M89.3958 42.8672H83.3254V43.2939H89.3958V42.8672Z" fill="#506CA9"/>
<path d="M99.1783 42.8672H92.5446V43.2939H99.1783V42.8672Z" fill="#506CA9"/>
<path d="M107.134 42.8672H101.954V43.2939H107.134V42.8672Z" fill="#506CA9"/>
<path opacity="0.2" d="M155.47 21.7207L155.52 47.5949C155.52 47.7549 155.452 47.9083 155.332 48.0218C155.212 48.1353 155.049 48.1997 154.879 48.2008L129.403 48.2435C129.233 48.2435 129.07 48.1801 128.95 48.0672C128.829 47.9544 128.762 47.8014 128.762 47.6418L128.694 13.9849C128.694 13.8254 128.761 13.6724 128.881 13.5595C129.002 13.4467 129.165 13.3833 129.335 13.3833L146.5 13.3535L155.47 21.7207Z" fill="black"/>
<path d="M157.319 19.9414L157.369 45.8155C157.369 45.9751 157.301 46.1281 157.181 46.2409C157.061 46.3538 156.898 46.4172 156.728 46.4172L131.252 46.4598C131.082 46.4598 130.918 46.3966 130.797 46.2839C130.676 46.1712 130.608 46.0182 130.607 45.8582L130.543 12.2056C130.543 12.0456 130.61 11.8922 130.73 11.7787C130.85 11.6651 131.013 11.6008 131.184 11.5997L148.35 11.5698L157.319 19.9414Z" fill="#506CA9"/>
<g opacity="0.8">
<path opacity="0.8" d="M157.319 19.9414L157.369 45.8155C157.369 45.9751 157.301 46.1281 157.181 46.2409C157.061 46.3538 156.898 46.4172 156.728 46.4172L131.252 46.4598C131.082 46.4598 130.918 46.3966 130.797 46.2839C130.676 46.1712 130.608 46.0182 130.607 45.8582L130.543 12.2056C130.543 12.0456 130.61 11.8922 130.73 11.7787C130.85 11.6651 131.013 11.6008 131.184 11.5997L148.35 11.5698L157.319 19.9414Z" fill="white"/>
</g>
<path d="M148.363 11.5528V19.3569C148.363 19.4384 148.381 19.5192 148.415 19.5942C148.449 19.6692 148.499 19.7369 148.562 19.7932C148.625 19.8495 148.699 19.8931 148.781 19.9216C148.862 19.95 148.949 19.9625 149.036 19.9585H157.323L148.363 11.5528Z" fill="#506CA9"/>
<path opacity="0.8" d="M148.363 11.5528V19.3569C148.363 19.4384 148.381 19.5192 148.415 19.5942C148.449 19.6692 148.499 19.7369 148.562 19.7932C148.625 19.8495 148.699 19.8931 148.781 19.9216C148.862 19.95 148.949 19.9625 149.036 19.9585H157.323L148.363 11.5528Z" fill="white"/>
<path opacity="0.2" d="M158.414 13.6607V43.136L135.555 43.1744C135.385 43.1744 135.222 43.111 135.102 42.9982C134.982 42.8854 134.914 42.7324 134.914 42.5728L134.846 8.91592C134.845 8.83675 134.862 8.75827 134.894 8.68502C134.925 8.61177 134.973 8.54522 135.032 8.48924C135.092 8.43326 135.163 8.38897 135.241 8.35893C135.319 8.3289 135.402 8.31372 135.487 8.31429L152.671 8.28442L158.414 13.6607Z" fill="black"/>
<path d="M163.453 14.8809L163.503 40.7551C163.503 40.9151 163.435 41.0685 163.315 41.182C163.195 41.2955 163.032 41.3599 162.862 41.361L137.386 41.4037C137.215 41.4037 137.052 41.3404 136.931 41.2277C136.81 41.115 136.742 40.962 136.741 40.802L136.677 7.14515C136.677 7.06615 136.694 6.98792 136.726 6.91492C136.758 6.84193 136.805 6.77561 136.865 6.71974C136.924 6.66388 136.995 6.61956 137.072 6.58932C137.15 6.55909 137.234 6.54353 137.318 6.54353L154.488 6.50513L163.453 14.8809Z" fill="#506CA9"/>
<g opacity="0.8">
<path opacity="0.8" d="M163.453 14.8809L163.503 40.7551C163.503 40.9151 163.435 41.0685 163.315 41.182C163.195 41.2955 163.032 41.3599 162.862 41.361L137.386 41.4037C137.215 41.4037 137.052 41.3404 136.931 41.2277C136.81 41.115 136.742 40.962 136.741 40.802L136.677 7.14515C136.677 7.06615 136.694 6.98792 136.726 6.91492C136.758 6.84193 136.805 6.77561 136.865 6.71974C136.924 6.66388 136.995 6.61956 137.072 6.58932C137.15 6.55909 137.234 6.54353 137.318 6.54353L154.488 6.50513L163.453 14.8809Z" fill="white"/>
</g>
<path d="M154.488 6.50513V14.3092C154.488 14.3882 154.505 14.4664 154.537 14.5394C154.569 14.6124 154.616 14.6787 154.676 14.7346C154.735 14.7905 154.806 14.8348 154.884 14.865C154.961 14.8953 155.045 14.9108 155.129 14.9108H163.416L154.488 6.50513Z" fill="#506CA9"/>
<path d="M154.488 6.50513V14.3092C154.488 14.3882 154.505 14.4664 154.537 14.5394C154.569 14.6124 154.616 14.6787 154.676 14.7346C154.735 14.7905 154.806 14.8348 154.884 14.865C154.961 14.8953 155.045 14.9108 155.129 14.9108H163.416L154.488 6.50513Z" fill="white"/>
<path d="M144.774 19.6299H140.798V20.0566H144.774V19.6299Z" fill="#506CA9"/>
<path d="M155.333 19.6299H146.723V20.0566H155.333V19.6299Z" fill="#506CA9"/>
<path d="M160.109 19.6299H157.641V20.0566H160.109V19.6299Z" fill="#506CA9"/>
<path d="M149.967 22.8557H140.039V23.2823H149.967V22.8557Z" fill="#506CA9"/>
<path d="M160.1 22.8557H153.002V23.2823H160.1V22.8557Z" fill="#506CA9"/>
<path d="M143.561 26.0814H140.039V26.5081H143.561V26.0814Z" fill="#506CA9"/>
<path d="M156.633 26.0814H145.483V26.5081H156.633V26.0814Z" fill="#506CA9"/>
<path d="M160.109 26.0814H158.682V26.5081H160.109V26.0814Z" fill="#506CA9"/>
<path d="M149.967 29.3072H140.039V29.7339H149.967V29.3072Z" fill="#506CA9"/>
<path d="M160.1 29.3072H152.471V29.7339H160.1V29.3072Z" fill="#506CA9"/>
<path d="M144.774 32.5329H140.798V32.9596H144.774V32.5329Z" fill="#506CA9"/>
<path d="M155.333 32.5329H146.723V32.9596H155.333V32.5329Z" fill="#506CA9"/>
<path d="M160.109 32.5329H157.641V32.9596H160.109V32.5329Z" fill="#506CA9"/>
<path d="M149.967 35.7587H140.039V36.1854H149.967V35.7587Z" fill="#506CA9"/>
<path d="M159.854 35.7629H153.002V36.1896H159.854V35.7629Z" fill="#506CA9"/>
<g opacity="0.2">
<path opacity="0.2" d="M59.5258 90.4767H98.9829C99.7257 90.495 100.446 90.2357 100.985 89.7556C101.524 89.2756 101.839 88.6141 101.859 87.9165V58.6503C101.839 57.9527 101.524 57.2912 100.985 56.8112C100.446 56.3311 99.7257 56.0718 98.9829 56.0901H59.5258C58.7833 56.0729 58.0638 56.3326 57.5248 56.8125C56.9857 57.2923 56.6711 57.9531 56.6497 58.6503V87.9123C56.6699 88.6102 56.984 89.2721 57.5232 89.7528C58.0624 90.2336 58.7825 90.4939 59.5258 90.4767Z" fill="black"/>
<g opacity="0.4">
<path opacity="0.2" d="M59.5258 90.4767H98.9829C99.7257 90.495 100.446 90.2357 100.985 89.7556C101.524 89.2756 101.839 88.6141 101.859 87.9165V58.6503C101.839 57.9527 101.524 57.2912 100.985 56.8112C100.446 56.3311 99.7257 56.0718 98.9829 56.0901H59.5258C58.7833 56.0729 58.0638 56.3326 57.5248 56.8125C56.9857 57.2923 56.6711 57.9531 56.6497 58.6503V87.9123C56.6699 88.6102 56.984 89.2721 57.5232 89.7528C58.0624 90.2336 58.7825 90.4939 59.5258 90.4767Z" fill="black"/>
</g>
</g>
<path d="M57.5902 88.514H97.0473C97.7898 88.5312 98.5093 88.2715 99.0483 87.7917C99.5874 87.3118 99.902 86.651 99.9234 85.9539V56.6876C99.902 55.9904 99.5874 55.3296 99.0483 54.8498C98.5093 54.37 97.7898 54.1102 97.0473 54.1275H57.5902C56.8478 54.1102 56.1283 54.37 55.5892 54.8498C55.0502 55.3296 54.7355 55.9904 54.7141 56.6876V85.9496C54.7343 86.6475 55.0485 87.3094 55.5876 87.7901C56.1268 88.2709 56.847 88.5312 57.5902 88.514Z" fill="#506CA9"/>
<g opacity="0.4">
<path opacity="0.4" d="M57.5902 88.514H97.0473C97.7898 88.5312 98.5093 88.2715 99.0483 87.7917C99.5874 87.3118 99.902 86.651 99.9234 85.9539V56.6876C99.902 55.9904 99.5874 55.3296 99.0483 54.8498C98.5093 54.37 97.7898 54.1102 97.0473 54.1275H57.5902C56.8478 54.1102 56.1283 54.37 55.5892 54.8498C55.0502 55.3296 54.7355 55.9904 54.7141 56.6876V85.9496C54.7343 86.6475 55.0485 87.3094 55.5876 87.7901C56.1268 88.2709 56.847 88.5312 57.5902 88.514Z" fill="white"/>
</g>
<path d="M57.5222 55.6635C57.3843 55.6601 57.2471 55.6822 57.1184 55.7286C56.9896 55.775 56.8719 55.8448 56.7719 55.934C56.6719 56.0231 56.5916 56.1299 56.5355 56.2482C56.4795 56.3665 56.4488 56.4941 56.4453 56.6235V86.0136C56.4488 86.143 56.4795 86.2705 56.5355 86.3889C56.5916 86.5072 56.6719 86.614 56.7719 86.7031C56.8719 86.7923 56.9896 86.8621 57.1184 86.9085C57.2471 86.9549 57.3843 86.977 57.5222 86.9736H97.1155C97.2534 86.977 97.3906 86.9549 97.5193 86.9085C97.648 86.8621 97.7658 86.7923 97.8658 86.7031C97.9658 86.614 98.0461 86.5072 98.1021 86.3889C98.1582 86.2705 98.1888 86.143 98.1924 86.0136V56.6235C98.1888 56.4941 98.1582 56.3665 98.1021 56.2482C98.0461 56.1299 97.9658 56.0231 97.8658 55.934C97.7658 55.8448 97.648 55.775 97.5193 55.7286C97.3906 55.6822 97.2534 55.6601 97.1155 55.6635H57.5222Z" fill="#506CA9"/>
<path opacity="0.2" d="M57.5222 55.6635C57.3843 55.6601 57.2471 55.6822 57.1184 55.7286C56.9896 55.775 56.8719 55.8448 56.7719 55.934C56.6719 56.0231 56.5916 56.1299 56.5355 56.2482C56.4795 56.3665 56.4488 56.4941 56.4453 56.6235V86.0136C56.4488 86.143 56.4795 86.2705 56.5355 86.3889C56.5916 86.5072 56.6719 86.614 56.7719 86.7031C56.8719 86.7923 56.9896 86.8621 57.1184 86.9085C57.2471 86.9549 57.3843 86.977 57.5222 86.9736H97.1155C97.2534 86.977 97.3906 86.9549 97.5193 86.9085C97.648 86.8621 97.7658 86.7923 97.8658 86.7031C97.9658 86.614 98.0461 86.5072 98.1021 86.3889C98.1582 86.2705 98.1888 86.143 98.1924 86.0136V56.6235C98.1888 56.4941 98.1582 56.3665 98.1021 56.2482C98.0461 56.1299 97.9658 56.0231 97.8658 55.934C97.7658 55.8448 97.648 55.775 97.5193 55.7286C97.3906 55.6822 97.2534 55.6601 97.1155 55.6635H57.5222Z" fill="black"/>
<path d="M67.3409 70.3542L56.4362 85.3223V86.0136C56.4397 86.143 56.4704 86.2706 56.5264 86.3889C56.5824 86.5072 56.6627 86.614 56.7627 86.7031C56.8628 86.7923 56.9805 86.8621 57.1092 86.9085C57.238 86.9549 57.3752 86.977 57.513 86.9736H79.4316L67.3409 70.3542Z" fill="#506CA9"/>
<path d="M98.1924 82.9415L86.9514 65.5242L73.1069 86.9737H97.1156C97.2534 86.9771 97.3906 86.9549 97.5194 86.9085C97.6481 86.8621 97.7658 86.7923 97.8658 86.7032C97.9658 86.614 98.0462 86.5072 98.1022 86.3889C98.1582 86.2706 98.1889 86.1431 98.1924 86.0136V82.9415Z" fill="#506CA9"/>
<path opacity="0.2" d="M98.1924 82.9415L86.9514 65.5242L73.1069 86.9737H97.1156C97.2534 86.9771 97.3906 86.9549 97.5194 86.9085C97.6481 86.8621 97.7658 86.7923 97.8658 86.7032C97.9658 86.614 98.0462 86.5072 98.1022 86.3889C98.1582 86.2706 98.1889 86.1431 98.1924 86.0136V82.9415Z" fill="white"/>
<path d="M80.1359 63.0153C80.1659 63.5446 80.0262 64.0702 79.7347 64.5242C79.4433 64.9782 79.0135 65.3396 78.501 65.5618C77.9885 65.784 77.4169 65.8567 76.8599 65.7706C76.3029 65.6845 75.7862 65.4435 75.3767 65.0787C74.9671 64.7139 74.6834 64.2422 74.5624 63.7244C74.4413 63.2067 74.4884 62.6667 74.6975 62.1744C74.9067 61.682 75.2683 61.2599 75.7356 60.9625C76.2029 60.6652 76.7544 60.5063 77.3189 60.5064C77.6799 60.495 78.0398 60.5511 78.3775 60.6715C78.7152 60.7919 79.0241 60.974 79.2862 61.2075C79.5484 61.4409 79.7584 61.7209 79.9043 62.0313C80.0502 62.3416 80.1289 62.6761 80.1359 63.0153Z" fill="white"/>
<path d="M70.9533 53.2868C71.1214 53.257 71.3031 53.4234 71.3531 53.6666C71.4031 53.9098 71.3168 54.1317 71.1441 54.1616C70.9714 54.1914 70.7988 54.0207 70.7443 53.7775C70.6897 53.5343 70.7851 53.3125 70.9533 53.2868Z" fill="#263238"/>
<path d="M71.2894 56.4828C71.5096 56.493 71.7294 56.4578 71.9335 56.3797C72.1376 56.3015 72.321 56.1823 72.4708 56.0305C71.8255 55.4947 71.2628 54.8772 70.7987 54.1957L71.2894 56.4828Z" fill="#932A2A"/>
<path d="M69.6218 52.5871C69.7441 52.4429 69.9019 52.3288 70.0815 52.2544C70.2612 52.1801 70.4574 52.1479 70.6532 52.1604H70.7032C70.726 52.1641 70.7494 52.163 70.7718 52.1573C70.7941 52.1516 70.8148 52.1414 70.8325 52.1273C70.8502 52.1133 70.8644 52.0958 70.8742 52.0761C70.884 52.0564 70.889 52.0349 70.889 52.0132C70.889 51.9915 70.884 51.97 70.8742 51.9503C70.8644 51.9305 70.8502 51.9131 70.8325 51.8991C70.8148 51.885 70.7941 51.8748 70.7718 51.8691C70.7494 51.8634 70.726 51.8623 70.7032 51.866C70.461 51.8422 70.2163 51.8732 69.9894 51.9563C69.7626 52.0394 69.5602 52.1723 69.3992 52.3439C69.3764 52.3709 69.3622 52.4035 69.3583 52.4377C69.3583 52.4766 69.3744 52.514 69.4032 52.5419C69.4321 52.5698 69.4714 52.586 69.5128 52.5871C69.5479 52.5995 69.5867 52.5995 69.6218 52.5871Z" fill="#263238"/>
<path d="M68.554 60.7965C68.0997 62.5374 68.0724 64.7007 70.0943 65.2937C70.0943 65.2937 72.6252 67.2821 67.7544 67.2821C63.3288 67.2821 62.6746 65.0121 62.6746 65.0121C64.3421 63.5187 64.0377 60.421 63.5833 58.1852L68.554 60.7965Z" fill="#B55B52"/>
<path d="M60.889 64.6281C60.889 64.6281 61.6933 62.6355 62.7792 62.0467C63.8651 61.4578 68.4588 62.3326 69.1676 62.6355C69.8764 62.9384 70.5307 64.5342 70.5307 64.5342L60.889 64.6281Z" fill="#506CA9"/>
<path d="M60.889 64.6281C60.889 64.6281 61.6933 62.6355 62.7792 62.0467C63.8651 61.4578 68.4588 62.3326 69.1676 62.6355C69.8764 62.9384 70.5307 64.5342 70.5307 64.5342L60.889 64.6281Z" fill="#263238"/>
<path d="M67.8499 154.07C67.8338 154.067 67.8192 154.059 67.8085 154.047C67.7977 154.036 67.7915 154.021 67.7908 154.006C67.7868 153.992 67.7877 153.978 67.7935 153.964C67.7992 153.951 67.8095 153.94 67.8226 153.933C67.8862 153.908 69.0267 153.302 69.5628 153.438C69.6143 153.449 69.6631 153.469 69.7061 153.497C69.7491 153.526 69.7853 153.562 69.8127 153.605C69.8482 153.651 69.8673 153.706 69.8673 153.763C69.8673 153.819 69.8482 153.875 69.8127 153.92C69.6764 154.1 69.2902 154.155 68.854 154.155C68.5174 154.152 68.1815 154.124 67.8499 154.07ZM69.372 153.554C68.923 153.604 68.4891 153.738 68.0952 153.946C68.6995 154.023 69.5219 154.019 69.6719 153.822C69.7082 153.792 69.7264 153.754 69.6719 153.664C69.6572 153.637 69.636 153.614 69.61 153.596C69.5839 153.579 69.5537 153.567 69.5219 153.562C69.4723 153.553 69.4215 153.553 69.372 153.562V153.554Z" fill="#506CA9"/>
<path d="M67.8179 154.053C67.7992 154.036 67.7879 154.013 67.7861 153.989C67.7861 153.95 67.8588 153.135 68.295 152.807C68.3565 152.756 68.4291 152.719 68.5076 152.698C68.5861 152.676 68.6686 152.671 68.7494 152.683C68.9584 152.704 69.0356 152.807 69.0356 152.888C69.0947 153.242 68.3177 153.891 67.9224 154.061H67.8906C67.8787 154.066 67.8658 154.067 67.8531 154.066C67.8405 154.064 67.8284 154.06 67.8179 154.053ZM68.6767 152.824C68.5752 152.824 68.4776 152.861 68.4041 152.926C68.1535 153.191 67.995 153.522 67.9497 153.873C68.3541 153.643 68.8584 153.123 68.8584 152.918C68.8584 152.918 68.8584 152.832 68.7085 152.832H68.6631L68.6767 152.824Z" fill="#506CA9"/>
<path d="M64.6147 146.906H67.8725L67.5454 153.984H64.2921L64.6147 146.906Z" fill="#B55B52"/>
<path d="M68.3133 153.873C70.5125 155.154 71.194 155.205 73.743 155.73C74.2973 155.841 73.9293 157.112 72.5935 157.112C70.3807 157.112 70.1535 157.014 68.2679 157.014C66.6549 157.014 64.8011 157.086 63.5152 157.103C63.476 157.108 63.4364 157.108 63.3971 157.103C63.3366 157.092 63.2792 157.068 63.2287 157.035C63.1781 157.001 63.1353 156.958 63.103 156.909C63.0707 156.859 63.0494 156.804 63.0406 156.747C63.0318 156.689 63.0356 156.63 63.0518 156.574L63.6879 153.856C63.7024 153.797 63.7383 153.743 63.7895 153.705C63.8408 153.667 63.9043 153.647 63.9696 153.647H67.5273C67.8064 153.654 68.0784 153.732 68.3133 153.873Z" fill="#263238"/>
<path d="M72.2708 64.5812C69.0326 64.3556 65.7842 64.2858 62.5383 64.3721C61.6872 64.4261 60.842 64.5044 60.003 64.6068C59.5814 64.6544 59.1745 64.7818 58.8068 64.9811C58.4391 65.1805 58.1182 65.4477 57.8635 65.7667C57.6087 66.0856 57.4254 66.4498 57.3246 66.8371C57.2237 67.2244 57.2075 67.6269 57.2768 68.0202C59.2078 78.8922 57.9265 89.555 57.6585 91.697L75.0697 91.6074C76.8872 78.154 76.7145 71.3057 76.0148 68.0117C75.8329 67.1516 75.3778 66.3634 74.7095 65.751C74.0412 65.1387 73.1909 64.7308 72.2708 64.5812Z" fill="#263238"/>
<path opacity="0.2" d="M64.6102 146.91L64.4467 150.558H67.7045L67.8726 146.91H64.6102Z" fill="black"/>
<path d="M61.9613 53.0138C62.1825 51.9346 62.8508 50.9819 63.8195 50.3651C64.7881 49.7482 65.9779 49.5177 67.1274 49.7241C70.4806 50.3172 71.8619 54.6437 71.7619 57.4428C71.6665 60.5491 68.0361 62.6526 65.1373 60.8221C63.2153 59.5975 62.8655 57.8353 62.0476 54.9125C61.8624 54.2945 61.8328 53.6444 61.9613 53.0138Z" fill="#B55B52"/>
<path d="M57.6722 91.6074C57.6722 91.6074 54.9187 97.6877 52.3334 107.907C48.9665 121.228 40.8516 148.442 40.8516 148.442L46.5947 149.624C46.5947 149.624 58.44 117.942 61.5524 108.393C63.5176 102.617 65.9793 97.0005 68.9131 91.5989L57.6722 91.6074Z" fill="#506CA9"/>
<path opacity="0.3" d="M65.1873 98.8184C60.0621 111.901 58.9807 115.826 58.8989 116.082C59.5214 108.12 62.0795 99.2323 65.1873 98.8184C65.4054 98.7842 64.9783 98.7544 65.1873 98.8184Z" fill="black"/>
<path d="M63.6152 91.6074C63.6152 91.6074 63.8197 98.78 63.5743 109.17C63.3563 118.698 63.5743 149.85 63.5743 149.85H69.1131C69.1131 149.85 73.3523 118.07 74.4746 108.38C75.1267 102.812 75.3332 97.2051 75.0925 91.6074H63.6152Z" fill="#506CA9"/>
<path d="M62.7792 148.019L62.9609 149.935H69.6719C69.6719 149.935 70.0081 147.802 69.9809 147.802L62.7792 148.019Z" fill="#506CA9"/>
<path d="M40.6925 154.031C40.689 154.046 40.6811 154.058 40.6698 154.068C40.6584 154.078 40.6442 154.085 40.6289 154.087C40.6138 154.09 40.5979 154.089 40.5838 154.083C40.5698 154.076 40.5584 154.066 40.5516 154.053C40.5198 153.997 39.8792 152.922 40.0336 152.419C40.0592 152.323 40.1226 152.241 40.2108 152.188C40.2607 152.155 40.3202 152.137 40.3812 152.137C40.4423 152.137 40.5018 152.155 40.5516 152.188C40.7379 152.32 40.7924 152.683 40.7924 153.093C40.7864 153.408 40.7529 153.722 40.6925 154.031ZM40.1609 152.602C40.2097 153.022 40.3439 153.429 40.5562 153.801C40.647 153.234 40.647 152.461 40.438 152.32C40.4108 152.286 40.3653 152.269 40.2699 152.32C40.2412 152.334 40.2164 152.354 40.1974 152.379C40.1785 152.403 40.1659 152.431 40.1609 152.461C40.1518 152.508 40.1518 152.555 40.1609 152.602Z" fill="#506CA9"/>
<path d="M40.6879 154.061C40.6793 154.071 40.668 154.079 40.6553 154.083C40.6425 154.088 40.6287 154.089 40.6152 154.087C40.5834 154.087 39.7065 154.014 39.3657 153.605C39.3153 153.549 39.2779 153.485 39.256 153.415C39.234 153.345 39.2281 153.271 39.2385 153.199C39.2385 153.003 39.3657 152.931 39.4566 152.931C39.8247 152.879 40.5198 153.613 40.697 153.984V154.01C40.7008 154.028 40.6976 154.046 40.6879 154.061ZM39.3748 153.259C39.381 153.352 39.4193 153.44 39.4839 153.511C39.7635 153.747 40.1144 153.896 40.488 153.937C40.2472 153.558 39.6974 153.059 39.4748 153.084C39.4748 153.084 39.3885 153.084 39.3885 153.221V153.268L39.3748 153.259Z" fill="#506CA9"/>
<path d="M42.1146 148.16L45.2861 148.386L43.823 154.245L40.6425 154.031L42.1146 148.16Z" fill="#B55B52"/>
<path opacity="0.2" d="M42.151 147.998L41.5104 150.575L44.6864 150.789L45.3316 148.203L42.151 147.998Z" fill="black"/>
<path d="M39.8791 153.639C39.0204 154.59 38.566 155.081 36.0761 155.819C35.5309 155.977 36.0216 157.21 37.3529 157.099C39.5565 156.916 38.3388 156.92 40.2154 156.766C41.8238 156.63 43.6776 156.549 44.9544 156.464C44.9978 156.463 45.0407 156.456 45.0816 156.442C45.1426 156.427 45.1994 156.4 45.2486 156.363C45.2978 156.326 45.3382 156.279 45.3672 156.227C45.3963 156.174 45.4134 156.116 45.4174 156.057C45.4214 155.998 45.4123 155.939 45.3906 155.883L44.4819 153.225C44.4624 153.167 44.4225 153.118 44.3687 153.084C44.315 153.051 44.2507 153.036 44.1865 153.041L40.6425 153.336C40.3558 153.34 40.082 153.449 39.8791 153.639Z" fill="#263238"/>
<path d="M40.1655 147.448L40.1337 149.376L47.04 150.072C47.04 150.072 47.6307 147.968 47.608 147.968L40.1655 147.448Z" fill="#506CA9"/>
<path d="M87.8783 87.635L89.7321 86.2269C89.9547 86.2269 91.5178 87.2168 92.0994 87.6307C93.1262 88.3518 93.8805 87.6307 94.7165 88.7486C95.1027 89.2607 92.4856 90.2122 91.9903 90.3999C90.1638 91.0442 87.8783 87.635 87.8783 87.635Z" fill="#B55B52"/>
<path d="M89.7366 86.2227L89.6821 86.3165C89.4968 86.6449 89.2387 86.9321 88.9252 87.1588C88.6117 87.3855 88.25 87.5464 87.8646 87.6307L82.4122 84.6439C81.1764 83.8887 78.6365 82.3142 78.2821 81.6145C77.0553 80.5051 71.3803 75.1417 70.1035 69.6673C69.8973 68.8375 69.9866 67.9672 70.3575 67.1896C70.7284 66.4119 71.3606 65.77 72.1572 65.3621C73.3931 64.7818 74.5381 65.0676 75.415 66.305C76.8099 69.8593 81.2627 78.6789 81.2627 78.6789L89.7366 86.2227Z" fill="#263238"/>
<path d="M52.8785 64.3423C52.7513 64.274 52.9466 60.2375 52.9466 60.2375L55.4502 62.452L54.7777 64.5343C54.7777 64.5343 54.596 65.2426 52.8785 64.3423Z" fill="#B55B52"/>
<path d="M52.9467 60.2376L54.028 59.1623C54.1241 59.0638 54.2435 58.9879 54.3766 58.9407C54.5096 58.8934 54.6526 58.8762 54.794 58.8903C54.9355 58.9044 55.0714 58.9495 55.1909 59.0219C55.3104 59.0944 55.4101 59.1921 55.482 59.3074L56.1999 60.421C56.2902 60.5567 56.338 60.7134 56.338 60.8733C56.338 61.0333 56.2902 61.19 56.1999 61.3256L55.4366 62.452C55.4366 62.452 53.2374 61.9059 52.9467 60.2376Z" fill="#B55B52"/>
<path d="M56.0227 76.938C55.8036 77.3786 55.5106 77.7834 55.1549 78.137C54.8773 78.3752 54.5594 78.5684 54.2144 78.7087C54.0363 78.7739 53.8523 78.8239 53.6646 78.8581C53.3608 78.8926 53.0533 78.8343 52.7877 78.6916C52.3667 78.4786 52.024 78.1512 51.8043 77.7523C51.5846 77.3534 51.4982 76.9016 51.5563 76.4558C51.7335 74.8941 52.0516 71.5063 52.2924 65.1103C52.2899 65.0052 52.3101 64.9008 52.3516 64.8032C52.3932 64.7056 52.4553 64.6169 52.5342 64.5424C52.6131 64.4679 52.7072 64.4092 52.8109 64.3696C52.9145 64.3301 53.0256 64.3106 53.1375 64.3124L54.7596 64.3721C55.0006 64.3721 55.2318 64.462 55.4022 64.622C55.5726 64.7821 55.6683 64.9991 55.6683 65.2255L55.732 67.1242L56.0227 76.938Z" fill="#263238"/>
<path d="M51.8561 75.8841L55.6864 67.12L55.959 66.5013C56.1964 65.9722 56.5945 65.5205 57.1036 65.2026C57.6126 64.8847 58.2101 64.7145 58.8215 64.7135L60.8571 64.7647C60.8571 64.7647 57.99 73.5075 56.0226 76.938C55.8035 77.3787 55.5105 77.7835 55.1548 78.137C54.8772 78.3752 54.5593 78.5684 54.2143 78.7088C54.0361 78.774 53.8521 78.8239 53.6645 78.8581C53.3652 78.895 53.0611 78.8412 52.7966 78.7045C52.4165 78.5084 52.1113 78.2054 51.9238 77.8381C51.7364 77.4707 51.6762 77.0575 51.7516 76.6564L51.8561 75.8841Z" fill="#263238"/>
<path d="M62.143 54.857C61.2741 54.7472 60.4832 54.3282 59.9336 53.6867C59.3841 53.0452 59.1177 52.23 59.1896 51.4094C60.2314 50.1394 61.6169 49.1551 63.2017 48.5592C64.9366 47.9863 66.8069 47.8769 68.6041 48.2434C69.0317 48.889 69.3462 49.5949 69.5355 50.3342C69.6562 50.6899 69.6894 51.0666 69.6328 51.4361C69.5761 51.8057 69.431 52.1583 69.2084 52.4676C67.6635 54.3791 64.6738 55.177 62.143 54.857Z" fill="#263238"/>
<path d="M60.6118 54.9253L63.7924 59.717L67.3183 59.7554L68.9176 56.0219L69.3447 52.4122C69.3447 52.4122 60.9163 54.9211 59.9439 53.6922C58.9716 52.4634 60.6118 54.9253 60.6118 54.9253Z" fill="#263238"/>
<g opacity="0.5">
<path opacity="0.5" d="M60.6118 54.9253L63.7924 59.717L67.3183 59.7554L68.9176 56.0219L69.3447 52.4122C69.3447 52.4122 60.9163 54.9211 59.9439 53.6922C58.9716 52.4634 60.6118 54.9253 60.6118 54.9253Z" fill="white"/>
</g>
<path d="M69.0675 53.6154C69.9763 53.8799 70.467 55.1728 70.4988 55.992C70.5306 56.8923 69.8808 57.4556 69.0539 56.8454C68.4275 56.3735 67.9837 55.7213 67.7908 54.9893C67.5727 54.1018 68.1588 53.3509 69.0675 53.6154Z" fill="#B55B52"/>
<path opacity="0.2" d="M163.989 55.3265H114.595C113.676 55.3265 112.932 56.0257 112.932 56.8881V88.9279C112.932 89.7904 113.676 90.4896 114.595 90.4896H163.989C164.907 90.4896 165.652 89.7904 165.652 88.9279V56.8881C165.652 56.0257 164.907 55.3265 163.989 55.3265Z" fill="black"/>
<path d="M165.884 52.8602H116.49C115.571 52.8602 114.827 53.5594 114.827 54.4218V86.4616C114.827 87.3241 115.571 88.0233 116.49 88.0233H165.884C166.802 88.0233 167.547 87.3241 167.547 86.4616V54.4218C167.547 53.5594 166.802 52.8602 165.884 52.8602Z" fill="#506CA9"/>
<path opacity="0.4" d="M165.884 52.8602H116.49C115.571 52.8602 114.827 53.5594 114.827 54.4218V86.4616C114.827 87.3241 115.571 88.0233 116.49 88.0233H165.884C166.802 88.0233 167.547 87.3241 167.547 86.4616V54.4218C167.547 53.5594 166.802 52.8602 165.884 52.8602Z" fill="white"/>
<path d="M165.879 54.0378H116.494C116.266 54.0378 116.081 54.2117 116.081 54.4261V86.4616C116.081 86.6761 116.266 86.8499 116.494 86.8499H165.879C166.107 86.8499 166.293 86.6761 166.293 86.4616V54.4261C166.293 54.2117 166.107 54.0378 165.879 54.0378Z" fill="#506CA9"/>
<path opacity="0.2" d="M165.879 54.0378H116.494C116.266 54.0378 116.081 54.2117 116.081 54.4261V86.4616C116.081 86.6761 116.266 86.8499 116.494 86.8499H165.879C166.107 86.8499 166.293 86.6761 166.293 86.4616V54.4261C166.293 54.2117 166.107 54.0378 165.879 54.0378Z" fill="black"/>
<path d="M147.673 70.4396C147.674 71.6406 147.295 72.815 146.585 73.814C145.875 74.8131 144.866 75.592 143.685 76.0522C142.503 76.5124 141.203 76.6332 139.948 76.3994C138.694 76.1656 137.541 75.5877 136.637 74.7387C135.732 73.8897 135.116 72.8079 134.866 71.63C134.616 70.452 134.744 69.231 135.233 68.1213C135.722 67.0116 136.551 66.0631 137.614 65.3957C138.678 64.7283 139.928 64.3721 141.207 64.3721C142.921 64.3721 144.565 65.0112 145.777 66.149C146.99 67.2867 147.671 68.83 147.673 70.4396Z" fill="#506CA9"/>
<path opacity="0.9" d="M144.569 70.4396L139.476 73.5373V67.3461L144.569 70.4396Z" fill="white"/>
<path opacity="0.8" d="M159.922 81.7809H118.53V82.1094H159.922V81.7809Z" fill="white"/>
<path d="M134.405 81.943C134.405 82.0561 134.357 82.1647 134.272 82.2447C134.187 82.3247 134.071 82.3697 133.951 82.3697H118.166C118.046 82.3697 117.93 82.3247 117.845 82.2447C117.76 82.1647 117.712 82.0561 117.712 81.943C117.712 81.8298 117.76 81.7213 117.845 81.6413C117.93 81.5613 118.046 81.5163 118.166 81.5163H133.937C134.058 81.5163 134.173 81.5613 134.258 81.6413C134.344 81.7213 134.392 81.8298 134.392 81.943H134.405Z" fill="#506CA9"/>
<g opacity="0.8">
<path opacity="0.8" d="M163.694 80.983H164.225V81.4139H164.675V80.7184H163.694V80.983Z" fill="white"/>
<path opacity="0.8" d="M160.949 81.4139V80.9829H161.481V80.7184H160.499V81.4139H160.949Z" fill="white"/>
<path opacity="0.8" d="M161.481 82.9073H160.949V82.4763H160.499V83.1675H161.481V82.9073Z" fill="white"/>
<path opacity="0.8" d="M164.225 82.4763V82.9073H163.694V83.1675H164.675V82.4763H164.225Z" fill="white"/>
</g>
<g opacity="0.8">
<path opacity="0.9" d="M140.198 85.429L141.72 84.5074L140.198 83.5815V85.429Z" fill="white"/>
<path opacity="0.9" d="M141.72 83.6796V84.5074V85.3309H142.129V83.6796H141.72Z" fill="white"/>
</g>
<g opacity="0.8">
<path opacity="0.9" d="M144.233 83.6796H143.701V85.3309H144.233V83.6796Z" fill="white"/>
<path opacity="0.9" d="M145.178 83.6796H144.646V85.3309H145.178V83.6796Z" fill="white"/>
</g>
<path opacity="0.8" d="M138.713 84.5074L137.19 85.429V83.5815L138.713 84.5074Z" fill="white"/>
<path d="M173.808 70.2049L176.893 77.4585C176.954 77.5613 176.99 77.6755 176.998 77.793C177.007 77.9104 176.987 78.0282 176.941 78.1376C176.895 78.2471 176.823 78.3455 176.732 78.4259C176.64 78.5062 176.531 78.5664 176.411 78.602L167.587 82.6427L169.01 84.3495C169.01 84.3495 177.951 82.0283 179.796 79.9376C181.132 78.4228 177.374 69.0358 177.374 69.0358L173.808 70.2049Z" fill="#B55B52"/>
<path d="M167.587 82.6513L167.015 82.6854C166.479 82.7171 165.956 82.8507 165.478 83.0781C164.999 83.3054 164.574 83.6219 164.23 84.0082L163.643 84.6653C163.582 84.7129 163.533 84.7726 163.5 84.8401C163.466 84.9075 163.448 84.9811 163.448 85.0557C163.448 85.1302 163.466 85.2038 163.5 85.2713C163.533 85.3388 163.582 85.3984 163.643 85.4461C163.998 85.7277 163.893 85.813 164.157 86.0178C164.302 86.1331 164.352 86.0477 164.534 85.988L166.615 85.7192C167.484 85.387 168.292 84.9292 169.01 84.3623L167.587 82.6513Z" fill="#B55B52"/>
<path d="M171.391 69.2278C172.756 70.6329 174.007 72.1319 175.134 73.7123L178.96 72.3512L178.179 68.511C177.997 67.3333 176.752 65.6522 175.73 65.3109C172.835 64.3508 171.3 67.3333 171.391 69.2278Z" fill="#506CA9"/>
<path d="M157.101 56.4273C157.27 56.3453 157.458 56.3026 157.648 56.3026C157.839 56.3026 158.026 56.3453 158.196 56.4273L158.237 56.4529C158.275 56.4673 158.317 56.4674 158.355 56.4531C158.393 56.4388 158.424 56.4112 158.441 56.3761C158.456 56.341 158.456 56.3016 158.441 56.2666C158.426 56.2315 158.396 56.2034 158.359 56.1883C158.152 56.0795 157.92 56.0189 157.683 56.0115C157.446 56.004 157.211 56.0501 156.996 56.1457C156.962 56.1588 156.935 56.1831 156.919 56.2139C156.911 56.2313 156.906 56.2501 156.905 56.2691C156.905 56.2882 156.908 56.3071 156.915 56.325C156.922 56.3428 156.933 56.3591 156.947 56.373C156.961 56.3869 156.978 56.3981 156.996 56.406C157.027 56.4249 157.064 56.4325 157.101 56.4273Z" fill="#263238"/>
<path d="M157.496 57.4044C157.364 58.0458 157.16 58.6722 156.887 59.2733C156.989 59.3678 157.117 59.4338 157.257 59.4639C157.396 59.4941 157.542 59.4872 157.678 59.444L157.496 57.4044Z" fill="#932A2A"/>
<path d="M166.692 59.7682C166.656 61.9016 166.96 65.81 168.782 66.9365C168.782 66.9365 168.578 69.1553 164.457 69.855C159.913 70.623 161.89 68.1099 161.89 68.1099C164.257 67.1328 163.862 65.4218 163.112 63.8772L166.692 59.7682Z" fill="#B55B52"/>
<path d="M157.264 56.7089C157.064 56.7089 156.924 56.9692 156.951 57.255C156.978 57.5409 157.16 57.7628 157.36 57.75C157.56 57.7372 157.7 57.4897 157.673 57.1996C157.646 56.9094 157.464 56.6918 157.264 56.7089Z" fill="#263238"/>
<path d="M157.046 56.9948C156.976 56.9832 156.91 56.9541 156.856 56.9106C156.801 56.8671 156.76 56.8107 156.737 56.7473C156.872 56.7941 157.017 56.8102 157.16 56.7943C157.1 56.8478 157.06 56.9181 157.046 56.9948Z" fill="#263238"/>
<path d="M168.001 55.0832C168.087 58.6247 168.201 60.1224 166.47 62.0766C163.862 65.0207 159.2 64.3466 158.009 60.9203C156.924 57.8183 156.551 53.2613 160.109 51.5716C162.635 50.3556 166.138 50.586 167.433 52.9541C167.794 53.6134 167.988 54.342 168.001 55.0832Z" fill="#B55B52"/>
<path d="M172.431 63.5273C172.045 62.3539 172.726 61.2317 172.681 60.0498C172.661 59.4381 172.511 58.8362 172.24 58.2794C171.969 57.7227 171.583 57.2221 171.104 56.807C170.405 56.1969 169.573 55.8086 169.101 54.9893C168.723 54.3365 168.428 53.6453 168.06 52.9839C167.716 52.2791 167.171 51.6774 166.486 51.2458C165.8 50.8143 165 50.5696 164.175 50.539C159.145 50.3854 157.946 52.1604 157.846 54.0549C157.874 55.1025 158.212 56.122 158.823 56.999C159.809 58.3132 159.491 60.7795 158.709 62.196C158.6 62.5842 158.603 62.9926 158.717 63.3794C158.831 63.7663 159.053 64.1177 159.359 64.3977C160.413 65.298 164.439 62.8147 168.042 62.8873C171.645 62.9598 172.431 63.5273 172.431 63.5273Z" fill="#263238"/>
<path d="M160.268 57.7073C160.327 58.3763 160.18 59.0472 159.845 59.6402C159.391 60.404 158.773 60.1821 158.555 59.4141C158.355 58.7399 158.355 57.5238 158.964 56.999C159.572 56.4742 160.186 56.8753 160.268 57.7073Z" fill="#B55B52"/>
<path d="M155.529 53.3253C155.44 53.6426 155.48 53.9797 155.643 54.2702C155.805 54.5608 156.077 54.7838 156.405 54.8955C156.461 55.1937 156.582 55.4776 156.762 55.7289C156.941 55.9802 157.175 56.1932 157.448 56.3541C157.721 56.515 158.027 56.6203 158.346 56.663C158.665 56.7058 158.99 56.6851 159.3 56.6023C158.682 56.4401 158.514 55.6508 158.736 55.0833C159.145 54.0422 160.763 52.7749 159.223 51.9002C158.046 51.2431 155.851 52.105 155.529 53.3253Z" fill="#263238"/>
<path d="M157.292 71.7879C158.173 74.9411 159.368 80.488 160.472 89.7982L173.244 88.3816C172.531 83.0395 173.635 79.0202 175.266 69.1808C175.334 68.7759 175.316 68.3624 175.211 67.9644C175.107 67.5664 174.918 67.1921 174.658 66.8633C174.397 66.5346 174.069 66.2581 173.693 66.0501C173.317 65.8421 172.9 65.7068 172.467 65.6521C171.579 65.5415 170.683 65.4958 169.787 65.5156C167.449 65.5367 165.116 65.7207 162.808 66.066C161.992 66.2069 161.185 66.3907 160.39 66.6164C159.26 66.9324 158.305 67.6485 157.727 68.6135C157.149 69.5785 156.993 70.7168 157.292 71.7879Z" fill="#506CA9"/>
<path opacity="0.2" d="M161.222 71.1735L159.032 79.8523L157.119 71.1735C157.669 71.1479 161.222 71.1735 161.222 71.1735Z" fill="black"/>
<path d="M156.21 69.0785L160.34 69.7612C160.34 69.7612 158.473 77.689 156.742 80.6587C155.097 83.4876 145.346 87.5753 145.346 87.5753L144.851 85.9411L152.462 80.0827C153.207 79.507 153.731 78.7191 153.957 77.8383L156.21 69.0785Z" fill="#B55B52"/>
<path d="M144.851 85.9411L146.214 86.8457L143.656 88.9791C142.816 89.7514 140.894 89.6405 139.626 89.7173C139.545 89.7257 139.464 89.7191 139.386 89.6978C139.308 89.6766 139.235 89.6412 139.172 89.5935L138.676 89.2351C138.249 88.9194 138.14 88.1044 138.676 88.0063L141.693 87.6905C142.248 87.1956 144.851 85.9411 144.851 85.9411Z" fill="#B55B52"/>
<path d="M154.943 69.8422C154.556 72.3383 154.375 74.7491 154.375 74.7491L158.918 75.6963C158.918 75.6963 162.29 70.8961 161.19 69.0145C160.345 67.376 158.35 66.369 156.524 67.4443C156.091 67.713 155.726 68.0665 155.453 68.4805C155.18 68.8944 155.006 69.359 154.943 69.8422Z" fill="#506CA9"/>
<path d="M197.657 107.028L198.775 109.98L191.901 113.437L190.147 110.493L197.657 107.028Z" fill="#B55B52"/>
<path d="M197.294 110.497L195.558 108.197C195.52 108.148 195.503 108.087 195.509 108.027C195.515 107.967 195.543 107.91 195.59 107.868L198.448 104.946C198.557 104.858 198.698 104.815 198.841 104.824C198.984 104.834 199.117 104.896 199.211 104.997C199.225 105.011 199.237 105.027 199.248 105.044C199.993 106.051 200.297 106.571 201.265 107.83C201.856 108.598 204.046 110.702 204.632 111.896C205.218 113.091 203.987 113.697 203.628 113.249C202.487 111.798 200.143 110.872 198.307 110.889C197.946 110.821 197.602 110.687 197.294 110.497Z" fill="#263238"/>
<path opacity="0.2" d="M188.02 111.414L189.838 114.52L194.254 112.25L192.805 109.264L188.02 111.414Z" fill="black"/>
<path d="M153.752 111.858C156.524 112.865 159.659 112.238 162.494 111.431C167.006 110.121 171.618 108.7 175.421 106.098C178.024 104.314 178.797 102.257 178.256 101.404C174.918 100.893 171.535 100.691 168.155 100.802C164.82 100.969 161.44 101.805 158.796 103.691C156.151 105.577 154.106 111.371 154.229 111.188L153.752 111.858Z" fill="#506CA9"/>
<g opacity="0.2">
<path opacity="0.2" d="M153.752 111.858C156.524 112.865 159.659 112.238 162.494 111.431C167.006 110.121 171.618 108.7 175.421 106.098C178.024 104.314 178.797 102.257 178.256 101.404C174.918 100.893 171.535 100.691 168.155 100.802C164.82 100.969 161.44 101.805 158.796 103.691C156.151 105.577 154.106 111.371 154.229 111.188L153.752 111.858Z" fill="black"/>
</g>
<path d="M163.162 88.6505C163.162 88.6505 160.627 122.41 172.499 125.243C179.933 126.903 193.277 114.03 193.277 114.03L191.205 109.857C191.205 109.857 179.587 114.209 177.379 113.193C172.036 103.29 178.901 94.5857 173.094 87.8611L163.162 88.6505Z" fill="#263238"/>
<path d="M198.243 110.727C198.234 110.717 198.221 110.709 198.206 110.705C198.191 110.701 198.176 110.702 198.162 110.706C198.146 110.71 198.133 110.718 198.123 110.729C198.113 110.741 198.108 110.755 198.107 110.77C198.107 110.885 197.998 112.029 198.339 112.268C198.377 112.295 198.421 112.312 198.468 112.318C198.515 112.324 198.563 112.318 198.607 112.302C198.681 112.281 198.748 112.243 198.802 112.192C198.856 112.14 198.895 112.077 198.916 112.007V111.969C198.98 111.606 198.525 111.043 198.243 110.727ZM198.243 110.975C198.63 111.401 198.807 111.777 198.757 111.969C198.742 112.015 198.715 112.056 198.679 112.09C198.642 112.124 198.597 112.148 198.548 112.161C198.529 112.171 198.508 112.177 198.487 112.177C198.465 112.177 198.444 112.171 198.425 112.161C198.239 112.033 198.216 111.427 198.243 110.97V110.975Z" fill="#506CA9"/>
<path d="M198.271 110.783C198.271 110.77 198.267 110.757 198.261 110.746C198.255 110.735 198.246 110.726 198.234 110.719C198.223 110.711 198.21 110.707 198.196 110.707C198.182 110.707 198.169 110.711 198.157 110.719C198.121 110.719 197.276 111.145 197.162 111.606C197.144 111.661 197.139 111.719 197.148 111.776C197.156 111.832 197.178 111.887 197.212 111.935C197.243 111.986 197.292 112.027 197.351 112.049C197.409 112.071 197.474 112.075 197.535 112.058C197.862 111.956 198.18 111.282 198.243 110.898C198.257 110.86 198.266 110.822 198.271 110.783ZM197.298 111.67C197.3 111.663 197.3 111.656 197.298 111.649C197.367 111.376 197.807 111.081 198.08 110.923C198.003 111.299 197.703 111.854 197.48 111.918C197.444 111.918 197.394 111.918 197.339 111.849C197.319 111.824 197.304 111.795 197.296 111.764C197.288 111.733 197.288 111.701 197.294 111.67H197.298Z" fill="#506CA9"/>
<path d="M172.635 152.888L169.364 153.455L167.674 146.355L170.945 145.788L172.635 152.888Z" fill="#B55B52"/>
<path d="M168.092 154.04C168.107 154.035 168.121 154.026 168.131 154.014C168.142 154.001 168.149 153.987 168.151 153.972C168.149 153.956 168.143 153.941 168.134 153.929C168.124 153.916 168.111 153.906 168.096 153.899C167.942 153.844 166.538 153.353 166.161 153.609C166.125 153.632 166.096 153.664 166.077 153.7C166.058 153.737 166.049 153.777 166.052 153.818C166.051 153.885 166.067 153.951 166.099 154.011C166.13 154.071 166.176 154.124 166.233 154.164C166.491 154.284 166.783 154.321 167.065 154.266C167.413 154.218 167.757 154.142 168.092 154.04ZM166.397 153.686C166.888 153.702 167.372 153.798 167.828 153.967C167.106 154.159 166.556 154.189 166.338 154.044C166.3 154.018 166.27 153.983 166.249 153.943C166.228 153.902 166.218 153.858 166.22 153.814C166.218 153.797 166.221 153.781 166.228 153.766C166.235 153.751 166.247 153.738 166.261 153.728C166.305 153.704 166.355 153.69 166.406 153.686H166.397Z" fill="#506CA9"/>
<path d="M168.119 154.019C168.126 154.007 168.129 153.994 168.129 153.98C168.129 153.967 168.126 153.954 168.119 153.942C168.119 153.912 167.928 153.088 167.474 152.798C167.408 152.757 167.333 152.73 167.255 152.718C167.176 152.706 167.096 152.71 167.019 152.73C166.801 152.777 166.765 152.888 166.751 152.969C166.729 153.332 167.592 153.916 168.01 154.04H168.037C168.052 154.044 168.067 154.045 168.082 154.041C168.096 154.037 168.109 154.029 168.119 154.019ZM167.119 152.867C167.219 152.848 167.323 152.864 167.41 152.913C167.689 153.156 167.876 153.476 167.946 153.827C167.492 153.652 166.92 153.182 166.933 152.973C166.933 152.973 166.933 152.901 167.079 152.871H167.124L167.119 152.867Z" fill="#506CA9"/>
<path d="M169.419 152.192L172.413 152.073C172.477 152.068 172.542 152.086 172.593 152.123C172.644 152.16 172.679 152.214 172.69 152.274L173.758 156.114C173.777 156.246 173.741 156.381 173.656 156.489C173.571 156.596 173.444 156.669 173.303 156.69H173.24C171.936 156.728 171.304 156.69 169.655 156.766C168.646 156.813 165.566 157.407 164.202 157.219C162.839 157.031 162.939 155.734 163.535 155.696C165.447 155.576 167.547 154.232 168.533 152.777C168.669 152.649 169.21 152.197 169.419 152.192Z" fill="#263238"/>
<path opacity="0.2" d="M167.674 146.355L168.546 150.016L171.818 149.453L170.95 145.792L167.674 146.355Z" fill="black"/>
<path opacity="0.2" d="M171.263 95.2598L165.597 101.012L168.11 116.645L171.263 95.2598Z" fill="black"/>
<path d="M160.05 89.0559C160.05 89.0559 156.642 97.3805 156.342 105.206C155.833 118.565 159.691 130.547 161.054 134.801C163.844 143.484 166.729 147.866 166.729 147.866L172.149 147.26C172.149 147.26 165.138 109.34 168.514 104.869C175.593 95.5116 169.473 88.1428 169.473 88.1428L160.05 89.0559Z" fill="#263238"/>
<path d="M172.685 80.6075C177.684 87.0632 177.684 96.0279 178.42 101.724C177.511 102.949 171.763 104.395 170.168 104.348C167.005 104.28 163.87 104.924 161.025 106.224C158.179 107.524 155.706 109.444 153.811 111.824C152.38 107.22 159.264 82.7793 159.264 82.7793C160.822 82.3398 171.713 79.3615 172.685 80.6075Z" fill="#506CA9"/>
<path d="M169.691 68.6816L164.484 69.2278C164.181 69.2542 163.877 69.1845 163.621 69.0298C163.365 68.8752 163.171 68.6444 163.071 68.3744C162.919 68.0734 162.722 67.7946 162.485 67.5467C162.065 67.0282 161.493 66.6354 160.84 66.4159C162.386 65.8969 163.982 65.5224 165.606 65.298C168.037 65.0633 168.937 65.5199 168.937 65.5199C170.159 65.8399 170.595 66.2922 170.841 67.1242C170.89 67.2984 170.898 67.4804 170.864 67.6578C170.831 67.8352 170.757 68.0038 170.648 68.1518C170.539 68.2998 170.397 68.4239 170.232 68.5153C170.066 68.6068 169.882 68.6635 169.691 68.6816Z" fill="#B55B52"/>
<path d="M114.84 143.654C114.84 143.654 119.234 139.763 119.161 137.207C119.089 134.651 116.435 140.642 116.353 139.383C116.272 138.125 119.388 134.506 119.534 132.036C119.679 129.565 116.353 136.469 116.203 135.308C116.053 134.148 119.216 129.015 119.189 127.201C119.161 125.388 116.403 131.754 116.008 130.615C115.613 129.476 118.307 125.298 117.616 122.162C116.926 119.026 115.458 127.257 115.236 126.211C115.013 125.166 116.876 119.811 115.558 117.678C114.241 115.544 114.609 123.476 114.159 122.555C113.709 121.633 113.436 117.076 111.755 115.523C110.074 113.97 112.209 120.114 111.682 120.421C111.155 120.729 108.77 116.155 108.125 117.029C107.48 117.904 111.528 122.807 111.569 123.98C111.61 125.153 108.297 122.021 108.002 123.293C107.707 124.564 112.609 126.566 112.859 127.782C113.109 128.998 108.77 126.822 108.797 128.076C108.824 129.331 112.918 130 113.164 131.426C113.409 132.851 109.147 130.397 109.379 132.066C109.611 133.734 112.482 133.41 112.809 135.052C113.136 136.695 109.847 134.822 109.974 136.388C110.101 137.954 113.382 138.129 113.727 139.324C114.072 140.518 110.587 138.765 110.687 140.032C110.787 141.299 114.154 141.483 114.84 143.654Z" fill="#506CA9"/>
<path d="M114.477 149.189C115.056 146.308 115.36 143.385 115.385 140.454C115.549 134.084 114.699 127.654 112.437 121.637C112.273 121.211 111.528 121.356 111.678 121.8C113.847 127.792 114.84 134.104 114.608 140.429C114.576 143.293 114.272 146.149 113.7 148.962C113.6 149.419 114.34 149.641 114.445 149.18L114.477 149.189Z" fill="#506CA9"/>
<path d="M116.126 144.969C116.126 144.969 113.068 139.477 114.045 135.756C115.022 132.036 115.735 140.697 116.19 138.624C116.644 136.55 114.759 132.522 116.512 129.531C118.266 126.54 116.644 135.146 117.812 133.256C118.98 131.366 117.621 126.544 119.243 124.722C120.865 122.9 119.761 128.686 120.543 127.773C121.324 126.86 121.129 122.585 122.36 121.608C123.591 120.63 122.492 125.695 123.142 124.722C123.791 123.75 125.286 119.291 127.367 118.749C129.448 118.207 126.004 121.497 127.367 121.189C128.73 120.882 131.847 120.212 132.111 121.556C132.374 122.9 125.545 124.347 124.768 125.977C123.991 127.607 127.885 124.697 128.599 125.917C129.312 127.137 122.624 128.844 122.101 130.675C121.579 132.505 127.626 129.151 127.494 131.042C127.363 132.932 120.543 133.299 120.225 134.946C119.907 136.593 125.809 133.115 125.613 134.762C125.418 136.409 119.507 137.694 119.116 139.456C118.725 141.218 123.473 137.809 123.601 139.213C123.728 140.616 116.126 144.969 116.126 144.969Z" fill="#506CA9"/>
<path opacity="0.2" d="M116.126 144.969C116.126 144.969 113.068 139.477 114.045 135.756C115.022 132.036 115.735 140.697 116.19 138.624C116.644 136.55 114.759 132.522 116.512 129.531C118.266 126.54 116.644 135.146 117.812 133.256C118.98 131.366 117.621 126.544 119.243 124.722C120.865 122.9 119.761 128.686 120.543 127.773C121.324 126.86 121.129 122.585 122.36 121.608C123.591 120.63 122.492 125.695 123.142 124.722C123.791 123.75 125.286 119.291 127.367 118.749C129.448 118.207 126.004 121.497 127.367 121.189C128.73 120.882 131.847 120.212 132.111 121.556C132.374 122.9 125.545 124.347 124.768 125.977C123.991 127.607 127.885 124.697 128.599 125.917C129.312 127.137 122.624 128.844 122.101 130.675C121.579 132.505 127.626 129.151 127.494 131.042C127.363 132.932 120.543 133.299 120.225 134.946C119.907 136.593 125.809 133.115 125.613 134.762C125.418 136.409 119.507 137.694 119.116 139.456C118.725 141.218 123.473 137.809 123.601 139.213C123.728 140.616 116.126 144.969 116.126 144.969Z" fill="white"/>
<path d="M111.805 144.806C111.805 144.806 114.763 139.857 113.882 137.442C113 135.027 112.355 141.491 111.891 140.305C111.428 139.119 113.255 134.801 112.578 132.407C111.9 130.013 110.974 137.527 110.437 136.465C109.901 135.402 111.31 129.612 110.715 127.905C110.119 126.199 109.506 133.026 108.761 132.07C108.016 131.114 109.261 126.352 107.602 123.536C105.944 120.72 107.148 129.002 106.621 128.068C106.094 127.133 106.166 121.492 104.204 119.816C102.241 118.139 105.149 125.618 104.422 124.863C103.695 124.108 101.991 119.841 99.878 118.83C97.7652 117.819 101.764 123.097 101.368 123.523C100.973 123.95 97.2336 120.276 96.8928 121.288C96.5521 122.299 101.982 125.84 102.391 126.95C102.8 128.059 98.6467 125.998 98.7557 127.295C98.8648 128.592 104.208 129.126 104.817 130.218C105.426 131.31 100.623 130.448 101.041 131.639C101.459 132.829 105.585 132.317 106.271 133.61C106.957 134.903 102.109 133.755 102.863 135.283C103.617 136.81 106.253 135.71 107.089 137.173C107.925 138.637 104.19 137.787 104.817 139.247C105.444 140.706 108.625 139.947 109.333 140.992C110.042 142.037 106.153 141.337 106.657 142.519C107.161 143.701 110.46 142.925 111.805 144.806Z" fill="#506CA9"/>
<path opacity="0.1" d="M111.805 144.806C111.805 144.806 114.763 139.857 113.882 137.442C113 135.027 112.355 141.491 111.891 140.305C111.428 139.119 113.255 134.801 112.578 132.407C111.9 130.013 110.974 137.527 110.437 136.465C109.901 135.402 111.31 129.612 110.715 127.905C110.119 126.199 109.506 133.026 108.761 132.07C108.016 131.114 109.261 126.352 107.602 123.536C105.944 120.72 107.148 129.002 106.621 128.068C106.094 127.133 106.166 121.492 104.204 119.816C102.241 118.139 105.149 125.618 104.422 124.863C103.695 124.108 101.991 119.841 99.878 118.83C97.7652 117.819 101.764 123.097 101.368 123.523C100.973 123.95 97.2336 120.276 96.8928 121.288C96.5521 122.299 101.982 125.84 102.391 126.95C102.8 128.059 98.6467 125.998 98.7557 127.295C98.8648 128.592 104.208 129.126 104.817 130.218C105.426 131.31 100.623 130.448 101.041 131.639C101.459 132.829 105.585 132.317 106.271 133.61C106.957 134.903 102.109 133.755 102.863 135.283C103.617 136.81 106.253 135.71 107.089 137.173C107.925 138.637 104.19 137.787 104.817 139.247C105.444 140.706 108.625 139.947 109.333 140.992C110.042 142.037 106.153 141.337 106.657 142.519C107.161 143.701 110.46 142.925 111.805 144.806Z" fill="white"/>
<path d="M113.223 150.191C112.863 147.279 112.228 144.403 111.323 141.598C109.516 135.435 106.535 129.63 102.522 124.466C102.222 124.095 101.545 124.466 101.845 124.838C105.824 129.945 108.781 135.689 110.574 141.79C111.461 144.533 112.086 147.344 112.441 150.191C112.491 150.656 113.273 150.661 113.223 150.191Z" fill="#506CA9"/>
<path d="M115.994 149.487C116.115 146.939 116.432 144.402 116.944 141.896C117.88 137.058 119.375 132.117 122.255 127.961C123.833 125.551 126.1 123.605 128.798 122.346C129.253 122.145 128.857 121.514 128.403 121.71C123.487 123.882 120.538 128.503 118.67 133.107C116.989 137.424 115.911 141.927 115.463 146.505C115.349 147.495 115.249 148.489 115.213 149.491C115.213 149.961 115.976 149.961 115.994 149.491V149.487Z" fill="#506CA9"/>
<path d="M122.36 145.519H106.248L108.066 153.199V154.936C108.066 155.512 108.309 156.064 108.743 156.472C109.177 156.879 109.765 157.108 110.378 157.108H118.23C118.843 157.108 119.431 156.879 119.865 156.472C120.299 156.064 120.542 155.512 120.542 154.936V153.199L122.36 145.519Z" fill="#263238"/>
</svg>
