

<svg width="49" height="48" viewBox="0 0 49 48" fill="none" xmlns="http://www.w3.org/2000/svg">
<path d="M48 24C48 36.6832 37.4982 47 24.5 47C11.5018 47 1 36.6832 1 24C1 11.3168 11.5018 1 24.5 1C37.4982 1 48 11.3168 48 24Z" stroke="#fff" stroke-width="2"/>
<path d="M34.8525 14.8072C34.839 14.2551 34.3805 13.8184 33.8284 13.8319L24.8311 14.0514C24.279 14.0648 23.8423 14.5233 23.8558 15.0754C23.8692 15.6276 24.3277 16.0642 24.8799 16.0508L32.8775 15.8557L33.0725 23.8533C33.086 24.4054 33.5445 24.8421 34.0966 24.8286C34.6487 24.8152 35.0854 24.3567 35.0719 23.8046L34.8525 14.8072ZM15.2085 35.8581L34.5769 15.5213L33.1287 14.142L13.7602 34.4788L15.2085 35.8581Z" fill="#fff"/>
</svg>
