<svg width="247" height="247" viewBox="0 0 247 247" fill="none" xmlns="http://www.w3.org/2000/svg">
<path d="M162.277 175.932C160.797 171.104 158.468 166.591 155.548 162.688L154.417 161.244L153.848 160.533L153.387 159.98L151.617 157.916L148.077 153.787L142.928 147.898C142.968 147.842 143.018 147.785 143.068 147.718C145.588 144.254 147.997 140.678 150.057 136.707C146.537 139.031 143.368 141.75 140.298 144.593C140.248 144.638 140.208 144.683 140.158 144.728L135.848 139.798C135.878 139.753 135.908 139.719 135.938 139.685C138.457 136.222 140.868 132.646 142.928 128.675C139.408 130.999 136.237 133.718 133.167 136.561C133.137 136.594 133.107 136.628 133.077 136.651L119.288 121.274L115.628 117.281L113.798 115.284C113.658 115.126 113.457 114.923 113.367 114.81L113.077 114.461L112.497 113.772C110.977 111.9 109.787 109.734 108.887 107.398C107.997 105.052 107.477 102.502 107.367 99.8851C107.297 97.2792 107.568 94.6393 108.258 92.1123C108.948 89.5853 110.058 87.1937 111.508 85.0277C112.938 82.8391 114.738 80.8875 116.818 79.4209C118.898 77.9431 121.207 76.7924 123.688 76.1493C126.168 75.495 128.777 75.3596 131.387 75.6868C136.607 76.3298 141.737 79.263 145.607 83.9334C149.527 88.5249 152.048 94.9778 152.378 101.95C152.748 108.91 150.898 116.299 146.898 122.639C152.488 118.104 156.638 110.726 157.938 102.39C158.618 98.2268 158.587 93.8609 157.857 89.5628C157.107 85.2646 155.597 81.0793 153.467 77.2775C151.317 73.487 148.547 70.1026 145.277 67.3048C142.007 64.4958 138.187 62.4764 134.167 61.2017C126.117 58.6521 117.077 59.5207 109.277 63.864C101.447 68.1509 95.1075 75.856 91.7475 85.1856C90.0575 89.8335 89.0975 94.8424 89.0075 99.8964C88.9175 104.95 89.6375 110.05 91.1275 114.878C92.6075 119.718 94.9575 124.219 97.8675 128.133L98.9975 129.577L99.5675 130.288L100.027 130.841L101.798 132.905L105.337 137.034L118.788 152.388C117.998 153.403 117.198 154.396 116.428 155.445C113.908 158.897 111.497 162.485 109.438 166.467C112.967 164.155 116.138 161.424 119.208 158.582C120.138 157.713 121.028 156.799 121.928 155.908L125.947 160.387C125.147 161.413 124.327 162.428 123.557 163.489C121.037 166.941 118.628 170.528 116.568 174.511C120.098 172.198 123.267 169.468 126.337 166.625C127.277 165.745 128.187 164.82 129.107 163.906L134.158 169.524L137.818 173.518L139.648 175.515C139.788 175.673 139.987 175.876 140.077 175.989L140.367 176.338L140.947 177.026C142.467 178.899 143.668 181.065 144.568 183.4C145.458 185.747 145.977 188.308 146.087 190.914C146.157 193.52 145.897 196.171 145.197 198.698C144.507 201.236 143.387 203.616 141.947 205.794C140.507 207.994 138.718 209.934 136.628 211.412C134.548 212.89 132.237 214.052 129.747 214.683C127.267 215.326 124.648 215.473 122.038 215.146C116.808 214.503 111.677 211.558 107.807 206.888C103.887 202.285 101.368 195.832 101.038 188.849C100.678 181.877 102.528 174.499 106.538 168.159C100.958 172.694 96.8075 180.072 95.5075 188.409C94.8275 192.561 94.8575 196.938 95.5975 201.236C96.3475 205.534 97.8675 209.708 99.9875 213.51C102.128 217.301 104.908 220.685 108.178 223.471C111.438 226.28 115.267 228.3 119.277 229.575C127.317 232.135 136.358 231.244 144.158 226.912C151.978 222.625 158.318 214.932 161.678 205.602C163.358 200.954 164.327 195.956 164.417 190.902C164.487 185.837 163.767 180.749 162.277 175.932Z" fill="url(#paint0_radial_12_101)"/>
<path d="M162.277 175.932C160.797 171.104 158.468 166.591 155.548 162.688L154.417 161.244L153.848 160.533L153.387 159.98L151.617 157.916L148.077 153.787L142.928 147.898C142.968 147.842 143.018 147.785 143.068 147.718C145.588 144.254 147.997 140.678 150.057 136.707C146.537 139.031 143.368 141.75 140.298 144.593C140.248 144.638 140.208 144.683 140.158 144.728L135.848 139.798C135.878 139.753 135.908 139.719 135.938 139.685C138.457 136.222 140.868 132.646 142.928 128.675C139.408 130.999 136.237 133.718 133.167 136.561C133.137 136.594 133.107 136.628 133.077 136.651L119.288 121.274L115.628 117.281L113.798 115.284C113.658 115.126 113.457 114.923 113.367 114.81L113.077 114.461L112.497 113.772C110.977 111.9 109.787 109.734 108.887 107.398C107.997 105.052 107.477 102.502 107.367 99.8851C107.297 97.2792 107.568 94.6393 108.258 92.1123C108.948 89.5853 110.058 87.1937 111.508 85.0277C112.938 82.8391 114.738 80.8875 116.818 79.4209C118.898 77.9431 121.207 76.7924 123.688 76.1493C126.168 75.495 128.777 75.3596 131.387 75.6868C136.607 76.3298 141.737 79.263 145.607 83.9334C149.527 88.5249 152.048 94.9778 152.378 101.95C152.748 108.91 150.898 116.299 146.898 122.639C152.488 118.104 156.638 110.726 157.938 102.39C158.618 98.2268 158.587 93.8609 157.857 89.5628C157.107 85.2646 155.597 81.0793 153.467 77.2775C151.317 73.487 148.547 70.1026 145.277 67.3048C142.007 64.4958 138.187 62.4764 134.167 61.2017C126.117 58.6521 117.077 59.5207 109.277 63.864C101.447 68.1509 95.1075 75.856 91.7475 85.1856C90.0575 89.8335 89.0975 94.8424 89.0075 99.8964C88.9175 104.95 89.6375 110.05 91.1275 114.878C92.6075 119.718 94.9575 124.219 97.8675 128.133L98.9975 129.577L99.5675 130.288L100.027 130.841L101.798 132.905L105.337 137.034L118.788 152.388C117.998 153.403 117.198 154.396 116.428 155.445C113.908 158.897 111.497 162.485 109.438 166.467C112.967 164.155 116.138 161.424 119.208 158.582C120.138 157.713 121.028 156.799 121.928 155.908L125.947 160.387C125.147 161.413 124.327 162.428 123.557 163.489C121.037 166.941 118.628 170.528 116.568 174.511C120.098 172.198 123.267 169.468 126.337 166.625C127.277 165.745 128.187 164.82 129.107 163.906L134.158 169.524L137.818 173.518L139.648 175.515C139.788 175.673 139.987 175.876 140.077 175.989L140.367 176.338L140.947 177.026C142.467 178.899 143.668 181.065 144.568 183.4C145.458 185.747 145.977 188.308 146.087 190.914C146.157 193.52 145.897 196.171 145.197 198.698C144.507 201.236 143.387 203.616 141.947 205.794C140.507 207.994 138.718 209.934 136.628 211.412C134.548 212.89 132.237 214.052 129.747 214.683C127.267 215.326 124.648 215.473 122.038 215.146C116.808 214.503 111.677 211.558 107.807 206.888C103.887 202.285 101.368 195.832 101.038 188.849C100.678 181.877 102.528 174.499 106.538 168.159C100.958 172.694 96.8075 180.072 95.5075 188.409C94.8275 192.561 94.8575 196.938 95.5975 201.236C96.3475 205.534 97.8675 209.708 99.9875 213.51C102.128 217.301 104.908 220.685 108.178 223.471C111.438 226.28 115.267 228.3 119.277 229.575C127.317 232.135 136.358 231.244 144.158 226.912C151.978 222.625 158.318 214.932 161.678 205.602C163.358 200.954 164.327 195.956 164.417 190.902C164.487 185.837 163.767 180.749 162.277 175.932Z" fill="#060420" fill-opacity="0.94"/>
<path d="M134.822 150.1C135.942 147.05 134.658 143.552 131.953 142.288C129.249 141.024 126.149 142.473 125.028 145.524C123.908 148.575 125.192 152.073 127.897 153.336C130.601 154.6 133.701 153.151 134.822 150.1Z" fill="#BC251B"/>
<path d="M123.552 13.0159L124.987 10L124.957 13.2913C124.927 15.9492 128.387 17.3538 130.547 15.5636L133.207 13.3464L131.711 16.3347C130.502 18.7447 133.04 21.3199 135.805 20.4799L139.22 19.4333L136.515 21.6091C134.34 23.3718 135.503 26.6494 138.404 26.911L142 27.2277L138.555 28.2193C135.775 29.018 135.382 32.447 137.921 33.7553L141.063 35.3803L137.482 35.0085C134.582 34.7055 132.693 37.6939 134.43 39.8284L136.576 42.4725L133.463 40.8061C130.955 39.4566 127.888 41.4947 128.523 44.0837L129.308 47.2924L127.208 44.6208C125.516 42.4587 121.814 43.1748 121.225 45.7775L120.5 49L119.775 45.7775C119.201 43.1748 115.484 42.4587 113.792 44.6208L111.691 47.2924L112.477 44.0837C113.112 41.4947 110.045 39.4566 107.537 40.8061L104.424 42.4725L106.57 39.8284C108.307 37.6939 106.403 34.7055 103.518 35.0085L99.9367 35.3803L103.079 33.7553C105.618 32.447 105.225 29.018 102.445 28.2193L99 27.2277L102.596 26.911C105.497 26.6631 106.66 23.3718 104.485 21.6091L101.78 19.4333L105.195 20.4799C107.96 21.3199 110.498 18.7585 109.289 16.3347L107.793 13.3464L110.453 15.5636C112.598 17.3538 116.058 15.9492 116.043 13.2913L116.013 10L117.448 13.0159C118.611 15.4534 122.404 15.4534 123.552 13.0159Z" fill="url(#paint1_linear_12_101)"/>
<path d="M123.33 244.66C190.339 244.66 244.66 190.339 244.66 123.33C244.66 56.3213 190.339 2 123.33 2C56.3213 2 2 56.3213 2 123.33C2 190.339 56.3213 244.66 123.33 244.66Z" stroke="url(#paint2_angular_12_101)" stroke-width="3" stroke-miterlimit="10"/>
<defs>
<radialGradient id="paint0_radial_12_101" cx="0" cy="0" r="1" gradientUnits="userSpaceOnUse" gradientTransform="translate(126.711 145.389) rotate(90) scale(85.6108 37.7111)">
<stop offset="0.84375" stop-color="#202F3B"/>
<stop offset="1" stop-color="#202F3B" stop-opacity="0"/>
</radialGradient>
<linearGradient id="paint1_linear_12_101" x1="120.5" y1="10" x2="120.5" y2="49" gradientUnits="userSpaceOnUse">
<stop stop-color="#F6C644"/>
<stop offset="1" stop-color="#F7941D"/>
</linearGradient>
<radialGradient id="paint2_angular_12_101" cx="0" cy="0" r="1" gradientUnits="userSpaceOnUse" gradientTransform="translate(123.33 123.33) rotate(90) scale(121.33)">
<stop offset="0.0440449" stop-color="#FBF7EE"/>
<stop offset="0.364583" stop-color="#FAE47D" stop-opacity="0.635417"/>
<stop offset="0.548999" stop-color="#FDF9EA" stop-opacity="0.745279"/>
<stop offset="0.8568" stop-color="#F8DEA9" stop-opacity="0.928646"/>
<stop offset="0.976575" stop-color="#F7B235"/>
</radialGradient>
</defs>
</svg>
