<svg width="396" height="143" viewBox="0 0 396 143" fill="none" xmlns="http://www.w3.org/2000/svg">
<path d="M0.5 0.5C0.223858 0.5 0 0.723858 0 1C0 1.27614 0.223858 1.5 0.5 1.5V0.5ZM395 142.5C395 142.776 395.224 143 395.5 143C395.776 143 396 142.776 396 142.5H395ZM0.5 1.5H5.56579V0.5H0.5V1.5ZM15.6974 1.5H25.8289V0.5H15.6974V1.5ZM35.9605 1.5H46.0921V0.5H35.9605V1.5ZM56.2237 1.5H66.3553V0.5H56.2237V1.5ZM76.4868 1.5H86.6184V0.5H76.4868V1.5ZM96.75 1.5H106.882V0.5H96.75V1.5ZM117.013 1.5H127.145V0.5H117.013V1.5ZM137.276 1.5H147.408V0.5H137.276V1.5ZM157.539 1.5H167.671V0.5H157.539V1.5ZM177.803 1.5H187.934V0.5H177.803V1.5ZM198.066 1.5H208.197V0.5H198.066V1.5ZM218.329 1.5H228.46V0.5H218.329V1.5ZM238.592 1.5H248.724V0.5H238.592V1.5ZM258.855 1.5H268.987V0.5H258.855V1.5ZM279.118 1.5H289.25V0.5H279.118V1.5ZM299.382 1.5H309.513V0.5H299.382V1.5ZM319.645 1.5H329.776V0.5H319.645V1.5ZM339.908 1.5H350.04V0.5H339.908V1.5ZM360.171 1.5H370.303V0.5H360.171V1.5ZM380.434 1.5H385.5V0.5H380.434V1.5ZM385.5 1.5C386.789 1.5 388.017 1.75646 389.136 2.22067L389.519 1.29694C388.281 0.783264 386.923 0.5 385.5 0.5V1.5ZM394.279 7.36365C394.744 8.48308 395 9.71096 395 11H396C396 9.57721 395.717 8.21932 395.203 6.98059L394.279 7.36365ZM395 11V15.6964H396V11H395ZM395 25.0893V34.4821H396V25.0893H395ZM395 43.875V53.2679H396V43.875H395ZM395 62.6607V72.0536H396V62.6607H395ZM395 81.4464V90.8393H396V81.4464H395ZM395 100.232V109.625H396V100.232H395ZM395 119.018V128.411H396V119.018H395ZM395 137.804V142.5H396V137.804H395Z" fill="#A3A3A3"/>
</svg>
