<svg width="130" height="89" viewBox="0 0 130 89" fill="none" xmlns="http://www.w3.org/2000/svg">
<path d="M129.5 1C129.776 1 130 0.776142 130 0.5C130 0.223858 129.776 0 129.5 0V1ZM0.5 88C0.223858 88 0 88.2239 0 88.5C0 88.7761 0.223858 89 0.5 89V88ZM0.5 89H4.95833V88H0.5V89ZM13.875 89H22.7917V88H13.875V89ZM31.7083 89H40.625V88H31.7083V89ZM49.5417 89H54V88H49.5417V89ZM54 89C55.4228 89 56.7807 88.7167 58.0194 88.2031L57.6364 87.2793C56.5169 87.7435 55.289 88 54 88V89ZM63.7031 82.5194C64.2167 81.2807 64.5 79.9228 64.5 78.5H63.5C63.5 79.789 63.2435 81.0169 62.7793 82.1364L63.7031 82.5194ZM64.5 78.5V72.8333H63.5V78.5H64.5ZM64.5 61.5V50.1667H63.5V61.5H64.5ZM64.5 38.8333V27.5H63.5V38.8333H64.5ZM64.5 16.1667V10.5H63.5V16.1667H64.5ZM64.5 10.5C64.5 9.21096 64.7565 7.98308 65.2207 6.86365L64.2969 6.48059C63.7833 7.71932 63.5 9.07721 63.5 10.5H64.5ZM70.3636 1.72067C71.4831 1.25646 72.711 1 74 1V0C72.5772 0 71.2193 0.283264 69.9806 0.796942L70.3636 1.72067ZM74 1H78.625V0H74V1ZM87.875 1H97.125V0H87.875V1ZM106.375 1H115.625V0H106.375V1ZM124.875 1H129.5V0H124.875V1Z" fill="#A3A3A3"/>
</svg>
