<svg width="230" height="161" viewBox="0 0 230 161" fill="none" xmlns="http://www.w3.org/2000/svg">
<path d="M11.4872 93.753C11.4872 93.753 12.3901 95.0395 11.5891 96.2458C10.7882 97.4521 9.77844 98.662 10.3804 99.267C10.9823 99.872 12.8076 100.626 12.594 101.909C12.3804 103.192 9.97747 105.761 11.4872 107.197C12.9969 108.633 15.5115 108.557 15.6135 110.142C15.7154 111.727 13.1863 113.01 13.8999 114.446C14.6135 115.882 18.7543 116.184 18.7543 117.165C18.7543 118.145 17.1426 119.206 18.4533 120.263C19.764 121.319 26.0845 124.078 26.968 122.945C27.8515 121.811 29.6962 118.677 28.4971 114.227C28.2933 113.48 26.8758 113.313 26.6767 112.256C26.4777 111.199 27.0797 109.311 26.0748 108.247C25.0699 107.183 21.8466 106.811 21.6475 105.98C21.4485 105.149 22.8514 103.112 21.4437 101.829C20.0359 100.546 16.7154 99.9485 16.7154 99.1103C16.7154 98.2721 17.7252 97.2225 16.3174 96.0891C14.9096 94.9557 11.4872 93.753 11.4872 93.753Z" fill="#506CA9"/>
<path d="M16.3028 102.653C18.3999 107.39 22.0699 113.83 23.5602 116.939C25.3709 120.714 26.9583 123.448 27.7496 127.223C28.5408 130.999 28.9971 156.288 28.9971 156.288" stroke="#263238" stroke-linecap="round" stroke-linejoin="round"/>
<path d="M12.0067 94.2086C12.0067 94.2086 13.7154 95.2654 15.2251 99.872C15.3222 100.167 15.4339 100.481 15.5552 100.812" stroke="#263238" stroke-linecap="round" stroke-linejoin="round"/>
<path d="M42.9294 102.357C42.7247 102.666 42.6118 103.005 42.5984 103.35C42.585 103.694 42.6714 104.037 42.8518 104.355C43.4925 105.32 44.3081 106.286 43.8226 106.771C43.3372 107.256 41.8809 107.864 42.0508 108.885C42.2207 109.905 44.143 111.968 42.9343 113.116C41.7255 114.264 39.7158 114.209 39.6333 115.474C39.5507 116.738 41.575 117.77 41.0022 118.918C40.4294 120.066 37.1187 120.31 37.1187 121.104C37.1187 121.899 38.4099 122.737 37.3614 123.583C36.3128 124.428 31.2642 126.626 30.5409 125.715C29.8176 124.803 28.3613 122.3 29.3176 118.739C29.4778 118.141 30.6137 118.01 30.7739 117.161C30.9341 116.312 30.4535 114.803 31.2594 113.958C32.0652 113.112 34.6575 112.81 34.7982 112.135C34.939 111.461 33.8274 109.839 34.9584 108.812C36.0895 107.784 38.7449 107.299 38.7449 106.625C38.7449 105.951 37.9391 105.113 39.0653 104.205C40.1915 103.298 42.9294 102.357 42.9294 102.357Z" fill="#506CA9"/>
<path d="M39.075 109.479C37.4002 113.28 34.4633 118.426 33.2497 120.911C31.7934 123.936 30.5409 126.123 29.9001 129.144C29.2593 132.165 28.905 152.403 28.905 152.403" stroke="#263238" stroke-linecap="round" stroke-linejoin="round"/>
<path d="M42.5265 102.722C42.5265 102.722 41.1575 103.567 39.9536 107.256C39.876 107.492 39.7837 107.744 39.6866 108.006" stroke="#263238" stroke-linecap="round" stroke-linejoin="round"/>
<path d="M15.2494 119.472C15.4198 119.729 15.5141 120.011 15.5258 120.299C15.5375 120.586 15.4664 120.872 15.3174 121.137C14.7785 121.946 14.1038 122.752 14.5067 123.156C14.9096 123.561 16.1232 124.067 15.9873 124.924C15.8513 125.78 14.2397 127.5 15.2494 128.459C16.2591 129.417 17.9388 129.366 18.0067 130.427C18.0747 131.487 16.3756 132.347 16.8611 133.306C17.3465 134.264 20.0893 134.468 20.0893 135.128C20.0893 135.788 19.0164 136.491 19.8902 137.198C20.764 137.905 24.9923 139.749 25.5991 138.991C26.2059 138.233 27.4243 136.138 26.6185 133.16C26.4874 132.661 25.5408 132.548 25.4049 131.841C25.269 131.134 25.6719 129.873 25.002 129.166C24.332 128.459 22.1767 128.207 22.0408 127.65C21.9048 127.092 22.8466 125.733 21.9048 124.873C20.9631 124.013 18.7446 123.612 18.7446 123.051C18.7446 122.489 19.4194 121.786 18.4776 121.028C17.5358 120.27 15.2494 119.472 15.2494 119.472Z" fill="#506CA9"/>
<path d="M18.4679 125.423C19.8708 128.597 22.3223 132.894 23.3223 134.971C24.5359 137.497 25.5894 139.345 26.1233 141.848C26.6573 144.352 26.9583 153.744 26.9583 153.744" stroke="#263238" stroke-linecap="round" stroke-linejoin="round"/>
<path d="M15.5844 119.774C15.5844 119.774 16.73 120.481 17.7349 123.561C17.8028 123.761 17.8756 123.969 17.9582 124.188" stroke="#263238" stroke-linecap="round" stroke-linejoin="round"/>
<path d="M49.8712 118.214C49.6259 118.436 49.4477 118.694 49.3488 118.972C49.2499 119.251 49.2327 119.542 49.2984 119.825C49.5751 120.703 49.9877 121.604 49.4683 121.928C48.9489 122.252 47.6236 122.537 47.4925 123.386C47.3615 124.235 48.41 126.192 47.1333 126.954C45.8566 127.715 44.2207 127.373 43.8469 128.411C43.4731 129.45 44.8178 130.554 44.0847 131.407C43.3517 132.26 40.5895 131.983 40.3856 132.624C40.1818 133.266 41.0216 134.133 39.9536 134.673C38.8856 135.212 34.2254 136.283 33.8516 135.434C33.4778 134.585 32.9487 132.344 34.6331 129.585C34.9196 129.122 35.8759 129.177 36.2205 128.51C36.5652 127.843 36.5604 126.549 37.4293 125.977C38.2982 125.405 40.473 125.525 40.774 125.008C41.075 124.49 40.5701 123.003 41.7449 122.329C42.9197 121.655 45.2061 121.644 45.376 121.101C45.5459 120.558 45.1042 119.76 46.2547 119.184C47.4052 118.608 49.8712 118.214 49.8712 118.214Z" fill="#506CA9"/>
<path d="M44.944 123.452C42.6139 126.301 38.9148 130.066 37.3128 131.918C35.3711 134.166 33.0264 135.606 32.4875 138.131C31.9487 140.657 31.6574 150.027 31.6574 150.027" stroke="#263238" stroke-linecap="round" stroke-linejoin="round"/>
<path d="M49.4732 118.451C49.4732 118.451 48.1431 118.943 46.2256 121.768C46.0994 121.95 45.9635 122.132 45.813 122.34" stroke="#263238" stroke-linecap="round" stroke-linejoin="round"/>
<path d="M26.002 159.134H33.4827C37.4196 157.611 40.2158 153.755 40.2158 149.232C40.2797 146.521 39.1765 143.866 37.0701 141.663H22.4145C20.315 143.868 19.2187 146.522 19.2883 149.232C19.2883 153.755 22.065 157.611 26.002 159.134Z" fill="white" stroke="#263238" stroke-linecap="round" stroke-linejoin="round"/>
<path d="M33.6186 159.134H26.002V159.972H33.6186V159.134Z" fill="white" stroke="#263238" stroke-linecap="round" stroke-linejoin="round"/>
<path d="M137.436 17.8396H18.1912V85.5968H137.436V17.8396Z" stroke="#263238" stroke-linecap="round" stroke-linejoin="round"/>
<path d="M134.649 19.6363H20.9727V83.8037H134.649V19.6363Z" stroke="#263238" stroke-linecap="round" stroke-linejoin="round"/>
<path d="M55.6237 29.0535C55.6237 29.0535 37.0506 28.044 35.4875 30.2307C33.9244 32.4173 35.036 72.3967 35.9341 72.8996C36.8322 73.4026 61.8908 73.7378 64.352 73.0673C66.8132 72.3967 63.4636 31.7395 63.4636 30.5623C63.4636 29.3852 57.6383 28.8822 57.6383 28.8822" stroke="#263238" stroke-width="2" stroke-linecap="round" stroke-linejoin="round"/>
<path d="M37.405 62.1449C37.4439 67.4148 37.5944 71.2779 37.9487 71.3835C39.0652 71.7188 62.784 73.2313 63.4539 71.5512C64.1238 69.8711 61.6626 31.9071 61.6626 31.9071" stroke="#263238" stroke-width="2" stroke-linecap="round" stroke-linejoin="round"/>
<path d="M60.7694 31.7394C60.7694 31.7394 38.172 31.0688 37.9536 31.9071C37.808 32.4428 37.3953 48.1831 37.4002 59.6266" stroke="#263238" stroke-width="2" stroke-linecap="round" stroke-linejoin="round"/>
<path d="M38.6187 34.7643H60.5461" stroke="#263238" stroke-width="2" stroke-linecap="round" stroke-linejoin="round"/>
<path d="M58.5315 34.0026C57.1917 35.0668 58.5315 34.0026 59.4296 32.4829C60.3277 30.9632 58.5315 32.7854 56.517 34.0026C54.5024 35.2199 55.6237 34.3087 56.2936 32.636C56.9636 30.9632 55.6237 32.636 53.8325 33.7001C52.0412 34.7643 52.9392 34.3087 53.6091 32.4829C54.2791 30.657 53.6091 32.4829 50.9246 33.7001C48.2401 34.9174 49.58 34.9137 50.9246 33.0915C52.2693 31.2693 50.0314 33.0915 47.5702 33.7001C45.109 34.3087 47.5702 33.7001 48.4634 32.0273C49.3567 30.3545 46.8955 32.4829 45.109 33.394C43.3226 34.3051 45.109 33.394 45.5556 32.3298C46.0022 31.2657 44.4343 32.636 42.643 34.0026C40.8517 35.3693 42.643 34.0026 42.8663 32.7854C43.0896 31.5681 40.8517 34.7643 40.8517 34.7643C40.8517 34.7643 41.5216 31.7212 41.075 32.4829C40.7771 32.9712 40.4005 33.4302 39.9536 33.8495" stroke="#506CA9" stroke-width="2" stroke-linecap="round" stroke-linejoin="round"/>
<path d="M50.7013 37.6179H39.7352V46.1859H50.7013V37.6179Z" stroke="#506CA9" stroke-width="2" stroke-linecap="round" stroke-linejoin="round"/>
<path d="M41.9731 37.6179L40.1866 39.1303L43.9877 38.1244L40.1866 40.8104L46.4489 37.7855L40.1866 42.8257L48.6867 38.1244L39.7352 44.3382L50.478 38.795L39.7352 46.1859L50.478 40.8104L42.8711 45.8506L50.7013 42.6581L45.7789 45.683L50.478 44.5058L49.58 45.683" stroke="#506CA9" stroke-width="2" stroke-linecap="round" stroke-linejoin="round"/>
<path d="M60.1529 63.825H51.7693V70.3776H60.1529V63.825Z" stroke="#506CA9" stroke-width="2" stroke-linecap="round" stroke-linejoin="round"/>
<path d="M53.478 63.825L52.1091 64.9802L55.0169 64.2113L52.1091 66.2667L56.9004 63.9525L52.1091 67.8083L58.6092 64.2113L51.7693 68.9636L59.9781 64.7251L51.7693 70.3776L59.9781 66.2667L54.1625 70.1189L60.1529 67.6771L56.3859 69.9913L59.9781 69.0912L59.2937 69.9913" stroke="#506CA9" stroke-width="2" stroke-linecap="round" stroke-linejoin="round"/>
<path d="M39.5118 49.3784H60.9927" stroke="#263238" stroke-width="2" stroke-linecap="round" stroke-linejoin="round"/>
<path d="M39.2886 50.8909L60.5462 51.0585" stroke="#263238" stroke-width="2" stroke-linecap="round" stroke-linejoin="round"/>
<path d="M52.9392 38.1245H59.8762" stroke="#263238" stroke-width="2" stroke-linecap="round" stroke-linejoin="round"/>
<path d="M52.9392 40.1398H59.8762" stroke="#263238" stroke-width="2" stroke-linecap="round" stroke-linejoin="round"/>
<path d="M52.9392 42.1552H59.8762" stroke="#263238" stroke-width="2" stroke-linecap="round" stroke-linejoin="round"/>
<path d="M52.9392 44.1705H59.8762" stroke="#263238" stroke-width="2" stroke-linecap="round" stroke-linejoin="round"/>
<path d="M60.5461 51.8967H39.7352V59.4553H60.5461V51.8967Z" stroke="#506CA9" stroke-width="2" stroke-linecap="round" stroke-linejoin="round"/>
<path d="M39.5119 53.4092L42.4197 52.0644L39.0652 55.9275L44.6576 52.0644L39.7352 57.6112L48.4634 51.8967L40.8565 58.6171L50.2547 52.0644L43.0944 58.6171L53.3858 51.8967L45.109 59.2876L55.4004 52.0644L47.5702 58.9523L58.0849 51.8967L50.0314 59.2876L60.5461 51.8967L52.9392 59.12L60.0995 54.4187L55.4004 58.7847L60.0995 56.434L59.1772 57.5565L58.3082 58.6171" stroke="#506CA9" stroke-width="2" stroke-linecap="round" stroke-linejoin="round"/>
<path d="M40.6332 61.4744H59.8762" stroke="#263238" stroke-width="2" stroke-linecap="round" stroke-linejoin="round"/>
<path d="M40.1866 63.3221H46.4488" stroke="#263238" stroke-width="2" stroke-linecap="round" stroke-linejoin="round"/>
<path d="M64.352 32.7489L79.7114 31.3312" stroke="#263238" stroke-width="2" stroke-linecap="round" stroke-linejoin="round"/>
<path d="M61.8908 40.978H77.9978" stroke="#263238" stroke-width="2" stroke-linecap="round" stroke-linejoin="round"/>
<path d="M36.3808 56.2664L29.4438 58.1141" stroke="#263238" stroke-width="2" stroke-linecap="round" stroke-linejoin="round"/>
<path d="M56.0703 71.5511C56.0703 71.5511 54.7305 76.759 63.9005 78.1111" stroke="#263238" stroke-width="2" stroke-linecap="round" stroke-linejoin="round"/>
<path d="M62.5607 76.7591L64.7986 78.2715L61.6627 78.9421" stroke="#263238" stroke-width="2" stroke-linecap="round" stroke-linejoin="round"/>
<path d="M75.9832 39.4656L79.5658 41.1457L76.4347 42.1552" stroke="#263238" stroke-width="2" stroke-linecap="round" stroke-linejoin="round"/>
<path d="M76.8036 30.8284L80.6046 31.1637L77.9201 33.0114" stroke="#263238" stroke-width="2" stroke-linecap="round" stroke-linejoin="round"/>
<path d="M30.337 56.4341L26.5359 58.7847L31.235 58.9524" stroke="#263238" stroke-width="2" stroke-linecap="round" stroke-linejoin="round"/>
<path d="M89.1873 39.4656H80.6823V46.186H89.1873V39.4656Z" fill="#506CA9"/>
<path d="M82.6969 40.978L87.6193 41.1457" stroke="#263238" stroke-width="2" stroke-linecap="round" stroke-linejoin="round"/>
<path d="M82.6969 42.3228L87.6193 42.4905" stroke="#263238" stroke-width="2" stroke-linecap="round" stroke-linejoin="round"/>
<path d="M82.6969 43.6676L87.6193 43.8352" stroke="#263238" stroke-width="2" stroke-linecap="round" stroke-linejoin="round"/>
<path d="M75.6621 48.52L67.2158 49.2683L68.2648 55.9423L76.7112 55.1941L75.6621 48.52Z" fill="#506CA9"/>
<path d="M69.4492 50.5956L74.3618 50.3296" stroke="#263238" stroke-width="2" stroke-linecap="round" stroke-linejoin="round"/>
<path d="M69.6579 51.9296L74.5706 51.6635" stroke="#263238" stroke-width="2" stroke-linecap="round" stroke-linejoin="round"/>
<path d="M69.8666 53.2634L74.7842 52.9974" stroke="#263238" stroke-width="2" stroke-linecap="round" stroke-linejoin="round"/>
<path d="M31.5879 59.9435L23.1415 60.6918L24.1906 67.3658L32.637 66.6175L31.5879 59.9435Z" fill="#506CA9"/>
<path d="M25.366 62.0173L30.2836 61.7513" stroke="#263238" stroke-width="2" stroke-linecap="round" stroke-linejoin="round"/>
<path d="M25.5748 63.3549L30.4923 63.0889" stroke="#263238" stroke-width="2" stroke-linecap="round" stroke-linejoin="round"/>
<path d="M25.7884 64.6886L30.7011 64.4226" stroke="#263238" stroke-width="2" stroke-linecap="round" stroke-linejoin="round"/>
<path d="M75.5346 73.9258L67.0773 73.2506L66.1308 79.9333L74.5881 80.6084L75.5346 73.9258Z" fill="#506CA9"/>
<path d="M68.8763 74.9114L73.7453 75.469" stroke="#263238" stroke-width="2" stroke-linecap="round" stroke-linejoin="round"/>
<path d="M68.687 76.2488L73.556 76.8064" stroke="#263238" stroke-width="2" stroke-linecap="round" stroke-linejoin="round"/>
<path d="M68.4977 77.5863L73.3667 78.1439" stroke="#263238" stroke-width="2" stroke-linecap="round" stroke-linejoin="round"/>
<path d="M137.431 85.5968H18.1912V87.8855H137.431V85.5968Z" fill="#263238" stroke="#263238" stroke-linecap="round" stroke-linejoin="round"/>
<path d="M185.281 102V97.7291H168.159V102C168.158 103.4 167.515 104.756 166.339 105.842L165.591 106.538H187.849L187.101 105.842C185.925 104.756 185.283 103.4 185.281 102Z" fill="#263238" stroke="#263238" stroke-linecap="round" stroke-linejoin="round"/>
<path d="M184.31 102V97.7291H167.188V102C167.187 103.4 166.544 104.756 165.368 105.842L164.62 106.538H186.878L186.13 105.842C184.955 104.756 184.312 103.4 184.31 102Z" fill="white" stroke="#263238" stroke-linecap="round" stroke-linejoin="round"/>
<path d="M184.446 98.9354H167.256V100.244H184.446V98.9354Z" fill="#263238"/>
<path d="M206.039 61.139H145.455C143.182 61.139 141.339 62.5227 141.339 64.2295V95.9834C141.339 97.6902 143.182 99.0739 145.455 99.0739H206.039C208.312 99.0739 210.155 97.6902 210.155 95.9834V64.2295C210.155 62.5227 208.312 61.139 206.039 61.139Z" fill="#263238" stroke="#263238" stroke-linecap="round" stroke-linejoin="round"/>
<path d="M207.888 61.139H147.305C145.031 61.139 143.188 62.5227 143.188 64.2295V95.9834C143.188 97.6902 145.031 99.0739 147.305 99.0739H207.888C210.162 99.0739 212.005 97.6902 212.005 95.9834V64.2295C212.005 62.5227 210.162 61.139 207.888 61.139Z" fill="#263238" stroke="#263238" stroke-linecap="round" stroke-linejoin="round"/>
<path d="M141.339 93.1772H210.16V95.9834C210.16 96.803 209.726 97.5891 208.954 98.1687C208.182 98.7483 207.135 99.0739 206.043 99.0739H145.46C144.368 99.0739 143.321 98.7483 142.549 98.1687C141.777 97.5891 141.343 96.803 141.343 95.9834V93.1772H141.339Z" fill="white" stroke="#263238" stroke-linecap="round" stroke-linejoin="round"/>
<path d="M206.694 63.5006H144.8V90.3017H206.694V63.5006Z" fill="white"/>
<path d="M166.339 66.2922H154.164C153.349 66.2922 152.688 66.7883 152.688 67.4001V86.2783C152.688 86.8902 153.349 87.3862 154.164 87.3862H166.339C167.154 87.3862 167.815 86.8902 167.815 86.2783V67.4001C167.815 66.7883 167.154 66.2922 166.339 66.2922Z" fill="#263238"/>
<path d="M166.548 68.0598H153.96V85.6114H166.548V68.0598Z" fill="#506CA9"/>
<path d="M183.14 68.355H171.747V69.2406H183.14V68.355Z" fill="#263238"/>
<path d="M177.252 70.2756H171.946V74.4047H177.252V70.2756Z" fill="#506CA9"/>
<path d="M182.354 82.9581H179.514V85.1703H182.354V82.9581Z" fill="#506CA9"/>
<path d="M182.883 77.3531H172.077V81.4822H182.883V77.3531Z" fill="#506CA9"/>
<path d="M178.232 70.5708H182.553" stroke="#263238" stroke-linecap="round" stroke-linejoin="round"/>
<path d="M178.232 71.6021H182.553" stroke="#263238" stroke-linecap="round" stroke-linejoin="round"/>
<path d="M178.232 72.6335H182.553" stroke="#263238" stroke-linecap="round" stroke-linejoin="round"/>
<path d="M178.232 73.6649H182.553" stroke="#263238" stroke-linecap="round" stroke-linejoin="round"/>
<path d="M172.271 76.0265H182.684" stroke="#263238" stroke-linecap="round" stroke-linejoin="round"/>
<path d="M172.271 82.5172H182.684" stroke="#263238" stroke-linecap="round" stroke-linejoin="round"/>
<path d="M184.126 67.473H170.766V86.0596H184.126V67.473Z" stroke="#263238" stroke-linecap="round" stroke-linejoin="round"/>
<path d="M200.432 67.473H187.859V74.4047H200.432V67.473Z" fill="#BFBFBF"/>
<path d="M200.432 67.473H187.859V68.949H200.432V67.473Z" fill="#263238"/>
<path d="M192.121 70.0205H188.834V72.4076H192.121V70.0205Z" stroke="#263238" stroke-linecap="round" stroke-linejoin="round"/>
<path d="M198.694 70.0205H195.407V72.4076H198.694V70.0205Z" stroke="#263238" stroke-linecap="round" stroke-linejoin="round"/>
<path d="M199.223 68.3113C199.223 68.3834 199.194 68.4538 199.141 68.5137C199.088 68.5737 199.012 68.6204 198.923 68.648C198.835 68.6756 198.737 68.6828 198.643 68.6687C198.549 68.6547 198.462 68.6199 198.394 68.569C198.326 68.518 198.28 68.4531 198.261 68.3824C198.243 68.3117 198.252 68.2384 198.289 68.1718C198.326 68.1052 198.388 68.0483 198.468 68.0083C198.548 67.9682 198.641 67.9468 198.737 67.9468C198.866 67.9468 198.99 67.9852 199.081 68.0536C199.172 68.1219 199.223 68.2146 199.223 68.3113Z" fill="white"/>
<path d="M196.466 68.6684C196.728 68.6684 196.941 68.5085 196.941 68.3113C196.941 68.114 196.728 67.9541 196.466 67.9541C196.203 67.9541 195.99 68.114 195.99 68.3113C195.99 68.5085 196.203 68.6684 196.466 68.6684Z" fill="white"/>
<path d="M199.427 78.1622H189.8V83.4721H199.427V78.1622Z" fill="#BFBFBF"/>
<path d="M199.427 78.1622H189.8V79.2919H199.427V78.1622Z" fill="#263238"/>
<path d="M198.504 78.8036C198.505 78.8585 198.485 78.9124 198.445 78.9585C198.405 79.0045 198.347 79.0406 198.28 79.0621C198.213 79.0836 198.138 79.0896 198.067 79.0793C197.995 79.0691 197.928 79.043 197.876 79.0044C197.824 78.9658 197.789 78.9165 197.774 78.8626C197.759 78.8088 197.766 78.7529 197.794 78.7021C197.822 78.6513 197.869 78.6078 197.93 78.5772C197.991 78.5466 198.062 78.5303 198.136 78.5303C198.233 78.5303 198.326 78.5589 198.395 78.6101C198.464 78.6613 198.503 78.7308 198.504 78.8036Z" fill="white"/>
<path d="M196.757 78.8036C196.757 78.8761 196.718 78.9456 196.65 78.9969C196.582 79.0481 196.489 79.0769 196.393 79.0769C196.296 79.0769 196.204 79.0481 196.135 78.9969C196.067 78.9456 196.029 78.8761 196.029 78.8036C196.029 78.7311 196.067 78.6616 196.135 78.6103C196.204 78.5591 196.296 78.5303 196.393 78.5303C196.489 78.5303 196.582 78.5591 196.65 78.6103C196.718 78.6616 196.757 78.7311 196.757 78.8036Z" fill="white"/>
<path d="M150.882 64.9073H146.839V88.7164H150.882V64.9073Z" fill="#BFBFBF"/>
<path d="M150.882 64.9073H146.839V66.0007H150.882V64.9073Z" fill="#263238"/>
<path d="M149.751 66.7296H147.81V68.4316H149.751V66.7296Z" stroke="#263238" stroke-linecap="round" stroke-linejoin="round"/>
<path d="M149.751 69.5212H147.81V71.2232H149.751V69.5212Z" stroke="#263238" stroke-linecap="round" stroke-linejoin="round"/>
<path d="M149.751 72.3165H147.81V74.0184H149.751V72.3165Z" stroke="#263238" stroke-linecap="round" stroke-linejoin="round"/>
<path d="M149.751 75.1118H147.81V76.8138H149.751V75.1118Z" stroke="#263238" stroke-linecap="round" stroke-linejoin="round"/>
<path d="M149.751 77.9034H147.81V79.6053H149.751V77.9034Z" stroke="#263238" stroke-linecap="round" stroke-linejoin="round"/>
<path d="M149.751 80.6987H147.81V82.4006H149.751V80.6987Z" stroke="#263238" stroke-linecap="round" stroke-linejoin="round"/>
<path d="M149.751 83.494H147.81V85.1959H149.751V83.494Z" stroke="#263238" stroke-linecap="round" stroke-linejoin="round"/>
<path d="M149.751 86.2855H147.81V87.9875H149.751V86.2855Z" stroke="#263238" stroke-linecap="round" stroke-linejoin="round"/>
<path d="M204.932 64.6631H153.475V65.6362H204.932V64.6631Z" fill="#BFBFBF"/>
<path d="M204.932 88.2317H153.475V89.2048H204.932V88.2317Z" fill="#BFBFBF"/>
<path d="M186.883 106.538H164.62V107.299H186.883V106.538Z" fill="#263238" stroke="#263238" stroke-linecap="round" stroke-linejoin="round"/>
<path d="M201.437 105.914H149.751V107.299H201.437V105.914Z" fill="white" stroke="#263238" stroke-linecap="round" stroke-linejoin="round"/>
<path d="M103.435 159.972H101.333L100.28 111.622H104.489L103.435 159.972Z" fill="white" stroke="#263238" stroke-linecap="round" stroke-linejoin="round"/>
<path d="M103.435 159.972H102.508L102.634 111.622H104.489L103.435 159.972Z" fill="#263238" stroke="#263238" stroke-linecap="round" stroke-linejoin="round"/>
<path d="M133.402 159.972H131.3L130.246 111.622H134.455L133.402 159.972Z" fill="white" stroke="#263238" stroke-linecap="round" stroke-linejoin="round"/>
<path d="M133.402 159.972H132.474L132.601 111.622H134.455L133.402 159.972Z" fill="#263238" stroke="#263238" stroke-linecap="round" stroke-linejoin="round"/>
<path d="M122.673 159.972H120.567L119.518 111.622H123.722L122.673 159.972Z" fill="#263238" stroke="#263238" stroke-linecap="round" stroke-linejoin="round"/>
<path d="M122.673 159.972H121.746L121.868 111.622H123.722L122.673 159.972Z" fill="#263238" stroke="#263238" stroke-linecap="round" stroke-linejoin="round"/>
<path d="M142.921 159.972H140.814L139.766 111.622H143.97L142.921 159.972Z" fill="#263238" stroke="#263238" stroke-linecap="round" stroke-linejoin="round"/>
<path d="M142.921 159.972H141.989L142.115 111.622H143.97L142.921 159.972Z" fill="#263238" stroke="#263238" stroke-linecap="round" stroke-linejoin="round"/>
<path d="M144.499 112.361H111.498V142.61H144.499V112.361Z" fill="#263238" stroke="#263238" stroke-linecap="round" stroke-linejoin="round"/>
<path d="M135.387 112.361H102.387V142.61H135.387V112.361Z" fill="white" stroke="#263238" stroke-linecap="round" stroke-linejoin="round"/>
<path d="M202.039 159.972H199.937L198.883 111.622H203.092L202.039 159.972Z" fill="white" stroke="#263238" stroke-linecap="round" stroke-linejoin="round"/>
<path d="M202.039 159.972H201.111L201.238 111.622H203.092L202.039 159.972Z" fill="#263238" stroke="#263238" stroke-linecap="round" stroke-linejoin="round"/>
<path d="M221.277 159.972H219.17L218.121 111.622H222.325L221.277 159.972Z" fill="#263238" stroke="#263238" stroke-linecap="round" stroke-linejoin="round"/>
<path d="M221.277 159.972H220.349L220.471 111.622H222.325L221.277 159.972Z" fill="#263238" stroke="#263238" stroke-linecap="round" stroke-linejoin="round"/>
<path d="M223.655 109.799H97.5079V113.127H223.655V109.799Z" fill="white" stroke="#263238" stroke-linecap="round" stroke-linejoin="round"/>
<path d="M223.655 109.799H97.5079V111.461H223.655V109.799Z" fill="#263238" stroke="#263238" stroke-linecap="round" stroke-linejoin="round"/>
<path d="M223.655 109.799H205.034V113.127H223.655V109.799Z" fill="#263238" stroke="#263238" stroke-linecap="round" stroke-linejoin="round"/>
<path d="M227.733 107.128H94.0855V110.455H227.733V107.128Z" fill="white" stroke="#263238" stroke-linecap="round" stroke-linejoin="round"/>
<path d="M227.733 107.128H209.111V110.455H227.733V107.128Z" fill="#263238" stroke="#263238" stroke-linecap="round" stroke-linejoin="round"/>
<path d="M133.368 115.266H104.484V125.835H133.368V115.266Z" fill="white" stroke="#263238" stroke-linecap="round" stroke-linejoin="round"/>
<path d="M122.081 119.457H115.77V121.097H122.081V119.457Z" fill="#263238" stroke="#263238" stroke-linecap="round" stroke-linejoin="round"/>
<path d="M133.368 128.568H104.484V139.137H133.368V128.568Z" fill="white" stroke="#263238" stroke-linecap="round" stroke-linejoin="round"/>
<path d="M122.081 132.759H115.77V134.399H122.081V132.759Z" fill="#263238" stroke="#263238" stroke-linecap="round" stroke-linejoin="round"/>
<path d="M177.829 131.717H186.461V118.685H177.829V131.717Z" fill="#263238"/>
<path d="M179.99 145.136H184.305V127.089H179.99V145.136Z" fill="#263238"/>
<path d="M183.902 143.747C183.902 143.747 187.529 146.838 196.849 147.913C201.771 148.481 206.898 149.188 211.344 150.956C214.204 152.093 219.898 154.582 219.898 157.425C219.902 157.842 219.77 158.254 219.513 158.624C219.256 158.995 218.882 159.312 218.423 159.548C217.965 159.784 217.436 159.933 216.884 159.98C216.331 160.027 215.772 159.972 215.254 159.819C214.737 159.665 214.277 159.419 213.916 159.102C213.555 158.784 213.303 158.405 213.183 157.998C213.062 157.59 213.077 157.167 213.225 156.764C213.374 156.362 213.651 155.993 214.034 155.69C211.705 153.06 208.096 151.222 203.98 150.57C196.893 149.411 191.718 149.884 181.747 144.906L183.902 143.747Z" fill="#263238"/>
<path d="M180.82 143.747C180.82 143.747 177.193 146.838 167.873 147.913C162.951 148.481 157.824 149.188 153.378 150.956C150.513 152.093 144.824 154.582 144.824 157.425C144.819 157.843 144.95 158.255 145.207 158.626C145.464 158.997 145.838 159.314 146.297 159.551C146.756 159.788 147.285 159.936 147.838 159.984C148.391 160.031 148.951 159.975 149.469 159.822C149.986 159.669 150.446 159.422 150.807 159.104C151.169 158.786 151.42 158.407 151.54 157.999C151.66 157.591 151.645 157.167 151.495 156.764C151.346 156.362 151.067 155.993 150.683 155.69C153.013 153.061 156.622 151.223 160.737 150.57C167.829 149.411 173.004 149.884 182.975 144.906L180.82 143.747Z" fill="#263238"/>
<path d="M180.674 159.972H183.931C184.108 159.972 184.252 159.865 184.252 159.732V155.431C184.252 155.298 184.108 155.191 183.931 155.191H180.674C180.497 155.191 180.354 155.298 180.354 155.431V159.732C180.354 159.865 180.497 159.972 180.674 159.972Z" fill="#263238"/>
<path d="M181.378 159.972H183.228V144.181H181.378V159.972Z" fill="#263238"/>
<path d="M203.048 81.0558C201.971 85.37 201.322 89.7384 201.107 94.1248C200.966 97.5068 200.893 100.404 200.825 102.959C200.621 110.9 200.505 115.303 198.839 116.487C198.626 116.596 197.247 117.234 194.364 117.416C193.558 117.467 190.995 117.493 187.509 117.507C176.456 117.482 164.839 117.413 164.655 117.413H163.98C163.951 117.413 163.926 117.453 163.902 117.471C157.261 117.442 155.552 117.413 155.431 117.413H154.756C153.363 118.32 154.193 119.486 155.407 119.494C156.315 119.494 172.135 119.599 182.956 119.599C184.868 119.599 186.669 119.599 188.267 119.599H195.577C201.242 119.599 205.937 119.57 207.228 119.49C211.233 119.242 213.029 118.225 213.218 118.109C215.888 116.33 215.99 112.427 216.238 103.003C216.301 100.451 216.379 97.5578 216.514 94.1904C216.733 89.7854 217.398 85.3994 218.505 81.0704L203.048 81.0558Z" fill="#263238"/>
<path d="M117.227 149.101L118.319 153.383C118.319 153.383 117.348 154.932 113.586 156.208C109.824 157.483 108.003 158.03 108.003 158.394C108.003 158.759 107.76 159.579 108.731 159.852C109.702 160.125 130.334 159.852 130.334 159.852C130.334 159.852 131.426 159.488 131.426 157.756C131.426 156.025 130.455 152.836 130.455 152.108C130.455 151.379 129.77 149.622 129.77 149.374C129.77 149.126 121.474 149.465 121.474 149.465C121.474 149.465 119.047 147.734 117.227 149.101Z" fill="white" stroke="#263238" stroke-linecap="round" stroke-linejoin="round"/>
<path d="M121.474 149.465C121.474 149.465 122.081 153.565 122.445 153.839C122.809 154.112 130.455 154.112 130.455 154.112" fill="white"/>
<path d="M121.474 149.465C121.474 149.465 122.081 153.565 122.445 153.839C122.809 154.112 130.455 154.112 130.455 154.112" stroke="#263238" stroke-linecap="round" stroke-linejoin="round"/>
<path d="M130.455 152.108L121.96 152.199" stroke="#263238" stroke-linecap="round" stroke-linejoin="round"/>
<path d="M108.003 159.123H131.183" stroke="#263238" stroke-linecap="round" stroke-linejoin="round"/>
<path d="M132.397 97.7436C132.397 97.7436 125.668 114.748 124.843 117.092C124.018 119.435 128.785 140.012 128.785 140.38C128.785 140.748 129.44 141.859 129.44 143.091C129.44 144.323 128.785 144.691 129.115 145.063C129.445 145.435 130.571 146.295 130.426 147.034C130.375 147.605 130.026 148.137 129.455 148.514C129.093 148.798 128.642 149.009 128.144 149.13H124.202C124.202 149.13 123.231 143.583 120.591 128.922C117.95 114.26 122.236 105.878 123.057 103.167C123.615 101.417 124.441 99.7223 125.518 98.1153L132.397 97.7436Z" fill="#263238" stroke="#263238" stroke-linecap="round" stroke-linejoin="round"/>
<path d="M111.644 149.101L112.736 153.383C112.736 153.383 111.765 154.932 108.003 156.208C104.241 157.483 102.42 158.03 102.42 158.394C102.42 158.759 102.178 159.579 103.149 159.852C104.12 160.125 124.751 159.852 124.751 159.852C124.751 159.852 125.843 159.488 125.843 157.756C125.843 156.025 124.872 152.836 124.872 152.108C124.872 151.379 124.188 149.622 124.188 149.374C124.188 149.126 115.892 149.465 115.892 149.465C115.892 149.465 113.464 147.734 111.644 149.101Z" fill="white" stroke="#263238" stroke-linecap="round" stroke-linejoin="round"/>
<path d="M115.892 149.465C115.892 149.465 116.498 153.565 116.862 153.839C117.227 154.112 124.872 154.112 124.872 154.112" fill="white"/>
<path d="M115.892 149.465C115.892 149.465 116.498 153.565 116.862 153.839C117.227 154.112 124.872 154.112 124.872 154.112" stroke="#263238" stroke-linecap="round" stroke-linejoin="round"/>
<path d="M124.872 152.108L116.377 152.199" stroke="#263238" stroke-linecap="round" stroke-linejoin="round"/>
<path d="M102.42 159.123H125.6" stroke="#263238" stroke-linecap="round" stroke-linejoin="round"/>
<path d="M105.314 97.7436C105.314 97.7436 105.149 108.465 105.969 113.025C106.79 117.584 109.911 128.182 110.401 133.973C110.892 139.764 111.717 142.479 111.717 142.479C111.717 142.479 110.552 143.208 110.552 143.937C110.552 144.666 111.207 144.666 111.037 145.788C110.867 146.911 110.217 147.264 110.712 147.76C111.207 148.255 111.532 149.236 113.173 149.484C114.814 149.731 122.528 149.607 124.168 149.36C125.809 149.112 126.63 147.88 126.63 146.896C126.63 145.912 126.144 145.172 126.144 144.061C126.144 142.949 126.965 141.969 126.965 141.229C126.965 140.489 126.634 140.117 126.634 139.378C126.634 138.638 124.503 126.812 124.503 124.348C124.503 121.884 124.338 113.502 124.829 111.407C125.319 109.311 127.785 99.3326 127.785 99.3326L105.314 97.7436Z" fill="#506CA9" stroke="#263238" stroke-linecap="round" stroke-linejoin="round"/>
<path d="M115.717 101.359C117.666 101.861 119.698 102.159 121.756 102.245C123.337 102.278 124.913 102.388 126.474 102.576L127.358 99.4784L115.717 101.359Z" fill="#263238" stroke="#263238" stroke-linecap="round" stroke-linejoin="round"/>
<path d="M113.916 101.891C113.916 101.891 114.722 118.823 116.343 124.468C117.964 130.113 120.1 139.385 119.566 140.595C119.032 141.805 118.222 144.626 118.222 144.626C118.222 144.626 121.178 144.225 121.178 145.431C121.178 146.637 116.882 147.45 117.955 148.055C119.027 148.66 120.095 149.323 120.095 149.323" stroke="#263238" stroke-linecap="round" stroke-linejoin="round"/>
<path d="M123.455 145.165C123.455 145.165 114.542 146.258 117.071 146.623C119.6 146.987 124.421 146.532 124.664 146.08C124.906 145.628 124.178 145.074 123.455 145.165Z" fill="#263238" stroke="#263238" stroke-linecap="round" stroke-linejoin="round"/>
<path d="M84.1144 28.0986L83.8668 35.6645L93.3718 35.6025L93.4543 28.0367L84.1144 28.0986Z" fill="#506CA9"/>
<path d="M94.9301 42.0604C94.9301 42.0604 92.8815 40.5225 91.9786 39.1084C91.0757 37.6944 89.7698 36.8343 89.7698 35.8503C89.7698 34.8663 90.3427 32.5703 90.0951 31.6665C89.8475 30.7627 90.0951 28.8384 90.9155 28.8384C91.106 28.8384 91.2941 28.8708 91.4655 28.9331C91.637 28.9954 91.7875 29.0861 91.9057 29.1983C92.0238 29.3105 92.1066 29.4413 92.1478 29.581C92.1891 29.7206 92.1876 29.8655 92.1437 30.0046C91.9786 30.6205 92.6291 32.7744 92.6291 32.7744C92.6291 32.7744 93.2845 28.6526 93.367 28.4011C93.4495 28.1496 94.5951 28.1533 95.0903 28.3391C95.5854 28.525 96.1534 28.4594 96.1534 29.2612C96.1534 30.0629 95.9058 30.9813 95.9058 31.1672C95.9058 31.3531 98.202 32.3371 98.2845 33.0732C98.367 33.8094 98.1195 35.5952 97.5466 36.3532C97.1548 36.8118 96.8293 37.3005 96.5758 37.811C96.4932 38.0552 98.7894 40.6391 98.7894 40.6391L94.9301 42.0604Z" fill="white" stroke="#263238" stroke-linecap="round" stroke-linejoin="round"/>
<path d="M98.7505 39.462L93.1679 42.6654C93.1679 42.6654 102.687 57.4509 103.018 57.9283C103.348 58.4057 110.236 61.6274 110.236 61.6274L120.576 52.0134C120.576 52.0134 107.61 48.9338 107.285 48.5658C106.959 48.1977 98.7505 39.462 98.7505 39.462Z" fill="#263238" stroke="#263238" stroke-linecap="round" stroke-linejoin="round"/>
<path d="M105.333 93.7967L104.848 99.5366C104.848 99.5366 111.158 101.541 117.955 101.45C124.751 101.359 133.853 99.3544 133.853 99.3544L135.188 93.7056C135.188 93.7056 118.804 94.7078 113.828 94.3433C108.853 93.9789 105.333 93.7967 105.333 93.7967Z" fill="white" stroke="#263238" stroke-linecap="round" stroke-linejoin="round"/>
<path d="M100.479 91.9745L100.115 93.6145C100.115 93.6145 105.255 95.721 116.62 96.5301C123.614 97.0141 130.666 96.4568 137.372 94.8901L137.494 92.0657C131.45 93.1472 125.26 93.6976 119.047 93.7057C112.797 93.5841 106.578 93.0044 100.479 91.9745Z" fill="#263238" stroke="#263238" stroke-linecap="round" stroke-linejoin="round"/>
<path d="M109.702 58.0813C109.702 58.0813 105.697 63.3658 104.362 67.4657C103.027 71.5657 100.357 90.5168 99.9933 91.6101C99.6292 92.7034 108.124 94.8901 113.707 94.9812C119.29 95.0723 131.79 95.2545 133.974 94.6167C136.159 93.979 138.222 93.0679 138.222 92.0656C138.222 91.0634 138.343 87.3279 138.343 84.3212C138.343 81.3146 137.13 65.4613 136.037 61.8169C134.945 58.1725 134.217 55.6214 133.853 55.1658C133.489 54.7103 130.819 52.5236 125.358 52.7969C121.095 53.0326 116.953 53.9656 113.222 55.5302C111.837 56.1993 110.641 57.0661 109.702 58.0813Z" fill="#263238" stroke="#263238" stroke-linecap="round" stroke-linejoin="round"/>
<path d="M73.0997 63.9707C73.0997 63.9707 71.1288 64.5867 70.9638 66.0663C70.7987 67.5459 74.4153 69.0219 76.5464 71.2414C78.6775 73.4608 81.4688 75.786 81.4688 75.786L85.7407 80.2212L90.8281 77.0178L77.6969 65.5816C77.6969 65.5816 78.3522 64.4883 77.5318 64.1019C76.8415 63.8608 76.0942 63.725 75.3333 63.7024C74.5725 63.6799 73.8132 63.7711 73.0997 63.9707Z" fill="white" stroke="#263238" stroke-linecap="round" stroke-linejoin="round"/>
<path d="M73.4298 67.422L88.2213 63.7229C88.2213 63.7229 89.1922 66.8061 93.634 70.0095C96.2972 71.9359 99.1517 73.7073 102.173 75.3085L88.8766 80.9756L73.4298 67.422Z" fill="white" stroke="#263238" stroke-linecap="round" stroke-linejoin="round"/>
<path d="M73.4298 67.422C74.0814 66.8731 74.4827 66.1824 74.5754 65.4504C74.6193 65.1122 74.4948 64.7738 74.2258 64.5005C73.9569 64.2273 73.5626 64.0385 73.1191 63.9707L87.7261 60.7673C87.7261 60.7673 90.5174 61.4962 88.2115 63.7229L73.4298 67.422Z" fill="white" stroke="#263238" stroke-linecap="round" stroke-linejoin="round"/>
<path d="M93.0029 79.1389C93.0029 79.1389 89.7213 78.7745 89.5562 78.0456C89.3912 77.3167 88.7358 75.7059 88.0999 75.0899C87.464 74.474 84.3232 73.2422 83.3377 72.3785C82.3523 71.5148 81.6969 70.2829 81.0416 70.4069C80.3862 70.5308 79.4008 71.0228 79.726 71.5002C80.0513 71.9776 81.5319 74.0914 81.5319 74.0914L81.862 74.9515C81.862 74.9515 78.9056 74.587 78.4153 74.4595C78.2723 74.429 78.1215 74.4253 77.9762 74.4488C77.8309 74.4723 77.6955 74.5222 77.5819 74.5942C77.4683 74.6662 77.3799 74.758 77.3247 74.8616C77.2694 74.9652 77.2488 75.0774 77.2648 75.1883C77.2648 75.8043 76.6095 75.8043 77.4299 76.1723C78.2503 76.5404 79.2357 77.0361 79.2357 77.0361C79.2357 77.0361 80.3862 79.0077 80.692 79.3758C80.9979 79.7439 83.6484 80.6113 84.1387 80.8554C84.629 81.0996 87.2601 81.7192 88.5708 81.9488C89.8815 82.1784 92.8378 83.0603 92.8378 83.0603L93.6582 80.2249L93.0029 79.1389Z" fill="white" stroke="#263238" stroke-linecap="round" stroke-linejoin="round"/>
<path d="M127.799 62.1339C127.799 62.1339 127.469 72.608 127.469 73.1C127.469 73.592 127.955 83.698 126.498 84.558C125.042 85.4181 117.799 86.5297 107.294 86.2855C96.7893 86.0413 92.1921 84.3139 92.1921 84.3139L93.0125 79.1388L113.037 78.0455C113.037 78.0455 110.906 66.5874 111.231 62.6441C111.556 58.7008 115.828 56.6053 115.828 56.6053" fill="#263238"/>
<path d="M127.799 62.1339C127.799 62.1339 127.469 72.608 127.469 73.1C127.469 73.592 127.955 83.698 126.498 84.558C125.042 85.4181 117.799 86.5297 107.294 86.2855C96.7893 86.0413 92.1921 84.3139 92.1921 84.3139L93.0125 79.1388L113.037 78.0455C113.037 78.0455 110.906 66.5874 111.231 62.6441C111.556 58.7008 115.828 56.6053 115.828 56.6053" stroke="#263238" stroke-linecap="round" stroke-linejoin="round"/>
<path d="M105.697 86.7448C105.697 86.7448 125.571 87.2659 126.62 85.4328C127.668 83.5996 127.664 65.5378 127.664 65.5378" stroke="#707070" stroke-linecap="round" stroke-linejoin="round"/>
<path d="M114.435 58.7301C114.435 58.7301 110.246 62.134 110.945 66.5838C111.644 71.0337 113.042 78.0273 113.042 78.0273L105.367 78.3663" stroke="#707070" stroke-linecap="round" stroke-linejoin="round"/>
<path d="M105.955 30.2744C105.955 30.2744 103.202 33.8495 103.731 34.3233C104.26 34.7971 103.838 35.6754 103.838 35.6754C103.838 35.6754 101.086 37.2644 101.299 37.8183C101.513 38.3723 103.726 39.8847 103.726 39.8847C103.726 39.8847 104.149 44.1742 104.697 44.5715C105.246 44.9687 108.823 45.4425 109.552 45.5226C109.954 45.5599 110.346 45.641 110.717 45.7632L112.828 54.3385L124.678 46.3208L122.775 42.5087C122.775 42.5087 121.717 37.4065 121.804 35.0449C121.892 32.6833 116.406 29.8006 113.129 29.0863C109.853 28.372 105.955 30.2744 105.955 30.2744Z" fill="white" stroke="#263238" stroke-linecap="round" stroke-linejoin="round"/>
<path d="M108.173 25.4272C108.173 25.4272 105.425 23.2843 102.144 24.9535C98.8621 26.6226 99.8185 29.3268 102.78 30.2743C105.741 31.2219 109.231 30.5112 108.071 31.4661C106.911 32.4209 106.615 34.4836 108.387 34.8809C110.158 35.2781 109.867 36.7869 109.867 37.432C109.867 38.077 111.323 37.9896 111.668 37.432C112.013 36.8744 112.828 35.3692 114.838 36.0034C116.848 36.6375 116.746 40.1325 116.003 41.0072C115.26 41.8818 114.523 41.8017 114.523 41.8017C114.523 41.8017 115.688 42.1187 114.945 43.1501L114.207 44.1851C114.207 44.1851 115.896 45.6939 120.129 45.1363C124.362 44.5787 125.314 43.1501 124.678 41.962C124.042 40.7739 122.561 40.6099 124.149 38.8642C125.736 37.1186 129.654 35.0485 129.333 31.0797C129.125 28.4594 120.872 25.9776 120.872 25.9776C120.872 25.9776 122.775 23.5941 118.445 22.0853C114.115 20.5765 109.139 22.3258 109.455 23.9075C109.77 25.4892 108.173 25.4272 108.173 25.4272Z" fill="#263238" stroke="#263238" stroke-linecap="round" stroke-linejoin="round"/>
<path d="M103.702 34.039C103.702 34.039 102.357 33.7693 102.246 34.2468C102.134 34.7242 102.246 37.104 102.246 37.104C102.719 37.325 103.283 37.4104 103.833 37.3445C104.576 37.1842 104.149 35.198 104.149 35.198" stroke="#263238" stroke-linecap="round" stroke-linejoin="round"/>
<path d="M112.091 36.7067L102.348 35.4968L102.357 35.0376L112.091 36.7067Z" fill="#263238" stroke="#263238" stroke-linecap="round" stroke-linejoin="round"/>
<path d="M126.057 43.8571C126.057 43.8571 120.659 46.7945 116.955 49.8121C113.251 52.8297 108.809 56.168 108.61 57.1994C108.411 58.2308 108.819 59.8197 110.935 58.1506C113.052 56.4814 116.964 54.262 119.93 54.1016C122.896 53.9413 127.44 55.0565 129.766 55.2933C132.091 55.5302 133.576 56.0222 134.421 55.0565C135.266 54.0907 133.047 51.9587 133.047 50.8435C133.047 49.7283 133.363 47.8259 132.304 46.4702C131.246 45.1145 127.853 43.4599 126.057 43.8571Z" fill="#757575" stroke="#263238" stroke-linecap="round" stroke-linejoin="round"/>
<path d="M132.969 47.7895C132.669 48.5613 132.259 49.3066 131.746 50.0126C131.13 50.7014 122.455 52.0061 122.455 52.0061C122.455 52.0061 129.601 51.7 130.926 51.7C132.251 51.7 133.785 52.6184 133.785 52.6184L133.071 51.1606C133.071 51.1606 133.368 48.4819 132.969 47.7895Z" fill="#263238" stroke="#263238" stroke-linecap="round" stroke-linejoin="round"/>
<path d="M7.15222 159.972H229" stroke="#263238" stroke-linecap="round" stroke-linejoin="round"/>
</svg>
