<svg width="1512" height="1106" viewBox="0 0 1512 1106" fill="none" xmlns="http://www.w3.org/2000/svg">
<path d="M722.954 943.581C724.13 987.702 702.912 1065.46 625.763 1089.04C548.615 1112.62 352.326 1111.9 260.062 1085.07C167.797 1058.24 76.4796 979.32 72.1758 928.055C67.8721 876.789 143.15 794.768 234.239 777.478C325.328 760.188 537.256 796.631 618.709 824.315C700.161 851.999 721.779 899.461 722.954 943.581C724.13 987.702 702.912 1065.46 625.763 1089.04L722.954 943.581Z" fill="#6A99AB" fill-opacity="0.2"/>
<path d="M330.824 92.5624C334.501 135.819 279.843 191.22 226.286 223.278C172.728 255.336 52.8775 306.304 9.47747 284.91C-33.9226 263.516 -39.9797 149.136 -34.1148 94.9116C-28.2498 40.6867 4.94392 -18.5763 44.6673 -40.439C84.3908 -62.3017 156.533 -58.4315 204.226 -36.2646C251.919 -14.0977 327.148 49.3053 330.824 92.5624C334.501 135.819 279.843 191.22 226.286 223.278L330.824 92.5624Z" fill="#6A99AB" fill-opacity="0.2"/>
<path d="M1511.97 236.268C1512.64 287.808 1500.71 378.637 1457.33 406.184C1413.96 433.732 1303.6 432.895 1251.73 401.553C1199.86 370.211 1148.52 278.017 1146.1 218.13C1143.68 158.243 1186 62.4289 1237.21 42.2313C1288.42 22.0337 1407.57 64.6049 1453.37 96.9443C1499.16 129.284 1511.31 184.728 1511.97 236.268C1512.64 287.808 1500.71 378.637 1457.33 406.184L1511.97 236.268Z" fill="#6A99AB" fill-opacity="0.2"/>
</svg>
