<svg width="73" height="72" viewBox="0 0 73 72" fill="none" xmlns="http://www.w3.org/2000/svg">
<path d="M52.96 34.0355L59.24 27.7555L44.24 12.7555L37.96 19.0355L21.4 2.51554C18.28 -0.604463 13.2 -0.604463 10.08 2.51554L2.48 10.1155C-0.64 13.2355 -0.64 18.3155 2.48 21.4355L19 37.9555L0 56.9955V71.9955H15L34.04 52.9555L50.56 69.4755C54.36 73.2755 59.48 71.8755 61.88 69.4755L69.48 61.8755C72.6 58.7555 72.6 53.6755 69.48 50.5555L52.96 34.0355ZM24.72 32.2755L8.16 15.7555L15.72 8.15554L20.8 13.2355L16.08 17.9955L21.72 23.6355L26.48 18.8755L32.28 24.6755L24.72 32.2755ZM56.24 63.8355L39.72 47.3155L47.32 39.7155L53.12 45.5155L48.36 50.2755L54 55.9155L58.76 51.1555L63.84 56.2355L56.24 63.8355Z" fill="white"/>
<path d="M70.84 16.1556C72.4 14.5956 72.4 12.0756 70.84 10.5156L61.48 1.15556C59.6 -0.724435 57 -0.00443542 55.84 1.15556L48.52 8.47556L63.52 23.4756L70.84 16.1556Z" fill="white"/>
</svg>
