<svg width="74" height="74" viewBox="0 0 74 74" fill="none" xmlns="http://www.w3.org/2000/svg">
<g clip-path="url(#clip0_650_292)">
<path fill-rule="evenodd" clip-rule="evenodd" d="M37.0002 6.16669V26.2084C37.0002 28.7627 39.0709 30.8334 41.6252 30.8334H61.6668V61.6667C61.6668 65.0725 58.906 67.8334 55.5002 67.8334H18.5002C15.0944 67.8334 12.3335 65.0725 12.3335 61.6667V12.3334C12.3335 8.9276 15.0944 6.16669 18.5002 6.16669H37.0002ZM41.9057 42.1094L34.2748 49.7401L32.0946 47.5598C30.8905 46.3558 28.9383 46.3558 27.7342 47.5598C26.5301 48.7639 26.5301 50.7162 27.7342 51.9203L31.8766 56.0627C33.2012 57.3873 35.3487 57.3873 36.6733 56.0627L46.2662 46.4699C47.4705 45.2655 47.4705 43.3135 46.2662 42.1094C45.0622 40.9051 43.1098 40.9051 41.9057 42.1094ZM43.1668 6.30038C44.3259 6.54578 45.3995 7.12224 46.2502 7.97287L59.8606 21.5834C60.7113 22.434 61.2879 23.5075 61.533 24.6667H43.1668V6.30038Z" fill="white"/>
</g>
<defs>
<clipPath id="clip0_650_292">
<rect width="74" height="74" fill="white"/>
</clipPath>
</defs>
</svg>
