<svg width="1469" height="813" viewBox="0 0 1469 813" fill="none" xmlns="http://www.w3.org/2000/svg">
<path d="M1054 332V537.5C1054 548.546 1045.05 557.5 1034 557.5H837.5" stroke="#5C86A7" stroke-opacity="0.5" stroke-width="3"/>
<path d="M1184 360V617C1184 628.046 1175.05 637 1164 637H520" stroke="#5C86A7" stroke-opacity="0.5" stroke-width="3"/>
<path d="M1314 346V726C1314 737.046 1305.05 746 1294 746H159" stroke="#5C86A7" stroke-opacity="0.5" stroke-width="3"/>
<path d="M1250 346V684C1250 695.046 1241.05 704 1230 704H673" stroke="#5C86A7" stroke-opacity="0.5" stroke-width="3"/>
<path d="M1050 125C1050 194.036 1105.96 250 1175 250C1244.04 250 1300 194.036 1300 125C1300 55.9644 1244.04 0 1175 0C1105.96 0 1050 55.9644 1050 125Z" fill="#A6C4CF"/>
<path d="M952 141C952 182.421 985.579 216 1027 216C1068.42 216 1102 182.421 1102 141C1102 99.5786 1068.42 66 1027 66C985.579 66 952 99.5786 952 141Z" fill="#A6C4CF"/>
<path d="M821 244C821 302.542 868.458 350 927 350C985.542 350 1033 302.542 1033 244C1033 185.458 985.542 138 927 138C868.458 138 821 185.458 821 244Z" fill="#A6C4CF"/>
<path d="M1178 250C1178 305.228 1222.77 350 1278 350C1333.23 350 1378 305.228 1378 250C1378 194.772 1333.23 150 1278 150C1222.77 150 1178 194.772 1178 250Z" fill="#A6C4CF"/>
<path d="M1280 187H918V350H1280V187Z" fill="#A6C4CF"/>
<path d="M1141 140C1141 209.036 1196.96 265 1266 265C1335.04 265 1391 209.036 1391 140C1391 70.9644 1335.04 15 1266 15C1196.96 15 1141 70.9644 1141 140Z" fill="#5C86A7"/>
<path d="M1043 156C1043 197.421 1076.58 231 1118 231C1159.42 231 1193 197.421 1193 156C1193 114.579 1159.42 81 1118 81C1076.58 81 1043 114.579 1043 156Z" fill="#5C86A7"/>
<path d="M912 259C912 317.542 959.458 365 1018 365C1076.54 365 1124 317.542 1124 259C1124 200.458 1076.54 153 1018 153C959.458 153 912 200.458 912 259Z" fill="#5C86A7"/>
<path d="M1269 265C1269 320.228 1313.77 365 1369 365C1424.23 365 1469 320.228 1469 265C1469 209.772 1424.23 165 1369 165C1313.77 165 1269 209.772 1269 265Z" fill="#5C86A7"/>
<path d="M1371 202H1009V365H1371V202Z" fill="#5C86A7"/>
<path d="M702.531 511.094C693.225 511.094 685.656 518.662 685.656 527.969V582.812C685.656 589.031 689.073 594.411 694.094 597.339V582.812V549.062V527.969C694.094 523.315 697.878 519.531 702.531 519.531H778.469C783.122 519.531 786.906 523.315 786.906 527.969V549.062V582.812V597.339C791.927 594.411 795.344 589.031 795.344 582.812V527.969C795.344 518.662 787.775 511.094 778.469 511.094H702.531ZM772.141 536.406C768.647 536.406 765.812 539.241 765.812 542.734V601.797C765.812 605.29 768.647 608.125 772.141 608.125C775.634 608.125 778.469 605.29 778.469 601.797V542.734C778.469 539.241 775.634 536.406 772.141 536.406ZM729.953 549.062C726.46 549.062 723.625 551.897 723.625 555.391V601.797C723.625 605.29 726.46 608.125 729.953 608.125C733.446 608.125 736.281 605.29 736.281 601.797V555.391C736.281 551.897 733.446 549.062 729.953 549.062ZM751.047 561.719C747.554 561.719 744.719 564.554 744.719 568.047V601.797C744.719 605.29 747.554 608.125 751.047 608.125C754.54 608.125 757.375 605.29 757.375 601.797V568.047C757.375 564.554 754.54 561.719 751.047 561.719ZM708.859 570.156C705.366 570.156 702.531 572.991 702.531 576.484V601.797C702.531 605.29 705.366 608.125 708.859 608.125C712.353 608.125 715.188 605.29 715.188 601.797V576.484C715.188 572.991 712.353 570.156 708.859 570.156Z" fill="#C3C700" fill-opacity="0.6"/>
<circle cx="838" cy="558" r="20" fill="#5C86A7"/>
<path d="M1124 332V585C1124 596.046 1115.05 605 1104 605H971" stroke="#5C86A7" stroke-opacity="0.5" stroke-width="3"/>
<circle cx="970" cy="605" r="20" fill="black"/>
<circle cx="518" cy="637" r="20" fill="#5C86A7"/>
<circle cx="673" cy="704" r="20" fill="black"/>
<circle cx="155" cy="746" r="20" fill="#5C86A7"/>
<path d="M392.416 673.489C355.125 673.489 323.432 654.798 323.432 632.407C323.432 610.017 351.396 591.391 388.688 591.391C435.785 591.391 457.611 609.521 457.611 631.911C457.611 654.302 433.553 673.489 392.416 673.489ZM377.5 569C329.021 569 288 595.122 288 628.708C288 660.429 328.773 686.762 377.252 686.762C425.731 686.762 467 662.294 467 628.708C467 595.122 425.979 569 377.5 569Z" fill="url(#paint0_linear_0_1)" fill-opacity="0.6"/>
<path d="M362.08 605.265V704H391.897V665.604C399.351 665.604 403.791 663.975 408.668 672.917C416.123 685.716 425.44 704 425.44 704H460.848C460.848 704 438.485 667.432 436.622 665.604C433.185 661.946 429.167 661.946 423.577 660.118C434.758 658.29 445.182 653.647 448.806 643.7C451.974 634.558 451.602 622.929 444.811 615.131C438.93 608.96 432.895 605.265 417.986 605.265H362.08ZM391.897 625.828H411.464C416.104 625.828 419.85 630.399 419.85 634.97C419.85 639.541 416.123 644.112 411.464 644.112H391.897V625.828Z" fill="#2165B6" fill-opacity="0.6"/>
<path d="M117.841 739.023C117.638 737.105 117.337 734.886 116.73 732.467C116.122 730.048 115.115 727.424 113.805 724.598C112.393 721.875 110.677 718.947 108.357 716.225C107.449 715.114 106.439 714.107 105.432 712.996C107.046 706.64 103.514 701.091 103.514 701.091C97.3601 700.688 93.5266 703.009 92.1148 704.016C91.9123 703.914 91.6113 703.813 91.4088 703.712C90.402 703.313 89.291 702.908 88.1829 702.505C87.072 702.202 85.9638 701.799 84.8529 701.597C83.742 701.293 82.5326 701.093 81.3232 700.891C81.1207 700.891 80.921 700.79 80.7185 700.79C78.0945 692.316 70.4276 688.685 70.4276 688.685C61.6498 694.335 59.937 701.901 59.937 701.901C59.937 701.901 59.937 702.103 59.8357 702.303C59.3323 702.404 58.9273 702.607 58.4238 702.705C57.8191 702.908 57.1132 703.107 56.5057 703.411C55.901 703.715 55.1951 703.914 54.5876 704.218C53.277 704.823 52.0648 705.428 50.7541 706.136C49.5448 706.842 48.3326 707.548 47.2245 708.355C47.022 708.254 46.9207 708.153 46.9207 708.153C35.1166 703.613 24.626 709.061 24.626 709.061C23.7176 721.673 29.3679 729.539 30.476 730.954C30.1723 731.761 29.9726 732.467 29.6688 733.274C28.7604 736.098 28.1557 739.026 27.7507 742.052C27.6495 742.454 27.6495 742.96 27.5482 743.363C16.6526 748.709 13.4238 759.807 13.4238 759.807C22.5026 770.298 33.1957 770.905 33.1957 770.905C34.5063 773.327 36.1207 775.647 37.8363 777.765C38.5423 778.673 39.3495 779.481 40.1566 780.389C36.8266 789.873 40.6601 797.841 40.6601 797.841C50.8498 798.243 57.507 793.403 58.9188 792.292C59.9285 792.595 60.9354 792.896 61.9451 793.2C65.0726 794.007 68.3013 794.511 71.4288 794.612C72.236 794.612 73.0432 794.612 73.8504 794.612H74.2526H74.5563H75.0598H75.5632C80.3051 801.472 88.7791 802.38 88.7791 802.38C94.7304 796.024 95.1354 789.87 95.1354 788.458C95.1354 788.458 95.1354 788.458 95.1354 788.357C95.1354 788.256 95.1354 788.154 95.1354 788.154C95.1354 788.053 95.1354 787.952 95.1354 787.851C96.3448 786.942 97.557 786.034 98.7663 785.027C101.188 782.909 103.204 780.386 105.021 777.762C105.224 777.56 105.325 777.259 105.525 777.056C112.283 777.458 117.025 772.821 117.025 772.821C115.914 765.758 111.881 762.33 111.074 761.723C111.074 761.723 111.074 761.723 110.973 761.621L110.871 761.52L110.77 761.419C110.77 761.017 110.871 760.612 110.871 760.108C110.973 759.301 110.973 758.595 110.973 757.788V757.183V756.879V756.778C110.973 756.576 110.973 756.677 110.973 756.576V756.072V755.468C110.973 755.265 110.973 755.065 110.973 754.863C110.973 754.66 110.973 754.461 110.871 754.258L110.77 753.653L110.669 753.049C110.568 752.242 110.365 751.536 110.267 750.728C109.561 747.702 108.349 744.777 106.835 742.254C105.221 739.63 103.306 737.411 101.084 735.395C98.8648 733.477 96.4432 731.865 93.8191 730.754C91.1951 729.545 88.5738 728.836 85.8485 728.535C84.5379 728.333 83.126 728.333 81.8126 728.333H81.3091H81.2079H81.0054H80.8029H80.2995C80.097 728.333 79.8973 728.333 79.796 728.333C79.0901 728.434 78.3841 728.535 77.7794 728.636C75.057 729.14 72.5341 730.149 70.3151 731.46C68.096 732.771 66.1779 734.486 64.5635 736.404C62.9491 738.323 61.7398 740.339 60.9326 742.558C60.1254 744.676 59.622 746.996 59.5207 749.114C59.5207 749.618 59.5207 750.225 59.5207 750.728C59.5207 750.83 59.5207 751.032 59.5207 751.131V751.533C59.5207 751.837 59.5207 752.036 59.6219 752.34C59.7232 753.451 59.9257 754.458 60.2266 755.468C60.8313 757.484 61.7398 759.301 62.9491 760.915C64.1585 762.53 65.472 763.739 66.9851 764.749C68.4982 765.758 69.9832 766.566 71.6257 766.968C77.0791 768.309 83.2273 765.758 83.6295 765.455C83.7307 765.353 83.9332 765.252 84.0316 765.151C84.5351 764.749 84.6363 764.04 84.2341 763.537C83.832 763.134 83.2244 763.033 82.721 763.233C81.8379 763.683 80.9126 764.285 78.6851 764.442C72.8182 764.864 70.5148 762.122 69.6063 761.213C68.5966 760.305 67.7894 759.295 67.0835 758.086C66.3776 756.877 65.9726 755.563 65.7729 754.253C65.6716 753.547 65.5704 752.841 65.6716 752.135C65.6716 751.932 65.6716 751.733 65.6716 751.53C65.6716 751.631 65.6716 751.53 65.6716 751.53V751.429V751.328C65.6716 751.226 65.6716 751.125 65.6716 751.024C65.6716 750.622 65.7729 750.318 65.8741 749.913C66.3776 746.887 67.8907 743.962 70.211 741.743C70.8157 741.138 71.4204 740.632 72.1291 740.229C72.8351 739.726 73.541 739.321 74.247 739.02C74.9529 738.716 75.7601 738.415 76.5673 738.213C77.3745 738.01 78.1816 737.811 78.9888 737.811C79.391 737.811 79.796 737.709 80.1982 737.709C80.2995 737.709 80.4007 737.709 80.5019 737.709H80.8057H81.0082C81.1095 737.709 81.0082 737.709 81.0082 737.709H81.1095H81.4132C82.3216 737.811 83.2301 737.912 84.0373 738.112C85.7529 738.514 87.4685 739.121 89.0801 740.03C92.3088 741.847 95.0313 744.569 96.6457 747.899C97.4529 749.513 98.0576 751.33 98.3613 753.246C98.4626 753.749 98.4626 754.154 98.5638 754.658V754.961V755.265C98.5638 755.366 98.5638 755.468 98.5638 755.569C98.5638 755.67 98.5638 755.771 98.5638 755.873V756.176V756.48C98.5638 756.683 98.5638 757.085 98.5638 757.287C98.5638 757.791 98.4626 758.297 98.4626 758.8C98.3613 759.304 98.3613 759.81 98.2601 760.313C98.1588 760.817 98.0576 761.323 97.9563 761.827C97.7538 762.836 97.3516 763.745 97.0479 764.752C96.342 766.67 95.3323 768.484 94.1229 770.098C91.7013 773.428 88.3713 776.151 84.6391 777.866C82.721 778.673 80.8057 779.379 78.7891 779.683C77.7795 779.886 76.7726 779.987 75.7629 779.987H75.5716H75.3691H75.0654H74.562H74.2582C74.3595 779.987 74.2582 779.987 74.2582 779.987H74.157C73.6535 779.987 73.046 779.987 72.5426 779.886C70.3235 779.683 68.2057 779.281 66.0851 778.676C63.9673 778.072 61.9479 777.264 60.0326 776.255C56.1991 774.238 52.7679 771.31 50.0454 767.983C48.7348 766.268 47.5226 764.453 46.5157 762.535C45.5088 760.617 44.8001 758.601 44.1954 756.584C43.5907 754.568 43.287 752.447 43.1857 750.329V749.927V749.826V749.724V749.522V749.213V749.111V749.01V748.808V748.304V748.203V748.003C43.1857 747.699 43.1857 747.5 43.1857 747.196C43.1857 746.186 43.287 745.078 43.4895 743.967C43.5907 742.856 43.7932 741.849 43.9929 740.738C44.1926 739.628 44.4963 738.621 44.8001 737.51C45.4048 735.392 46.1107 733.373 47.0191 731.457C48.836 727.624 51.1563 724.193 53.8788 721.47C54.5848 720.764 55.2907 720.159 56.0979 719.552C56.4016 719.248 57.1076 718.643 57.9148 718.14C58.722 717.637 59.5291 717.13 60.4376 716.728C60.8398 716.526 61.2448 716.326 61.7482 716.123C61.9507 716.022 62.1504 715.921 62.4541 715.82C62.6566 715.718 62.8563 715.617 63.1601 715.516C64.0685 715.114 64.977 714.81 65.8826 714.506C66.0851 714.405 66.386 714.405 66.5885 714.304C66.791 714.203 67.0919 714.203 67.2945 714.101C67.7979 714 68.2029 713.899 68.7063 713.699C68.9088 713.598 69.2098 713.598 69.4123 713.497C69.6148 713.497 69.9157 713.395 70.1182 713.395C70.3207 713.395 70.6216 713.294 70.8241 713.294L71.2263 713.193L71.6285 713.092C71.831 713.092 72.132 712.99 72.3344 712.99C72.6382 712.99 72.8379 712.889 73.1416 712.889C73.3441 712.889 73.7463 712.788 73.9488 712.788C74.1513 712.788 74.2526 712.788 74.4523 712.687H74.756H74.9585H75.161C75.4648 712.687 75.6645 712.687 75.9682 712.585H76.3704C76.3704 712.585 76.4716 712.585 76.3704 712.585H76.4716H76.6741C76.8766 712.585 77.1776 712.585 77.3801 712.585C78.2885 712.585 79.197 712.585 80.1026 712.585C81.9195 712.687 83.7335 712.889 85.4491 713.19C88.8804 713.795 92.2076 714.906 95.1326 716.419C98.0576 717.831 100.783 719.648 103.002 721.563C103.103 721.664 103.306 721.765 103.404 721.965C103.505 722.066 103.708 722.168 103.806 722.367C104.11 722.57 104.31 722.871 104.614 723.073C104.917 723.276 105.117 723.577 105.421 723.779C105.623 724.083 105.924 724.283 106.127 724.586C107.136 725.596 108.045 726.704 108.849 727.714C110.464 729.832 111.774 731.949 112.784 733.969C112.885 734.07 112.885 734.171 112.986 734.371C113.088 734.472 113.088 734.573 113.189 734.773C113.29 734.976 113.391 735.277 113.591 735.479C113.692 735.682 113.794 735.983 113.895 736.185C113.996 736.388 114.097 736.688 114.199 736.891C114.601 737.799 114.904 738.708 115.208 739.613C115.712 741.025 116.015 742.238 116.319 743.244C116.42 743.647 116.823 743.95 117.228 743.95C117.731 743.95 118.035 743.548 118.035 743.042C117.942 741.849 117.942 740.536 117.841 739.023Z" fill="url(#paint1_linear_0_1)" fill-opacity="0.6"/>
<defs>
<linearGradient id="paint0_linear_0_1" x1="355.971" y1="589.018" x2="411.058" y2="682.486" gradientUnits="userSpaceOnUse">
<stop stop-color="#C9CBCE"/>
<stop offset="1" stop-color="#7B7A81"/>
</linearGradient>
<linearGradient id="paint1_linear_0_1" x1="65.7363" y1="664.317" x2="65.7363" y2="868.893" gradientUnits="userSpaceOnUse">
<stop stop-color="#FED100"/>
<stop offset="0.033" stop-color="#FCCA00"/>
<stop offset="0.221" stop-color="#F3A400"/>
<stop offset="0.408" stop-color="#EC8601"/>
<stop offset="0.592" stop-color="#E77101"/>
<stop offset="0.771" stop-color="#E46401"/>
<stop offset="0.941" stop-color="#E36001"/>
</linearGradient>
</defs>
</svg>
